<svg height="18" viewBox="0 0 18 18" width="18" xmlns="http://www.w3.org/2000/svg"><path d="m0 0h18v18h-18z" fill="#ff13dc" opacity="0"/><g fill="#6e6e6e"><path d="m10.9395 10.172a.5.5 0 0 1 -.707 0l-2.4045-2.4045a.5.5 0 0 1 0-.707l4.0605-4.0605h-10.3885a.5.5 0 0 0 -.5.5v13a.5.5 0 0 0 .5.5h13a.5.5 0 0 0 .5-.5v-10.3885z"/><path d="m11.8535 1a.25.25 0 0 0 -.1765.427l1.741 1.741-4.068 4.0695a.25.25 0 0 0 0 .3535l1.059 1.059a.25.25 0 0 0 .3535 0l4.0695-4.0695 1.741 1.7415a.25.25 0 0 0 .427-.1755v-5.1465z"/></g></svg>