<svg width="1380" height="1260" xmlns="http://www.w3.org/2000/svg" xmlns:xlink="http://www.w3.org/1999/xlink" overflow="hidden"><defs><clipPath id="clip0"><rect x="2589" y="646" width="1380" height="1260"/></clipPath><clipPath id="clip1"><rect x="3389" y="1673" width="356" height="233"/></clipPath><clipPath id="clip2"><rect x="3389" y="1673" width="356" height="233"/></clipPath><clipPath id="clip3"><rect x="3389" y="1673" width="356" height="233"/></clipPath></defs><g clip-path="url(#clip0)" transform="translate(-2589 -646)"><path d="M3169.5 708.5 3818.09 708.5" stroke="#9B9BAE" stroke-width="6.875" stroke-linecap="butt" stroke-linejoin="miter" stroke-miterlimit="8" stroke-opacity="1" fill="none" fill-rule="evenodd"/><path d="M3297.5 850.5 3817.82 850.5" stroke="#9B9BAE" stroke-width="6.875" stroke-linecap="butt" stroke-linejoin="miter" stroke-miterlimit="8" stroke-opacity="1" fill="none" fill-rule="evenodd"/><path d="M3416.5 982.5 3817.86 982.5" stroke="#9B9BAE" stroke-width="6.875" stroke-linecap="butt" stroke-linejoin="miter" stroke-miterlimit="8" stroke-opacity="1" fill="none" fill-rule="evenodd"/><path d="M3551.5 1128.5 3817.99 1128.5" stroke="#9B9BAE" stroke-width="6.875" stroke-linecap="butt" stroke-linejoin="miter" stroke-miterlimit="8" stroke-opacity="1" fill="none" fill-rule="evenodd"/><path d="M3670.5 1272.5 3818.01 1272.5" stroke="#9B9BAE" stroke-width="6.875" stroke-linecap="butt" stroke-linejoin="miter" stroke-miterlimit="8" stroke-opacity="1" fill="none" fill-rule="evenodd"/><g clip-path="url(#clip1)"><g clip-path="url(#clip2)"><g clip-path="url(#clip3)"><path d="M36.1319 203.253C34.2236 203.254 32.6631 201.732 32.6154 199.824L32.6154 16.1758C32.6635 7.26215 39.8775 0.0480535 48.7912 2.93438e-07L297.846 0C306.78-1.95204e-14 314.022 7.24216 314.022 16.1758L314.022 199.824C313.975 201.698 312.468 203.206 310.593 203.253ZM48.7912 6.94506C43.936 6.93898 39.9951 10.87 39.989 15.7253 39.9888 15.8755 39.9925 16.0258 40 16.1758L40 195.429C40 195.914 40.3936 196.308 40.8791 196.308L306.198 196.308C306.683 196.308 307.077 195.914 307.077 195.429L307.077 16.1758C307.077 11.3206 303.141 7.38462 298.286 7.38462Z" fill="#9B9BAE" fill-rule="nonzero" fill-opacity="1" transform="matrix(1.02012 0 0 1 3389.7 1673)"/><path d="M28.3956 232C12.7131 232 1.67679e-07 219.287 1.67679e-07 203.604L0 199.824C6.83214e-15 197.882 1.57438 196.308 3.51648 196.308L342.857 196.308C344.751 196.307 346.287 197.842 346.287 199.735 346.287 199.764 346.287 199.794 346.286 199.824L346.286 203.604C346.286 219.287 333.573 232 317.89 232ZM7.82418 203.253C7.62452 203.186 7.40845 203.186 7.20879 203.253 7.12052 203.479 7.12052 203.73 7.20879 203.956 7.48871 215.524 16.8258 224.823 28.3956 225.055L318.506 225.055C330.079 224.969 339.533 215.786 339.956 204.22 340.044 203.994 340.044 203.742 339.956 203.517 339.759 203.434 339.538 203.434 339.341 203.517Z" fill="#9B9BAE" fill-rule="nonzero" fill-opacity="1" transform="matrix(1.02012 0 0 1 3389.7 1673)"/></g></g></g><text fill="#2C2C2C" fill-opacity="1" font-family="Calibri,Calibri_MSFontService,sans-serif" font-style="normal" font-variant="normal" font-weight="400" font-stretch="normal" font-size="37" text-anchor="start" direction="ltr" writing-mode="lr-tb" unicode-bidi="normal" text-decoration="none" transform="matrix(1 0 0 1 3528 1760)">Local<tspan fill="#2C2C2C" fill-opacity="1" font-family="Calibri,Calibri_MSFontService,sans-serif" font-style="normal" font-variant="normal" font-weight="400" font-stretch="normal" font-size="28" text-anchor="start" direction="ltr" writing-mode="lr-tb" unicode-bidi="normal" text-decoration="none" x="-37.2393" y="35">Development </tspan><tspan fill="#2C2C2C" fill-opacity="1" font-family="Calibri,Calibri_MSFontService,sans-serif" font-style="normal" font-variant="normal" font-weight="400" font-stretch="normal" font-size="28" text-anchor="start" direction="ltr" writing-mode="lr-tb" unicode-bidi="normal" text-decoration="none" x="-33.8018" y="68">environment</tspan></text><rect x="2803.5" y="651.5" width="362" height="112" stroke="#60607D" stroke-width="6.875" stroke-linecap="butt" stroke-linejoin="miter" stroke-miterlimit="8" stroke-opacity="1" fill="none"/><text fill="#2C2C2C" fill-opacity="1" font-family="Calibri,Calibri_MSFontService,sans-serif" font-style="normal" font-variant="normal" font-weight="400" font-stretch="normal" font-size="28" text-anchor="start" direction="ltr" writing-mode="lr-tb" unicode-bidi="normal" text-decoration="none" transform="matrix(1 0 0 1 2900.05 712)">Global Master</text><rect x="2938.5" y="794.5" width="361" height="112" stroke="#60607D" stroke-width="6.875" stroke-linecap="butt" stroke-linejoin="miter" stroke-miterlimit="8" stroke-opacity="1" fill="none"/><rect x="3055.5" y="927.5" width="361" height="112" stroke="#60607D" stroke-width="6.875" stroke-linecap="butt" stroke-linejoin="miter" stroke-miterlimit="8" stroke-opacity="1" fill="none"/><rect x="3189.5" y="1071.5" width="362" height="111" stroke="#60607D" stroke-width="6.875" stroke-linecap="butt" stroke-linejoin="miter" stroke-miterlimit="8" stroke-opacity="1" fill="none"/><rect x="3308.5" y="1217.5" width="362" height="111" stroke="#60607D" stroke-width="6.875" stroke-linecap="butt" stroke-linejoin="miter" stroke-miterlimit="8" stroke-opacity="1" fill="none"/><text fill="#2C2C2C" fill-opacity="1" font-family="Calibri,Calibri_MSFontService,sans-serif" font-style="normal" font-variant="normal" font-weight="400" font-stretch="normal" font-size="28" text-anchor="start" direction="ltr" writing-mode="lr-tb" unicode-bidi="normal" text-decoration="none" transform="matrix(1 0 0 1 3388.13 1265)">Active Branch<tspan fill="#2C2C2C" fill-opacity="1" font-family="Calibri,Calibri_MSFontService,sans-serif" font-style="normal" font-variant="normal" font-weight="400" font-stretch="normal" font-size="23" text-anchor="start" direction="ltr" writing-mode="lr-tb" unicode-bidi="normal" text-decoration="none" x="-31.8101" y="34">Integration Environment</tspan><tspan fill="#2C2C2C" fill-opacity="1" font-family="Calibri,Calibri_MSFontService,sans-serif" font-style="normal" font-variant="normal" font-weight="400" font-stretch="normal" font-size="28" text-anchor="start" direction="ltr" writing-mode="lr-tb" unicode-bidi="normal" text-decoration="none" x="-102.902" y="-146">Integration</tspan><tspan fill="#2C2C2C" fill-opacity="1" font-family="Calibri,Calibri_MSFontService,sans-serif" font-style="normal" font-variant="normal" font-weight="400" font-stretch="normal" font-size="23" text-anchor="start" direction="ltr" writing-mode="lr-tb" unicode-bidi="normal" text-decoration="none" x="-149.321" y="-111">Integration Environment</tspan><tspan fill="#2C2C2C" fill-opacity="1" font-family="Calibri,Calibri_MSFontService,sans-serif" font-style="normal" font-variant="normal" font-weight="400" font-stretch="normal" font-size="28" text-anchor="start" direction="ltr" writing-mode="lr-tb" unicode-bidi="normal" text-decoration="none" x="-188.812" y="-272">Staging</tspan><tspan fill="#2C2C2C" fill-opacity="1" font-family="Calibri,Calibri_MSFontService,sans-serif" font-style="normal" font-variant="normal" font-weight="400" font-stretch="normal" font-size="28" text-anchor="start" direction="ltr" writing-mode="lr-tb" unicode-bidi="normal" text-decoration="none" x="-342.052" y="-409">Production</tspan></text><path d="M0 0 0.000360892 766.805" stroke="#9B9BAE" stroke-width="6.875" stroke-linecap="butt" stroke-linejoin="miter" stroke-miterlimit="8" stroke-opacity="1" fill="none" fill-rule="evenodd" transform="matrix(1 0 0 -1 3814.5 1475.3)"/><path d="M3308.5 1260.5 3124.67 1260.5C3097.51 1260.5 3075.5 1237 3075.5 1208 3075.5 1179 3097.51 1155.5 3124.67 1155.5L3146.63 1155.5" stroke="#9B9BAE" stroke-width="6.875" stroke-linecap="butt" stroke-linejoin="miter" stroke-miterlimit="8" stroke-opacity="1" fill="none" fill-rule="evenodd"/><path d="M3145 1174 3178 1155 3145 1136Z" fill="#9B9BAE" fill-rule="evenodd" fill-opacity="1"/><path d="M3178.5 1113.5 2993.88 1113.5C2966.6 1113.5 2944.5 1090.23 2944.5 1061.5 2944.5 1032.77 2966.6 1009.5 2993.88 1009.5L3015.94 1009.5" stroke="#9B9BAE" stroke-width="6.875" stroke-linecap="butt" stroke-linejoin="miter" stroke-miterlimit="8" stroke-opacity="1" fill="none" fill-rule="evenodd"/><path d="M3014 1028 3047 1009 3014 990Z" fill="#9B9BAE" fill-rule="evenodd" fill-opacity="1"/><path d="M3059.5 972.5 2874.88 972.5C2847.6 972.5 2825.5 949.003 2825.5 920 2825.5 890.997 2847.6 867.5 2874.88 867.5L2896.94 867.5" stroke="#9B9BAE" stroke-width="6.875" stroke-linecap="butt" stroke-linejoin="miter" stroke-miterlimit="8" stroke-opacity="1" fill="none" fill-rule="evenodd"/><path d="M2895 886 2929 867 2895 848Z" fill="#9B9BAE" fill-rule="evenodd" fill-opacity="1"/><path d="M2930.5 819.5 2746.67 819.5C2719.51 819.5 2697.5 796.227 2697.5 767.5 2697.5 738.773 2719.51 715.5 2746.67 715.5L2768.63 715.5" stroke="#9B9BAE" stroke-width="6.875" stroke-linecap="butt" stroke-linejoin="miter" stroke-miterlimit="8" stroke-opacity="1" fill="none" fill-rule="evenodd"/><path d="M2767 734 2800 715 2767 696Z" fill="#9B9BAE" fill-rule="evenodd" fill-opacity="1"/><path d="M3725.5 1550.5 3614.5 1550.5 3614.5 1645.5" stroke="#CDCDD2" stroke-width="6.875" stroke-linecap="butt" stroke-linejoin="miter" stroke-miterlimit="8" stroke-opacity="1" fill="none" fill-rule="evenodd"/><path d="M3637 1643 3591 1643 3614.02 1666 3637 1643Z" fill="#CDCDD2" fill-rule="evenodd" fill-opacity="1"/><path d="M3361.5 1371.5 3361.5 1480.5" stroke="#9B9BAE" stroke-width="6.875" stroke-linecap="butt" stroke-linejoin="miter" stroke-miterlimit="8" stroke-opacity="1" fill="none" fill-rule="evenodd"/><path d="M3386 1374 3336 1374 3361.02 1349 3386 1374Z" fill="#9B9BAE" fill-rule="evenodd" fill-opacity="1"/><path d="M3361.75 1582.49C3361.75 1593.71 3358.94 1612.19 3371.89 1621.8 3387.36 1633.31 3413.84 1627.99 3452.19 1627.99 3490.54 1627.99 3508.7 1629.06 3518.92 1645.15 3524.83 1654.43 3524.91 1662.27 3524.17 1673.49" stroke="#9B9BAE" stroke-width="6.875" stroke-linecap="butt" stroke-linejoin="miter" stroke-miterlimit="8" stroke-opacity="1" fill="none" fill-rule="evenodd"/><path d="M3244.49 1478.49 3469.49 1478.49 3469.49 1582.29C3453.23 1592.03 3434.55 1596.94 3415.63 1596.45 3384.05 1595.62 3365.9 1583.13 3338.89 1575.63 3311.87 1568.14 3292.02 1567.3 3274.83 1570.51 3263.87 1572.73 3253.55 1577.38 3244.62 1584.13Z" stroke="#9B9BAE" stroke-width="6.875" stroke-linecap="butt" stroke-linejoin="miter" stroke-miterlimit="8" stroke-opacity="1" fill="none" fill-rule="evenodd"/><path d="M3725.5 1491.25C3725.5 1503.81 3766.24 1514 3816.5 1514 3866.76 1514 3907.5 1503.81 3907.5 1491.25L3907.5 1642.75C3907.5 1655.31 3866.76 1665.5 3816.5 1665.5 3766.24 1665.5 3725.5 1655.31 3725.5 1642.75Z" fill="#F2F2F2" fill-rule="evenodd" fill-opacity="1"/><path d="M3725.5 1491.25C3725.5 1478.69 3766.24 1468.5 3816.5 1468.5 3866.76 1468.5 3907.5 1478.69 3907.5 1491.25 3907.5 1503.81 3866.76 1514 3816.5 1514 3766.24 1514 3725.5 1503.81 3725.5 1491.25Z" fill="#F7F7F7" fill-rule="evenodd" fill-opacity="1"/><path d="M3907.5 1491.25C3907.5 1503.81 3866.76 1514 3816.5 1514 3766.24 1514 3725.5 1503.81 3725.5 1491.25 3725.5 1478.69 3766.24 1468.5 3816.5 1468.5 3866.76 1468.5 3907.5 1478.69 3907.5 1491.25L3907.5 1642.75C3907.5 1655.31 3866.76 1665.5 3816.5 1665.5 3766.24 1665.5 3725.5 1655.31 3725.5 1642.75L3725.5 1491.25" stroke="#9B9BAE" stroke-width="4.58333" stroke-linecap="butt" stroke-linejoin="miter" stroke-miterlimit="8" stroke-opacity="1" fill="none" fill-rule="evenodd"/><text fill="#2C2C2C" fill-opacity="1" font-family="Calibri,Calibri_MSFontService,sans-serif" font-style="normal" font-variant="normal" font-weight="400" font-stretch="normal" font-size="28" text-anchor="start" direction="ltr" writing-mode="lr-tb" unicode-bidi="normal" text-decoration="none" transform="matrix(1 0 0 1 3790.99 1588)">Data<tspan fill="#2C2C2C" fill-opacity="1" font-family="Calibri,Calibri_MSFontService,sans-serif" font-style="normal" font-variant="normal" font-weight="400" font-stretch="normal" font-size="28" text-anchor="start" direction="ltr" writing-mode="lr-tb" unicode-bidi="normal" text-decoration="none" x="-463.057" y="-52">Code</tspan></text><path d="M2600 753.667C2600 748.88 2603.88 745 2608.67 745L2736.33 745C2741.12 745 2745 748.88 2745 753.667L2745 788.333C2745 793.12 2741.12 797 2736.33 797L2608.67 797C2603.88 797 2600 793.12 2600 788.333Z" fill="#60607D" fill-rule="evenodd" fill-opacity="1"/><text fill="#FFFFFF" fill-opacity="1" font-family="Calibri,Calibri_MSFontService,sans-serif" font-style="normal" font-variant="normal" font-weight="400" font-stretch="normal" font-size="28" text-anchor="start" direction="ltr" writing-mode="lr-tb" unicode-bidi="normal" text-decoration="none" transform="matrix(1 0 0 1 2634.74 781)">Merge</text><path d="M2757 908.667C2757 903.88 2760.88 900 2765.67 900L2893.33 900C2898.12 900 2902 903.88 2902 908.667L2902 943.334C2902 948.12 2898.12 952 2893.33 952L2765.67 952C2760.88 952 2757 948.12 2757 943.334Z" fill="#60607D" fill-rule="evenodd" fill-opacity="1"/><text fill="#FFFFFF" fill-opacity="1" font-family="Calibri,Calibri_MSFontService,sans-serif" font-style="normal" font-variant="normal" font-weight="400" font-stretch="normal" font-size="28" text-anchor="start" direction="ltr" writing-mode="lr-tb" unicode-bidi="normal" text-decoration="none" transform="matrix(1 0 0 1 2791.66 935)">Merge</text><path d="M2882 1048.83C2882 1043.95 2885.95 1040 2890.83 1040L3017.17 1040C3022.05 1040 3026 1043.95 3026 1048.83L3026 1084.17C3026 1089.05 3022.05 1093 3017.17 1093L2890.83 1093C2885.95 1093 2882 1089.05 2882 1084.17Z" fill="#60607D" fill-rule="evenodd" fill-opacity="1"/><text fill="#FFFFFF" fill-opacity="1" font-family="Calibri,Calibri_MSFontService,sans-serif" font-style="normal" font-variant="normal" font-weight="400" font-stretch="normal" font-size="28" text-anchor="start" direction="ltr" writing-mode="lr-tb" unicode-bidi="normal" text-decoration="none" transform="matrix(1 0 0 1 2916.28 1076)">Merge</text><path d="M3013 1191.83C3013 1186.95 3016.95 1183 3021.83 1183L3149.17 1183C3154.05 1183 3158 1186.95 3158 1191.83L3158 1227.17C3158 1232.05 3154.05 1236 3149.17 1236L3021.83 1236C3016.95 1236 3013 1232.05 3013 1227.17Z" fill="#60607D" fill-rule="evenodd" fill-opacity="1"/><text fill="#FFFFFF" fill-opacity="1" font-family="Calibri,Calibri_MSFontService,sans-serif" font-style="normal" font-variant="normal" font-weight="400" font-stretch="normal" font-size="28" text-anchor="start" direction="ltr" writing-mode="lr-tb" unicode-bidi="normal" text-decoration="none" transform="matrix(1 0 0 1 3047.81 1219)">Merge</text><path d="M3740 1353.67C3740 1348.88 3743.88 1345 3748.67 1345L3876.33 1345C3881.12 1345 3885 1348.88 3885 1353.67L3885 1388.33C3885 1393.12 3881.12 1397 3876.33 1397L3748.67 1397C3743.88 1397 3740 1393.12 3740 1388.33Z" fill="#A8A8B2" fill-rule="evenodd" fill-opacity="1"/><text fill="#FFFFFF" fill-opacity="1" font-family="Calibri,Calibri_MSFontService,sans-serif" font-style="normal" font-variant="normal" font-weight="400" font-stretch="normal" font-size="28" text-anchor="start" direction="ltr" writing-mode="lr-tb" unicode-bidi="normal" text-decoration="none" transform="matrix(1 0 0 1 3791.07 1381)">Pull</text><path d="M3290 1404.67C3290 1399.88 3293.88 1396 3298.67 1396L3426.33 1396C3431.12 1396 3435 1399.88 3435 1404.67L3435 1439.33C3435 1444.12 3431.12 1448 3426.33 1448L3298.67 1448C3293.88 1448 3290 1444.12 3290 1439.33Z" fill="#60607D" fill-rule="evenodd" fill-opacity="1"/><text fill="#FFFFFF" fill-opacity="1" font-family="Calibri,Calibri_MSFontService,sans-serif" font-style="normal" font-variant="normal" font-weight="400" font-stretch="normal" font-size="28" text-anchor="start" direction="ltr" writing-mode="lr-tb" unicode-bidi="normal" text-decoration="none" transform="matrix(1 0 0 1 3334.76 1431)">Push</text></g></svg>