<svg width="3887" height="1687" xmlns="http://www.w3.org/2000/svg" xmlns:xlink="http://www.w3.org/1999/xlink" overflow="hidden"><defs><clipPath id="clip0"><rect x="210" y="476" width="3887" height="1687"/></clipPath></defs><g clip-path="url(#clip0)" transform="translate(-210 -476)"><rect x="215" y="733" width="3882" height="1144" fill="#9B9BAE" fill-opacity="1"/><rect x="3582" y="969" width="92.0002" height="40.9999" fill="#D7D7DF" fill-opacity="1"/><path d="M3563 1028C3541.46 1028 3524 1010.54 3524 989 3524 967.461 3541.46 950 3563 950 3584.54 950 3602 967.461 3602 989 3602 1010.54 3584.54 1028 3563 1028Z" fill="#D7D7DF" fill-rule="evenodd" fill-opacity="1"/><rect x="3582" y="1285" width="92.0002" height="40.9999" fill="#D7D7DF" fill-opacity="1"/><path d="M3563 1344C3541.46 1344 3524 1326.54 3524 1305 3524 1283.46 3541.46 1266 3563 1266 3584.54 1266 3602 1283.46 3602 1305 3602 1326.54 3584.54 1344 3563 1344Z" fill="#D7D7DF" fill-rule="evenodd" fill-opacity="1"/><rect x="3582" y="1611" width="92.0002" height="40.9999" fill="#D7D7DF" fill-opacity="1"/><path d="M3563 1671C3541.46 1671 3524 1653.54 3524 1632 3524 1610.46 3541.46 1593 3563 1593 3584.54 1593 3602 1610.46 3602 1632 3602 1653.54 3584.54 1671 3563 1671Z" fill="#D7D7DF" fill-rule="evenodd" fill-opacity="1"/><rect x="215" y="816" width="469" height="974" fill="#D7D7DF" fill-opacity="1"/><rect x="215" y="480" width="3882" height="259" fill="#D7D7DF" fill-opacity="1"/><rect x="215" y="1877" width="3882" height="282" fill="#60607D" fill-opacity="1"/><rect x="822" y="1171" width="2669" height="336" fill="#D7D7DF" fill-opacity="1"/><rect x="822" y="1530" width="2669" height="229" fill="#D7D7DF" fill-opacity="1"/><rect x="822" y="816" width="2669" height="336" fill="#D7D7DF" fill-opacity="1"/><rect x="1379" y="891" width="495" height="109" fill="#FFFFFF" fill-opacity="1"/><rect x="1908" y="891" width="496" height="109" fill="#FFFFFF" fill-opacity="1"/><rect x="2438" y="891" width="496" height="109" fill="#FFFFFF" fill-opacity="1"/><rect x="2968" y="891" width="496" height="109" fill="#FFFFFF" fill-opacity="1"/><rect x="849" y="1020" width="496" height="108" fill="#FFFFFF" fill-opacity="1"/><rect x="1379" y="1020" width="495" height="108" fill="#FFFFFF" fill-opacity="1"/><rect x="1908" y="1020" width="496" height="108" fill="#FFFFFF" fill-opacity="1"/><rect x="2438" y="1020" width="496" height="108" fill="#FFFFFF" fill-opacity="1"/><rect x="2968" y="1020" width="496" height="108" fill="#FFFFFF" fill-opacity="1"/><rect x="849" y="1621" width="496" height="109" fill="#FFFFFF" fill-opacity="1"/><rect x="1379" y="1621" width="495" height="109" fill="#FFFFFF" fill-opacity="1"/><rect x="1908" y="1621" width="496" height="109" fill="#FFFFFF" fill-opacity="1"/><rect x="2438" y="1621" width="496" height="109" fill="#FFFFFF" fill-opacity="1"/><rect x="2968" y="1621" width="496" height="109" fill="#FFFFFF" fill-opacity="1"/><rect x="849" y="1248" width="380" height="109" fill="#FFFFFF" fill-opacity="1"/><rect x="1252" y="1248" width="380" height="109" fill="#FFFFFF" fill-opacity="1"/><rect x="1655" y="1248" width="380" height="109" fill="#FFFFFF" fill-opacity="1"/><rect x="2059" y="1248" width="380" height="109" fill="#FFFFFF" fill-opacity="1"/><rect x="2462" y="1248" width="380" height="109" fill="#FFFFFF" fill-opacity="1"/><rect x="849" y="1373" width="380" height="108" fill="#FFFFFF" fill-opacity="1"/><rect x="1252" y="1373" width="380" height="108" fill="#FFFFFF" fill-opacity="1"/><rect x="1655" y="1373" width="380" height="108" fill="#FFFFFF" fill-opacity="1"/><rect x="2059" y="1373" width="380" height="108" fill="#FFFFFF" fill-opacity="1"/><rect x="2465" y="1373" width="380" height="108" fill="#FFFFFF" fill-opacity="1"/><rect x="2865" y="1248" width="599" height="230" fill="#FFFFFF" fill-opacity="1"/><rect x="849" y="891" width="496" height="109" fill="#FFFFFF" fill-opacity="1"/><text fill="#000020" fill-opacity="1" font-family="Calibri,Calibri_MSFontService,sans-serif" font-style="normal" font-variant="normal" font-weight="400" font-stretch="normal" font-size="37" text-anchor="start" direction="ltr" writing-mode="lr-tb" unicode-bidi="normal" text-decoration="none" transform="matrix(1 0 0 1 936.518 954)">Content Management<tspan fill="#000020" fill-opacity="1" font-family="Calibri,Calibri_MSFontService,sans-serif" font-style="normal" font-variant="normal" font-weight="400" font-stretch="normal" font-size="37" text-anchor="start" direction="ltr" writing-mode="lr-tb" unicode-bidi="normal" text-decoration="none" x="639.963" y="4">Pricing</tspan><tspan fill="#000020" fill-opacity="1" font-family="Calibri,Calibri_MSFontService,sans-serif" font-style="normal" font-variant="normal" font-weight="400" font-stretch="normal" font-size="37" text-anchor="start" direction="ltr" writing-mode="lr-tb" unicode-bidi="normal" text-decoration="none" x="1134.45" y="4">Promotions</tspan><tspan fill="#000020" fill-opacity="1" font-family="Calibri,Calibri_MSFontService,sans-serif" font-style="normal" font-variant="normal" font-weight="400" font-stretch="normal" font-size="37" text-anchor="start" direction="ltr" writing-mode="lr-tb" unicode-bidi="normal" text-decoration="none" x="1641.55" y="4">Personalization</tspan><tspan fill="#000020" fill-opacity="1" font-family="Calibri,Calibri_MSFontService,sans-serif" font-style="normal" font-variant="normal" font-weight="400" font-stretch="normal" font-size="37" text-anchor="start" direction="ltr" writing-mode="lr-tb" unicode-bidi="normal" text-decoration="none" x="2138.5" y="4">Recommendations</tspan><tspan fill="#000020" fill-opacity="1" font-family="Calibri,Calibri_MSFontService,sans-serif" font-style="normal" font-variant="normal" font-weight="400" font-stretch="normal" font-size="37" text-anchor="start" direction="ltr" writing-mode="lr-tb" unicode-bidi="normal" text-decoration="none" x="108.556" y="130">Search</tspan><tspan fill="#000020" fill-opacity="1" font-family="Calibri,Calibri_MSFontService,sans-serif" font-style="normal" font-variant="normal" font-weight="400" font-stretch="normal" font-size="37" text-anchor="start" direction="ltr" writing-mode="lr-tb" unicode-bidi="normal" text-decoration="none" x="552.339" y="133">Private Sale Events</tspan><tspan fill="#000020" fill-opacity="1" font-family="Calibri,Calibri_MSFontService,sans-serif" font-style="normal" font-variant="normal" font-weight="400" font-stretch="normal" font-size="37" text-anchor="start" direction="ltr" writing-mode="lr-tb" unicode-bidi="normal" text-decoration="none" x="1133.66" y="133">Campaigns</tspan><tspan fill="#000020" fill-opacity="1" font-family="Calibri,Calibri_MSFontService,sans-serif" font-style="normal" font-variant="normal" font-weight="400" font-stretch="normal" font-size="37" text-anchor="start" direction="ltr" writing-mode="lr-tb" unicode-bidi="normal" text-decoration="none" x="1677.15" y="133">AB Testing</tspan><tspan fill="#000020" fill-opacity="1" font-family="Calibri,Calibri_MSFontService,sans-serif" font-style="normal" font-variant="normal" font-weight="400" font-stretch="normal" font-size="37" text-anchor="start" direction="ltr" writing-mode="lr-tb" unicode-bidi="normal" text-decoration="none" x="2227.87" y="133">Loyalty</tspan><tspan fill="#000020" fill-opacity="1" font-family="Calibri,Calibri_MSFontService,sans-serif" font-style="normal" font-variant="normal" font-weight="400" font-stretch="normal" font-size="37" text-anchor="start" direction="ltr" writing-mode="lr-tb" unicode-bidi="normal" text-decoration="none" x="84.2664" y="736">Multi Store</tspan><tspan fill="#000020" fill-opacity="1" font-family="Calibri,Calibri_MSFontService,sans-serif" font-style="normal" font-variant="normal" font-weight="400" font-stretch="normal" font-size="37" text-anchor="start" direction="ltr" writing-mode="lr-tb" unicode-bidi="normal" text-decoration="none" x="568.991" y="736">Multi Language</tspan><tspan fill="#000020" fill-opacity="1" font-family="Calibri,Calibri_MSFontService,sans-serif" font-style="normal" font-variant="normal" font-weight="400" font-stretch="normal" font-size="37" text-anchor="start" direction="ltr" writing-mode="lr-tb" unicode-bidi="normal" text-decoration="none" x="1106.74" y="736">Multi Business</tspan><tspan fill="#000020" fill-opacity="1" font-family="Calibri,Calibri_MSFontService,sans-serif" font-style="normal" font-variant="normal" font-weight="400" font-stretch="normal" font-size="37" text-anchor="start" direction="ltr" writing-mode="lr-tb" unicode-bidi="normal" text-decoration="none" x="1607.94" y="736">User Permissions</tspan><tspan fill="#000020" fill-opacity="1" font-family="Calibri,Calibri_MSFontService,sans-serif" font-style="normal" font-variant="normal" font-weight="400" font-stretch="normal" font-size="37" text-anchor="start" direction="ltr" writing-mode="lr-tb" unicode-bidi="normal" text-decoration="none" x="2110.74" y="736">Admin Configuration</tspan><tspan fill="#000020" fill-opacity="1" font-family="Calibri,Calibri_MSFontService,sans-serif" font-style="normal" font-variant="normal" font-weight="400" font-stretch="normal" font-size="37" text-anchor="start" direction="ltr" writing-mode="lr-tb" unicode-bidi="normal" text-decoration="none" x="10.5115" y="361">Catalog/PIM</tspan><tspan fill="#000020" fill-opacity="1" font-family="Calibri,Calibri_MSFontService,sans-serif" font-style="normal" font-variant="normal" font-weight="400" font-stretch="normal" font-size="37" text-anchor="start" direction="ltr" writing-mode="lr-tb" unicode-bidi="normal" text-decoration="none" x="26.9254" y="478">Payments</tspan><tspan fill="#000020" fill-opacity="1" font-family="Calibri,Calibri_MSFontService,sans-serif" font-style="normal" font-variant="normal" font-weight="400" font-stretch="normal" font-size="37" text-anchor="start" direction="ltr" writing-mode="lr-tb" unicode-bidi="normal" text-decoration="none" x="475.627" y="363">Tax</tspan><tspan fill="#000020" fill-opacity="1" font-family="Calibri,Calibri_MSFontService,sans-serif" font-style="normal" font-variant="normal" font-weight="400" font-stretch="normal" font-size="37" text-anchor="start" direction="ltr" writing-mode="lr-tb" unicode-bidi="normal" text-decoration="none" x="356.282" y="478">Order Management</tspan><tspan fill="#000020" fill-opacity="1" font-family="Calibri,Calibri_MSFontService,sans-serif" font-style="normal" font-variant="normal" font-weight="400" font-stretch="normal" font-size="37" text-anchor="start" direction="ltr" writing-mode="lr-tb" unicode-bidi="normal" text-decoration="none" x="842.36" y="362">Inventory</tspan><tspan fill="#000020" fill-opacity="1" font-family="Calibri,Calibri_MSFontService,sans-serif" font-style="normal" font-variant="normal" font-weight="400" font-stretch="normal" font-size="37" text-anchor="start" direction="ltr" writing-mode="lr-tb" unicode-bidi="normal" text-decoration="none" x="801.602" y="456">Transactional </tspan><tspan fill="#000020" fill-opacity="1" font-family="Calibri,Calibri_MSFontService,sans-serif" font-style="normal" font-variant="normal" font-weight="400" font-stretch="normal" font-size="37" text-anchor="start" direction="ltr" writing-mode="lr-tb" unicode-bidi="normal" text-decoration="none" x="822.8" y="500">Messaging</tspan><tspan fill="#000020" fill-opacity="1" font-family="Calibri,Calibri_MSFontService,sans-serif" font-style="normal" font-variant="normal" font-weight="400" font-stretch="normal" font-size="37" text-anchor="start" direction="ltr" writing-mode="lr-tb" unicode-bidi="normal" text-decoration="none" x="1252.95" y="363">Shipping</tspan><tspan fill="#000020" fill-opacity="1" font-family="Calibri,Calibri_MSFontService,sans-serif" font-style="normal" font-variant="normal" font-weight="400" font-stretch="normal" font-size="37" text-anchor="start" direction="ltr" writing-mode="lr-tb" unicode-bidi="normal" text-decoration="none" x="1181.96" y="478">Customer Master</tspan><tspan fill="#000020" fill-opacity="1" font-family="Calibri,Calibri_MSFontService,sans-serif" font-style="normal" font-variant="normal" font-weight="400" font-stretch="normal" font-size="37" text-anchor="start" direction="ltr" writing-mode="lr-tb" unicode-bidi="normal" text-decoration="none" x="1563.2" y="363">Customer Segments</tspan><tspan fill="#000020" fill-opacity="1" font-family="Calibri,Calibri_MSFontService,sans-serif" font-style="normal" font-variant="normal" font-weight="400" font-stretch="normal" font-size="37" text-anchor="start" direction="ltr" writing-mode="lr-tb" unicode-bidi="normal" text-decoration="none" x="1604.16" y="478">Cart/Checkout</tspan><tspan fill="#000020" fill-opacity="1" font-family="Calibri,Calibri_MSFontService,sans-serif" font-style="normal" font-variant="normal" font-weight="400" font-stretch="normal" font-size="37" text-anchor="start" direction="ltr" writing-mode="lr-tb" unicode-bidi="normal" text-decoration="none" x="2178.31" y="349">Quotes</tspan><tspan fill="#000020" fill-opacity="1" font-family="Calibri,Calibri_MSFontService,sans-serif" font-style="normal" font-variant="normal" font-weight="400" font-stretch="normal" font-size="37" text-anchor="start" direction="ltr" writing-mode="lr-tb" unicode-bidi="normal" text-decoration="none" x="2158.83" y="393">Workflow</tspan><tspan fill="#000020" fill-opacity="1" font-family="Calibri,Calibri_MSFontService,sans-serif" font-style="normal" font-variant="normal" font-weight="400" font-stretch="normal" font-size="37" text-anchor="start" direction="ltr" writing-mode="lr-tb" unicode-bidi="normal" text-decoration="none" x="2023.92" y="437">Account Creation/Hierarchy</tspan><tspan fill="#000020" fill-opacity="1" font-family="Calibri,Calibri_MSFontService,sans-serif" font-style="normal" font-variant="normal" font-weight="400" font-stretch="normal" font-size="37" text-anchor="start" direction="ltr" writing-mode="lr-tb" unicode-bidi="normal" text-decoration="none" x="2111.85" y="481">Requisition Lists</tspan><tspan fill="#000000" fill-opacity="1" font-family="Calibri,Calibri_MSFontService,sans-serif" font-style="normal" font-variant="normal" font-weight="400" font-stretch="normal" font-size="37" text-anchor="start" direction="ltr" writing-mode="lr-tb" unicode-bidi="normal" text-decoration="none" x="1021.53" y="-410">CUSTOMER TOUCHPOINTS</tspan><tspan fill="#000000" fill-opacity="1" font-family="Calibri,Calibri_MSFontService,sans-serif" font-style="normal" font-variant="normal" font-weight="400" font-stretch="normal" font-size="32" text-anchor="start" direction="ltr" writing-mode="lr-tb" unicode-bidi="normal" text-decoration="none" x="1106.03" y="-90">MERCHANDISING</tspan><tspan fill="#000000" fill-opacity="1" font-family="Calibri,Calibri_MSFontService,sans-serif" font-style="normal" font-variant="normal" font-weight="400" font-stretch="normal" font-size="32" text-anchor="start" direction="ltr" writing-mode="lr-tb" unicode-bidi="normal" text-decoration="none" x="1101.16" y="266">CORE COMMERCE</tspan><tspan fill="#000000" fill-opacity="1" font-family="Calibri,Calibri_MSFontService,sans-serif" font-style="normal" font-variant="normal" font-weight="400" font-stretch="normal" font-size="32" text-anchor="start" direction="ltr" writing-mode="lr-tb" unicode-bidi="normal" text-decoration="none" x="1052.18" y="632">COMMERCE OPERATIONS</tspan><tspan fill="#000000" fill-opacity="1" font-family="Calibri,Calibri_MSFontService,sans-serif" font-style="normal" font-variant="normal" font-weight="400" font-stretch="normal" font-size="32" text-anchor="start" direction="ltr" writing-mode="lr-tb" unicode-bidi="normal" text-decoration="none" x="1974.63" y="342">B2B</tspan></text><rect x="864" y="1985" width="403" height="129" fill="#FFFFFF" fill-opacity="1"/><rect x="1311" y="1985" width="404" height="129" fill="#FFFFFF" fill-opacity="1"/><rect x="1759" y="1985" width="403" height="129" fill="#FFFFFF" fill-opacity="1"/><rect x="2207" y="1985" width="403" height="129" fill="#FFFFFF" fill-opacity="1"/><rect x="2655" y="1985" width="403" height="129" fill="#FFFFFF" fill-opacity="1"/><rect x="3102" y="1985" width="404" height="129" fill="#FFFFFF" fill-opacity="1"/><rect x="840" y="588" width="302" height="109" fill="#FFFFFF" fill-opacity="1"/><rect x="1176" y="588" width="302" height="109" fill="#FFFFFF" fill-opacity="1"/><rect x="1512" y="588" width="302" height="109" fill="#FFFFFF" fill-opacity="1"/><rect x="1848" y="588" width="302" height="109" fill="#FFFFFF" fill-opacity="1"/><rect x="2184" y="588" width="302" height="109" fill="#FFFFFF" fill-opacity="1"/><rect x="2520" y="588" width="302" height="109" fill="#FFFFFF" fill-opacity="1"/><rect x="2856" y="588" width="302" height="109" fill="#FFFFFF" fill-opacity="1"/><rect x="3192" y="588" width="302" height="109" fill="#FFFFFF" fill-opacity="1"/><text fill="#000020" fill-opacity="1" font-family="Calibri,Calibri_MSFontService,sans-serif" font-style="normal" font-variant="normal" font-weight="400" font-stretch="normal" font-size="37" text-anchor="start" direction="ltr" writing-mode="lr-tb" unicode-bidi="normal" text-decoration="none" transform="matrix(1 0 0 1 946.974 635)">Sales/<tspan fill="#000020" fill-opacity="1" font-family="Calibri,Calibri_MSFontService,sans-serif" font-style="normal" font-variant="normal" font-weight="400" font-stretch="normal" font-size="37" text-anchor="start" direction="ltr" writing-mode="lr-tb" unicode-bidi="normal" text-decoration="none" x="-8.29584" y="44">Service</tspan><tspan fill="#000020" fill-opacity="1" font-family="Calibri,Calibri_MSFontService,sans-serif" font-style="normal" font-variant="normal" font-weight="400" font-stretch="normal" font-size="37" text-anchor="start" direction="ltr" writing-mode="lr-tb" unicode-bidi="normal" text-decoration="none" x="282.025" y="21">Marketplaces</tspan><tspan fill="#000020" fill-opacity="1" font-family="Calibri,Calibri_MSFontService,sans-serif" font-style="normal" font-variant="normal" font-weight="400" font-stretch="normal" font-size="37" text-anchor="start" direction="ltr" writing-mode="lr-tb" unicode-bidi="normal" text-decoration="none" x="670.649" y="22">Social</tspan><tspan fill="#000020" fill-opacity="1" font-family="Calibri,Calibri_MSFontService,sans-serif" font-style="normal" font-variant="normal" font-weight="400" font-stretch="normal" font-size="37" text-anchor="start" direction="ltr" writing-mode="lr-tb" unicode-bidi="normal" text-decoration="none" x="993.883" y="22">Mobile</tspan><tspan fill="#000020" fill-opacity="1" font-family="Calibri,Calibri_MSFontService,sans-serif" font-style="normal" font-variant="normal" font-weight="400" font-stretch="normal" font-size="37" text-anchor="start" direction="ltr" writing-mode="lr-tb" unicode-bidi="normal" text-decoration="none" x="1353.82" y="22">Sites</tspan><tspan fill="#000020" fill-opacity="1" font-family="Calibri,Calibri_MSFontService,sans-serif" font-style="normal" font-variant="normal" font-weight="400" font-stretch="normal" font-size="37" text-anchor="start" direction="ltr" writing-mode="lr-tb" unicode-bidi="normal" text-decoration="none" x="1668.46" y="0">Brick &amp;</tspan><tspan fill="#000020" fill-opacity="1" font-family="Calibri,Calibri_MSFontService,sans-serif" font-style="normal" font-variant="normal" font-weight="400" font-stretch="normal" font-size="37" text-anchor="start" direction="ltr" writing-mode="lr-tb" unicode-bidi="normal" text-decoration="none" x="1668.74" y="44">Mortar</tspan><tspan fill="#000020" fill-opacity="1" font-family="Calibri,Calibri_MSFontService,sans-serif" font-style="normal" font-variant="normal" font-weight="400" font-stretch="normal" font-size="37" text-anchor="start" direction="ltr" writing-mode="lr-tb" unicode-bidi="normal" text-decoration="none" x="1982.17" y="22">Things/</tspan>loT<tspan fill="#000020" fill-opacity="1" font-family="Calibri,Calibri_MSFontService,sans-serif" font-style="normal" font-variant="normal" font-weight="400" font-stretch="normal" font-size="37" text-anchor="start" direction="ltr" writing-mode="lr-tb" unicode-bidi="normal" text-decoration="none" x="2365.28" y="22">You</tspan></text><rect x="255" y="844" width="357" height="283" fill="#FFFFFF" fill-opacity="1"/><rect x="255" y="1164" width="357" height="282" fill="#FFFFFF" fill-opacity="1"/><rect x="255" y="1483" width="357" height="283" fill="#FFFFFF" fill-opacity="1"/><text fill="#000020" fill-opacity="1" font-family="Calibri,Calibri_MSFontService,sans-serif" font-style="normal" font-variant="normal" font-weight="400" font-stretch="normal" font-size="37" text-anchor="start" direction="ltr" writing-mode="lr-tb" unicode-bidi="normal" text-decoration="none" transform="matrix(1 0 0 1 371.055 971)">Business <tspan fill="#000020" fill-opacity="1" font-family="Calibri,Calibri_MSFontService,sans-serif" font-style="normal" font-variant="normal" font-weight="400" font-stretch="normal" font-size="37" text-anchor="start" direction="ltr" writing-mode="lr-tb" unicode-bidi="normal" text-decoration="none" x="-22.3438" y="44">Intelligence</tspan><tspan fill="#000020" fill-opacity="1" font-family="Calibri,Calibri_MSFontService,sans-serif" font-style="normal" font-variant="normal" font-weight="400" font-stretch="normal" font-size="37" text-anchor="start" direction="ltr" writing-mode="lr-tb" unicode-bidi="normal" text-decoration="none" x="15.4574" y="327">Adobe </tspan><tspan fill="#000020" fill-opacity="1" font-family="Calibri,Calibri_MSFontService,sans-serif" font-style="normal" font-variant="normal" font-weight="400" font-stretch="normal" font-size="37" text-anchor="start" direction="ltr" writing-mode="lr-tb" unicode-bidi="normal" text-decoration="none" x="-2.57803" y="371">Analytics</tspan><tspan fill="#000020" fill-opacity="1" font-family="Calibri,Calibri_MSFontService,sans-serif" font-style="normal" font-variant="normal" font-weight="400" font-stretch="normal" font-size="37" text-anchor="start" direction="ltr" writing-mode="lr-tb" unicode-bidi="normal" text-decoration="none" x="18.6199" y="620">AI/ML</tspan><tspan fill="#000020" fill-opacity="1" font-family="Calibri,Calibri_MSFontService,sans-serif" font-style="normal" font-variant="normal" font-weight="400" font-stretch="normal" font-size="37" text-anchor="start" direction="ltr" writing-mode="lr-tb" unicode-bidi="normal" text-decoration="none" x="-24.3489" y="664">Powered by </tspan><tspan fill="#000020" fill-opacity="1" font-family="Calibri,Calibri_MSFontService,sans-serif" font-style="normal" font-variant="normal" font-weight="400" font-stretch="normal" font-size="37" text-anchor="start" direction="ltr" writing-mode="lr-tb" unicode-bidi="normal" text-decoration="none" x="16.6032" y="708">Sensei</tspan><tspan fill="#000020" fill-opacity="1" font-family="Calibri,Calibri_MSFontService,sans-serif" font-style="normal" font-variant="normal" font-weight="400" font-stretch="normal" font-size="37" text-anchor="start" direction="ltr" writing-mode="lr-tb" unicode-bidi="normal" text-decoration="none" x="610.292" y="1070">Warehouse </tspan><tspan fill="#000020" fill-opacity="1" font-family="Calibri,Calibri_MSFontService,sans-serif" font-style="normal" font-variant="normal" font-weight="400" font-stretch="normal" font-size="37" text-anchor="start" direction="ltr" writing-mode="lr-tb" unicode-bidi="normal" text-decoration="none" x="595.969" y="1114">Management</tspan><tspan fill="#000020" fill-opacity="1" font-family="Calibri,Calibri_MSFontService,sans-serif" font-style="normal" font-variant="normal" font-weight="400" font-stretch="normal" font-size="37" text-anchor="start" direction="ltr" writing-mode="lr-tb" unicode-bidi="normal" text-decoration="none" x="1111.13" y="1092">ERP</tspan><tspan fill="#000020" fill-opacity="1" font-family="Calibri,Calibri_MSFontService,sans-serif" font-style="normal" font-variant="normal" font-weight="400" font-stretch="normal" font-size="37" text-anchor="start" direction="ltr" writing-mode="lr-tb" unicode-bidi="normal" text-decoration="none" x="1525.26" y="1061">Learning </tspan><tspan fill="#000020" fill-opacity="1" font-family="Calibri,Calibri_MSFontService,sans-serif" font-style="normal" font-variant="normal" font-weight="400" font-stretch="normal" font-size="37" text-anchor="start" direction="ltr" writing-mode="lr-tb" unicode-bidi="normal" text-decoration="none" x="1431.57" y="1105">Management System</tspan><tspan fill="#000020" fill-opacity="1" font-family="Calibri,Calibri_MSFontService,sans-serif" font-style="normal" font-variant="normal" font-weight="400" font-stretch="normal" font-size="37" text-anchor="start" direction="ltr" writing-mode="lr-tb" unicode-bidi="normal" text-decoration="none" x="1998.83" y="1092">CRM</tspan><tspan fill="#000020" fill-opacity="1" font-family="Calibri,Calibri_MSFontService,sans-serif" font-style="normal" font-variant="normal" font-weight="400" font-stretch="normal" font-size="37" text-anchor="start" direction="ltr" writing-mode="lr-tb" unicode-bidi="normal" text-decoration="none" x="2365.82" y="1092">Dealer Network</tspan><tspan fill="#000020" fill-opacity="1" font-family="Calibri,Calibri_MSFontService,sans-serif" font-style="normal" font-variant="normal" font-weight="400" font-stretch="normal" font-size="37" text-anchor="start" direction="ltr" writing-mode="lr-tb" unicode-bidi="normal" text-decoration="none" x="2814.81" y="1092">Customer Data</tspan></text><rect x="3634" y="816" width="463" height="974" fill="#D7D7DF" fill-opacity="1"/><text fill="#000000" fill-opacity="1" font-family="Calibri,Calibri_MSFontService,sans-serif" font-style="normal" font-variant="normal" font-weight="400" font-stretch="normal" font-size="32" text-anchor="start" direction="ltr" writing-mode="lr-tb" unicode-bidi="normal" text-decoration="none" transform="matrix(6.12323e-17 1 -1 6.12323e-17 3852.45 930)">ADOBE COMMERCE <tspan fill="#000000" fill-opacity="1" font-family="Calibri,Calibri_MSFontService,sans-serif" font-style="normal" font-variant="normal" font-weight="400" font-stretch="normal" font-size="32" text-anchor="start" direction="ltr" writing-mode="lr-tb" unicode-bidi="normal" text-decoration="none" x="265" y="1.62266e-14">EXTENSION PARTNER CAPABILITIES</tspan></text><rect x="3660" y="867" width="59.0002" height="60.0002" fill="#FFFFFF" fill-opacity="1"/><rect x="3660" y="950" width="59.0002" height="59.9998" fill="#FFFFFF" fill-opacity="1"/><rect x="3660" y="1033" width="59.0002" height="59.0001" fill="#FFFFFF" fill-opacity="1"/><rect x="3660" y="1116" width="59.0002" height="58.9998" fill="#FFFFFF" fill-opacity="1"/><rect x="3660" y="1199" width="59.0002" height="59.0001" fill="#FFFFFF" fill-opacity="1"/><rect x="3660" y="1282" width="59.0002" height="59.0001" fill="#FFFFFF" fill-opacity="1"/><rect x="3660" y="1364" width="59.0002" height="60.0001" fill="#FFFFFF" fill-opacity="1"/><rect x="3660" y="1447" width="59.0002" height="60.0001" fill="#FFFFFF" fill-opacity="1"/><rect x="3660" y="1530" width="59.0002" height="59.9998" fill="#FFFFFF" fill-opacity="1"/><rect x="3660" y="1613" width="59.0002" height="59.0001" fill="#FFFFFF" fill-opacity="1"/><rect x="3660" y="1696" width="59.0002" height="58.9998" fill="#FFFFFF" fill-opacity="1"/><rect x="3740" y="867" width="59.0002" height="60.0002" fill="#FFFFFF" fill-opacity="1"/><rect x="3740" y="950" width="59.0002" height="59.9998" fill="#FFFFFF" fill-opacity="1"/><rect x="3740" y="1033" width="59.0002" height="59.0001" fill="#FFFFFF" fill-opacity="1"/><rect x="3740" y="1116" width="59.0002" height="58.9998" fill="#FFFFFF" fill-opacity="1"/><rect x="3740" y="1199" width="59.0002" height="59.0001" fill="#FFFFFF" fill-opacity="1"/><rect x="3740" y="1282" width="59.0002" height="59.0001" fill="#FFFFFF" fill-opacity="1"/><rect x="3740" y="1364" width="59.0002" height="60.0001" fill="#FFFFFF" fill-opacity="1"/><rect x="3740" y="1447" width="59.0002" height="60.0001" fill="#FFFFFF" fill-opacity="1"/><rect x="3740" y="1530" width="59.0002" height="59.9998" fill="#FFFFFF" fill-opacity="1"/><rect x="3740" y="1613" width="59.0002" height="59.0001" fill="#FFFFFF" fill-opacity="1"/><rect x="3740" y="1696" width="59.0002" height="58.9998" fill="#FFFFFF" fill-opacity="1"/><rect x="641" y="969" width="90.9998" height="40.9999" fill="#D7D7DF" fill-opacity="1"/><path d="M751 950C772.539 950 790 967.461 790 989 790 1010.54 772.539 1028 751 1028 729.461 1028 712 1010.54 712 989 712 967.461 729.461 950 751 950Z" fill="#D7D7DF" fill-rule="evenodd" fill-opacity="1"/><rect x="1716" y="1840" width="40.9999" height="91.9998" fill="#60607D" fill-opacity="1"/><path d="M1697 1821C1697 1799.46 1714.46 1782 1736 1782 1757.54 1782 1775 1799.46 1775 1821 1775 1842.54 1757.54 1860 1736 1860 1714.46 1860 1697 1842.54 1697 1821Z" fill="#60607D" fill-rule="evenodd" fill-opacity="1"/><rect x="2153" y="1840" width="41.0002" height="91.9998" fill="#60607D" fill-opacity="1"/><path d="M2135 1821C2135 1799.46 2152.46 1782 2174 1782 2195.54 1782 2213 1799.46 2213 1821 2213 1842.54 2195.54 1860 2174 1860 2152.46 1860 2135 1842.54 2135 1821Z" fill="#60607D" fill-rule="evenodd" fill-opacity="1"/><rect x="2615" y="1840" width="41.0002" height="91.9998" fill="#60607D" fill-opacity="1"/><path d="M2597 1821C2597 1799.46 2614.46 1782 2636 1782 2657.54 1782 2675 1799.46 2675 1821 2675 1842.54 2657.54 1860 2636 1860 2614.46 1860 2597 1842.54 2597 1821Z" fill="#60607D" fill-rule="evenodd" fill-opacity="1"/><rect x="3056" y="1840" width="42" height="91.9998" fill="#60607D" fill-opacity="1"/><path d="M3038 1821C3038 1799.46 3055.46 1782 3077 1782 3098.54 1782 3116 1799.46 3116 1821 3116 1842.54 3098.54 1860 3077 1860 3055.46 1860 3038 1842.54 3038 1821Z" fill="#60607D" fill-rule="evenodd" fill-opacity="1"/><text fill="#FFFFFF" fill-opacity="1" font-family="Calibri,Calibri_MSFontService,sans-serif" font-style="normal" font-variant="normal" font-weight="400" font-stretch="normal" font-size="32" text-anchor="start" direction="ltr" writing-mode="lr-tb" unicode-bidi="normal" text-decoration="none" transform="matrix(1 0 0 1 1957.57 1943)">ENTERPRISE APP INTEGRATIONS</text><rect x="641" y="1285" width="90.9998" height="40.9999" fill="#D7D7DF" fill-opacity="1"/><path d="M751 1266C772.539 1266 790 1283.46 790 1305 790 1326.54 772.539 1344 751 1344 729.461 1344 712 1326.54 712 1305 712 1283.46 729.461 1266 751 1266Z" fill="#D7D7DF" fill-rule="evenodd" fill-opacity="1"/><rect x="641" y="1611" width="90.9998" height="40.9999" fill="#D7D7DF" fill-opacity="1"/><path d="M751 1593C772.539 1593 790 1610.46 790 1632 790 1653.54 772.539 1671 751 1671 729.461 1671 712 1653.54 712 1632 712 1610.46 729.461 1593 751 1593Z" fill="#D7D7DF" fill-rule="evenodd" fill-opacity="1"/><rect x="1271" y="1840" width="41.0002" height="91.9998" fill="#60607D" fill-opacity="1"/><path d="M1253 1821C1253 1799.46 1270.46 1782 1292 1782 1313.54 1782 1331 1799.46 1331 1821 1331 1842.54 1313.54 1860 1292 1860 1270.46 1860 1253 1842.54 1253 1821Z" fill="#60607D" fill-rule="evenodd" fill-opacity="1"/></g></svg>