<svg width="4230" height="1994" xmlns="http://www.w3.org/2000/svg" xmlns:xlink="http://www.w3.org/1999/xlink" xml:space="preserve" overflow="hidden"><g transform="translate(-73 -348)"><g><path d="M1039 1400.22C1039 1385.19 1051.19 1373 1066.22 1373L2595.78 1373C2610.81 1373 2623 1385.19 2623 1400.22L2623 1725.78C2623 1740.81 2610.81 1753 2595.78 1753L1066.22 1753C1051.19 1753 1039 1740.81 1039 1725.78Z" fill="#FF655A" fill-rule="evenodd" fill-opacity="1"/><rect x="2783" y="1093" width="334" height="134" fill="#F5F5F5" fill-opacity="1"/><text fill="#EB1000" fill-opacity="1" font-family="Adobe Clean Light,Adobe Clean Light_MSFontService,sans-serif" font-style="normal" font-variant="normal" font-weight="300" font-stretch="normal" font-size="41" text-anchor="start" direction="ltr" writing-mode="lr-tb" unicode-bidi="normal" text-decoration="none" transform="matrix(1 0 0 1 2815.55 1150)">Backoffice </text><text fill="#EB1000" fill-opacity="1" font-family="Adobe Clean Light,Adobe Clean Light_MSFontService,sans-serif" font-style="normal" font-variant="normal" font-weight="300" font-stretch="normal" font-size="41" text-anchor="start" direction="ltr" writing-mode="lr-tb" unicode-bidi="normal" text-decoration="none" transform="matrix(1 0 0 1 2815.55 1200)">events</text><path d="M2517.61 661.062 2706.5 661.062C2708.4 661.062 2709.94 662.601 2709.94 664.5L2709.94 1295.62C2709.94 1297.52 2708.4 1299.06 2706.5 1299.06L2164.6 1299.06 2168.04 1295.63 2168.03 1300.93 2168 1306.59 2167.87 1318.76 2167.69 1331.74 2167.49 1345.11 2167.29 1358.48 2167.13 1371.62 2160.26 1371.54 2160.41 1358.38 2160.62 1345.01 2160.82 1331.65 2161 1318.69 2161.12 1306.55 2161.16 1300.91 2161.17 1295.61C2161.17 1293.72 2162.71 1292.18 2164.6 1292.18L2706.5 1292.18 2703.06 1295.62 2703.06 664.5 2706.5 667.937 2517.61 667.937ZM2177.48 1367.12 2163.5 1394.5 2149.98 1366.88Z" fill="#E63888" fill-rule="nonzero" fill-opacity="1"/><path d="M3428.42 645.063 3477.38 645.063C3479.28 645.063 3480.82 646.602 3480.82 648.5L3480.82 1425.5 3477.38 1422.06 3570.58 1422.06 3570.58 1428.94 3477.38 1428.94C3475.48 1428.94 3473.95 1427.4 3473.95 1425.5L3473.95 648.5 3477.38 651.938 3428.42 651.938ZM3433 662.25 3405.5 648.5 3433 634.75ZM3566 1411.75 3593.5 1425.5 3566 1439.25Z" fill="#EB1000" fill-rule="nonzero" fill-opacity="1"/><path d="M3782.5 1406.06 3914.89 1406.06 3911.45 1409.5 3911.45 493.5C3911.45 491.602 3912.99 490.063 3914.89 490.063L3962.58 490.063 3962.58 496.938 3914.89 496.938 3918.33 493.5 3918.33 1409.5C3918.33 1411.4 3916.79 1412.94 3914.89 1412.94L3782.5 1412.94ZM3958 479.75 3985.5 493.5 3958 507.25Z" fill="#A6A6A6" fill-rule="nonzero" fill-opacity="1"/><text fill="#EB1000" fill-opacity="1" font-family="Adobe Clean Light,Adobe Clean Light_MSFontService,sans-serif" font-style="normal" font-variant="normal" font-weight="300" font-stretch="normal" font-size="37" text-anchor="start" direction="ltr" writing-mode="lr-tb" unicode-bidi="normal" text-decoration="none" transform="matrix(1 0 0 1 2974.12 1465)">Historical data</text><path d="M2646.42 1959.06 3129.5 1959.06 3126.06 1962.5 3126.06 1736.5 3132.94 1736.5 3132.94 1962.5C3132.94 1964.4 3131.4 1965.94 3129.5 1965.94L2646.42 1965.94ZM2651 1976.25 2623.5 1962.5 2651 1948.75Z" fill="#009C3B" fill-rule="nonzero" fill-opacity="1"/><path d="M174.5 1038.4C174.5 1029.62 181.62 1022.5 190.402 1022.5L2603.6 1022.5C2612.38 1022.5 2619.5 1029.62 2619.5 1038.4L2619.5 1228.6C2619.5 1237.38 2612.38 1244.5 2603.6 1244.5L190.402 1244.5C181.62 1244.5 174.5 1237.38 174.5 1228.6Z" stroke="#2C2C2C" stroke-width="3.4375" stroke-linecap="butt" stroke-linejoin="round" stroke-miterlimit="10" stroke-dasharray="13.75 10.3125" stroke-opacity="1" fill="#FFCCC8" fill-rule="evenodd" fill-opacity="1"/><path d="M1139 1063.6C1139 1057.19 1144.19 1052 1150.6 1052L2561.4 1052C2567.81 1052 2573 1057.19 2573 1063.6L2573 1202.4C2573 1208.81 2567.81 1214 2561.4 1214L1150.6 1214C1144.19 1214 1139 1208.81 1139 1202.4Z" fill="#EB1000" fill-rule="evenodd" fill-opacity="1"/><path d="M1250.94 578.5 1250.94 1029.8 1244.06 1029.8 1244.06 578.5ZM1261.25 1025.22 1247.5 1052.72 1233.75 1025.22Z" fill="#A6A6A6" fill-rule="nonzero" fill-opacity="1"/><rect x="1018" y="742" width="386" height="133" fill="#F5F5F5" fill-opacity="1"/><text fill="#000000" fill-opacity="1" font-family="Adobe Clean Light,Adobe Clean Light_MSFontService,sans-serif" font-style="normal" font-variant="normal" font-weight="300" font-stretch="normal" font-size="41" text-anchor="start" direction="ltr" writing-mode="lr-tb" unicode-bidi="normal" text-decoration="none" transform="matrix(1 0 0 1 1074.16 798)">GraphQL request </text><text fill="#000000" fill-opacity="1" font-family="Adobe Clean Light,Adobe Clean Light_MSFontService,sans-serif" font-style="normal" font-variant="normal" font-weight="300" font-stretch="normal" font-size="41" text-anchor="start" direction="ltr" writing-mode="lr-tb" unicode-bidi="normal" text-decoration="none" transform="matrix(1 0 0 1 1100.24 848)">(content, cart)</text><path d="M1377 738.392C1377 731.548 1382.55 726 1389.39 726L1637.61 726C1644.45 726 1650 731.548 1650 738.392L1650 886.608C1650 893.452 1644.45 899 1637.61 899L1389.39 899C1382.55 899 1377 893.452 1377 886.608Z" fill="#E9740A" fill-rule="evenodd" fill-opacity="1"/><path d="M1139 366.69C1139 357.472 1146.47 350 1155.69 350L2323.31 350C2332.53 350 2340 357.472 2340 366.69L2340 566.31C2340 575.528 2332.53 583 2323.31 583L1155.69 583C1146.47 583 1139 575.528 1139 566.31Z" fill="#21A5A2" fill-rule="evenodd" fill-opacity="1"/><path d="M1723 738.392C1723 731.548 1728.55 726 1735.39 726L1982.61 726C1989.45 726 1995 731.548 1995 738.392L1995 886.608C1995 893.452 1989.45 899 1982.61 899L1735.39 899C1728.55 899 1723 893.452 1723 886.608Z" fill="#009C3B" fill-rule="evenodd" fill-opacity="1"/><path d="M2069 738.392C2069 731.548 2074.55 726 2081.39 726L2328.61 726C2335.45 726 2341 731.548 2341 738.392L2341 886.608C2341 893.452 2335.45 899 2328.61 899L2081.39 899C2074.55 899 2069 893.452 2069 886.608Z" fill="#009C3B" fill-rule="evenodd" fill-opacity="1"/><text fill="#FFFFFF" fill-opacity="1" font-family="Calibri,Calibri_MSFontService,sans-serif" font-style="normal" font-variant="normal" font-weight="400" font-stretch="normal" font-size="92" text-anchor="start" direction="ltr" writing-mode="lr-tb" unicode-bidi="normal" text-decoration="none" transform="matrix(1 0 0 1 1387.05 463)">Shopper’s Browser</text><text fill="#FFFFFF" fill-opacity="1" font-family="Adobe Clean Light,Adobe Clean Light_MSFontService,sans-serif" font-style="normal" font-variant="normal" font-weight="300" font-stretch="normal" font-size="55" text-anchor="start" direction="ltr" writing-mode="lr-tb" unicode-bidi="normal" text-decoration="none" transform="matrix(1 0 0 1 1234.59 540)">Search/browse catalog, shopping cart, checkout</text><text fill="#FFFFFF" fill-opacity="1" font-family="Adobe Clean Light,Adobe Clean Light_MSFontService,sans-serif" font-style="normal" font-variant="normal" font-weight="300" font-stretch="normal" font-size="50" text-anchor="start" direction="ltr" writing-mode="lr-tb" unicode-bidi="normal" text-decoration="none" transform="matrix(1 0 0 1 1464.82 801)">PWA </text><text fill="#FFFFFF" fill-opacity="1" font-family="Adobe Clean Light,Adobe Clean Light_MSFontService,sans-serif" font-style="normal" font-variant="normal" font-weight="300" font-stretch="normal" font-size="50" text-anchor="start" direction="ltr" writing-mode="lr-tb" unicode-bidi="normal" text-decoration="none" transform="matrix(1 0 0 1 1451.07 861)">Studio</text><text fill="#FFFFFF" fill-opacity="1" font-family="Adobe Clean Light,Adobe Clean Light_MSFontService,sans-serif" font-style="normal" font-variant="normal" font-weight="300" font-stretch="normal" font-size="50" text-anchor="start" direction="ltr" writing-mode="lr-tb" unicode-bidi="normal" text-decoration="none" transform="matrix(1 0 0 1 1813.93 801)">AEM </text><text fill="#FFFFFF" fill-opacity="1" font-family="Adobe Clean Light,Adobe Clean Light_MSFontService,sans-serif" font-style="normal" font-variant="normal" font-weight="300" font-stretch="normal" font-size="50" text-anchor="start" direction="ltr" writing-mode="lr-tb" unicode-bidi="normal" text-decoration="none" transform="matrix(1 0 0 1 1790.17 861)">Publish</text><text fill="#FFFFFF" fill-opacity="1" font-family="Adobe Clean Light,Adobe Clean Light_MSFontService,sans-serif" font-style="normal" font-variant="normal" font-weight="300" font-stretch="normal" font-size="50" text-anchor="start" direction="ltr" writing-mode="lr-tb" unicode-bidi="normal" text-decoration="none" transform="matrix(1 0 0 1 2156.77 801)">AEM </text><text fill="#FFFFFF" fill-opacity="1" font-family="Adobe Clean Light,Adobe Clean Light_MSFontService,sans-serif" font-style="normal" font-variant="normal" font-weight="300" font-stretch="normal" font-size="50" text-anchor="start" direction="ltr" writing-mode="lr-tb" unicode-bidi="normal" text-decoration="none" transform="matrix(1 0 0 1 2137.02 861)">Author</text><path d="M2282.5 521.892C2282.5 515.048 2288.05 509.5 2294.89 509.5L2542.11 509.5C2548.95 509.5 2554.5 515.048 2554.5 521.892L2554.5 670.108C2554.5 676.951 2548.95 682.5 2542.11 682.5L2294.89 682.5C2288.05 682.5 2282.5 676.951 2282.5 670.108Z" stroke="#FFFFFF" stroke-width="6.875" stroke-linecap="butt" stroke-linejoin="round" stroke-miterlimit="10" stroke-opacity="1" fill="#21A5A2" fill-rule="evenodd" fill-opacity="1"/><text fill="#FFFFFF" fill-opacity="1" font-family="Adobe Clean Light,Adobe Clean Light_MSFontService,sans-serif" font-style="normal" font-variant="normal" font-weight="300" font-stretch="normal" font-size="50" text-anchor="start" direction="ltr" writing-mode="lr-tb" unicode-bidi="normal" text-decoration="none" transform="matrix(1 0 0 1 2321.1 583)">Storefront</text><text fill="#FFFFFF" fill-opacity="1" font-family="Adobe Clean Light,Adobe Clean Light_MSFontService,sans-serif" font-style="normal" font-variant="normal" font-weight="300" font-stretch="normal" font-size="50" text-anchor="start" direction="ltr" writing-mode="lr-tb" unicode-bidi="normal" text-decoration="none" transform="matrix(1 0 0 1 2330.84 643)">Collector</text><path d="M1517.94 601.417 1517.94 712.503 1511.06 712.503 1511.06 601.417ZM1500.75 606 1514.5 578.5 1528.25 606ZM1528.25 707.919 1514.5 735.419 1500.75 707.919Z" fill="#A6A6A6" fill-rule="nonzero" fill-opacity="1"/><path d="M1864.94 601.417 1864.94 713.983 1858.06 713.983 1858.06 601.417ZM1847.75 606 1861.5 578.5 1875.25 606ZM1875.25 709.4 1861.5 736.9 1847.75 709.4Z" fill="#A6A6A6" fill-rule="nonzero" fill-opacity="1"/><path d="M2207.94 601.417 2207.94 622.042 2201.06 622.042 2201.06 601.417ZM2207.94 628.917 2207.94 649.542 2201.06 649.542 2201.06 628.917ZM2207.94 656.417 2207.94 677.042 2201.06 677.042 2201.06 656.417ZM2207.94 683.917 2207.94 704.542 2201.06 704.542 2201.06 683.917ZM2207.94 711.417 2207.94 713.983 2201.06 713.983 2201.06 711.417ZM2190.75 606 2204.5 578.5 2218.25 606ZM2218.25 709.4 2204.5 736.9 2190.75 709.4Z" fill="#A6A6A6" fill-rule="nonzero" fill-opacity="1"/><text fill="#000000" fill-opacity="1" font-family="Adobe Clean Light,Adobe Clean Light_MSFontService,sans-serif" font-style="normal" font-variant="normal" font-weight="300" font-stretch="normal" font-size="41" text-anchor="start" direction="ltr" writing-mode="lr-tb" unicode-bidi="normal" text-decoration="none" transform="matrix(1 0 0 1 1879.89 668)">Pages</text><text fill="#FFFFFF" fill-opacity="1" font-family="Adobe Clean Light,Adobe Clean Light_MSFontService,sans-serif" font-style="normal" font-variant="normal" font-weight="300" font-stretch="normal" font-size="50" text-anchor="start" direction="ltr" writing-mode="lr-tb" unicode-bidi="normal" text-decoration="none" transform="matrix(1 0 0 1 1432.27 1151)">API Mesh for Adobe Developer App Builder</text><path d="M855 1062.46C855 1056.68 859.682 1052 865.458 1052L990.542 1052C996.318 1052 1001 1056.68 1001 1062.46L1001 1203.54C1001 1209.32 996.318 1214 990.542 1214L865.458 1214C859.682 1214 855 1209.32 855 1203.54Z" fill="#EB1000" fill-rule="evenodd" fill-opacity="1"/><path d="M674 1062.53C674 1056.71 678.714 1052 684.53 1052L810.47 1052C816.286 1052 821 1056.71 821 1062.53L821 1203.47C821 1209.29 816.286 1214 810.47 1214L684.53 1214C678.714 1214 674 1209.29 674 1203.47Z" fill="#EB1000" fill-rule="evenodd" fill-opacity="1"/><path d="M494 1062.46C494 1056.68 498.682 1052 504.458 1052L629.542 1052C635.318 1052 640 1056.68 640 1062.46L640 1203.54C640 1209.32 635.318 1214 629.542 1214L504.458 1214C498.682 1214 494 1209.32 494 1203.54Z" fill="#EB1000" fill-rule="evenodd" fill-opacity="1"/><path d="M1517.94 899.5 1517.94 1029.74 1511.06 1029.74 1511.06 899.5ZM1528.25 1025.15 1514.5 1052.65 1500.75 1025.15Z" fill="#A6A6A6" fill-rule="nonzero" fill-opacity="1"/><text fill="#000000" fill-opacity="1" font-family="Adobe Clean Light,Adobe Clean Light_MSFontService,sans-serif" font-style="normal" font-variant="normal" font-weight="300" font-stretch="normal" font-size="41" text-anchor="start" direction="ltr" writing-mode="lr-tb" unicode-bidi="normal" text-decoration="none" transform="matrix(1 0 0 1 1534.08 975)">SSR calls</text><path d="M1864.94 920.417 1864.94 1030.38 1858.06 1030.38 1858.06 920.417ZM1847.75 925 1861.5 897.5 1875.25 925ZM1875.25 1025.8 1861.5 1053.3 1847.75 1025.8Z" fill="#A6A6A6" fill-rule="nonzero" fill-opacity="1"/><path d="M2207.94 908.5 2207.94 929.125 2201.06 929.125 2201.06 908.5ZM2207.94 936 2207.94 956.625 2201.06 956.625 2201.06 936ZM2207.94 963.5 2207.94 984.125 2201.06 984.125 2201.06 963.5ZM2207.94 991 2207.94 1011.63 2201.06 1011.63 2201.06 991ZM2207.94 1018.5 2207.94 1030.39 2201.06 1030.39 2201.06 1018.5ZM2218.25 1025.8 2204.5 1053.3 2190.75 1025.8Z" fill="#A6A6A6" fill-rule="nonzero" fill-opacity="1"/><path d="M1923.5 878.167C1923.5 872.828 1927.83 868.5 1933.17 868.5L2000.83 868.5C2006.17 868.5 2010.5 872.828 2010.5 878.167L2010.5 916.833C2010.5 922.172 2006.17 926.5 2000.83 926.5L1933.17 926.5C1927.83 926.5 1923.5 922.172 1923.5 916.833Z" stroke="#FFFFFF" stroke-width="9.16667" stroke-linecap="butt" stroke-linejoin="round" stroke-miterlimit="10" stroke-opacity="1" fill="#009C3B" fill-rule="evenodd" fill-opacity="1"/><text fill="#FFFFFF" fill-opacity="1" font-family="Adobe Clean Light,Adobe Clean Light_MSFontService,sans-serif" font-style="normal" font-variant="normal" font-weight="300" font-stretch="normal" font-size="41" text-anchor="start" direction="ltr" writing-mode="lr-tb" unicode-bidi="normal" text-decoration="none" transform="matrix(1 0 0 1 1941.64 914)">CIF</text><path d="M2268.5 878.167C2268.5 872.828 2272.83 868.5 2278.17 868.5L2345.83 868.5C2351.17 868.5 2355.5 872.828 2355.5 878.167L2355.5 916.833C2355.5 922.172 2351.17 926.5 2345.83 926.5L2278.17 926.5C2272.83 926.5 2268.5 922.172 2268.5 916.833Z" stroke="#FFFFFF" stroke-width="9.16667" stroke-linecap="butt" stroke-linejoin="round" stroke-miterlimit="10" stroke-opacity="1" fill="#009C3B" fill-rule="evenodd" fill-opacity="1"/><text fill="#FFFFFF" fill-opacity="1" font-family="Adobe Clean Light,Adobe Clean Light_MSFontService,sans-serif" font-style="normal" font-variant="normal" font-weight="300" font-stretch="normal" font-size="41" text-anchor="start" direction="ltr" writing-mode="lr-tb" unicode-bidi="normal" text-decoration="none" transform="matrix(1 0 0 1 2285.72 914)">CIF</text><text fill="#B00C00" fill-opacity="1" font-family="Calibri,Calibri_MSFontService,sans-serif" font-style="normal" font-variant="normal" font-weight="400" font-stretch="normal" font-size="48" text-anchor="start" direction="ltr" writing-mode="lr-tb" unicode-bidi="normal" text-decoration="none" transform="matrix(1 0 0 1 218.419 1149)">AppBuilder</text><text fill="#EB1000" fill-opacity="1" font-family="Calibri,Calibri_MSFontService,sans-serif" font-style="normal" font-variant="normal" font-weight="400" font-stretch="normal" font-size="48" text-anchor="start" direction="ltr" writing-mode="lr-tb" unicode-bidi="normal" text-decoration="none" transform="matrix(1 0 0 1 542.953 1306)">AppBuilder Instances</text><path d="M569.062 1029.46 569.062 1008.83 575.937 1008.83 575.937 1029.46ZM569.062 1001.96 569.062 981.332 575.937 981.332 575.937 1001.96ZM569.062 974.457 569.062 953.832 575.937 953.832 575.937 974.457ZM569.062 946.957 569.062 938.5C569.062 936.601 570.601 935.062 572.5 935.062L584.668 935.062 584.668 941.937 572.5 941.937 575.937 938.5 575.937 946.957ZM591.543 935.062 612.168 935.062 612.168 941.937 591.543 941.937ZM619.043 935.062 639.668 935.062 639.668 941.937 619.043 941.937ZM646.543 935.062 667.168 935.062 667.168 941.937 646.543 941.937ZM674.043 935.062 694.668 935.062 694.668 941.937 674.043 941.937ZM701.543 935.062 722.168 935.062 722.168 941.937 701.543 941.937ZM729.043 935.062 749.668 935.062 749.668 941.937 729.043 941.937ZM756.543 935.062 777.168 935.062 777.168 941.937 756.543 941.937ZM784.043 935.062 804.668 935.062 804.668 941.937 784.043 941.937ZM811.543 935.062 832.168 935.062 832.168 941.937 811.543 941.937ZM839.043 935.062 859.668 935.062 859.668 941.937 839.043 941.937ZM866.543 935.062 887.168 935.062 887.168 941.937 866.543 941.937ZM894.043 935.062 914.668 935.062 914.668 941.937 894.043 941.937ZM921.543 935.062 942.168 935.062 942.168 941.937 921.543 941.937ZM949.043 935.062 969.668 935.062 969.668 941.937 949.043 941.937ZM976.543 935.062 997.168 935.062 997.168 941.937 976.543 941.937ZM1004.04 935.062 1024.67 935.062 1024.67 941.937 1004.04 941.937ZM1031.54 935.062 1052.17 935.062 1052.17 941.937 1031.54 941.937ZM1059.04 935.062 1079.67 935.062 1079.67 941.937 1059.04 941.937ZM1086.54 935.062 1107.17 935.062 1107.17 941.937 1086.54 941.937ZM1114.04 935.062 1134.67 935.062 1134.67 941.937 1114.04 941.937ZM1141.54 935.062 1162.17 935.062 1162.17 941.937 1141.54 941.937ZM1169.04 935.062 1189.67 935.062 1189.67 941.937 1169.04 941.937ZM1196.54 935.062 1206.5 935.062C1208.4 935.062 1209.94 936.601 1209.94 938.5L1209.94 949.167 1203.06 949.167 1203.06 938.5 1206.5 941.937 1196.54 941.937ZM1209.94 956.042 1209.94 976.667 1203.06 976.667 1203.06 956.042ZM1209.94 983.542 1209.94 1004.17 1203.06 1004.17 1203.06 983.542ZM1209.94 1011.04 1209.94 1030.58 1203.06 1030.58 1203.06 1011.04ZM586.25 1024.87 572.5 1052.37 558.75 1024.87ZM1220.25 1026 1206.5 1053.5 1192.75 1026Z" fill="#A6A6A6" fill-rule="nonzero" fill-opacity="1"/><path d="M743.063 1033.58 743.063 1012.96 749.938 1012.96 749.938 1033.58ZM743.063 1006.08 743.063 985.458 749.938 985.458 749.938 1006.08ZM743.063 978.583 743.063 958.5C743.063 956.601 744.602 955.062 746.5 955.062L747.042 955.062 747.042 961.937 746.5 961.937 749.938 958.5 749.938 978.583ZM753.917 955.062 774.542 955.062 774.542 961.937 753.917 961.937ZM781.417 955.062 802.042 955.062 802.042 961.937 781.417 961.937ZM808.917 955.062 829.542 955.062 829.542 961.937 808.917 961.937ZM836.417 955.062 857.042 955.062 857.042 961.937 836.417 961.937ZM863.917 955.062 884.542 955.062 884.542 961.937 863.917 961.937ZM891.417 955.062 912.042 955.062 912.042 961.937 891.417 961.937ZM918.917 955.062 939.542 955.062 939.542 961.937 918.917 961.937ZM946.417 955.062 967.042 955.062 967.042 961.937 946.417 961.937ZM973.917 955.062 994.542 955.062 994.542 961.937 973.917 961.937ZM1001.42 955.062 1022.04 955.062 1022.04 961.937 1001.42 961.937ZM1028.92 955.062 1049.54 955.062 1049.54 961.937 1028.92 961.937ZM1056.42 955.062 1077.04 955.062 1077.04 961.937 1056.42 961.937ZM1083.92 955.062 1104.54 955.062 1104.54 961.937 1083.92 961.937ZM1111.42 955.062 1132.04 955.062 1132.04 961.937 1111.42 961.937ZM1138.92 955.062 1159.54 955.062 1159.54 961.937 1138.92 961.937ZM1166.42 955.062 1181.5 955.062C1183.4 955.062 1184.94 956.601 1184.94 958.5L1184.94 964.042 1178.06 964.042 1178.06 958.5 1181.5 961.937 1166.42 961.937ZM1184.94 970.917 1184.94 991.542 1178.06 991.542 1178.06 970.917ZM1184.94 998.417 1184.94 1019.04 1178.06 1019.04 1178.06 998.417ZM1184.94 1025.92 1184.94 1026.78 1178.06 1026.78 1178.06 1025.92ZM760.25 1029 746.5 1056.5 732.75 1029ZM1195.25 1022.2 1181.5 1049.7 1167.75 1022.2Z" fill="#A6A6A6" fill-rule="nonzero" fill-opacity="1"/><path d="M928.063 1029.4 928.063 1008.77 934.938 1008.77 934.938 1029.4ZM928.063 1001.9 928.063 989.5C928.063 987.602 929.602 986.063 931.5 986.063L939.728 986.063 939.728 992.938 931.5 992.938 934.938 989.5 934.938 1001.9ZM946.603 986.063 967.228 986.063 967.228 992.938 946.603 992.938ZM974.103 986.063 994.728 986.063 994.728 992.938 974.103 992.938ZM1001.6 986.063 1022.23 986.063 1022.23 992.938 1001.6 992.938ZM1029.1 986.063 1049.73 986.063 1049.73 992.938 1029.1 992.938ZM1056.6 986.063 1077.23 986.063 1077.23 992.938 1056.6 992.938ZM1084.1 986.063 1104.73 986.063 1104.73 992.938 1084.1 992.938ZM1111.6 986.063 1132.23 986.063 1132.23 992.938 1111.6 992.938ZM1139.1 986.063 1155.5 986.063C1157.4 986.063 1158.94 987.602 1158.94 989.5L1158.94 993.729 1152.06 993.729 1152.06 989.5 1155.5 992.938 1139.1 992.938ZM1158.94 1000.6 1158.94 1021.23 1152.06 1021.23 1152.06 1000.6ZM1158.94 1028.1 1158.94 1029.58 1152.06 1029.58 1152.06 1028.1ZM945.25 1024.81 931.5 1052.31 917.75 1024.81ZM1169.25 1025 1155.5 1052.5 1141.75 1025Z" fill="#A6A6A6" fill-rule="nonzero" fill-opacity="1"/><path d="M1328 1399.53C1328 1393.16 1333.16 1388 1339.53 1388L1532.47 1388C1538.84 1388 1544 1393.16 1544 1399.53L1544 1537.47C1544 1543.84 1538.84 1549 1532.47 1549L1339.53 1549C1333.16 1549 1328 1543.84 1328 1537.47Z" fill="#EB1000" fill-rule="evenodd" fill-opacity="1"/><path d="M1090 1399.53C1090 1393.16 1095.16 1388 1101.53 1388L1295.47 1388C1301.84 1388 1307 1393.16 1307 1399.53L1307 1537.47C1307 1543.84 1301.84 1549 1295.47 1549L1101.53 1549C1095.16 1549 1090 1543.84 1090 1537.47Z" fill="#EB1000" fill-rule="evenodd" fill-opacity="1"/><path d="M2039 1399.53C2039 1393.16 2044.16 1388 2050.53 1388L2244.47 1388C2250.84 1388 2256 1393.16 2256 1399.53L2256 1537.47C2256 1543.84 2250.84 1549 2244.47 1549L2050.53 1549C2044.16 1549 2039 1543.84 2039 1537.47Z" fill="#EB1000" fill-rule="evenodd" fill-opacity="1"/><path d="M1802 1399.53C1802 1393.16 1807.16 1388 1813.53 1388L2007.47 1388C2013.84 1388 2019 1393.16 2019 1399.53L2019 1537.47C2019 1543.84 2013.84 1549 2007.47 1549L1813.53 1549C1807.16 1549 1802 1543.84 1802 1537.47Z" fill="#EB1000" fill-rule="evenodd" fill-opacity="1"/><path d="M1565 1399.53C1565 1393.16 1570.16 1388 1576.53 1388L1770.47 1388C1776.84 1388 1782 1393.16 1782 1399.53L1782 1537.47C1782 1543.84 1776.84 1549 1770.47 1549L1576.53 1549C1570.16 1549 1565 1543.84 1565 1537.47Z" fill="#EB1000" fill-rule="evenodd" fill-opacity="1"/><path d="M2277 1399.53C2277 1393.16 2282.16 1388 2288.53 1388L2579.47 1388C2585.84 1388 2591 1393.16 2591 1399.53L2591 1537.47C2591 1543.84 2585.84 1549 2579.47 1549L2288.53 1549C2282.16 1549 2277 1543.84 2277 1537.47Z" fill="#EB1000" fill-rule="evenodd" fill-opacity="1"/><text fill="#FFFFFF" fill-opacity="1" font-family="Adobe Clean Light,Adobe Clean Light_MSFontService,sans-serif" font-style="normal" font-variant="normal" font-weight="300" font-stretch="normal" font-size="50" text-anchor="start" direction="ltr" writing-mode="lr-tb" unicode-bidi="normal" text-decoration="none" transform="matrix(1 0 0 1 1159.39 1455)">Live </text><text fill="#FFFFFF" fill-opacity="1" font-family="Adobe Clean Light,Adobe Clean Light_MSFontService,sans-serif" font-style="normal" font-variant="normal" font-weight="300" font-stretch="normal" font-size="50" text-anchor="start" direction="ltr" writing-mode="lr-tb" unicode-bidi="normal" text-decoration="none" transform="matrix(1 0 0 1 1133.03 1501)">Search</text><text fill="#FFFFFF" fill-opacity="1" font-family="Adobe Clean Light,Adobe Clean Light_MSFontService,sans-serif" font-style="normal" font-variant="normal" font-weight="300" font-stretch="normal" font-size="46" text-anchor="start" direction="ltr" writing-mode="lr-tb" unicode-bidi="normal" text-decoration="none" transform="matrix(1 0 0 1 1361.07 1457)">Channel </text><text fill="#FFFFFF" fill-opacity="1" font-family="Adobe Clean Light,Adobe Clean Light_MSFontService,sans-serif" font-style="normal" font-variant="normal" font-weight="300" font-stretch="normal" font-size="46" text-anchor="start" direction="ltr" writing-mode="lr-tb" unicode-bidi="normal" text-decoration="none" transform="matrix(1 0 0 1 1356.21 1503)">Manager</text><text fill="#FFFFFF" fill-opacity="1" font-family="Adobe Clean Light,Adobe Clean Light_MSFontService,sans-serif" font-style="normal" font-variant="normal" font-weight="300" font-stretch="normal" font-size="50" text-anchor="start" direction="ltr" writing-mode="lr-tb" unicode-bidi="normal" text-decoration="none" transform="matrix(1 0 0 1 1645 1455)">SF </text><text fill="#FFFFFF" fill-opacity="1" font-family="Adobe Clean Light,Adobe Clean Light_MSFontService,sans-serif" font-style="normal" font-variant="normal" font-weight="300" font-stretch="normal" font-size="50" text-anchor="start" direction="ltr" writing-mode="lr-tb" unicode-bidi="normal" text-decoration="none" transform="matrix(1 0 0 1 1594.88 1501)">Catalog</text><text fill="#FFFFFF" fill-opacity="1" font-family="Adobe Clean Light,Adobe Clean Light_MSFontService,sans-serif" font-style="normal" font-variant="normal" font-weight="300" font-stretch="normal" font-size="50" text-anchor="start" direction="ltr" writing-mode="lr-tb" unicode-bidi="normal" text-decoration="none" transform="matrix(1 0 0 1 1891.39 1479)">…</text><text fill="#FFFFFF" fill-opacity="1" font-family="Adobe Clean Light,Adobe Clean Light_MSFontService,sans-serif" font-style="normal" font-variant="normal" font-weight="300" font-stretch="normal" font-size="50" text-anchor="start" direction="ltr" writing-mode="lr-tb" unicode-bidi="normal" text-decoration="none" transform="matrix(1 0 0 1 2094.36 1479)">PREX</text><text fill="#FFFFFF" fill-opacity="1" font-family="Adobe Clean Light,Adobe Clean Light_MSFontService,sans-serif" font-style="normal" font-variant="normal" font-weight="300" font-stretch="normal" font-size="46" text-anchor="start" direction="ltr" writing-mode="lr-tb" unicode-bidi="normal" text-decoration="none" transform="matrix(1 0 0 1 2335.29 1457)">Commerce</text><text fill="#FFFFFF" fill-opacity="1" font-family="Adobe Clean Light,Adobe Clean Light_MSFontService,sans-serif" font-style="normal" font-variant="normal" font-weight="300" font-stretch="normal" font-size="46" text-anchor="start" direction="ltr" writing-mode="lr-tb" unicode-bidi="normal" text-decoration="none" transform="matrix(1 0 0 1 2355.92 1503)">Collector</text><path d="M1793.94 1214.5 1793.94 1347.89 1787.06 1347.89 1787.06 1214.5ZM1804.25 1343.31 1790.5 1370.81 1776.75 1343.31Z" fill="#A6A6A6" fill-rule="nonzero" fill-opacity="1"/><path d="M357 1745.39C357 1738.55 362.548 1733 369.392 1733L616.608 1733C623.452 1733 629 1738.55 629 1745.39L629 1893.61C629 1900.45 623.452 1906 616.608 1906L369.392 1906C362.548 1906 357 1900.45 357 1893.61Z" fill="#E63888" fill-rule="evenodd" fill-opacity="1"/><text fill="#FFFFFF" fill-opacity="1" font-family="Adobe Clean Light,Adobe Clean Light_MSFontService,sans-serif" font-style="normal" font-variant="normal" font-weight="300" font-stretch="normal" font-size="50" text-anchor="start" direction="ltr" writing-mode="lr-tb" unicode-bidi="normal" text-decoration="none" transform="matrix(1 0 0 1 412.198 1807)">3</text><text fill="#FFFFFF" fill-opacity="1" font-family="Adobe Clean Light,Adobe Clean Light_MSFontService,sans-serif" font-style="normal" font-variant="normal" font-weight="300" font-stretch="normal" font-size="34" text-anchor="start" direction="ltr" writing-mode="lr-tb" unicode-bidi="normal" text-decoration="none" transform="matrix(1 0 0 1 435.687 1792)">rd</text><text fill="#FFFFFF" fill-opacity="1" font-family="Adobe Clean Light,Adobe Clean Light_MSFontService,sans-serif" font-style="normal" font-variant="normal" font-weight="300" font-stretch="normal" font-size="50" text-anchor="start" direction="ltr" writing-mode="lr-tb" unicode-bidi="normal" text-decoration="none" transform="matrix(1 0 0 1 474.646 1807)">party</text><text fill="#FFFFFF" fill-opacity="1" font-family="Adobe Clean Light,Adobe Clean Light_MSFontService,sans-serif" font-style="normal" font-variant="normal" font-weight="300" font-stretch="normal" font-size="50" text-anchor="start" direction="ltr" writing-mode="lr-tb" unicode-bidi="normal" text-decoration="none" transform="matrix(1 0 0 1 415.933 1867)">systems</text><text fill="#000000" fill-opacity="1" font-family="Adobe Clean Light,Adobe Clean Light_MSFontService,sans-serif" font-style="normal" font-variant="normal" font-weight="300" font-stretch="normal" font-size="50" text-anchor="start" direction="ltr" writing-mode="lr-tb" unicode-bidi="normal" text-decoration="none" transform="matrix(1 0 0 1 1465.45 1636)">Adobe Commerce Multi</text><text fill="#000000" fill-opacity="1" font-family="Adobe Clean Light,Adobe Clean Light_MSFontService,sans-serif" font-style="normal" font-variant="normal" font-weight="300" font-stretch="normal" font-size="50" text-anchor="start" direction="ltr" writing-mode="lr-tb" unicode-bidi="normal" text-decoration="none" transform="matrix(1 0 0 1 1939.25 1636)">-</text><text fill="#000000" fill-opacity="1" font-family="Adobe Clean Light,Adobe Clean Light_MSFontService,sans-serif" font-style="normal" font-variant="normal" font-weight="300" font-stretch="normal" font-size="50" text-anchor="start" direction="ltr" writing-mode="lr-tb" unicode-bidi="normal" text-decoration="none" transform="matrix(1 0 0 1 1954.14 1636)">Tenant SaaS </text><text fill="#000000" fill-opacity="1" font-family="Adobe Clean Light,Adobe Clean Light_MSFontService,sans-serif" font-style="normal" font-variant="normal" font-weight="300" font-stretch="normal" font-size="50" text-anchor="start" direction="ltr" writing-mode="lr-tb" unicode-bidi="normal" text-decoration="none" transform="matrix(1 0 0 1 1658.52 1696)">(domain services)</text><path d="M2399.5 1720.33C2399.5 1712.14 2406.14 1705.5 2414.33 1705.5L2588.67 1705.5C2596.86 1705.5 2603.5 1712.14 2603.5 1720.33L2603.5 1779.67C2603.5 1787.86 2596.86 1794.5 2588.67 1794.5L2414.33 1794.5C2406.14 1794.5 2399.5 1787.86 2399.5 1779.67Z" stroke="#FFFFFF" stroke-width="9.16667" stroke-linecap="butt" stroke-linejoin="round" stroke-miterlimit="10" stroke-opacity="1" fill="#EB1000" fill-rule="evenodd" fill-opacity="1"/><text fill="#FFFFFF" fill-opacity="1" font-family="Adobe Clean Light,Adobe Clean Light_MSFontService,sans-serif" font-style="normal" font-variant="normal" font-weight="300" font-stretch="normal" font-size="48" text-anchor="start" direction="ltr" writing-mode="lr-tb" unicode-bidi="normal" text-decoration="none" transform="matrix(1 0 0 1 2446.85 1769)">Feeds</text><path d="M1044 1998.53C1044 1992.16 1049.16 1987 1055.53 1987L2607.47 1987C2613.84 1987 2619 1992.16 2619 1998.53L2619 2136.47C2619 2142.84 2613.84 2148 2607.47 2148L1055.53 2148C1049.16 2148 1044 2142.84 1044 2136.47Z" fill="#E9740A" fill-rule="evenodd" fill-opacity="1"/><text fill="#FFFFFF" fill-opacity="1" font-family="Adobe Clean Light,Adobe Clean Light_MSFontService,sans-serif" font-style="normal" font-variant="normal" font-weight="300" font-stretch="normal" font-size="50" text-anchor="start" direction="ltr" writing-mode="lr-tb" unicode-bidi="normal" text-decoration="none" transform="matrix(1 0 0 1 1532.85 2086)">Adobe Commerce Foundation</text><path d="M2177.5 1938.17C2177.5 1929.51 2184.51 1922.5 2193.17 1922.5L2604.83 1922.5C2613.49 1922.5 2620.5 1929.51 2620.5 1938.17L2620.5 2000.83C2620.5 2009.49 2613.49 2016.5 2604.83 2016.5L2193.17 2016.5C2184.51 2016.5 2177.5 2009.49 2177.5 2000.83Z" stroke="#FFFFFF" stroke-width="9.16667" stroke-linecap="butt" stroke-linejoin="round" stroke-miterlimit="10" stroke-opacity="1" fill="#E9740A" fill-rule="evenodd" fill-opacity="1"/><text fill="#FFFFFF" fill-opacity="1" font-family="Adobe Clean Light,Adobe Clean Light_MSFontService,sans-serif" font-style="normal" font-variant="normal" font-weight="300" font-stretch="normal" font-size="48" text-anchor="start" direction="ltr" writing-mode="lr-tb" unicode-bidi="normal" text-decoration="none" transform="matrix(1 0 0 1 2234.74 1984)">Service Connector</text><path d="M2840 521.392C2840 514.548 2845.55 509 2852.39 509L3396.61 509C3403.45 509 3409 514.548 3409 521.392L3409 669.608C3409 676.452 3403.45 682 3396.61 682L2852.39 682C2845.55 682 2840 676.452 2840 669.608Z" fill="#2799F6" fill-rule="evenodd" fill-opacity="1"/><text fill="#FFFFFF" fill-opacity="1" font-family="Adobe Clean Light,Adobe Clean Light_MSFontService,sans-serif" font-style="normal" font-variant="normal" font-weight="300" font-stretch="normal" font-size="50" text-anchor="start" direction="ltr" writing-mode="lr-tb" unicode-bidi="normal" text-decoration="none" transform="matrix(1 0 0 1 2891.92 589)">Adobe Experience Edge</text><text fill="#FFFFFF" fill-opacity="1" font-family="Adobe Clean Light,Adobe Clean Light_MSFontService,sans-serif" font-style="normal" font-variant="normal" font-weight="300" font-stretch="normal" font-size="50" text-anchor="start" direction="ltr" writing-mode="lr-tb" unicode-bidi="normal" text-decoration="none" transform="matrix(1 0 0 1 2952.95 649)">(Events and APIs)</text><path d="M2882 1578.39C2882 1571.55 2887.55 1566 2894.39 1566L3452.61 1566C3459.45 1566 3465 1571.55 3465 1578.39L3465 1726.61C3465 1733.45 3459.45 1739 3452.61 1739L2894.39 1739C2887.55 1739 2882 1733.45 2882 1726.61Z" fill="#2799F6" fill-rule="evenodd" fill-opacity="1"/><text fill="#FFFFFF" fill-opacity="1" font-family="Adobe Clean Light,Adobe Clean Light_MSFontService,sans-serif" font-style="normal" font-variant="normal" font-weight="300" font-stretch="normal" font-size="50" text-anchor="start" direction="ltr" writing-mode="lr-tb" unicode-bidi="normal" text-decoration="none" transform="matrix(1 0 0 1 3016.33 1640)">AEP Destination </text><text fill="#FFFFFF" fill-opacity="1" font-family="Adobe Clean Light,Adobe Clean Light_MSFontService,sans-serif" font-style="normal" font-variant="normal" font-weight="300" font-stretch="normal" font-size="50" text-anchor="start" direction="ltr" writing-mode="lr-tb" unicode-bidi="normal" text-decoration="none" transform="matrix(1 0 0 1 3071.33 1700)">Connector</text><path d="M3593 611.392C3593 604.548 3598.55 599 3605.39 599L3861.61 599C3868.45 599 3874 604.548 3874 611.392L3874 759.608C3874 766.452 3868.45 772 3861.61 772L3605.39 772C3598.55 772 3593 766.452 3593 759.608Z" fill="#2799F6" fill-rule="evenodd" fill-opacity="1"/><text fill="#FFFFFF" fill-opacity="1" font-family="Adobe Clean Light,Adobe Clean Light_MSFontService,sans-serif" font-style="normal" font-variant="normal" font-weight="300" font-stretch="normal" font-size="50" text-anchor="start" direction="ltr" writing-mode="lr-tb" unicode-bidi="normal" text-decoration="none" transform="matrix(1 0 0 1 3704.61 704)">AA</text><path d="M3593 802.392C3593 795.548 3598.55 790 3605.39 790L3861.61 790C3868.45 790 3874 795.548 3874 802.392L3874 950.608C3874 957.452 3868.45 963 3861.61 963L3605.39 963C3598.55 963 3593 957.452 3593 950.608Z" fill="#2799F6" fill-rule="evenodd" fill-opacity="1"/><text fill="#FFFFFF" fill-opacity="1" font-family="Adobe Clean Light,Adobe Clean Light_MSFontService,sans-serif" font-style="normal" font-variant="normal" font-weight="300" font-stretch="normal" font-size="50" text-anchor="start" direction="ltr" writing-mode="lr-tb" unicode-bidi="normal" text-decoration="none" transform="matrix(1 0 0 1 3671.66 894)">Target</text><path d="M3593 992.392C3593 985.548 3598.55 980 3605.39 980L3861.61 980C3868.45 980 3874 985.548 3874 992.392L3874 1140.61C3874 1147.45 3868.45 1153 3861.61 1153L3605.39 1153C3598.55 1153 3593 1147.45 3593 1140.61Z" fill="#2799F6" fill-rule="evenodd" fill-opacity="1"/><text fill="#FFFFFF" fill-opacity="1" font-family="Adobe Clean Light,Adobe Clean Light_MSFontService,sans-serif" font-style="normal" font-variant="normal" font-weight="300" font-stretch="normal" font-size="50" text-anchor="start" direction="ltr" writing-mode="lr-tb" unicode-bidi="normal" text-decoration="none" transform="matrix(1 0 0 1 3651.33 1085)">Marketo</text><path d="M3593 1183.32C3593 1176.52 3598.52 1171 3605.32 1171L3861.68 1171C3868.48 1171 3874 1176.52 3874 1183.32L3874 1330.68C3874 1337.48 3868.48 1343 3861.68 1343L3605.32 1343C3598.52 1343 3593 1337.48 3593 1330.68Z" fill="#2799F6" fill-rule="evenodd" fill-opacity="1"/><text fill="#FFFFFF" fill-opacity="1" font-family="Adobe Clean Light,Adobe Clean Light_MSFontService,sans-serif" font-style="normal" font-variant="normal" font-weight="300" font-stretch="normal" font-size="50" text-anchor="start" direction="ltr" writing-mode="lr-tb" unicode-bidi="normal" text-decoration="none" transform="matrix(1 0 0 1 3632.99 1275)">Campaign</text><path d="M3593 1373.39C3593 1366.55 3598.55 1361 3605.39 1361L3861.61 1361C3868.45 1361 3874 1366.55 3874 1373.39L3874 1521.61C3874 1528.45 3868.45 1534 3861.61 1534L3605.39 1534C3598.55 1534 3593 1528.45 3593 1521.61Z" fill="#2799F6" fill-rule="evenodd" fill-opacity="1"/><text fill="#FFFFFF" fill-opacity="1" font-family="Adobe Clean Light,Adobe Clean Light_MSFontService,sans-serif" font-style="normal" font-variant="normal" font-weight="300" font-stretch="normal" font-size="50" text-anchor="start" direction="ltr" writing-mode="lr-tb" unicode-bidi="normal" text-decoration="none" transform="matrix(1 0 0 1 3693.72 1466)">AEP</text><path d="M3985 611.392C3985 604.548 3990.55 599 3997.39 599L4253.61 599C4260.45 599 4266 604.548 4266 611.392L4266 759.608C4266 766.452 4260.45 772 4253.61 772L3997.39 772C3990.55 772 3985 766.452 3985 759.608Z" fill="#2799F6" fill-rule="evenodd" fill-opacity="1"/><text fill="#FFFFFF" fill-opacity="1" font-family="Adobe Clean Light,Adobe Clean Light_MSFontService,sans-serif" font-style="normal" font-variant="normal" font-weight="300" font-stretch="normal" font-size="50" text-anchor="start" direction="ltr" writing-mode="lr-tb" unicode-bidi="normal" text-decoration="none" transform="matrix(1 0 0 1 4087.52 704)">AJO</text><path d="M3985 802.392C3985 795.548 3990.55 790 3997.39 790L4253.61 790C4260.45 790 4266 795.548 4266 802.392L4266 950.607C4266 957.451 4260.45 963 4253.61 963L3997.39 963C3990.55 963 3985 957.451 3985 950.607Z" fill="#2799F6" fill-rule="evenodd" fill-opacity="1"/><text fill="#FFFFFF" fill-opacity="1" font-family="Adobe Clean Light,Adobe Clean Light_MSFontService,sans-serif" font-style="normal" font-variant="normal" font-weight="300" font-stretch="normal" font-size="50" text-anchor="start" direction="ltr" writing-mode="lr-tb" unicode-bidi="normal" text-decoration="none" transform="matrix(1 0 0 1 4090.68 894)">CJA</text><path d="M3985 992.392C3985 985.548 3990.55 980 3997.39 980L4253.61 980C4260.45 980 4266 985.548 4266 992.392L4266 1140.61C4266 1147.45 4260.45 1153 4253.61 1153L3997.39 1153C3990.55 1153 3985 1147.45 3985 1140.61Z" fill="#2799F6" fill-rule="evenodd" fill-opacity="1"/><text fill="#FFFFFF" fill-opacity="1" font-family="Adobe Clean Light,Adobe Clean Light_MSFontService,sans-serif" font-style="normal" font-variant="normal" font-weight="300" font-stretch="normal" font-size="50" text-anchor="start" direction="ltr" writing-mode="lr-tb" unicode-bidi="normal" text-decoration="none" transform="matrix(1 0 0 1 4056.3 1053)">Privacy </text><text fill="#FFFFFF" fill-opacity="1" font-family="Adobe Clean Light,Adobe Clean Light_MSFontService,sans-serif" font-style="normal" font-variant="normal" font-weight="300" font-stretch="normal" font-size="50" text-anchor="start" direction="ltr" writing-mode="lr-tb" unicode-bidi="normal" text-decoration="none" transform="matrix(1 0 0 1 4092.39 1113)">Svc</text><path d="M3985 1183.32C3985 1176.52 3990.52 1171 3997.32 1171L4253.68 1171C4260.48 1171 4266 1176.52 4266 1183.32L4266 1330.68C4266 1337.48 4260.48 1343 4253.68 1343L3997.32 1343C3990.52 1343 3985 1337.48 3985 1330.68Z" fill="#2799F6" fill-rule="evenodd" fill-opacity="1"/><text fill="#FFFFFF" fill-opacity="1" font-family="Adobe Clean Light,Adobe Clean Light_MSFontService,sans-serif" font-style="normal" font-variant="normal" font-weight="300" font-stretch="normal" font-size="50" text-anchor="start" direction="ltr" writing-mode="lr-tb" unicode-bidi="normal" text-decoration="none" transform="matrix(1 0 0 1 4026.51 1275)">Query Svc</text><path d="M3985 1373.39C3985 1366.55 3990.55 1361 3997.39 1361L4253.61 1361C4260.45 1361 4266 1366.55 4266 1373.39L4266 1521.61C4266 1528.45 4260.45 1534 4253.61 1534L3997.39 1534C3990.55 1534 3985 1528.45 3985 1521.61Z" fill="#2799F6" fill-rule="evenodd" fill-opacity="1"/><text fill="#FFFFFF" fill-opacity="1" font-family="Adobe Clean Light,Adobe Clean Light_MSFontService,sans-serif" font-style="normal" font-variant="normal" font-weight="300" font-stretch="normal" font-size="50" text-anchor="start" direction="ltr" writing-mode="lr-tb" unicode-bidi="normal" text-decoration="none" transform="matrix(1 0 0 1 4050.28 1466)">RT CDP</text><path d="M3997.5 1511.96C3997.5 1506.73 4001.73 1502.5 4006.96 1502.5L4244.04 1502.5C4249.27 1502.5 4253.5 1506.73 4253.5 1511.96L4253.5 1625.04C4253.5 1630.27 4249.27 1634.5 4244.04 1634.5L4006.96 1634.5C4001.73 1634.5 3997.5 1630.27 3997.5 1625.04Z" stroke="#FFFFFF" stroke-width="6.875" stroke-linecap="butt" stroke-linejoin="round" stroke-miterlimit="10" stroke-opacity="1" fill="#2799F6" fill-rule="evenodd" fill-opacity="1"/><text fill="#FFFFFF" fill-opacity="1" font-family="Adobe Clean Light,Adobe Clean Light_MSFontService,sans-serif" font-style="normal" font-variant="normal" font-weight="300" font-stretch="normal" font-size="50" text-anchor="start" direction="ltr" writing-mode="lr-tb" unicode-bidi="normal" text-decoration="none" transform="matrix(1 0 0 1 4037.68 1556)">Segment </text><text fill="#FFFFFF" fill-opacity="1" font-family="Adobe Clean Light,Adobe Clean Light_MSFontService,sans-serif" font-style="normal" font-variant="normal" font-weight="300" font-stretch="normal" font-size="50" text-anchor="start" direction="ltr" writing-mode="lr-tb" unicode-bidi="normal" text-decoration="none" transform="matrix(1 0 0 1 4092.41 1616)">Svc</text><path d="M2576.42 592.062 2816.16 592.063 2816.16 598.938 2576.42 598.937ZM2581 609.25 2553.5 595.5 2581 581.75ZM2811.58 581.75 2839.08 595.5 2811.58 609.25Z" fill="#EB1000" fill-rule="nonzero" fill-opacity="1"/><path d="M2591.5 1417.06 2782.43 1417.06 2778.99 1420.5 2778.99 656.5C2778.99 654.602 2780.53 653.063 2782.43 653.063L2811.58 653.063 2811.58 659.938 2782.43 659.938 2785.87 656.5 2785.87 1420.5C2785.87 1422.4 2784.33 1423.94 2782.43 1423.94L2591.5 1423.94ZM2807 642.75 2834.5 656.5 2807 670.25Z" fill="#EB1000" fill-rule="nonzero" fill-opacity="1"/><path d="M2579.42 1476.06 3570.8 1476.06 3570.8 1482.94 2579.42 1482.94ZM2584 1493.25 2556.5 1479.5 2584 1465.75ZM3566.22 1465.75 3593.72 1479.5 3566.22 1493.25Z" fill="#EB1000" fill-rule="nonzero" fill-opacity="1"/><text fill="#000000" fill-opacity="1" font-family="Adobe Clean Light,Adobe Clean Light_MSFontService,sans-serif" font-style="normal" font-variant="normal" font-weight="300" font-stretch="normal" font-size="41" text-anchor="start" direction="ltr" writing-mode="lr-tb" unicode-bidi="normal" text-decoration="none" transform="matrix(1 0 0 1 2246.18 1907)">Catalog, overrides, orders, inventory</text><path d="M2221.06 1930.5 2221.06 1854.38C2221.06 1852.48 2222.6 1850.94 2224.5 1850.94L2513.5 1850.94 2510.06 1854.38 2510.06 1814.42 2516.94 1814.42 2516.94 1854.38C2516.94 1856.28 2515.4 1857.82 2513.5 1857.82L2224.5 1857.82 2227.94 1854.38 2227.94 1930.5ZM2499.75 1819 2513.5 1791.5 2527.25 1819Z" fill="#A6A6A6" fill-rule="nonzero" fill-opacity="1"/><rect x="2975" y="1782" width="309" height="133" fill="#F5F5F5" fill-opacity="1"/><text fill="#009C3B" fill-opacity="1" font-family="Adobe Clean Light,Adobe Clean Light_MSFontService,sans-serif" font-style="normal" font-variant="normal" font-weight="300" font-stretch="normal" font-size="41" text-anchor="start" direction="ltr" writing-mode="lr-tb" unicode-bidi="normal" text-decoration="none" transform="matrix(1 0 0 1 3058.2 1839)">Segment </text><text fill="#009C3B" fill-opacity="1" font-family="Adobe Clean Light,Adobe Clean Light_MSFontService,sans-serif" font-style="normal" font-variant="normal" font-weight="300" font-stretch="normal" font-size="41" text-anchor="start" direction="ltr" writing-mode="lr-tb" unicode-bidi="normal" text-decoration="none" transform="matrix(1 0 0 1 3048.76 1889)">references</text><path d="M3488.42 1655.06 3738.5 1655.06 3735.06 1658.5 3735.06 1526.5 3741.94 1526.5 3741.94 1658.5C3741.94 1660.4 3740.4 1661.94 3738.5 1661.94L3488.42 1661.94ZM3493 1672.25 3465.5 1658.5 3493 1644.75Z" fill="#009C3B" fill-rule="nonzero" fill-opacity="1"/><path d="M3897.42 1448.06 3963.14 1448.06 3963.14 1454.94 3897.42 1454.94ZM3902 1465.25 3874.5 1451.5 3902 1437.75ZM3958.56 1437.75 3986.06 1451.5 3958.56 1465.25Z" fill="#A6A6A6" fill-rule="nonzero" fill-opacity="1"/><path d="M3915.5 873.063 3963 873.063 3963 879.938 3915.5 879.938ZM3958.41 862.75 3985.91 876.5 3958.41 890.25Z" fill="#A6A6A6" fill-rule="nonzero" fill-opacity="1"/><path d="M0.0750547-3.43668 47.5765-2.39928 47.4264 4.47408-0.0750547 3.43668ZM43.2194-12.8094 70.4126 1.53776 42.619 14.684Z" fill="#A6A6A6" fill-rule="nonzero" fill-opacity="1" transform="matrix(1 0 0 -1 3915.5 1067.04)"/><path d="M3915.5 1254.06 3963 1254.06 3963 1260.94 3915.5 1260.94ZM3958.41 1243.75 3985.91 1257.5 3958.41 1271.25Z" fill="#A6A6A6" fill-rule="nonzero" fill-opacity="1"/><path d="M2325.42 826.062 3166.89 826.062C3168.79 826.062 3170.32 827.601 3170.32 829.5L3170.32 926.5 3166.89 923.062 3556.07 923.062 3554.78 923.314 3555.15 923.162C3555.45 923.04 3555.77 922.961 3556.09 922.928L3557.15 922.819 3559 922.732 3561.22 922.687 3566.55 922.626 3566.62 929.5 3561.36 929.561 3559.3 929.6 3557.86 929.658 3556.79 929.767 3557.73 929.533 3557.36 929.686C3556.95 929.852 3556.51 929.937 3556.07 929.937L3166.89 929.937C3164.99 929.937 3163.45 928.398 3163.45 926.5L3163.45 829.5 3166.89 832.937 2325.42 832.937ZM2330 843.25 2302.5 829.5 2330 815.75ZM3561.83 912.37 3589.5 925.782 3562.17 939.868Z" fill="#009C3B" fill-rule="nonzero" fill-opacity="1"/><text fill="#009C3B" fill-opacity="1" font-family="Adobe Clean Light,Adobe Clean Light_MSFontService,sans-serif" font-style="normal" font-variant="normal" font-weight="300" font-stretch="normal" font-size="41" text-anchor="start" direction="ltr" writing-mode="lr-tb" unicode-bidi="normal" text-decoration="none" transform="matrix(1 0 0 1 2975.12 875)">Experience </text><text fill="#009C3B" fill-opacity="1" font-family="Adobe Clean Light,Adobe Clean Light_MSFontService,sans-serif" font-style="normal" font-variant="normal" font-weight="300" font-stretch="normal" font-size="41" text-anchor="start" direction="ltr" writing-mode="lr-tb" unicode-bidi="normal" text-decoration="none" transform="matrix(1 0 0 1 2977.42 925)">Fragments</text><path d="M3408.5 589.063 3522.34 589.063C3523.26 589.063 3524.14 589.428 3524.78 590.077 3525.43 590.726 3525.79 591.605 3525.78 592.521L3524.06 880.52 3520.62 877.062 3570.58 877.062 3570.58 883.937 3520.62 883.937C3519.7 883.937 3518.83 883.572 3518.18 882.923 3517.54 882.274 3517.18 881.394 3517.18 880.479L3518.91 592.48 3522.34 595.938 3408.5 595.938ZM3566 866.75 3593.5 880.5 3566 894.25Z" fill="#A6A6A6" fill-rule="nonzero" fill-opacity="1"/><path d="M3520.5 686.063 3574.74 686.063 3574.74 692.938 3520.5 692.938ZM3570.16 675.75 3597.66 689.5 3570.16 703.25Z" fill="#A6A6A6" fill-rule="nonzero" fill-opacity="1"/><path d="M1137.53 1181.94 1017.53 1183.05 1020.94 1179.61 1020.94 2048.71 1017.51 2045.27 1048.37 2045.4 1048.34 2052.28 1017.49 2052.14C1015.59 2052.14 1014.06 2050.6 1014.06 2048.71L1014.06 1179.61C1014.06 1177.72 1015.58 1176.19 1017.47 1176.17L1137.47 1175.06ZM1044.17 2034.96 1071.26 2049.5 1043.37 2062.45Z" fill="#A6A6A6" fill-rule="nonzero" fill-opacity="1"/><rect x="901" y="1814" width="231" height="83.0002" fill="#F5F5F5" fill-opacity="1"/><text fill="#000000" fill-opacity="1" font-family="Adobe Clean Light,Adobe Clean Light_MSFontService,sans-serif" font-style="normal" font-variant="normal" font-weight="300" font-stretch="normal" font-size="41" text-anchor="start" direction="ltr" writing-mode="lr-tb" unicode-bidi="normal" text-decoration="none" transform="matrix(1 0 0 1 943.612 1870)">GraphQL</text><path d="M1138.5 479.937 130.5 479.937 133.938 476.5 133.938 2081.5 130.5 2078.06 1029.06 2078.06 1029.06 2084.94 130.5 2084.94C128.602 2084.94 127.063 2083.4 127.063 2081.5L127.063 476.5C127.063 474.601 128.602 473.062 130.5 473.062L1138.5 473.062ZM1024.48 2067.75 1051.98 2081.5 1024.48 2095.25Z" fill="#A6A6A6" fill-rule="nonzero" fill-opacity="1"/><path d="M653 2175.39C653 2168.55 658.548 2163 665.392 2163L912.608 2163C919.452 2163 925 2168.55 925 2175.39L925 2323.61C925 2330.45 919.452 2336 912.608 2336L665.392 2336C658.548 2336 653 2330.45 653 2323.61Z" fill="#EB1000" fill-rule="evenodd" fill-opacity="1"/><text fill="#FFFFFF" fill-opacity="1" font-family="Adobe Clean Light,Adobe Clean Light_MSFontService,sans-serif" font-style="normal" font-variant="normal" font-weight="300" font-stretch="normal" font-size="50" text-anchor="start" direction="ltr" writing-mode="lr-tb" unicode-bidi="normal" text-decoration="none" transform="matrix(1 0 0 1 687.458 2236)">Adobe I/O </text><text fill="#FFFFFF" fill-opacity="1" font-family="Adobe Clean Light,Adobe Clean Light_MSFontService,sans-serif" font-style="normal" font-variant="normal" font-weight="300" font-stretch="normal" font-size="50" text-anchor="start" direction="ltr" writing-mode="lr-tb" unicode-bidi="normal" text-decoration="none" transform="matrix(1 0 0 1 725.271 2296)">Events</text><path d="M954.418 2262.06 2681.5 2262.06 2678.06 2265.5 2678.06 1988.5 2681.5 1991.94 2644.81 1991.94 2644.81 1985.06 2681.5 1985.06C2683.4 1985.06 2684.94 1986.6 2684.94 1988.5L2684.94 2265.5C2684.94 2267.4 2683.4 2268.94 2681.5 2268.94L954.418 2268.94ZM959 2279.25 931.5 2265.5 959 2251.75ZM2649.39 2002.25 2621.89 1988.5 2649.39 1974.75Z" fill="#A6A6A6" fill-rule="nonzero" fill-opacity="1"/><path d="M152.236 1134.94 78.4999 1134.94 81.9374 1131.5 81.9374 2265.5 78.4999 2262.06 628.583 2262.06 628.583 2268.94 78.4999 2268.94C76.6014 2268.94 75.0624 2267.4 75.0624 2265.5L75.0624 1131.5C75.0624 1129.6 76.6014 1128.06 78.4999 1128.06L152.236 1128.06ZM147.653 1117.75 175.153 1131.5 147.653 1145.25ZM624 2251.75 651.5 2265.5 624 2279.25Z" fill="#A6A6A6" fill-rule="nonzero" fill-opacity="1"/><path d="M2068.5 822.938 2025.42 822.938 2025.42 816.063 2068.5 816.062ZM2030 833.25 2002.5 819.5 2030 805.75Z" fill="#A6A6A6" fill-rule="nonzero" fill-opacity="1"/><text fill="#EB1000" fill-opacity="1" font-family="Adobe Clean Light,Adobe Clean Light_MSFontService,sans-serif" font-style="normal" font-variant="normal" font-weight="300" font-stretch="normal" font-size="41" text-anchor="start" direction="ltr" writing-mode="lr-tb" unicode-bidi="normal" text-decoration="none" transform="matrix(1 0 0 1 2556.81 420)">Storefront events, </text><text fill="#EB1000" fill-opacity="1" font-family="Adobe Clean Light,Adobe Clean Light_MSFontService,sans-serif" font-style="normal" font-variant="normal" font-weight="300" font-stretch="normal" font-size="41" text-anchor="start" direction="ltr" writing-mode="lr-tb" unicode-bidi="normal" text-decoration="none" transform="matrix(1 0 0 1 2609.22 470)">experience </text><text fill="#EB1000" fill-opacity="1" font-family="Adobe Clean Light,Adobe Clean Light_MSFontService,sans-serif" font-style="normal" font-variant="normal" font-weight="300" font-stretch="normal" font-size="41" text-anchor="start" direction="ltr" writing-mode="lr-tb" unicode-bidi="normal" text-decoration="none" transform="matrix(1 0 0 1 2604.94 519)">decisioning</text><path d="M496.938 1261.42 496.938 1708.71 490.063 1708.71 490.063 1261.42ZM479.75 1266 493.5 1238.5 507.25 1266ZM507.25 1704.12 493.5 1731.62 479.75 1704.12Z" fill="#A6A6A6" fill-rule="nonzero" fill-opacity="1"/><path d="M3986 421.392C3986 414.548 3991.55 409 3998.39 409L4254.61 409C4261.45 409 4267 414.548 4267 421.392L4267 569.608C4267 576.452 4261.45 582 4254.61 582L3998.39 582C3991.55 582 3986 576.452 3986 569.608Z" fill="#2799F6" fill-rule="evenodd" fill-opacity="1"/><text fill="#FFFFFF" fill-opacity="1" font-family="Adobe Clean Light,Adobe Clean Light_MSFontService,sans-serif" font-style="normal" font-variant="normal" font-weight="300" font-stretch="normal" font-size="50" text-anchor="start" direction="ltr" writing-mode="lr-tb" unicode-bidi="normal" text-decoration="none" transform="matrix(1 0 0 1 4004.24 514)">Connections</text><path d="M3594.5 1395.94 3514.5 1395.94C3513.59 1395.94 3512.71 1395.57 3512.06 1394.93 3511.42 1394.28 3511.06 1393.4 3511.06 1392.49L3512.27 1075.51C3512.28 1073.63 3513.79 1072.11 3515.67 1072.08L3570.26 1071.36 3570.35 1078.24 3515.76 1078.96 3519.15 1075.53 3517.94 1392.51 3514.5 1389.06 3594.5 1389.06ZM3565.54 1061.11 3593.22 1074.5 3565.9 1088.61Z" fill="#A6A6A6" fill-rule="nonzero" fill-opacity="1"/><path d="M3514.5 1256.06 3575.01 1256.06 3575.01 1262.94 3514.5 1262.94ZM3570.43 1245.75 3597.93 1259.5 3570.42 1273.25Z" fill="#A6A6A6" fill-rule="nonzero" fill-opacity="1"/><path d="M3915.5 683.062 3963 683.063 3963 689.938 3915.5 689.937ZM3958.41 672.75 3985.91 686.5 3958.41 700.25Z" fill="#A6A6A6" fill-rule="nonzero" fill-opacity="1"/></g></g></svg>