<svg width="3437" height="1114" xmlns="http://www.w3.org/2000/svg" xmlns:xlink="http://www.w3.org/1999/xlink" xml:space="preserve" overflow="hidden"><g transform="translate(-481 -783)"><g><rect x="483" y="786" width="140" height="141" fill="#E63888" fill-opacity="1"/><rect x="483" y="1105" width="140" height="140" fill="#E9740A" fill-opacity="1"/><rect x="483" y="1423" width="140" height="141" fill="#21A5A2" fill-opacity="1"/><rect x="1587" y="786" width="141" height="141" fill="#B3B3B3" fill-opacity="1"/><rect x="1587" y="1105" width="141" height="141" fill="#EB1000" fill-opacity="1"/><rect x="1587" y="1424" width="141" height="140" fill="#009C3B" fill-opacity="1"/><rect x="1587" y="1743" width="141" height="140" fill="#2799F6" fill-opacity="1"/><text fill="#000000" fill-opacity="1" font-family="Adobe Clean Light,Adobe Clean Light_MSFontService,sans-serif" font-style="normal" font-variant="normal" font-weight="300" font-stretch="normal" font-size="73" text-anchor="start" direction="ltr" writing-mode="lr-tb" unicode-bidi="normal" text-decoration="none" transform="matrix(1 0 0 1 655.759 884)">Third</text><text fill="#000000" fill-opacity="1" font-family="Adobe Clean Light,Adobe Clean Light_MSFontService,sans-serif" font-style="normal" font-variant="normal" font-weight="300" font-stretch="normal" font-size="73" text-anchor="start" direction="ltr" writing-mode="lr-tb" unicode-bidi="normal" text-decoration="none" transform="matrix(1 0 0 1 804.145 884)">-</text><text fill="#000000" fill-opacity="1" font-family="Adobe Clean Light,Adobe Clean Light_MSFontService,sans-serif" font-style="normal" font-variant="normal" font-weight="300" font-stretch="normal" font-size="73" text-anchor="start" direction="ltr" writing-mode="lr-tb" unicode-bidi="normal" text-decoration="none" transform="matrix(1 0 0 1 825.915 884)">party systems</text><text fill="#000000" fill-opacity="1" font-family="Adobe Clean Light,Adobe Clean Light_MSFontService,sans-serif" font-style="normal" font-variant="normal" font-weight="300" font-stretch="normal" font-size="73" text-anchor="start" direction="ltr" writing-mode="lr-tb" unicode-bidi="normal" text-decoration="none" transform="matrix(1 0 0 1 655.759 1204)">Commerce PaaS</text><text fill="#000000" fill-opacity="1" font-family="Adobe Clean Light,Adobe Clean Light_MSFontService,sans-serif" font-style="normal" font-variant="normal" font-weight="300" font-stretch="normal" font-size="73" text-anchor="start" direction="ltr" writing-mode="lr-tb" unicode-bidi="normal" text-decoration="none" transform="matrix(1 0 0 1 655.759 1524)">Web Browser</text><text fill="#000000" fill-opacity="1" font-family="Adobe Clean Light,Adobe Clean Light_MSFontService,sans-serif" font-style="normal" font-variant="normal" font-weight="300" font-stretch="normal" font-size="73" text-anchor="start" direction="ltr" writing-mode="lr-tb" unicode-bidi="normal" text-decoration="none" transform="matrix(1 0 0 1 1761.76 884)">Adobe Multi</text><text fill="#000000" fill-opacity="1" font-family="Adobe Clean Light,Adobe Clean Light_MSFontService,sans-serif" font-style="normal" font-variant="normal" font-weight="300" font-stretch="normal" font-size="73" text-anchor="start" direction="ltr" writing-mode="lr-tb" unicode-bidi="normal" text-decoration="none" transform="matrix(1 0 0 1 2115.25 884)">-</text><text fill="#000000" fill-opacity="1" font-family="Adobe Clean Light,Adobe Clean Light_MSFontService,sans-serif" font-style="normal" font-variant="normal" font-weight="300" font-stretch="normal" font-size="73" text-anchor="start" direction="ltr" writing-mode="lr-tb" unicode-bidi="normal" text-decoration="none" transform="matrix(1 0 0 1 2137.02 884)">tenant SaaS</text><text fill="#000000" fill-opacity="1" font-family="Adobe Clean Light,Adobe Clean Light_MSFontService,sans-serif" font-style="normal" font-variant="normal" font-weight="300" font-stretch="normal" font-size="73" text-anchor="start" direction="ltr" writing-mode="lr-tb" unicode-bidi="normal" text-decoration="none" transform="matrix(1 0 0 1 1761.76 1204)">Adobe Serverless</text><text fill="#000000" fill-opacity="1" font-family="Adobe Clean Light,Adobe Clean Light_MSFontService,sans-serif" font-style="normal" font-variant="normal" font-weight="300" font-stretch="normal" font-size="73" text-anchor="start" direction="ltr" writing-mode="lr-tb" unicode-bidi="normal" text-decoration="none" transform="matrix(1 0 0 1 1761.76 1516)">Adobe Experience Manager</text><text fill="#000000" fill-opacity="1" font-family="Adobe Clean Light,Adobe Clean Light_MSFontService,sans-serif" font-style="normal" font-variant="normal" font-weight="300" font-stretch="normal" font-size="73" text-anchor="start" direction="ltr" writing-mode="lr-tb" unicode-bidi="normal" text-decoration="none" transform="matrix(1 0 0 1 1761.76 1836)">Adobe Experience Platform</text><text fill="#000000" fill-opacity="1" font-family="Adobe Clean Light,Adobe Clean Light_MSFontService,sans-serif" font-style="normal" font-variant="normal" font-weight="300" font-stretch="normal" font-size="73" text-anchor="start" direction="ltr" writing-mode="lr-tb" unicode-bidi="normal" text-decoration="none" transform="matrix(1 0 0 1 3035.45 895)">AEP Experience Events</text><path d="M2884.42 865.063 2979.01 865.063 2979.01 871.938 2884.42 871.938ZM2889 882.25 2861.5 868.5 2889 854.75ZM2974.43 854.75 3001.93 868.501 2974.43 882.25Z" fill="#EB1000" fill-rule="nonzero" fill-opacity="1"/><text fill="#000000" fill-opacity="1" font-family="Adobe Clean Light,Adobe Clean Light_MSFontService,sans-serif" font-style="normal" font-variant="normal" font-weight="300" font-stretch="normal" font-size="73" text-anchor="start" direction="ltr" writing-mode="lr-tb" unicode-bidi="normal" text-decoration="none" transform="matrix(1 0 0 1 3035.45 1215)">Events for Product Recs</text><path d="M2884.42 1186.06 2979.01 1186.06 2979.01 1192.94 2884.42 1192.94ZM2889 1203.25 2861.5 1189.5 2889 1175.75ZM2974.43 1175.75 3001.93 1189.5 2974.43 1203.25Z" fill="#E63888" fill-rule="nonzero" fill-opacity="1"/><text fill="#000000" fill-opacity="1" font-family="Adobe Clean Light,Adobe Clean Light_MSFontService,sans-serif" font-style="normal" font-variant="normal" font-weight="300" font-stretch="normal" font-size="73" text-anchor="start" direction="ltr" writing-mode="lr-tb" unicode-bidi="normal" text-decoration="none" transform="matrix(1 0 0 1 3035.45 1536)">Admin./technical data export </text><text fill="#000000" fill-opacity="1" font-family="Adobe Clean Light,Adobe Clean Light_MSFontService,sans-serif" font-style="normal" font-variant="normal" font-weight="300" font-stretch="normal" font-size="73" text-anchor="start" direction="ltr" writing-mode="lr-tb" unicode-bidi="normal" text-decoration="none" transform="matrix(1 0 0 1 3035.45 1624)">(experience fragments, </text><text fill="#000000" fill-opacity="1" font-family="Adobe Clean Light,Adobe Clean Light_MSFontService,sans-serif" font-style="normal" font-variant="normal" font-weight="300" font-stretch="normal" font-size="73" text-anchor="start" direction="ltr" writing-mode="lr-tb" unicode-bidi="normal" text-decoration="none" transform="matrix(1 0 0 1 3035.45 1712)">segment definitions)</text><path d="M2884.42 1506.06 2979.01 1506.06 2979.01 1512.94 2884.42 1512.94ZM2889 1523.25 2861.5 1509.5 2889 1495.75ZM2974.43 1495.75 3001.93 1509.5 2974.43 1523.25Z" fill="#009C3B" fill-rule="nonzero" fill-opacity="1"/></g></g></svg>