<svg width="2622" height="2012" xmlns="http://www.w3.org/2000/svg" xmlns:xlink="http://www.w3.org/1999/xlink" overflow="hidden"><defs><clipPath id="clip0"><rect x="1723" y="233" width="2622" height="2012"/></clipPath><clipPath id="clip1"><rect x="2156" y="139" width="169" height="309"/></clipPath><clipPath id="clip2"><rect x="2324" y="139" width="169" height="309"/></clipPath><clipPath id="clip3"><rect x="3164" y="139" width="169" height="309"/></clipPath><clipPath id="clip4"><rect x="3332" y="139" width="169" height="309"/></clipPath><clipPath id="clip5"><rect x="3500" y="139" width="169" height="309"/></clipPath><clipPath id="clip6"><rect x="3668" y="139" width="169" height="309"/></clipPath><clipPath id="clip7"><rect x="3836" y="139" width="169" height="309"/></clipPath><clipPath id="clip8"><rect x="4004" y="139" width="169" height="309"/></clipPath><clipPath id="clip9"><rect x="4172" y="139" width="169" height="309"/></clipPath></defs><g clip-path="url(#clip0)" transform="translate(-1723 -233)"><path d="M1729.14 240.489 2156.66 240.489 2156.66 345.618 1729.14 345.618Z" fill="#60607D" fill-rule="evenodd" fill-opacity="1"/><path d="M2156.66 240.489 2324.67 240.489 2324.67 345.618 2156.66 345.618Z" fill="#9B9BAE" fill-rule="evenodd" fill-opacity="1"/><path d="M2324.67 240.489 2492.68 240.489 2492.68 345.618 2324.67 345.618Z" fill="#9B9BAE" fill-rule="evenodd" fill-opacity="1"/><path d="M2492.68 240.489 2660.69 240.489 2660.69 345.618 2492.68 345.618Z" fill="#9B9BAE" fill-rule="evenodd" fill-opacity="1"/><path d="M2660.69 240.489 2828.69 240.489 2828.69 345.618 2660.69 345.618Z" fill="#9B9BAE" fill-rule="evenodd" fill-opacity="1"/><path d="M2828.69 240.489 2996.7 240.489 2996.7 345.618 2828.69 345.618Z" fill="#9B9BAE" fill-rule="evenodd" fill-opacity="1"/><path d="M2996.7 240.489 3164.71 240.489 3164.71 345.618 2996.7 345.618Z" fill="#9B9BAE" fill-rule="evenodd" fill-opacity="1"/><path d="M3164.71 240.489 3332.72 240.489 3332.72 345.618 3164.71 345.618Z" fill="#9B9BAE" fill-rule="evenodd" fill-opacity="1"/><path d="M3332.72 240.489 3500.73 240.489 3500.73 345.618 3332.72 345.618Z" fill="#9B9BAE" fill-rule="evenodd" fill-opacity="1"/><path d="M3500.73 240.489 3668.73 240.489 3668.73 345.618 3500.73 345.618Z" fill="#9B9BAE" fill-rule="evenodd" fill-opacity="1"/><path d="M3668.73 240.489 3836.74 240.489 3836.74 345.618 3668.73 345.618Z" fill="#9B9BAE" fill-rule="evenodd" fill-opacity="1"/><path d="M3836.74 240.489 4004.75 240.489 4004.75 345.618 3836.74 345.618Z" fill="#9B9BAE" fill-rule="evenodd" fill-opacity="1"/><path d="M4004.75 240.489 4172.76 240.489 4172.76 345.618 4004.75 345.618Z" fill="#9B9BAE" fill-rule="evenodd" fill-opacity="1"/><path d="M4172.76 240.489 4340.77 240.489 4340.77 345.618 4172.76 345.618Z" fill="#9B9BAE" fill-rule="evenodd" fill-opacity="1"/><path d="M2660.69 345.618 2828.69 345.618 2828.69 450.746 2660.69 450.746Z" fill="#FFFFFF" fill-rule="evenodd" fill-opacity="1"/><path d="M3500.73 345.618 3668.73 345.618 3668.73 450.746 3500.73 450.746Z" fill="#FFFFFF" fill-rule="evenodd" fill-opacity="1"/><path d="M3668.73 345.618 3836.74 345.618 3836.74 450.746 3668.73 450.746Z" fill="#FFFFFF" fill-rule="evenodd" fill-opacity="1"/><path d="M2660.69 450.746 2828.69 450.746 2828.69 555.875 2660.69 555.875Z" fill="#FFFFFF" fill-rule="evenodd" fill-opacity="1"/><path d="M3500.73 450.746 3668.73 450.746 3668.73 555.875 3500.73 555.875Z" fill="#FFFFFF" fill-rule="evenodd" fill-opacity="1"/><path d="M3668.73 450.746 3836.74 450.746 3836.74 555.875 3668.73 555.875Z" fill="#FFFFFF" fill-rule="evenodd" fill-opacity="1"/><path d="M2660.69 555.875 2828.69 555.875 2828.69 661.004 2660.69 661.004Z" fill="#FFFFFF" fill-rule="evenodd" fill-opacity="1"/><path d="M3500.73 555.875 3668.73 555.875 3668.73 661.004 3500.73 661.004Z" fill="#FFFFFF" fill-rule="evenodd" fill-opacity="1"/><path d="M3668.73 555.875 3836.74 555.875 3836.74 661.004 3668.73 661.004Z" fill="#FFFFFF" fill-rule="evenodd" fill-opacity="1"/><path d="M2660.69 661.004 2828.69 661.004 2828.69 766.132 2660.69 766.132Z" fill="#FFFFFF" fill-rule="evenodd" fill-opacity="1"/><path d="M3500.73 661.004 3668.73 661.004 3668.73 766.132 3500.73 766.132Z" fill="#FFFFFF" fill-rule="evenodd" fill-opacity="1"/><path d="M3668.73 661.004 3836.74 661.004 3836.74 766.132 3668.73 766.132Z" fill="#FFFFFF" fill-rule="evenodd" fill-opacity="1"/><path d="M2660.69 766.132 2828.69 766.132 2828.69 871.261 2660.69 871.261Z" fill="#FFFFFF" fill-rule="evenodd" fill-opacity="1"/><path d="M3500.73 766.132 3668.73 766.132 3668.73 871.261 3500.73 871.261Z" fill="#FFFFFF" fill-rule="evenodd" fill-opacity="1"/><path d="M3668.73 766.132 3836.74 766.132 3836.74 871.261 3668.73 871.261Z" fill="#FFFFFF" fill-rule="evenodd" fill-opacity="1"/><path d="M2660.69 871.261 2828.69 871.261 2828.69 976.39 2660.69 976.39Z" fill="#FFFFFF" fill-rule="evenodd" fill-opacity="1"/><path d="M3500.73 871.261 3668.73 871.261 3668.73 976.39 3500.73 976.39Z" fill="#FFFFFF" fill-rule="evenodd" fill-opacity="1"/><path d="M3668.73 871.261 3836.74 871.261 3836.74 976.39 3668.73 976.39Z" fill="#FFFFFF" fill-rule="evenodd" fill-opacity="1"/><path d="M2660.69 976.39 2828.69 976.39 2828.69 1081.52 2660.69 1081.52Z" fill="#FFFFFF" fill-rule="evenodd" fill-opacity="1"/><path d="M3500.73 976.39 3668.73 976.39 3668.73 1081.52 3500.73 1081.52Z" fill="#FFFFFF" fill-rule="evenodd" fill-opacity="1"/><path d="M3668.73 976.39 3836.74 976.39 3836.74 1081.52 3668.73 1081.52Z" fill="#FFFFFF" fill-rule="evenodd" fill-opacity="1"/><path d="M2660.69 1081.52 2828.69 1081.52 2828.69 1186.65 2660.69 1186.65Z" fill="#FFFFFF" fill-rule="evenodd" fill-opacity="1"/><path d="M3500.73 1081.52 3668.73 1081.52 3668.73 1186.65 3500.73 1186.65Z" fill="#FFFFFF" fill-rule="evenodd" fill-opacity="1"/><path d="M3668.73 1081.52 3836.74 1081.52 3836.74 1186.65 3668.73 1186.65Z" fill="#FFFFFF" fill-rule="evenodd" fill-opacity="1"/><path d="M2660.69 1186.65 2828.69 1186.65 2828.69 1291.78 2660.69 1291.78Z" fill="#FFFFFF" fill-rule="evenodd" fill-opacity="1"/><path d="M3500.73 1186.65 3668.73 1186.65 3668.73 1291.78 3500.73 1291.78Z" fill="#FFFFFF" fill-rule="evenodd" fill-opacity="1"/><path d="M3668.73 1186.65 3836.74 1186.65 3836.74 1291.78 3668.73 1291.78Z" fill="#FFFFFF" fill-rule="evenodd" fill-opacity="1"/><path d="M2660.69 1291.78 2828.69 1291.78 2828.69 1396.9 2660.69 1396.9Z" fill="#FFFFFF" fill-rule="evenodd" fill-opacity="1"/><path d="M3500.73 1291.78 3668.73 1291.78 3668.73 1396.9 3500.73 1396.9Z" fill="#FFFFFF" fill-rule="evenodd" fill-opacity="1"/><path d="M3668.73 1291.78 3836.74 1291.78 3836.74 1396.9 3668.73 1396.9Z" fill="#FFFFFF" fill-rule="evenodd" fill-opacity="1"/><path d="M2660.69 1396.9 2828.69 1396.9 2828.69 1502.03 2660.69 1502.03Z" fill="#FFFFFF" fill-rule="evenodd" fill-opacity="1"/><path d="M3500.73 1396.9 3668.73 1396.9 3668.73 1502.03 3500.73 1502.03Z" fill="#FFFFFF" fill-rule="evenodd" fill-opacity="1"/><path d="M3668.73 1396.9 3836.74 1396.9 3836.74 1502.03 3668.73 1502.03Z" fill="#FFFFFF" fill-rule="evenodd" fill-opacity="1"/><path d="M2660.69 1502.03 2828.69 1502.03 2828.69 1607.16 2660.69 1607.16Z" fill="#FFFFFF" fill-rule="evenodd" fill-opacity="1"/><path d="M3500.73 1502.03 3668.73 1502.03 3668.73 1607.16 3500.73 1607.16Z" fill="#FFFFFF" fill-rule="evenodd" fill-opacity="1"/><path d="M3668.73 1502.03 3836.74 1502.03 3836.74 1607.16 3668.73 1607.16Z" fill="#FFFFFF" fill-rule="evenodd" fill-opacity="1"/><path d="M2660.69 1607.16 2828.69 1607.16 2828.69 1712.29 2660.69 1712.29Z" fill="#FFFFFF" fill-rule="evenodd" fill-opacity="1"/><path d="M3500.73 1607.16 3668.73 1607.16 3668.73 1712.29 3500.73 1712.29Z" fill="#FFFFFF" fill-rule="evenodd" fill-opacity="1"/><path d="M3668.73 1607.16 3836.74 1607.16 3836.74 1712.29 3668.73 1712.29Z" fill="#FFFFFF" fill-rule="evenodd" fill-opacity="1"/><path d="M2660.69 1712.29 2828.69 1712.29 2828.69 1817.42 2660.69 1817.42Z" fill="#FFFFFF" fill-rule="evenodd" fill-opacity="1"/><path d="M3500.73 1712.29 3668.73 1712.29 3668.73 1817.42 3500.73 1817.42Z" fill="#FFFFFF" fill-rule="evenodd" fill-opacity="1"/><path d="M3668.73 1712.29 3836.74 1712.29 3836.74 1817.42 3668.73 1817.42Z" fill="#FFFFFF" fill-rule="evenodd" fill-opacity="1"/><path d="M2660.69 1817.42 2828.69 1817.42 2828.69 1922.55 2660.69 1922.55Z" fill="#FFFFFF" fill-rule="evenodd" fill-opacity="1"/><path d="M3500.73 1817.42 3668.73 1817.42 3668.73 1922.55 3500.73 1922.55Z" fill="#FFFFFF" fill-rule="evenodd" fill-opacity="1"/><path d="M3668.73 1817.42 3836.74 1817.42 3836.74 1922.55 3668.73 1922.55Z" fill="#FFFFFF" fill-rule="evenodd" fill-opacity="1"/><path d="M2660.69 1922.55 2828.69 1922.55 2828.69 2027.68 2660.69 2027.68Z" fill="#FFFFFF" fill-rule="evenodd" fill-opacity="1"/><path d="M3500.73 1922.55 3668.73 1922.55 3668.73 2027.68 3500.73 2027.68Z" fill="#FFFFFF" fill-rule="evenodd" fill-opacity="1"/><path d="M3668.73 1922.55 3836.74 1922.55 3836.74 2027.68 3668.73 2027.68Z" fill="#FFFFFF" fill-rule="evenodd" fill-opacity="1"/><path d="M2660.69 2027.68 2828.69 2027.68 2828.69 2132.81 2660.69 2132.81Z" fill="#FFFFFF" fill-rule="evenodd" fill-opacity="1"/><path d="M3500.73 2027.68 3668.73 2027.68 3668.73 2132.81 3500.73 2132.81Z" fill="#FFFFFF" fill-rule="evenodd" fill-opacity="1"/><path d="M3668.73 2027.68 3836.74 2027.68 3836.74 2132.81 3668.73 2132.81Z" fill="#FFFFFF" fill-rule="evenodd" fill-opacity="1"/><path d="M2660.69 2132.81 2828.69 2132.81 2828.69 2237.93 2660.69 2237.93Z" fill="#FFFFFF" fill-rule="evenodd" fill-opacity="1"/><path d="M3500.73 2132.81 3668.73 2132.81 3668.73 2237.93 3500.73 2237.93Z" fill="#FFFFFF" fill-rule="evenodd" fill-opacity="1"/><path d="M3668.73 2132.81 3836.74 2132.81 3836.74 2237.93 3668.73 2237.93Z" fill="#FFFFFF" fill-rule="evenodd" fill-opacity="1"/><path d="M2156.66 238.77 2156.66 345.618" stroke="#F3F3F3" stroke-width="3.4375" stroke-linecap="butt" stroke-linejoin="round" stroke-miterlimit="10" stroke-opacity="1" fill="none" fill-rule="evenodd"/><path d="M2156.66 345.618 2156.66 2132.81" stroke="#EFEFEF" stroke-width="3.4375" stroke-linecap="butt" stroke-linejoin="round" stroke-miterlimit="10" stroke-opacity="1" fill="none" fill-rule="evenodd"/><path d="M2156.66 2132.81 2156.66 2239.65" stroke="#F3F3F3" stroke-width="3.4375" stroke-linecap="butt" stroke-linejoin="round" stroke-miterlimit="10" stroke-opacity="1" fill="none" fill-rule="evenodd"/><path d="M2324.67 238.77 2324.67 345.618" stroke="#F3F3F3" stroke-width="3.4375" stroke-linecap="butt" stroke-linejoin="round" stroke-miterlimit="10" stroke-opacity="1" fill="none" fill-rule="evenodd"/><path d="M2324.67 345.618 2324.67 2132.81" stroke="#EFEFEF" stroke-width="3.4375" stroke-linecap="butt" stroke-linejoin="round" stroke-miterlimit="10" stroke-opacity="1" fill="none" fill-rule="evenodd"/><path d="M2324.67 2132.81 2324.67 2239.65" stroke="#F3F3F3" stroke-width="3.4375" stroke-linecap="butt" stroke-linejoin="round" stroke-miterlimit="10" stroke-opacity="1" fill="none" fill-rule="evenodd"/><path d="M2492.68 238.77 2492.68 345.618" stroke="#F3F3F3" stroke-width="3.4375" stroke-linecap="butt" stroke-linejoin="round" stroke-miterlimit="10" stroke-opacity="1" fill="none" fill-rule="evenodd"/><path d="M2492.68 345.618 2492.68 2132.81" stroke="#EFEFEF" stroke-width="3.4375" stroke-linecap="butt" stroke-linejoin="round" stroke-miterlimit="10" stroke-opacity="1" fill="none" fill-rule="evenodd"/><path d="M2492.68 2132.81 2492.68 2239.65" stroke="#F3F3F3" stroke-width="3.4375" stroke-linecap="butt" stroke-linejoin="round" stroke-miterlimit="10" stroke-opacity="1" fill="none" fill-rule="evenodd"/><path d="M2660.69 238.77 2660.69 345.618" stroke="#F3F3F3" stroke-width="3.4375" stroke-linecap="butt" stroke-linejoin="round" stroke-miterlimit="10" stroke-opacity="1" fill="none" fill-rule="evenodd"/><path d="M2660.69 345.618 2660.69 2132.81" stroke="#EFEFEF" stroke-width="3.4375" stroke-linecap="butt" stroke-linejoin="round" stroke-miterlimit="10" stroke-opacity="1" fill="none" fill-rule="evenodd"/><path d="M2660.69 2132.81 2660.69 2239.65" stroke="#F3F3F3" stroke-width="3.4375" stroke-linecap="butt" stroke-linejoin="round" stroke-miterlimit="10" stroke-opacity="1" fill="none" fill-rule="evenodd"/><path d="M2828.69 238.77 2828.69 345.618" stroke="#F3F3F3" stroke-width="3.4375" stroke-linecap="butt" stroke-linejoin="round" stroke-miterlimit="10" stroke-opacity="1" fill="none" fill-rule="evenodd"/><path d="M2828.69 345.618 2828.69 2132.81" stroke="#EFEFEF" stroke-width="3.4375" stroke-linecap="butt" stroke-linejoin="round" stroke-miterlimit="10" stroke-opacity="1" fill="none" fill-rule="evenodd"/><path d="M2828.69 2132.81 2828.69 2239.65" stroke="#F3F3F3" stroke-width="3.4375" stroke-linecap="butt" stroke-linejoin="round" stroke-miterlimit="10" stroke-opacity="1" fill="none" fill-rule="evenodd"/><path d="M2996.7 238.77 2996.7 345.618" stroke="#F3F3F3" stroke-width="3.4375" stroke-linecap="butt" stroke-linejoin="round" stroke-miterlimit="10" stroke-opacity="1" fill="none" fill-rule="evenodd"/><path d="M2996.7 345.618 2996.7 2132.81" stroke="#EFEFEF" stroke-width="3.4375" stroke-linecap="butt" stroke-linejoin="round" stroke-miterlimit="10" stroke-opacity="1" fill="none" fill-rule="evenodd"/><path d="M2996.7 2132.81 2996.7 2239.65" stroke="#F3F3F3" stroke-width="3.4375" stroke-linecap="butt" stroke-linejoin="round" stroke-miterlimit="10" stroke-opacity="1" fill="none" fill-rule="evenodd"/><path d="M3164.71 238.77 3164.71 345.618" stroke="#F3F3F3" stroke-width="3.4375" stroke-linecap="butt" stroke-linejoin="round" stroke-miterlimit="10" stroke-opacity="1" fill="none" fill-rule="evenodd"/><path d="M3164.71 345.618 3164.71 2132.81" stroke="#EFEFEF" stroke-width="3.4375" stroke-linecap="butt" stroke-linejoin="round" stroke-miterlimit="10" stroke-opacity="1" fill="none" fill-rule="evenodd"/><path d="M3164.71 2132.81 3164.71 2239.65" stroke="#F3F3F3" stroke-width="3.4375" stroke-linecap="butt" stroke-linejoin="round" stroke-miterlimit="10" stroke-opacity="1" fill="none" fill-rule="evenodd"/><path d="M3332.72 238.77 3332.72 345.618" stroke="#F3F3F3" stroke-width="3.4375" stroke-linecap="butt" stroke-linejoin="round" stroke-miterlimit="10" stroke-opacity="1" fill="none" fill-rule="evenodd"/><path d="M3332.72 345.618 3332.72 2132.81" stroke="#EFEFEF" stroke-width="3.4375" stroke-linecap="butt" stroke-linejoin="round" stroke-miterlimit="10" stroke-opacity="1" fill="none" fill-rule="evenodd"/><path d="M3332.72 2132.81 3332.72 2239.65" stroke="#F3F3F3" stroke-width="3.4375" stroke-linecap="butt" stroke-linejoin="round" stroke-miterlimit="10" stroke-opacity="1" fill="none" fill-rule="evenodd"/><path d="M3500.73 238.77 3500.73 345.618" stroke="#F3F3F3" stroke-width="3.4375" stroke-linecap="butt" stroke-linejoin="round" stroke-miterlimit="10" stroke-opacity="1" fill="none" fill-rule="evenodd"/><path d="M3500.73 345.618 3500.73 2132.81" stroke="#EFEFEF" stroke-width="3.4375" stroke-linecap="butt" stroke-linejoin="round" stroke-miterlimit="10" stroke-opacity="1" fill="none" fill-rule="evenodd"/><path d="M3500.73 2132.81 3500.73 2239.65" stroke="#F3F3F3" stroke-width="3.4375" stroke-linecap="butt" stroke-linejoin="round" stroke-miterlimit="10" stroke-opacity="1" fill="none" fill-rule="evenodd"/><path d="M3668.73 238.77 3668.73 345.618" stroke="#F3F3F3" stroke-width="3.4375" stroke-linecap="butt" stroke-linejoin="round" stroke-miterlimit="10" stroke-opacity="1" fill="none" fill-rule="evenodd"/><path d="M3668.73 345.618 3668.73 2132.81" stroke="#EFEFEF" stroke-width="3.4375" stroke-linecap="butt" stroke-linejoin="round" stroke-miterlimit="10" stroke-opacity="1" fill="none" fill-rule="evenodd"/><path d="M3668.73 2132.81 3668.73 2239.65" stroke="#F3F3F3" stroke-width="3.4375" stroke-linecap="butt" stroke-linejoin="round" stroke-miterlimit="10" stroke-opacity="1" fill="none" fill-rule="evenodd"/><path d="M3836.74 238.77 3836.74 345.618" stroke="#F3F3F3" stroke-width="3.4375" stroke-linecap="butt" stroke-linejoin="round" stroke-miterlimit="10" stroke-opacity="1" fill="none" fill-rule="evenodd"/><path d="M3836.74 345.618 3836.74 2132.81" stroke="#EFEFEF" stroke-width="3.4375" stroke-linecap="butt" stroke-linejoin="round" stroke-miterlimit="10" stroke-opacity="1" fill="none" fill-rule="evenodd"/><path d="M3836.74 2132.81 3836.74 2239.65" stroke="#F3F3F3" stroke-width="3.4375" stroke-linecap="butt" stroke-linejoin="round" stroke-miterlimit="10" stroke-opacity="1" fill="none" fill-rule="evenodd"/><path d="M4004.75 238.77 4004.75 345.618" stroke="#F3F3F3" stroke-width="3.4375" stroke-linecap="butt" stroke-linejoin="round" stroke-miterlimit="10" stroke-opacity="1" fill="none" fill-rule="evenodd"/><path d="M4004.75 345.618 4004.75 2132.81" stroke="#EFEFEF" stroke-width="3.4375" stroke-linecap="butt" stroke-linejoin="round" stroke-miterlimit="10" stroke-opacity="1" fill="none" fill-rule="evenodd"/><path d="M4004.75 2132.81 4004.75 2239.65" stroke="#F3F3F3" stroke-width="3.4375" stroke-linecap="butt" stroke-linejoin="round" stroke-miterlimit="10" stroke-opacity="1" fill="none" fill-rule="evenodd"/><path d="M4172.76 238.77 4172.76 345.618" stroke="#F3F3F3" stroke-width="3.4375" stroke-linecap="butt" stroke-linejoin="round" stroke-miterlimit="10" stroke-opacity="1" fill="none" fill-rule="evenodd"/><path d="M4172.76 345.618 4172.76 2132.81" stroke="#EFEFEF" stroke-width="3.4375" stroke-linecap="butt" stroke-linejoin="round" stroke-miterlimit="10" stroke-opacity="1" fill="none" fill-rule="evenodd"/><path d="M4172.76 2132.81 4172.76 2239.65" stroke="#F3F3F3" stroke-width="3.4375" stroke-linecap="butt" stroke-linejoin="round" stroke-miterlimit="10" stroke-opacity="1" fill="none" fill-rule="evenodd"/><path d="M1727.42 345.618 2156.66 345.618" stroke="#F3F3F3" stroke-width="3.4375" stroke-linecap="butt" stroke-linejoin="round" stroke-miterlimit="10" stroke-opacity="1" fill="none" fill-rule="evenodd"/><path d="M2156.66 345.618 4342.49 345.618" stroke="#EFEFEF" stroke-width="3.4375" stroke-linecap="butt" stroke-linejoin="round" stroke-miterlimit="10" stroke-opacity="1" fill="none" fill-rule="evenodd"/><path d="M1727.42 450.746 2156.66 450.746" stroke="#F3F3F3" stroke-width="3.4375" stroke-linecap="butt" stroke-linejoin="round" stroke-miterlimit="10" stroke-opacity="0" fill="none" fill-rule="evenodd"/><path d="M2156.66 450.746 4342.49 450.746" stroke="#EFEFEF" stroke-width="3.4375" stroke-linecap="butt" stroke-linejoin="round" stroke-miterlimit="10" stroke-opacity="1" fill="none" fill-rule="evenodd"/><path d="M1727.42 555.875 2156.66 555.875" stroke="#F3F3F3" stroke-width="3.4375" stroke-linecap="butt" stroke-linejoin="round" stroke-miterlimit="10" stroke-opacity="1" fill="none" fill-rule="evenodd"/><path d="M2156.66 555.875 4342.49 555.875" stroke="#EFEFEF" stroke-width="3.4375" stroke-linecap="butt" stroke-linejoin="round" stroke-miterlimit="10" stroke-opacity="1" fill="none" fill-rule="evenodd"/><path d="M1727.42 661.004 2156.66 661.004" stroke="#F3F3F3" stroke-width="3.4375" stroke-linecap="butt" stroke-linejoin="round" stroke-miterlimit="10" stroke-opacity="1" fill="none" fill-rule="evenodd"/><path d="M2156.66 661.004 4342.49 661.004" stroke="#EFEFEF" stroke-width="3.4375" stroke-linecap="butt" stroke-linejoin="round" stroke-miterlimit="10" stroke-opacity="1" fill="none" fill-rule="evenodd"/><path d="M1727.42 766.132 2156.66 766.132" stroke="#F3F3F3" stroke-width="3.4375" stroke-linecap="butt" stroke-linejoin="round" stroke-miterlimit="10" stroke-opacity="1" fill="none" fill-rule="evenodd"/><path d="M2156.66 766.132 4342.49 766.132" stroke="#EFEFEF" stroke-width="3.4375" stroke-linecap="butt" stroke-linejoin="round" stroke-miterlimit="10" stroke-opacity="1" fill="none" fill-rule="evenodd"/><path d="M1727.42 871.261 2156.66 871.261" stroke="#F3F3F3" stroke-width="3.4375" stroke-linecap="butt" stroke-linejoin="round" stroke-miterlimit="10" stroke-opacity="1" fill="none" fill-rule="evenodd"/><path d="M2156.66 871.261 4342.49 871.261" stroke="#EFEFEF" stroke-width="3.4375" stroke-linecap="butt" stroke-linejoin="round" stroke-miterlimit="10" stroke-opacity="1" fill="none" fill-rule="evenodd"/><path d="M1727.42 976.39 2156.66 976.39" stroke="#F3F3F3" stroke-width="3.4375" stroke-linecap="butt" stroke-linejoin="round" stroke-miterlimit="10" stroke-opacity="1" fill="none" fill-rule="evenodd"/><path d="M2156.66 976.39 4342.49 976.39" stroke="#EFEFEF" stroke-width="3.4375" stroke-linecap="butt" stroke-linejoin="round" stroke-miterlimit="10" stroke-opacity="1" fill="none" fill-rule="evenodd"/><path d="M1727.42 1081.52 2156.66 1081.52" stroke="#F3F3F3" stroke-width="3.4375" stroke-linecap="butt" stroke-linejoin="round" stroke-miterlimit="10" stroke-opacity="1" fill="none" fill-rule="evenodd"/><path d="M2156.66 1081.52 4342.49 1081.52" stroke="#EFEFEF" stroke-width="3.4375" stroke-linecap="butt" stroke-linejoin="round" stroke-miterlimit="10" stroke-opacity="1" fill="none" fill-rule="evenodd"/><path d="M1727.42 1186.65 2156.66 1186.65" stroke="#F3F3F3" stroke-width="3.4375" stroke-linecap="butt" stroke-linejoin="round" stroke-miterlimit="10" stroke-opacity="1" fill="none" fill-rule="evenodd"/><path d="M2156.66 1186.65 4342.49 1186.65" stroke="#EFEFEF" stroke-width="3.4375" stroke-linecap="butt" stroke-linejoin="round" stroke-miterlimit="10" stroke-opacity="1" fill="none" fill-rule="evenodd"/><path d="M1727.42 1291.78 2156.66 1291.78" stroke="#F3F3F3" stroke-width="3.4375" stroke-linecap="butt" stroke-linejoin="round" stroke-miterlimit="10" stroke-opacity="1" fill="none" fill-rule="evenodd"/><path d="M2156.66 1291.78 4342.49 1291.78" stroke="#EFEFEF" stroke-width="3.4375" stroke-linecap="butt" stroke-linejoin="round" stroke-miterlimit="10" stroke-opacity="1" fill="none" fill-rule="evenodd"/><path d="M1727.42 1396.9 2156.66 1396.9" stroke="#F3F3F3" stroke-width="3.4375" stroke-linecap="butt" stroke-linejoin="round" stroke-miterlimit="10" stroke-opacity="1" fill="none" fill-rule="evenodd"/><path d="M2156.66 1396.9 4342.49 1396.9" stroke="#EFEFEF" stroke-width="3.4375" stroke-linecap="butt" stroke-linejoin="round" stroke-miterlimit="10" stroke-opacity="1" fill="none" fill-rule="evenodd"/><path d="M1727.42 1502.03 2156.66 1502.03" stroke="#F3F3F3" stroke-width="3.4375" stroke-linecap="butt" stroke-linejoin="round" stroke-miterlimit="10" stroke-opacity="1" fill="none" fill-rule="evenodd"/><path d="M2156.66 1502.03 4342.49 1502.03" stroke="#EFEFEF" stroke-width="3.4375" stroke-linecap="butt" stroke-linejoin="round" stroke-miterlimit="10" stroke-opacity="1" fill="none" fill-rule="evenodd"/><path d="M1727.42 1607.16 2156.66 1607.16" stroke="#F3F3F3" stroke-width="3.4375" stroke-linecap="butt" stroke-linejoin="round" stroke-miterlimit="10" stroke-opacity="1" fill="none" fill-rule="evenodd"/><path d="M2156.66 1607.16 4342.49 1607.16" stroke="#EFEFEF" stroke-width="3.4375" stroke-linecap="butt" stroke-linejoin="round" stroke-miterlimit="10" stroke-opacity="1" fill="none" fill-rule="evenodd"/><path d="M1727.42 1712.29 2156.66 1712.29" stroke="#F3F3F3" stroke-width="3.4375" stroke-linecap="butt" stroke-linejoin="round" stroke-miterlimit="10" stroke-opacity="1" fill="none" fill-rule="evenodd"/><path d="M2156.66 1712.29 4342.49 1712.29" stroke="#EFEFEF" stroke-width="3.4375" stroke-linecap="butt" stroke-linejoin="round" stroke-miterlimit="10" stroke-opacity="1" fill="none" fill-rule="evenodd"/><path d="M1727.42 1817.42 2156.66 1817.42" stroke="#F3F3F3" stroke-width="3.4375" stroke-linecap="butt" stroke-linejoin="round" stroke-miterlimit="10" stroke-opacity="1" fill="none" fill-rule="evenodd"/><path d="M2156.66 1817.42 4342.49 1817.42" stroke="#EFEFEF" stroke-width="3.4375" stroke-linecap="butt" stroke-linejoin="round" stroke-miterlimit="10" stroke-opacity="1" fill="none" fill-rule="evenodd"/><path d="M1727.42 1922.55 2156.66 1922.55" stroke="#F3F3F3" stroke-width="3.4375" stroke-linecap="butt" stroke-linejoin="round" stroke-miterlimit="10" stroke-opacity="1" fill="none" fill-rule="evenodd"/><path d="M2156.66 1922.55 4342.49 1922.55" stroke="#EFEFEF" stroke-width="3.4375" stroke-linecap="butt" stroke-linejoin="round" stroke-miterlimit="10" stroke-opacity="1" fill="none" fill-rule="evenodd"/><path d="M1727.42 2027.68 2156.66 2027.68" stroke="#F3F3F3" stroke-width="3.4375" stroke-linecap="butt" stroke-linejoin="round" stroke-miterlimit="10" stroke-opacity="1" fill="none" fill-rule="evenodd"/><path d="M2156.66 2027.68 4342.49 2027.68" stroke="#EFEFEF" stroke-width="3.4375" stroke-linecap="butt" stroke-linejoin="round" stroke-miterlimit="10" stroke-opacity="1" fill="none" fill-rule="evenodd"/><path d="M1727.42 2132.81 4342.49 2132.81" stroke="#F3F3F3" stroke-width="3.4375" stroke-linecap="butt" stroke-linejoin="round" stroke-miterlimit="10" stroke-opacity="1" fill="none" fill-rule="evenodd"/><path d="M1729.14 238.77 1729.14 2239.65" stroke="#F3F3F3" stroke-width="3.4375" stroke-linecap="butt" stroke-linejoin="round" stroke-miterlimit="10" stroke-opacity="0" fill="none" fill-rule="evenodd"/><path d="M4340.77 238.77 4340.77 345.618" stroke="#F3F3F3" stroke-width="3.4375" stroke-linecap="butt" stroke-linejoin="round" stroke-miterlimit="10" stroke-opacity="1" fill="none" fill-rule="evenodd"/><path d="M4340.77 345.618 4340.77 2132.81" stroke="#EFEFEF" stroke-width="3.4375" stroke-linecap="butt" stroke-linejoin="round" stroke-miterlimit="10" stroke-opacity="0" fill="none" fill-rule="evenodd"/><path d="M4340.77 2132.81 4340.77 2239.65" stroke="#F3F3F3" stroke-width="3.4375" stroke-linecap="butt" stroke-linejoin="round" stroke-miterlimit="10" stroke-opacity="0" fill="none" fill-rule="evenodd"/><path d="M1727.42 240.489 2156.66 240.489" stroke="#F3F3F3" stroke-width="3.4375" stroke-linecap="butt" stroke-linejoin="round" stroke-miterlimit="10" stroke-opacity="0" fill="none" fill-rule="evenodd"/><path d="M2156.66 240.489 4342.49 240.489" stroke="#F3F3F3" stroke-width="3.4375" stroke-linecap="butt" stroke-linejoin="round" stroke-miterlimit="10" stroke-opacity="1" fill="none" fill-rule="evenodd"/><path d="M1727.42 2237.93 4342.49 2237.93" stroke="#F3F3F3" stroke-width="3.4375" stroke-linecap="butt" stroke-linejoin="round" stroke-miterlimit="10" stroke-opacity="0" fill="none" fill-rule="evenodd"/><text fill="#FFFFFF" fill-opacity="1" font-family="Calibri,Calibri_MSFontService,sans-serif" font-style="normal" font-variant="normal" font-weight="400" font-stretch="normal" font-size="41" text-anchor="start" direction="ltr" writing-mode="lr-tb" unicode-bidi="normal" text-decoration="none" transform="matrix(1 0 0 1 1762.13 307)">STAGE</text><g clip-path="url(#clip1)"><text fill="#FFFFFF" fill-opacity="1" font-family="Calibri,Calibri_MSFontService,sans-serif" font-style="normal" font-variant="normal" font-weight="400" font-stretch="normal" font-size="37" text-anchor="start" direction="ltr" writing-mode="lr-tb" unicode-bidi="normal" text-decoration="none" transform="matrix(1 0 0 1 2192.28 305)">11 MAY</text></g><g clip-path="url(#clip2)"><text fill="#FFFFFF" fill-opacity="1" font-family="Calibri,Calibri_MSFontService,sans-serif" font-style="normal" font-variant="normal" font-weight="400" font-stretch="normal" font-size="37" text-anchor="start" direction="ltr" writing-mode="lr-tb" unicode-bidi="normal" text-decoration="none" transform="matrix(1 0 0 1 2360.29 305)">25 MAY</text></g><text fill="#FFFFFF" fill-opacity="1" font-family="Calibri,Calibri_MSFontService,sans-serif" font-style="normal" font-variant="normal" font-weight="400" font-stretch="normal" font-size="37" text-anchor="start" direction="ltr" writing-mode="lr-tb" unicode-bidi="normal" text-decoration="none" transform="matrix(1 0 0 1 2534.31 305)">08 JUN<tspan fill="#FFFFFF" fill-opacity="1" font-family="Calibri,Calibri_MSFontService,sans-serif" font-style="normal" font-variant="normal" font-weight="400" font-stretch="normal" font-size="37" text-anchor="start" direction="ltr" writing-mode="lr-tb" unicode-bidi="normal" text-decoration="none" x="168.008" y="0">22 JUN</tspan><tspan fill="#FFFFFF" fill-opacity="1" font-family="Calibri,Calibri_MSFontService,sans-serif" font-style="normal" font-variant="normal" font-weight="400" font-stretch="normal" font-size="37" text-anchor="start" direction="ltr" writing-mode="lr-tb" unicode-bidi="normal" text-decoration="none" x="340.027" y="0">06 JUL</tspan><tspan fill="#FFFFFF" fill-opacity="1" font-family="Calibri,Calibri_MSFontService,sans-serif" font-style="normal" font-variant="normal" font-weight="400" font-stretch="normal" font-size="37" text-anchor="start" direction="ltr" writing-mode="lr-tb" unicode-bidi="normal" text-decoration="none" x="508.035" y="0">20 JUL</tspan></text><g clip-path="url(#clip3)"><text fill="#FFFFFF" fill-opacity="1" font-family="Calibri,Calibri_MSFontService,sans-serif" font-style="normal" font-variant="normal" font-weight="400" font-stretch="normal" font-size="37" text-anchor="start" direction="ltr" writing-mode="lr-tb" unicode-bidi="normal" text-decoration="none" transform="matrix(1 0 0 1 3201.76 305)">03 AUG</text></g><g clip-path="url(#clip4)"><text fill="#FFFFFF" fill-opacity="1" font-family="Calibri,Calibri_MSFontService,sans-serif" font-style="normal" font-variant="normal" font-weight="400" font-stretch="normal" font-size="37" text-anchor="start" direction="ltr" writing-mode="lr-tb" unicode-bidi="normal" text-decoration="none" transform="matrix(1 0 0 1 3369.77 305)">17 AUG</text></g><g clip-path="url(#clip5)"><text fill="#FFFFFF" fill-opacity="1" font-family="Calibri,Calibri_MSFontService,sans-serif" font-style="normal" font-variant="normal" font-weight="400" font-stretch="normal" font-size="37" text-anchor="start" direction="ltr" writing-mode="lr-tb" unicode-bidi="normal" text-decoration="none" transform="matrix(1 0 0 1 3537.77 305)">31 AUG</text></g><g clip-path="url(#clip6)"><text fill="#FFFFFF" fill-opacity="1" font-family="Calibri,Calibri_MSFontService,sans-serif" font-style="normal" font-variant="normal" font-weight="400" font-stretch="normal" font-size="37" text-anchor="start" direction="ltr" writing-mode="lr-tb" unicode-bidi="normal" text-decoration="none" transform="matrix(1 0 0 1 3704.06 305)">14 SEPT</text></g><g clip-path="url(#clip7)"><text fill="#FFFFFF" fill-opacity="1" font-family="Calibri,Calibri_MSFontService,sans-serif" font-style="normal" font-variant="normal" font-weight="400" font-stretch="normal" font-size="37" text-anchor="start" direction="ltr" writing-mode="lr-tb" unicode-bidi="normal" text-decoration="none" transform="matrix(1 0 0 1 3872.07 305)">28 SEPT</text></g><g clip-path="url(#clip8)"><text fill="#FFFFFF" fill-opacity="1" font-family="Calibri,Calibri_MSFontService,sans-serif" font-style="normal" font-variant="normal" font-weight="400" font-stretch="normal" font-size="37" text-anchor="start" direction="ltr" writing-mode="lr-tb" unicode-bidi="normal" text-decoration="none" transform="matrix(1 0 0 1 4044.95 305)">12 OCT</text></g><g clip-path="url(#clip9)"><text fill="#FFFFFF" fill-opacity="1" font-family="Calibri,Calibri_MSFontService,sans-serif" font-style="normal" font-variant="normal" font-weight="400" font-stretch="normal" font-size="37" text-anchor="start" direction="ltr" writing-mode="lr-tb" unicode-bidi="normal" text-decoration="none" transform="matrix(1 0 0 1 4212.96 305)">26 OCT</text></g><text fill="#262626" fill-opacity="1" font-family="Calibri,Calibri_MSFontService,sans-serif" font-style="normal" font-variant="normal" font-weight="400" font-stretch="normal" font-size="28" text-anchor="start" direction="ltr" writing-mode="lr-tb" unicode-bidi="normal" text-decoration="none" transform="matrix(1 0 0 1 2200.01 408)">SPRINT 1<tspan fill="#262626" fill-opacity="1" font-family="Calibri,Calibri_MSFontService,sans-serif" font-style="normal" font-variant="normal" font-weight="400" font-stretch="normal" font-size="28" text-anchor="start" direction="ltr" writing-mode="lr-tb" unicode-bidi="normal" text-decoration="none" x="168.008" y="0">SPRINT 2</tspan><tspan fill="#262626" fill-opacity="1" font-family="Calibri,Calibri_MSFontService,sans-serif" font-style="normal" font-variant="normal" font-weight="400" font-stretch="normal" font-size="28" text-anchor="start" direction="ltr" writing-mode="lr-tb" unicode-bidi="normal" text-decoration="none" x="336.016" y="0">SPRINT 3</tspan><tspan fill="#262626" fill-opacity="1" font-family="Calibri,Calibri_MSFontService,sans-serif" font-style="normal" font-variant="normal" font-weight="400" font-stretch="normal" font-size="28" text-anchor="start" direction="ltr" writing-mode="lr-tb" unicode-bidi="normal" text-decoration="none" x="504.024" y="0">SPRINT 4</tspan><tspan fill="#262626" fill-opacity="1" font-family="Calibri,Calibri_MSFontService,sans-serif" font-style="normal" font-variant="normal" font-weight="400" font-stretch="normal" font-size="28" text-anchor="start" direction="ltr" writing-mode="lr-tb" unicode-bidi="normal" text-decoration="none" x="672.032" y="0">SPRINT 5</tspan><tspan fill="#262626" fill-opacity="1" font-family="Calibri,Calibri_MSFontService,sans-serif" font-style="normal" font-variant="normal" font-weight="400" font-stretch="normal" font-size="28" text-anchor="start" direction="ltr" writing-mode="lr-tb" unicode-bidi="normal" text-decoration="none" x="840.04" y="0">SPRINT 6</tspan><tspan fill="#262626" fill-opacity="1" font-family="Calibri,Calibri_MSFontService,sans-serif" font-style="normal" font-variant="normal" font-weight="400" font-stretch="normal" font-size="28" text-anchor="start" direction="ltr" writing-mode="lr-tb" unicode-bidi="normal" text-decoration="none" x="1008.05" y="0">SPRINT 7</tspan><tspan fill="#262626" fill-opacity="1" font-family="Calibri,Calibri_MSFontService,sans-serif" font-style="normal" font-variant="normal" font-weight="400" font-stretch="normal" font-size="28" text-anchor="start" direction="ltr" writing-mode="lr-tb" unicode-bidi="normal" text-decoration="none" x="1176.06" y="0">SPRINT 8</tspan><tspan fill="#262626" fill-opacity="1" font-family="Calibri,Calibri_MSFontService,sans-serif" font-style="normal" font-variant="normal" font-weight="400" font-stretch="normal" font-size="28" text-anchor="start" direction="ltr" writing-mode="lr-tb" unicode-bidi="normal" text-decoration="none" x="1344.06" y="0">SPRINT 9</tspan><tspan fill="#262626" fill-opacity="1" font-family="Calibri,Calibri_MSFontService,sans-serif" font-style="normal" font-variant="normal" font-weight="400" font-stretch="normal" font-size="28" text-anchor="start" direction="ltr" writing-mode="lr-tb" unicode-bidi="normal" text-decoration="none" x="1505.2" y="0">SPRINT 10</tspan><tspan fill="#262626" fill-opacity="1" font-family="Calibri,Calibri_MSFontService,sans-serif" font-style="normal" font-variant="normal" font-weight="400" font-stretch="normal" font-size="28" text-anchor="start" direction="ltr" writing-mode="lr-tb" unicode-bidi="normal" text-decoration="none" x="1673.21" y="0">SPRINT 11</tspan><tspan fill="#262626" fill-opacity="1" font-family="Calibri,Calibri_MSFontService,sans-serif" font-style="normal" font-variant="normal" font-weight="400" font-stretch="normal" font-size="28" text-anchor="start" direction="ltr" writing-mode="lr-tb" unicode-bidi="normal" text-decoration="none" x="1841.21" y="0">SPRINT 12</tspan><tspan fill="#262626" fill-opacity="1" font-family="Calibri,Calibri_MSFontService,sans-serif" font-style="normal" font-variant="normal" font-weight="400" font-stretch="normal" font-size="28" text-anchor="start" direction="ltr" writing-mode="lr-tb" unicode-bidi="normal" text-decoration="none" x="2009.22" y="0">SPRINT 13</tspan><tspan fill="#000000" fill-opacity="1" font-family="Calibri,Calibri_MSFontService,sans-serif" font-style="normal" font-variant="normal" font-weight="400" font-stretch="normal" font-size="37" text-anchor="start" direction="ltr" writing-mode="lr-tb" unicode-bidi="normal" text-decoration="none" x="-437.881" y="107">Define (</tspan><tspan fill="#000000" fill-opacity="1" font-family="Calibri,Calibri_MSFontService,sans-serif" font-style="normal" font-variant="normal" font-weight="400" font-stretch="normal" font-size="37" text-anchor="start" direction="ltr" writing-mode="lr-tb" unicode-bidi="normal" text-decoration="none" x="-320.433" y="107">UX</tspan><tspan fill="#000000" fill-opacity="1" font-family="Calibri,Calibri_MSFontService,sans-serif" font-style="normal" font-variant="normal" font-weight="400" font-stretch="normal" font-size="37" text-anchor="start" direction="ltr" writing-mode="lr-tb" unicode-bidi="normal" text-decoration="none" x="-278.037" y="107">)</tspan><tspan fill="#000000" fill-opacity="1" font-family="Calibri,Calibri_MSFontService,sans-serif" font-style="normal" font-variant="normal" font-weight="400" font-stretch="normal" font-size="37" text-anchor="start" direction="ltr" writing-mode="lr-tb" unicode-bidi="normal" text-decoration="none" x="-437.881" y="212">Define (Technology)</tspan><tspan fill="#000000" fill-opacity="1" font-family="Calibri,Calibri_MSFontService,sans-serif" font-style="normal" font-variant="normal" font-weight="400" font-stretch="normal" font-size="37" text-anchor="start" direction="ltr" writing-mode="lr-tb" unicode-bidi="normal" text-decoration="none" x="-437.881" y="318">UX design</tspan><tspan fill="#000000" fill-opacity="1" font-family="Calibri,Calibri_MSFontService,sans-serif" font-style="normal" font-variant="normal" font-weight="400" font-stretch="normal" font-size="37" text-anchor="start" direction="ltr" writing-mode="lr-tb" unicode-bidi="normal" text-decoration="none" x="-437.881" y="423">Tech design</tspan><tspan fill="#000000" fill-opacity="1" font-family="Calibri,Calibri_MSFontService,sans-serif" font-style="normal" font-variant="normal" font-weight="400" font-stretch="normal" font-size="37" text-anchor="start" direction="ltr" writing-mode="lr-tb" unicode-bidi="normal" text-decoration="none" x="-437.881" y="528">Core, Omni site</tspan><tspan fill="#000000" fill-opacity="1" font-family="Calibri,Calibri_MSFontService,sans-serif" font-style="normal" font-variant="normal" font-weight="400" font-stretch="normal" font-size="37" text-anchor="start" direction="ltr" writing-mode="lr-tb" unicode-bidi="normal" text-decoration="none" x="-437.881" y="633">Brand </tspan><tspan fill="#000000" fill-opacity="1" font-family="Calibri,Calibri_MSFontService,sans-serif" font-style="normal" font-variant="normal" font-weight="400" font-stretch="normal" font-size="37" text-anchor="start" direction="ltr" writing-mode="lr-tb" unicode-bidi="normal" text-decoration="none" x="-340.485" y="633">site</tspan><tspan fill="#000000" fill-opacity="1" font-family="Calibri,Calibri_MSFontService,sans-serif" font-style="normal" font-variant="normal" font-weight="400" font-stretch="normal" font-size="37" text-anchor="start" direction="ltr" writing-mode="lr-tb" unicode-bidi="normal" text-decoration="none" x="-437.881" y="738">Aggregator site</tspan><tspan fill="#000000" fill-opacity="1" font-family="Calibri,Calibri_MSFontService,sans-serif" font-style="normal" font-variant="normal" font-weight="400" font-stretch="normal" font-size="37" text-anchor="start" direction="ltr" writing-mode="lr-tb" unicode-bidi="normal" text-decoration="none" x="-437.881" y="843">Hardening</tspan><tspan fill="#000000" fill-opacity="1" font-family="Calibri,Calibri_MSFontService,sans-serif" font-style="normal" font-variant="normal" font-weight="400" font-stretch="normal" font-size="37" text-anchor="start" direction="ltr" writing-mode="lr-tb" unicode-bidi="normal" text-decoration="none" x="-437.881" y="948">E2E SIT</tspan><tspan fill="#000000" fill-opacity="1" font-family="Calibri,Calibri_MSFontService,sans-serif" font-style="normal" font-variant="normal" font-weight="400" font-stretch="normal" font-size="37" text-anchor="start" direction="ltr" writing-mode="lr-tb" unicode-bidi="normal" text-decoration="none" x="-437.881" y="1053">NFT</tspan><tspan fill="#000000" fill-opacity="1" font-family="Calibri,Calibri_MSFontService,sans-serif" font-style="normal" font-variant="normal" font-weight="400" font-stretch="normal" font-size="37" text-anchor="start" direction="ltr" writing-mode="lr-tb" unicode-bidi="normal" text-decoration="none" x="-437.881" y="1159">UAT</tspan><tspan fill="#000000" fill-opacity="1" font-family="Calibri,Calibri_MSFontService,sans-serif" font-style="normal" font-variant="normal" font-weight="400" font-stretch="normal" font-size="37" text-anchor="start" direction="ltr" writing-mode="lr-tb" unicode-bidi="normal" text-decoration="none" x="-437.881" y="1264">Data Mgr. &amp; Analytics</tspan><tspan fill="#000000" fill-opacity="1" font-family="Calibri,Calibri_MSFontService,sans-serif" font-style="normal" font-variant="normal" font-weight="400" font-stretch="normal" font-size="37" text-anchor="start" direction="ltr" writing-mode="lr-tb" unicode-bidi="normal" text-decoration="none" x="-437.881" y="1369">Business Readiness</tspan><tspan fill="#000000" fill-opacity="1" font-family="Calibri,Calibri_MSFontService,sans-serif" font-style="normal" font-variant="normal" font-weight="400" font-stretch="normal" font-size="37" text-anchor="start" direction="ltr" writing-mode="lr-tb" unicode-bidi="normal" text-decoration="none" x="-437.881" y="1474">Training</tspan><tspan fill="#000000" fill-opacity="1" font-family="Calibri,Calibri_MSFontService,sans-serif" font-style="normal" font-variant="normal" font-weight="400" font-stretch="normal" font-size="37" text-anchor="start" direction="ltr" writing-mode="lr-tb" unicode-bidi="normal" text-decoration="none" x="-437.881" y="1579">Go</tspan><tspan fill="#000000" fill-opacity="1" font-family="Calibri,Calibri_MSFontService,sans-serif" font-style="normal" font-variant="normal" font-weight="400" font-stretch="normal" font-size="37" text-anchor="start" direction="ltr" writing-mode="lr-tb" unicode-bidi="normal" text-decoration="none" x="-395.485" y="1579">-</tspan><tspan fill="#000000" fill-opacity="1" font-family="Calibri,Calibri_MSFontService,sans-serif" font-style="normal" font-variant="normal" font-weight="400" font-stretch="normal" font-size="37" text-anchor="start" direction="ltr" writing-mode="lr-tb" unicode-bidi="normal" text-decoration="none" x="-384.027" y="1579">Live Prep</tspan><tspan fill="#000000" fill-opacity="1" font-family="Calibri,Calibri_MSFontService,sans-serif" font-style="normal" font-variant="normal" font-weight="400" font-stretch="normal" font-size="37" text-anchor="start" direction="ltr" writing-mode="lr-tb" unicode-bidi="normal" text-decoration="none" x="-437.881" y="1684">Launch</tspan><tspan fill="#000000" fill-opacity="1" font-family="Calibri,Calibri_MSFontService,sans-serif" font-style="normal" font-variant="normal" font-weight="400" font-stretch="normal" font-size="37" text-anchor="start" direction="ltr" writing-mode="lr-tb" unicode-bidi="normal" text-decoration="none" x="-437.881" y="1789">Hypercare</tspan></text><path d="M2160 504 2486.47 504" stroke="#3F3F3F" stroke-width="13.75" stroke-linecap="butt" stroke-linejoin="round" stroke-miterlimit="10" stroke-opacity="1" fill="none" fill-rule="evenodd"/><path d="M2491 717 3327.49 717" stroke="#3F3F3F" stroke-width="13.75" stroke-linecap="butt" stroke-linejoin="round" stroke-miterlimit="10" stroke-opacity="1" fill="none" fill-rule="evenodd"/><path d="M2160 604 2486.47 604" stroke="#000000" stroke-width="13.75" stroke-linecap="butt" stroke-linejoin="round" stroke-miterlimit="10" stroke-opacity="1" fill="none" fill-rule="evenodd"/><path d="M0 0 503.119 0.000360892" stroke="#000000" stroke-width="13.75" stroke-linecap="butt" stroke-linejoin="round" stroke-miterlimit="10" stroke-opacity="1" fill="none" fill-rule="evenodd" transform="matrix(-1 0 0 1 2994.12 824)"/><path d="M0 0 1006.87 0.000360892" stroke="#000000" stroke-width="13.75" stroke-linecap="butt" stroke-linejoin="round" stroke-miterlimit="10" stroke-opacity="1" fill="none" fill-rule="evenodd" transform="matrix(-1 0 0 1 3667.87 922)"/><path d="M0 0 505.021 0.000360892" stroke="#000000" stroke-width="13.75" stroke-linecap="butt" stroke-linejoin="round" stroke-miterlimit="10" stroke-opacity="1" fill="none" fill-rule="evenodd" transform="matrix(-1 0 0 1 3668.02 1035)"/><path d="M0 0 673.469 0.000360892" stroke="#000000" stroke-width="13.75" stroke-linecap="butt" stroke-linejoin="round" stroke-miterlimit="10" stroke-opacity="1" fill="none" fill-rule="evenodd" transform="matrix(-1 0 0 1 3667.47 1139)"/><path d="M0 0 165 0.000360892" stroke="#000000" stroke-width="13.75" stroke-linecap="butt" stroke-linejoin="round" stroke-miterlimit="10" stroke-opacity="1" fill="none" fill-rule="evenodd" transform="matrix(-1 0 0 1 3664 1238)"/><path d="M0 0 360.306 4.56385" stroke="#000000" stroke-width="13.75" stroke-linecap="butt" stroke-linejoin="round" stroke-miterlimit="10" stroke-opacity="1" fill="none" fill-rule="evenodd" transform="matrix(-1 0 0 1 3664.31 1341)"/><path d="M0 0 168.367 0.000360892" stroke="#000000" stroke-width="13.75" stroke-linecap="butt" stroke-linejoin="round" stroke-miterlimit="10" stroke-opacity="1" fill="none" fill-rule="evenodd" transform="matrix(-1 0 0 1 3667.37 1447)"/><path d="M0 0 1342.71 19.5568" stroke="#3F3F3F" stroke-width="13.75" stroke-linecap="butt" stroke-linejoin="round" stroke-miterlimit="10" stroke-opacity="1" fill="none" fill-rule="evenodd" transform="matrix(-1 0 0 1 3833.71 1655)"/><path d="M0 0 1339.08 4.37835" stroke="#3F3F3F" stroke-width="13.75" stroke-linecap="butt" stroke-linejoin="round" stroke-miterlimit="10" stroke-opacity="1" fill="none" fill-rule="evenodd" transform="matrix(-1 0 0 1 3831.08 1760)"/><path d="M0 0 505.021 0.000360892" stroke="#3F3F3F" stroke-width="13.75" stroke-linecap="butt" stroke-linejoin="round" stroke-miterlimit="10" stroke-opacity="1" fill="none" fill-rule="evenodd" transform="matrix(-1 0 0 1 3668.02 1877)"/><path d="M4003.18 1989 3634 1989" stroke="#3F3F3F" stroke-width="13.75" stroke-linecap="butt" stroke-linejoin="round" stroke-miterlimit="10" stroke-opacity="1" fill="none" fill-rule="evenodd"/><path d="M0 0 337.405 0.000360892" stroke="#3F3F3F" stroke-width="13.75" stroke-linecap="butt" stroke-linejoin="round" stroke-miterlimit="10" stroke-opacity="1" fill="none" fill-rule="evenodd" transform="matrix(-1 0 0 1 4340.4 2195)"/><path d="M0 113C-2.95367e-14 50.5918 51.935 0 116 0 180.065-2.87728e-14 232 50.5918 232 113 232 175.408 180.065 226 116 226 51.935 226-4.4305e-14 175.408 0 113Z" fill="#60607D" fill-rule="evenodd" fill-opacity="1" transform="matrix(-1 0 0 1 4051 1925)"/><text fill="#FFFFFF" fill-opacity="1" font-family="Calibri,Calibri_MSFontService,sans-serif" font-style="normal" font-variant="normal" font-weight="700" font-stretch="normal" font-size="28" text-anchor="start" direction="ltr" writing-mode="lr-tb" unicode-bidi="normal" text-decoration="none" transform="matrix(1 0 0 1 3890.16 2047)">LAUNCH</text><path d="M0 0 168.367 0.000360892" stroke="#000000" stroke-width="13.75" stroke-linecap="butt" stroke-linejoin="round" stroke-miterlimit="10" stroke-opacity="1" fill="none" fill-rule="evenodd" transform="matrix(-1 0 0 1 3836.37 1557)"/></g></svg>