<svg width="3905" height="1494" xmlns="http://www.w3.org/2000/svg" xmlns:xlink="http://www.w3.org/1999/xlink" overflow="hidden"><defs><clipPath id="clip0"><rect x="247" y="550" width="3905" height="1494"/></clipPath><clipPath id="clip1"><rect x="2029" y="1123" width="285" height="284"/></clipPath><clipPath id="clip2"><rect x="2029" y="1123" width="285" height="284"/></clipPath><clipPath id="clip3"><rect x="2029" y="1123" width="285" height="284"/></clipPath></defs><g clip-path="url(#clip0)" transform="translate(-247 -550)"><text fill="#000000" fill-opacity="1" font-family="Calibri,Calibri_MSFontService,sans-serif" font-style="normal" font-variant="normal" font-weight="400" font-stretch="normal" font-size="83" text-anchor="start" direction="ltr" writing-mode="lr-tb" unicode-bidi="normal" text-decoration="none" transform="matrix(1 0 0 1 785.754 945)">Advanced<tspan fill="#60607D" fill-opacity="1" font-family="Calibri,Calibri_MSFontService,sans-serif" font-style="normal" font-variant="normal" font-weight="400" font-stretch="normal" font-size="83" text-anchor="start" direction="ltr" writing-mode="lr-tb" unicode-bidi="normal" text-decoration="none" x="350.052" y="0">firewall</tspan><tspan fill="#000000" fill-opacity="1" font-family="Calibri,Calibri_MSFontService,sans-serif" font-style="normal" font-variant="normal" font-weight="400" font-stretch="normal" font-size="83" text-anchor="start" direction="ltr" writing-mode="lr-tb" unicode-bidi="normal" text-decoration="none" x="619.323" y="0">systems</tspan></text><path d="M0-5.15625 0.0103125-5.15625C2.85803-5.15625 5.16656-2.84772 5.16656 0 5.16656 2.84772 2.85803 5.15625 0.0103125 5.15625L0 5.15625C-2.84772 5.15625-5.15625 2.84772-5.15625 0-5.15625-2.84772-2.84772-5.15625 0-5.15625ZM8.15403 17.6375 8.15403 17.6478C8.15403 20.4956 5.8455 22.8041 2.99778 22.8041 0.150066 22.8041-2.15847 20.4956-2.15847 17.6478L-2.15847 17.6375C-2.15847 14.7898 0.150066 12.4813 2.99778 12.4813 5.8455 12.4813 8.15403 14.7898 8.15403 17.6375ZM8.15403 38.2728 8.15403 38.2832C8.15403 41.1309 5.8455 43.4394 2.99778 43.4394 0.150066 43.4394-2.15847 41.1309-2.15847 38.2832L-2.15847 38.2728C-2.15847 35.4251 0.150066 33.1166 2.99778 33.1166 5.8455 33.1166 8.15403 35.4251 8.15403 38.2728ZM8.97385 47.7758 8.98416 47.7758C11.8319 47.7758 14.1404 50.0844 14.1404 52.9321 14.1404 55.7798 11.8319 58.0883 8.98416 58.0883L8.97385 58.0883C6.12613 58.0883 3.8176 55.7798 3.8176 52.9321 3.8176 50.0844 6.12613 47.7758 8.97385 47.7758ZM29.6092 47.7758 29.6195 47.7758C32.4672 47.7758 34.7757 50.0844 34.7757 52.9321 34.7757 55.7798 32.4672 58.0883 29.6195 58.0883L29.6092 58.0883C26.7614 58.0883 24.4529 55.7798 24.4529 52.9321 24.4529 50.0844 26.7614 47.7758 29.6092 47.7758ZM50.2445 47.7758 50.2548 47.7758C53.1025 47.7758 55.411 50.0844 55.411 52.9321 55.411 55.7798 53.1025 58.0883 50.2548 58.0883L50.2445 58.0883C47.3968 58.0883 45.0882 55.7798 45.0882 52.9321 45.0882 50.0844 47.3968 47.7758 50.2445 47.7758ZM70.8798 47.7758 70.8901 47.7758C73.7378 47.7758 76.0464 50.0844 76.0464 52.9321 76.0464 55.7798 73.7378 58.0883 70.8901 58.0883L70.8798 58.0883C68.0321 58.0883 65.7235 55.7798 65.7235 52.9321 65.7235 50.0844 68.0321 47.7758 70.8798 47.7758ZM91.5151 47.7758 91.5254 47.7758C94.3731 47.7758 96.6817 50.0844 96.6817 52.9321 96.6817 55.7798 94.3731 58.0883 91.5254 58.0883L91.5151 58.0883C88.6674 58.0883 86.3589 55.7798 86.3589 52.9321 86.3589 50.0844 88.6674 47.7758 91.5151 47.7758ZM112.15 47.7758 112.161 47.7758C115.008 47.7758 117.317 50.0844 117.317 52.9321 117.317 55.7798 115.008 58.0883 112.161 58.0883L112.15 58.0883C109.303 58.0883 106.994 55.7798 106.994 52.9321 106.994 50.0844 109.303 47.7758 112.15 47.7758ZM132.786 47.7758 132.796 47.7758C135.644 47.7758 137.952 50.0844 137.952 52.9321 137.952 55.7798 135.644 58.0883 132.796 58.0883L132.786 58.0883C129.938 58.0883 127.629 55.7798 127.629 52.9321 127.629 50.0844 129.938 47.7758 132.786 47.7758ZM153.421 47.7758 153.431 47.7758C156.279 47.7758 158.588 50.0844 158.588 52.9321 158.588 55.7798 156.279 58.0883 153.431 58.0883L153.421 58.0883C150.573 58.0883 148.265 55.7798 148.265 52.9321 148.265 50.0844 150.573 47.7758 153.421 47.7758ZM174.056 47.7758 174.067 47.7758C176.914 47.7758 179.223 50.0844 179.223 52.9321 179.223 55.7798 176.914 58.0883 174.067 58.0883L174.056 58.0883C171.209 58.0883 168.9 55.7798 168.9 52.9321 168.9 50.0844 171.209 47.7758 174.056 47.7758ZM194.692 47.7758 194.702 47.7758C197.55 47.7758 199.858 50.0844 199.858 52.9321 199.858 55.7798 197.55 58.0883 194.702 58.0883L194.692 58.0883C191.844 58.0883 189.535 55.7798 189.535 52.9321 189.535 50.0844 191.844 47.7758 194.692 47.7758ZM215.327 47.7758 215.337 47.7758C218.185 47.7758 220.494 50.0844 220.494 52.9321 220.494 55.7798 218.185 58.0883 215.337 58.0883L215.327 58.0883C212.479 58.0883 210.171 55.7798 210.171 52.9321 210.171 50.0844 212.479 47.7758 215.327 47.7758ZM235.962 47.7758 235.973 47.7758C238.82 47.7758 241.129 50.0844 241.129 52.9321 241.129 55.7798 238.82 58.0883 235.973 58.0883L235.962 58.0883C233.115 58.0883 230.806 55.7798 230.806 52.9321 230.806 50.0844 233.115 47.7758 235.962 47.7758ZM256.598 47.7758 256.608 47.7758C259.456 47.7758 261.764 50.0844 261.764 52.9321 261.764 55.7798 259.456 58.0883 256.608 58.0883L256.598 58.0883C253.75 58.0883 251.441 55.7798 251.441 52.9321 251.441 50.0844 253.75 47.7758 256.598 47.7758ZM277.233 47.7758 277.243 47.7758C280.091 47.7758 282.399 50.0844 282.399 52.9321 282.399 55.7798 280.091 58.0883 277.243 58.0883L277.233 58.0883C274.385 58.0883 272.077 55.7798 272.077 52.9321 272.077 50.0844 274.385 47.7758 277.233 47.7758ZM297.868 47.7758 297.879 47.7758C300.726 47.7758 303.035 50.0844 303.035 52.9321 303.035 55.7798 300.726 58.0883 297.879 58.0883L297.868 58.0883C295.02 58.0883 292.712 55.7798 292.712 52.9321 292.712 50.0844 295.02 47.7758 297.868 47.7758ZM318.504 47.7758 318.514 47.7758C321.362 47.7758 323.67 50.0844 323.67 52.9321 323.67 55.7798 321.362 58.0883 318.514 58.0883L318.504 58.0883C315.656 58.0883 313.347 55.7798 313.347 52.9321 313.347 50.0844 315.656 47.7758 318.504 47.7758ZM339.139 47.7758 339.149 47.7758C341.997 47.7758 344.305 50.0844 344.305 52.9321 344.305 55.7798 341.997 58.0883 339.149 58.0883L339.139 58.0883C336.291 58.0883 333.983 55.7798 333.983 52.9321 333.983 50.0844 336.291 47.7758 339.139 47.7758ZM359.774 47.7758 359.784 47.7758C362.632 47.7758 364.941 50.0844 364.941 52.9321 364.941 55.7798 362.632 58.0883 359.784 58.0883L359.774 58.0883C356.926 58.0883 354.618 55.7798 354.618 52.9321 354.618 50.0844 356.926 47.7758 359.774 47.7758ZM380.409 47.7758 380.42 47.7758C383.267 47.7758 385.576 50.0844 385.576 52.9321 385.576 55.7798 383.267 58.0883 380.42 58.0883L380.409 58.0883C377.562 58.0883 375.253 55.7798 375.253 52.9321 375.253 50.0844 377.562 47.7758 380.409 47.7758ZM401.045 47.7758 401.055 47.7758C403.903 47.7758 406.211 50.0844 406.211 52.9321 406.211 55.7798 403.903 58.0883 401.055 58.0883L401.045 58.0883C398.197 58.0883 395.889 55.7798 395.889 52.9321 395.889 50.0844 398.197 47.7758 401.045 47.7758Z" fill="#9B9BAE" fill-rule="nonzero" fill-opacity="1" transform="matrix(1.83697e-16 1 1 -1.83697e-16 2058 642)"/><text fill="#60607D" fill-opacity="1" font-family="Calibri,Calibri_MSFontService,sans-serif" font-style="normal" font-variant="normal" font-weight="400" font-stretch="normal" font-size="83" text-anchor="start" direction="ltr" writing-mode="lr-tb" unicode-bidi="normal" text-decoration="none" transform="matrix(1 0 0 1 1043.74 654)">State<tspan fill="#000000" fill-opacity="1" font-family="Calibri,Calibri_MSFontService,sans-serif" font-style="normal" font-variant="normal" font-weight="400" font-stretch="normal" font-size="83" text-anchor="start" direction="ltr" writing-mode="lr-tb" unicode-bidi="normal" text-decoration="none" x="192.5" y="0">of</tspan><tspan fill="#60607D" fill-opacity="1" font-family="Calibri,Calibri_MSFontService,sans-serif" font-style="normal" font-variant="normal" font-weight="400" font-stretch="normal" font-size="83" text-anchor="start" direction="ltr" writing-mode="lr-tb" unicode-bidi="normal" text-decoration="none" x="280.156" y="0">the art </tspan><tspan fill="#000000" fill-opacity="1" font-family="Calibri,Calibri_MSFontService,sans-serif" font-style="normal" font-variant="normal" font-weight="400" font-stretch="normal" font-size="83" text-anchor="start" direction="ltr" writing-mode="lr-tb" unicode-bidi="normal" text-decoration="none" x="525.938" y="0">facilities </tspan><tspan fill="#000000" fill-opacity="1" font-family="Calibri,Calibri_MSFontService,sans-serif" font-style="normal" font-variant="normal" font-weight="400" font-stretch="normal" font-size="83" text-anchor="start" direction="ltr" writing-mode="lr-tb" unicode-bidi="normal" text-decoration="none" x="-447.098" y="649">Virtual</tspan><tspan fill="#60607D" fill-opacity="1" font-family="Calibri,Calibri_MSFontService,sans-serif" font-style="normal" font-variant="normal" font-weight="400" font-stretch="normal" font-size="83" text-anchor="start" direction="ltr" writing-mode="lr-tb" unicode-bidi="normal" text-decoration="none" x="-204.181" y="649">private</tspan><tspan fill="#000000" fill-opacity="1" font-family="Calibri,Calibri_MSFontService,sans-serif" font-style="normal" font-variant="normal" font-weight="400" font-stretch="normal" font-size="83" text-anchor="start" direction="ltr" writing-mode="lr-tb" unicode-bidi="normal" text-decoration="none" x="51.3395" y="649">clouds</tspan><tspan fill="#60607D" fill-opacity="1" font-family="Calibri,Calibri_MSFontService,sans-serif" font-style="normal" font-variant="normal" font-weight="400" font-stretch="normal" font-size="83" text-anchor="start" direction="ltr" writing-mode="lr-tb" unicode-bidi="normal" text-decoration="none" x="1286.89" y="0">Intrusion</tspan><tspan fill="#000000" fill-opacity="1" font-family="Calibri,Calibri_MSFontService,sans-serif" font-style="normal" font-variant="normal" font-weight="400" font-stretch="normal" font-size="83" text-anchor="start" direction="ltr" writing-mode="lr-tb" unicode-bidi="normal" text-decoration="none" x="1607.72" y="0">detection</tspan><tspan fill="#60607D" fill-opacity="1" font-family="Calibri,Calibri_MSFontService,sans-serif" font-style="normal" font-variant="normal" font-weight="400" font-stretch="normal" font-size="83" text-anchor="start" direction="ltr" writing-mode="lr-tb" unicode-bidi="normal" text-decoration="none" x="1776.46" y="649">File Integrity </tspan><tspan fill="#000000" fill-opacity="1" font-family="Calibri,Calibri_MSFontService,sans-serif" font-style="normal" font-variant="normal" font-weight="400" font-stretch="normal" font-size="83" text-anchor="start" direction="ltr" writing-mode="lr-tb" unicode-bidi="normal" text-decoration="none" x="2215.32" y="649">monitoring</tspan><tspan fill="#60607D" fill-opacity="1" font-family="Calibri,Calibri_MSFontService,sans-serif" font-style="normal" font-variant="normal" font-weight="400" font-stretch="normal" font-size="83" text-anchor="start" direction="ltr" writing-mode="lr-tb" unicode-bidi="normal" text-decoration="none" x="1306.91" y="1317">Encrypted</tspan><tspan fill="#000000" fill-opacity="1" font-family="Calibri,Calibri_MSFontService,sans-serif" font-style="normal" font-variant="normal" font-weight="400" font-stretch="normal" font-size="83" text-anchor="start" direction="ltr" writing-mode="lr-tb" unicode-bidi="normal" text-decoration="none" x="1666.12" y="1317">using AES</tspan><tspan fill="#000000" fill-opacity="1" font-family="Calibri,Calibri_MSFontService,sans-serif" font-style="normal" font-variant="normal" font-weight="400" font-stretch="normal" font-size="83" text-anchor="start" direction="ltr" writing-mode="lr-tb" unicode-bidi="normal" text-decoration="none" x="1987.53" y="1317">-</tspan><tspan fill="#000000" fill-opacity="1" font-family="Calibri,Calibri_MSFontService,sans-serif" font-style="normal" font-variant="normal" font-weight="400" font-stretch="normal" font-size="83" text-anchor="start" direction="ltr" writing-mode="lr-tb" unicode-bidi="normal" text-decoration="none" x="2012.74" y="1317">256 standard</tspan><tspan fill="#60607D" fill-opacity="1" font-family="Calibri,Calibri_MSFontService,sans-serif" font-style="normal" font-variant="normal" font-weight="400" font-stretch="normal" font-size="83" text-anchor="start" direction="ltr" writing-mode="lr-tb" unicode-bidi="normal" text-decoration="none" x="-576.565" y="950">Single</tspan><tspan fill="#60607D" fill-opacity="1" font-family="Calibri,Calibri_MSFontService,sans-serif" font-style="normal" font-variant="normal" font-weight="400" font-stretch="normal" font-size="83" text-anchor="start" direction="ltr" writing-mode="lr-tb" unicode-bidi="normal" text-decoration="none" x="-377.19" y="950">-</tspan><tspan fill="#60607D" fill-opacity="1" font-family="Calibri,Calibri_MSFontService,sans-serif" font-style="normal" font-variant="normal" font-weight="400" font-stretch="normal" font-size="83" text-anchor="start" direction="ltr" writing-mode="lr-tb" unicode-bidi="normal" text-decoration="none" x="-351.981" y="950">tenant</tspan><tspan fill="#000000" fill-opacity="1" font-family="Calibri,Calibri_MSFontService,sans-serif" font-style="normal" font-variant="normal" font-weight="400" font-stretch="normal" font-size="83" text-anchor="start" direction="ltr" writing-mode="lr-tb" unicode-bidi="normal" text-decoration="none" x="-110.211" y="950">virtual machines</tspan><tspan fill="#60607D" fill-opacity="1" font-family="Calibri,Calibri_MSFontService,sans-serif" font-style="normal" font-variant="normal" font-weight="400" font-stretch="normal" font-size="83" text-anchor="start" direction="ltr" writing-mode="lr-tb" unicode-bidi="normal" text-decoration="none" x="-427.924" y="1317">Data isolated </tspan><tspan fill="#000000" fill-opacity="1" font-family="Calibri,Calibri_MSFontService,sans-serif" font-style="normal" font-variant="normal" font-weight="400" font-stretch="normal" font-size="83" text-anchor="start" direction="ltr" writing-mode="lr-tb" unicode-bidi="normal" text-decoration="none" x="32.7015" y="1317">to separate volumes</tspan></text><path d="M0-5.15625 0.0103125-5.15625C2.85803-5.15625 5.16656-2.84772 5.16656 0 5.16656 2.84772 2.85803 5.15625 0.0103125 5.15625L0 5.15625C-2.84772 5.15625-5.15625 2.84772-5.15625 0-5.15625-2.84772-2.84772-5.15625 0-5.15625ZM6.48244 19.3091 6.48244 19.3194C6.48244 22.1672 4.17391 24.4757 1.32619 24.4757-1.52153 24.4757-3.83006 22.1672-3.83006 19.3194L-3.83006 19.3091C-3.83006 16.4614-1.52153 14.1529 1.32619 14.1529 4.17391 14.1529 6.48244 16.4614 6.48244 19.3091ZM6.48244 39.9444 6.48244 39.9547C6.48244 42.8025 4.17391 45.111 1.32619 45.111-1.52153 45.111-3.83006 42.8025-3.83006 39.9547L-3.83006 39.9444C-3.83006 37.0967-1.52153 34.7882 1.32619 34.7882 4.17391 34.7882 6.48244 37.0967 6.48244 39.9444ZM6.48244 60.5797 6.48244 60.5901C6.48244 63.4378 4.17391 65.7463 1.32619 65.7463-1.52153 65.7463-3.83006 63.4378-3.83006 60.5901L-3.83006 60.5797C-3.83006 57.732-1.52153 55.4235 1.32619 55.4235 4.17391 55.4235 6.48244 57.732 6.48244 60.5797ZM6.48244 81.2151 6.48244 81.2254C6.48244 84.0731 4.17391 86.3816 1.32619 86.3816-1.52153 86.3816-3.83006 84.0731-3.83006 81.2254L-3.83006 81.2151C-3.83006 78.3673-1.52153 76.0588 1.32619 76.0588 4.17391 76.0588 6.48244 78.3673 6.48244 81.2151ZM6.48244 101.85 6.48244 101.861C6.48244 104.708 4.17391 107.017 1.32619 107.017-1.52153 107.017-3.83006 104.708-3.83006 101.861L-3.83006 101.85C-3.83006 99.0026-1.52153 96.6941 1.32619 96.6941 4.17391 96.6941 6.48244 99.0026 6.48244 101.85ZM6.48244 122.486 6.48244 122.496C6.48244 125.344 4.17391 127.652 1.32619 127.652-1.52153 127.652-3.83006 125.344-3.83006 122.496L-3.83006 122.486C-3.83006 119.638-1.52153 117.329 1.32619 117.329 4.17391 117.329 6.48244 119.638 6.48244 122.486ZM7.99521 131.296 8.00552 131.296C10.8532 131.296 13.1618 133.604 13.1618 136.452 13.1618 139.3 10.8532 141.608 8.00552 141.608L7.99521 141.608C5.14749 141.608 2.83896 139.3 2.83896 136.452 2.83896 133.604 5.14749 131.296 7.99521 131.296ZM28.6305 131.296 28.6408 131.296C31.4886 131.296 33.7971 133.604 33.7971 136.452 33.7971 139.3 31.4886 141.608 28.6408 141.608L28.6305 141.608C25.7828 141.608 23.4743 139.3 23.4743 136.452 23.4743 133.604 25.7828 131.296 28.6305 131.296ZM49.2658 131.296 49.2761 131.296C52.1239 131.296 54.4324 133.604 54.4324 136.452 54.4324 139.3 52.1239 141.608 49.2761 141.608L49.2658 141.608C46.4181 141.608 44.1096 139.3 44.1096 136.452 44.1096 133.604 46.4181 131.296 49.2658 131.296ZM69.9011 131.296 69.9115 131.296C72.7592 131.296 75.0677 133.604 75.0677 136.452 75.0677 139.3 72.7592 141.608 69.9115 141.608L69.9011 141.608C67.0534 141.608 64.7449 139.3 64.7449 136.452 64.7449 133.604 67.0534 131.296 69.9011 131.296ZM90.5365 131.296 90.5468 131.296C93.3945 131.296 95.703 133.604 95.703 136.452 95.703 139.3 93.3945 141.608 90.5468 141.608L90.5365 141.608C87.6887 141.608 85.3802 139.3 85.3802 136.452 85.3802 133.604 87.6887 131.296 90.5365 131.296ZM111.172 131.296 111.182 131.296C114.03 131.296 116.338 133.604 116.338 136.452 116.338 139.3 114.03 141.608 111.182 141.608L111.172 141.608C108.324 141.608 106.016 139.3 106.016 136.452 106.016 133.604 108.324 131.296 111.172 131.296ZM131.807 131.296 131.817 131.296C134.665 131.296 136.974 133.604 136.974 136.452 136.974 139.3 134.665 141.608 131.817 141.608L131.807 141.608C128.959 141.608 126.651 139.3 126.651 136.452 126.651 133.604 128.959 131.296 131.807 131.296ZM152.442 131.296 152.453 131.296C155.3 131.296 157.609 133.604 157.609 136.452 157.609 139.3 155.3 141.608 152.453 141.608L152.442 141.608C149.595 141.608 147.286 139.3 147.286 136.452 147.286 133.604 149.595 131.296 152.442 131.296ZM173.078 131.296 173.088 131.296C175.936 131.296 178.244 133.604 178.244 136.452 178.244 139.3 175.936 141.608 173.088 141.608L173.078 141.608C170.23 141.608 167.921 139.3 167.921 136.452 167.921 133.604 170.23 131.296 173.078 131.296ZM193.713 131.296 193.723 131.296C196.571 131.296 198.88 133.604 198.88 136.452 198.88 139.3 196.571 141.608 193.723 141.608L193.713 141.608C190.865 141.608 188.557 139.3 188.557 136.452 188.557 133.604 190.865 131.296 193.713 131.296Z" fill="#9B9BAE" fill-rule="nonzero" fill-opacity="1" transform="matrix(1.83697e-16 1 1 -1.83697e-16 1870 930)"/><path d="M0-5.15625 0.0103125-5.15625C2.85803-5.15625 5.16656-2.84772 5.16656 0 5.16656 2.84772 2.85803 5.15625 0.0103125 5.15625L0 5.15625C-2.84772 5.15625-5.15625 2.84772-5.15625 0-5.15625-2.84772-2.84772-5.15625 0-5.15625ZM20.6353-5.15625 20.6456-5.15625C23.4933-5.15625 25.8019-2.84772 25.8019 0 25.8019 2.84772 23.4933 5.15625 20.6456 5.15625L20.6353 5.15625C17.7876 5.15625 15.4791 2.84772 15.4791 0 15.4791-2.84772 17.7876-5.15625 20.6353-5.15625ZM41.2706-5.15625 41.2809-5.15625C44.1287-5.15625 46.4372-2.84772 46.4372 0 46.4372 2.84772 44.1287 5.15625 41.2809 5.15625L41.2706 5.15625C38.4229 5.15625 36.1144 2.84772 36.1144 0 36.1144-2.84772 38.4229-5.15625 41.2706-5.15625ZM61.9059-5.15625 61.9163-5.15625C64.764-5.15625 67.0725-2.84772 67.0725 0 67.0725 2.84772 64.764 5.15625 61.9163 5.15625L61.9059 5.15625C59.0582 5.15625 56.7497 2.84772 56.7497 0 56.7497-2.84772 59.0582-5.15625 61.9059-5.15625ZM82.5413-5.15625 82.5516-5.15625C85.3993-5.15625 87.7078-2.84772 87.7078 0 87.7078 2.84772 85.3993 5.15625 82.5516 5.15625L82.5413 5.15625C79.6935 5.15625 77.385 2.84772 77.385 0 77.385-2.84772 79.6935-5.15625 82.5413-5.15625ZM103.177-5.15625 103.187-5.15625C106.035-5.15625 108.343-2.84772 108.343 0 108.343 2.84772 106.035 5.15625 103.187 5.15625L103.177 5.15625C100.329 5.15625 98.0203 2.84772 98.0203 0 98.0203-2.84772 100.329-5.15625 103.177-5.15625ZM123.812-5.15625 123.822-5.15625C126.67-5.15625 128.978-2.84772 128.978 0 128.978 2.84772 126.67 5.15625 123.822 5.15625L123.812 5.15625C120.964 5.15625 118.656 2.84772 118.656 0 118.656-2.84772 120.964-5.15625 123.812-5.15625ZM144.447-5.15625 144.457-5.15625C147.305-5.15625 149.614-2.84772 149.614 0 149.614 2.84772 147.305 5.15625 144.457 5.15625L144.447 5.15625C141.599 5.15625 139.291 2.84772 139.291 0 139.291-2.84772 141.599-5.15625 144.447-5.15625ZM165.082-5.15625 165.093-5.15625C167.941-5.15625 170.249-2.84772 170.249 0 170.249 2.84772 167.941 5.15625 165.093 5.15625L165.082 5.15625C162.235 5.15625 159.926 2.84772 159.926 0 159.926-2.84772 162.235-5.15625 165.082-5.15625ZM185.718-5.15625 185.728-5.15625C188.576-5.15625 190.884-2.84772 190.884 0 190.884 2.84772 188.576 5.15625 185.728 5.15625L185.718 5.15625C182.87 5.15625 180.562 2.84772 180.562 0 180.562-2.84772 182.87-5.15625 185.718-5.15625ZM206.353-5.15625 206.363-5.15625C209.211-5.15625 211.52-2.84772 211.52 0 211.52 2.84772 209.211 5.15625 206.363 5.15625L206.353 5.15625C203.505 5.15625 201.197 2.84772 201.197 0 201.197-2.84772 203.505-5.15625 206.353-5.15625ZM226.988-5.15625 226.999-5.15625C229.846-5.15625 232.155-2.84772 232.155 0 232.155 2.84772 229.846 5.15625 226.999 5.15625L226.988 5.15625C224.141 5.15625 221.832 2.84772 221.832 0 221.832-2.84772 224.141-5.15625 226.988-5.15625ZM247.624-5.15625 247.634-5.15625C250.482-5.15625 252.79-2.84772 252.79 0 252.79 2.84772 250.482 5.15625 247.634 5.15625L247.624 5.15625C244.776 5.15625 242.467 2.84772 242.467 0 242.467-2.84772 244.776-5.15625 247.624-5.15625ZM268.259-5.15625 268.269-5.15625C271.117-5.15625 273.426-2.84772 273.426 0 273.426 2.84772 271.117 5.15625 268.269 5.15625L268.259 5.15625C265.411 5.15625 263.103 2.84772 263.103 0 263.103-2.84772 265.411-5.15625 268.259-5.15625ZM288.894-5.15625 288.905-5.15625C291.752-5.15625 294.061-2.84772 294.061 0 294.061 2.84772 291.752 5.15625 288.905 5.15625L288.894 5.15625C286.047 5.15625 283.738 2.84772 283.738 0 283.738-2.84772 286.047-5.15625 288.894-5.15625ZM309.53-5.15625 309.54-5.15625C312.388-5.15625 314.696-2.84772 314.696 0 314.696 2.84772 312.388 5.15625 309.54 5.15625L309.53 5.15625C306.682 5.15625 304.373 2.84772 304.373 0 304.373-2.84772 306.682-5.15625 309.53-5.15625ZM330.165-5.15625 330.175-5.15625C333.023-5.15625 335.332-2.84772 335.332 0 335.332 2.84772 333.023 5.15625 330.175 5.15625L330.165 5.15625C327.317 5.15625 325.009 2.84772 325.009 0 325.009-2.84772 327.317-5.15625 330.165-5.15625ZM350.8-5.15625 350.811-5.15625C353.658-5.15625 355.967-2.84772 355.967 0 355.967 2.84772 353.658 5.15625 350.811 5.15625L350.8 5.15625C347.953 5.15625 345.644 2.84772 345.644 0 345.644-2.84772 347.953-5.15625 350.8-5.15625ZM371.436-5.15625 371.446-5.15625C374.294-5.15625 376.602-2.84772 376.602 0 376.602 2.84772 374.294 5.15625 371.446 5.15625L371.436 5.15625C368.588 5.15625 366.279 2.84772 366.279 0 366.279-2.84772 368.588-5.15625 371.436-5.15625ZM384.422 6.46232 384.412 6.46232C381.564 6.46232 379.255 4.15379 379.255 1.30607 379.255-1.54165 381.564-3.85018 384.412-3.85018L384.422-3.85018C387.27-3.85018 389.578-1.54165 389.578 1.30607 389.578 4.15379 387.27 6.46232 384.422 6.46232ZM363.787 6.46232 363.776 6.46232C360.929 6.46232 358.62 4.15379 358.62 1.30607 358.62-1.54165 360.929-3.85018 363.776-3.85018L363.787-3.85018C366.634-3.85018 368.943-1.54165 368.943 1.30607 368.943 4.15379 366.634 6.46232 363.787 6.46232Z" fill="#9B9BAE" fill-rule="nonzero" fill-opacity="1" transform="matrix(1 0 0 -1 1612 1289.31)"/><path d="M0-5.15625 0.0103125-5.15625C2.85803-5.15625 5.16656-2.84772 5.16656 0 5.16656 2.84772 2.85803 5.15625 0.0103125 5.15625L0 5.15625C-2.84772 5.15625-5.15625 2.84772-5.15625 0-5.15625-2.84772-2.84772-5.15625 0-5.15625ZM20.6353-5.15625 20.6456-5.15625C23.4933-5.15625 25.8019-2.84772 25.8019 0 25.8019 2.84772 23.4933 5.15625 20.6456 5.15625L20.6353 5.15625C17.7876 5.15625 15.4791 2.84772 15.4791 0 15.4791-2.84772 17.7876-5.15625 20.6353-5.15625ZM41.2706-5.15625 41.2809-5.15625C44.1287-5.15625 46.4372-2.84772 46.4372 0 46.4372 2.84772 44.1287 5.15625 41.2809 5.15625L41.2706 5.15625C38.4229 5.15625 36.1144 2.84772 36.1144 0 36.1144-2.84772 38.4229-5.15625 41.2706-5.15625ZM61.9059-5.15625 61.9162-5.15625C64.764-5.15625 67.0725-2.84772 67.0725 0 67.0725 2.84772 64.764 5.15625 61.9162 5.15625L61.9059 5.15625C59.0582 5.15625 56.7497 2.84772 56.7497 0 56.7497-2.84772 59.0582-5.15625 61.9059-5.15625ZM82.5413-5.15625 82.5516-5.15625C85.3993-5.15625 87.7078-2.84772 87.7078 0 87.7078 2.84772 85.3993 5.15625 82.5516 5.15625L82.5413 5.15625C79.6935 5.15625 77.385 2.84772 77.385 0 77.385-2.84772 79.6935-5.15625 82.5413-5.15625ZM103.177-5.15625 103.187-5.15625C106.035-5.15625 108.343-2.84772 108.343 0 108.343 2.84772 106.035 5.15625 103.187 5.15625L103.177 5.15625C100.329 5.15625 98.0203 2.84772 98.0203 0 98.0203-2.84772 100.329-5.15625 103.177-5.15625ZM123.812-5.15625 123.822-5.15625C126.67-5.15625 128.978-2.84772 128.978 0 128.978 2.84772 126.67 5.15625 123.822 5.15625L123.812 5.15625C120.964 5.15625 118.656 2.84772 118.656 0 118.656-2.84772 120.964-5.15625 123.812-5.15625ZM144.447-5.15625 144.457-5.15625C147.305-5.15625 149.614-2.84772 149.614 0 149.614 2.84772 147.305 5.15625 144.457 5.15625L144.447 5.15625C141.599 5.15625 139.291 2.84772 139.291 0 139.291-2.84772 141.599-5.15625 144.447-5.15625ZM165.082-5.15625 165.093-5.15625C167.941-5.15625 170.249-2.84772 170.249 0 170.249 2.84772 167.941 5.15625 165.093 5.15625L165.082 5.15625C162.235 5.15625 159.926 2.84772 159.926 0 159.926-2.84772 162.235-5.15625 165.082-5.15625ZM185.718-5.15625 185.728-5.15625C188.576-5.15625 190.884-2.84772 190.884 0 190.884 2.84772 188.576 5.15625 185.728 5.15625L185.718 5.15625C182.87 5.15625 180.562 2.84772 180.562 0 180.562-2.84772 182.87-5.15625 185.718-5.15625ZM206.353-5.15625 206.363-5.15625C209.211-5.15625 211.52-2.84772 211.52 0 211.52 2.84772 209.211 5.15625 206.363 5.15625L206.353 5.15625C203.505 5.15625 201.197 2.84772 201.197 0 201.197-2.84772 203.505-5.15625 206.353-5.15625ZM226.988-5.15625 226.999-5.15625C229.846-5.15625 232.155-2.84772 232.155 0 232.155 2.84772 229.846 5.15625 226.999 5.15625L226.988 5.15625C224.141 5.15625 221.832 2.84772 221.832 0 221.832-2.84772 224.141-5.15625 226.988-5.15625ZM247.624-5.15625 247.634-5.15625C250.482-5.15625 252.79-2.84772 252.79 0 252.79 2.84772 250.482 5.15625 247.634 5.15625L247.624 5.15625C244.776 5.15625 242.467 2.84772 242.467 0 242.467-2.84772 244.776-5.15625 247.624-5.15625ZM268.259-5.15625 268.269-5.15625C271.117-5.15625 273.426-2.84772 273.426 0 273.426 2.84772 271.117 5.15625 268.269 5.15625L268.259 5.15625C265.411 5.15625 263.103 2.84772 263.103 0 263.103-2.84772 265.411-5.15625 268.259-5.15625ZM288.894-5.15625 288.905-5.15625C291.752-5.15625 294.061-2.84772 294.061 0 294.061 2.84772 291.752 5.15625 288.905 5.15625L288.894 5.15625C286.047 5.15625 283.738 2.84772 283.738 0 283.738-2.84772 286.047-5.15625 288.894-5.15625ZM302.278 12.4078 302.278 12.4181C302.278 15.2659 299.97 17.5744 297.122 17.5744 294.274 17.5744 291.966 15.2659 291.966 12.4181L291.966 12.4078C291.966 9.5601 294.274 7.25157 297.122 7.25157 299.97 7.25157 302.278 9.5601 302.278 12.4078ZM302.278 33.0431 302.278 33.0534C302.278 35.9012 299.97 38.2097 297.122 38.2097 294.274 38.2097 291.966 35.9012 291.966 33.0534L291.966 33.0431C291.966 30.1954 294.274 27.8869 297.122 27.8869 299.97 27.8869 302.278 30.1954 302.278 33.0431ZM302.278 53.6784 302.278 53.6888C302.278 56.5365 299.97 58.845 297.122 58.845 294.274 58.845 291.966 56.5365 291.966 53.6888L291.966 53.6784C291.966 50.8307 294.274 48.5222 297.122 48.5222 299.97 48.5222 302.278 50.8307 302.278 53.6784ZM302.278 74.3138 302.278 74.3241C302.278 77.1718 299.97 79.4803 297.122 79.4803 294.274 79.4803 291.966 77.1718 291.966 74.3241L291.966 74.3138C291.966 71.466 294.274 69.1575 297.122 69.1575 299.97 69.1575 302.278 71.466 302.278 74.3138ZM302.278 94.9491 302.278 94.9594C302.278 97.8071 299.97 100.116 297.122 100.116 294.274 100.116 291.966 97.8071 291.966 94.9594L291.966 94.9491C291.966 92.1013 294.274 89.7928 297.122 89.7928 299.97 89.7928 302.278 92.1013 302.278 94.9491ZM302.278 115.584 302.278 115.595C302.278 118.442 299.97 120.751 297.122 120.751 294.274 120.751 291.966 118.442 291.966 115.595L291.966 115.584C291.966 112.737 294.274 110.428 297.122 110.428 299.97 110.428 302.278 112.737 302.278 115.584ZM302.278 136.22 302.278 136.23C302.278 139.078 299.97 141.386 297.122 141.386 294.274 141.386 291.966 139.078 291.966 136.23L291.966 136.22C291.966 133.372 294.274 131.063 297.122 131.063 299.97 131.063 302.278 133.372 302.278 136.22ZM302.278 156.855 302.278 156.865C302.278 159.713 299.97 162.022 297.122 162.022 294.274 162.022 291.966 159.713 291.966 156.865L291.966 156.855C291.966 154.007 294.274 151.699 297.122 151.699 299.97 151.699 302.278 154.007 302.278 156.855ZM302.278 177.49 302.278 177.501C302.278 180.348 299.97 182.657 297.122 182.657 294.274 182.657 291.966 180.348 291.966 177.501L291.966 177.49C291.966 174.643 294.274 172.334 297.122 172.334 299.97 172.334 302.278 174.643 302.278 177.49Z" fill="#9B9BAE" fill-rule="nonzero" fill-opacity="1" transform="matrix(1 0 0 -1 1716 1592.84)"/><path d="M2013.84 1949.95 2013.84 1949.94C2013.84 1947.09 2016.15 1944.78 2019 1944.78 2021.85 1944.78 2024.16 1947.09 2024.16 1949.94L2024.16 1949.95C2024.16 1952.8 2021.85 1955.1 2019 1955.1 2016.15 1955.1 2013.84 1952.8 2013.84 1949.95ZM2039.6 1944.76 2039.61 1944.76C2042.46 1944.76 2044.77 1947.07 2044.77 1949.91 2044.77 1952.76 2042.46 1955.07 2039.61 1955.07L2039.6 1955.07C2036.75 1955.07 2034.45 1952.76 2034.45 1949.91 2034.45 1947.07 2036.75 1944.76 2039.6 1944.76ZM2060.24 1944.76 2060.25 1944.76C2063.1 1944.76 2065.4 1947.07 2065.4 1949.91 2065.4 1952.76 2063.1 1955.07 2060.25 1955.07L2060.24 1955.07C2057.39 1955.07 2055.08 1952.76 2055.08 1949.91 2055.08 1947.07 2057.39 1944.76 2060.24 1944.76ZM2080.87 1944.76 2080.88 1944.76C2083.73 1944.76 2086.04 1947.07 2086.04 1949.91 2086.04 1952.76 2083.73 1955.07 2080.88 1955.07L2080.87 1955.07C2078.02 1955.07 2075.72 1952.76 2075.72 1949.91 2075.72 1947.07 2078.02 1944.76 2080.87 1944.76ZM2101.51 1944.76 2101.52 1944.76C2104.37 1944.76 2106.67 1947.07 2106.67 1949.91 2106.67 1952.76 2104.37 1955.07 2101.52 1955.07L2101.51 1955.07C2098.66 1955.07 2096.35 1952.76 2096.35 1949.91 2096.35 1947.07 2098.66 1944.76 2101.51 1944.76ZM2122.14 1944.76 2122.15 1944.76C2125 1944.76 2127.31 1947.07 2127.31 1949.91 2127.31 1952.76 2125 1955.07 2122.15 1955.07L2122.14 1955.07C2119.3 1955.07 2116.99 1952.76 2116.99 1949.91 2116.99 1947.07 2119.3 1944.76 2122.14 1944.76ZM2123.74 1936.03 2123.74 1936.02C2123.74 1933.17 2126.05 1930.87 2128.9 1930.87 2131.74 1930.87 2134.05 1933.17 2134.05 1936.02L2134.05 1936.03C2134.05 1938.88 2131.74 1941.19 2128.9 1941.19 2126.05 1941.19 2123.74 1938.88 2123.74 1936.03ZM2123.74 1915.4 2123.74 1915.39C2123.74 1912.54 2126.05 1910.23 2128.9 1910.23 2131.74 1910.23 2134.05 1912.54 2134.05 1915.39L2134.05 1915.4C2134.05 1918.25 2131.74 1920.55 2128.9 1920.55 2126.05 1920.55 2123.74 1918.25 2123.74 1915.4ZM2123.74 1894.76 2123.74 1894.75C2123.74 1891.9 2126.05 1889.6 2128.9 1889.6 2131.74 1889.6 2134.05 1891.9 2134.05 1894.75L2134.05 1894.76C2134.05 1897.61 2131.74 1899.92 2128.9 1899.92 2126.05 1899.92 2123.74 1897.61 2123.74 1894.76ZM2123.74 1874.13 2123.74 1874.12C2123.74 1871.27 2126.05 1868.96 2128.9 1868.96 2131.74 1868.96 2134.05 1871.27 2134.05 1874.12L2134.05 1874.13C2134.05 1876.97 2131.74 1879.28 2128.9 1879.28 2126.05 1879.28 2123.74 1876.97 2123.74 1874.13ZM2123.74 1853.49 2123.74 1853.48C2123.74 1850.63 2126.05 1848.33 2128.9 1848.33 2131.74 1848.33 2134.05 1850.63 2134.05 1853.48L2134.05 1853.49C2134.05 1856.34 2131.74 1858.65 2128.9 1858.65 2126.05 1858.65 2123.74 1856.34 2123.74 1853.49ZM2123.74 1832.86 2123.74 1832.85C2123.74 1830 2126.05 1827.69 2128.9 1827.69 2131.74 1827.69 2134.05 1830 2134.05 1832.85L2134.05 1832.86C2134.05 1835.7 2131.74 1838.01 2128.9 1838.01 2126.05 1838.01 2123.74 1835.7 2123.74 1832.86ZM2123.74 1812.22 2123.74 1812.21C2123.74 1809.36 2126.05 1807.05 2128.9 1807.05 2131.74 1807.05 2134.05 1809.36 2134.05 1812.21L2134.05 1812.22C2134.05 1815.07 2131.74 1817.38 2128.9 1817.38 2126.05 1817.38 2123.74 1815.07 2123.74 1812.22ZM2123.74 1791.59 2123.74 1791.58C2123.74 1788.73 2126.05 1786.42 2128.9 1786.42 2131.74 1786.42 2134.05 1788.73 2134.05 1791.58L2134.05 1791.59C2134.05 1794.43 2131.74 1796.74 2128.9 1796.74 2126.05 1796.74 2123.74 1794.43 2123.74 1791.59ZM2123.74 1770.95 2123.74 1770.94C2123.74 1768.09 2126.05 1765.78 2128.9 1765.78 2131.74 1765.78 2134.05 1768.09 2134.05 1770.94L2134.05 1770.95C2134.05 1773.8 2131.74 1776.11 2128.9 1776.11 2126.05 1776.11 2123.74 1773.8 2123.74 1770.95ZM2123.74 1750.32 2123.74 1750.3C2123.74 1747.46 2126.05 1745.15 2128.9 1745.15 2131.74 1745.15 2134.05 1747.46 2134.05 1750.3L2134.05 1750.32C2134.05 1753.16 2131.74 1755.47 2128.9 1755.47 2126.05 1755.47 2123.74 1753.16 2123.74 1750.32ZM2123.74 1729.68 2123.74 1729.67C2123.74 1726.82 2126.05 1724.51 2128.9 1724.51 2131.74 1724.51 2134.05 1726.82 2134.05 1729.67L2134.05 1729.68C2134.05 1732.53 2131.74 1734.84 2128.9 1734.84 2126.05 1734.84 2123.74 1732.53 2123.74 1729.68ZM2123.74 1709.04 2123.74 1709.03C2123.74 1706.19 2126.05 1703.88 2128.9 1703.88 2131.74 1703.88 2134.05 1706.19 2134.05 1709.03L2134.05 1709.04C2134.05 1711.89 2131.74 1714.2 2128.9 1714.2 2126.05 1714.2 2123.74 1711.89 2123.74 1709.04ZM2123.74 1688.41 2123.74 1688.4C2123.74 1685.55 2126.05 1683.24 2128.9 1683.24 2131.74 1683.24 2134.05 1685.55 2134.05 1688.4L2134.05 1688.41C2134.05 1691.26 2131.74 1693.57 2128.9 1693.57 2126.05 1693.57 2123.74 1691.26 2123.74 1688.41ZM2123.74 1667.77 2123.74 1667.76C2123.74 1664.92 2126.05 1662.61 2128.9 1662.61 2131.74 1662.61 2134.05 1664.92 2134.05 1667.76L2134.05 1667.77C2134.05 1670.62 2131.74 1672.93 2128.9 1672.93 2126.05 1672.93 2123.74 1670.62 2123.74 1667.77ZM2123.74 1647.14 2123.74 1647.13C2123.74 1644.28 2126.05 1641.97 2128.9 1641.97 2131.74 1641.97 2134.05 1644.28 2134.05 1647.13L2134.05 1647.14C2134.05 1649.99 2131.74 1652.29 2128.9 1652.29 2126.05 1652.29 2123.74 1649.99 2123.74 1647.14ZM2123.74 1626.5 2123.74 1626.49C2123.74 1623.65 2126.05 1621.34 2128.9 1621.34 2131.74 1621.34 2134.05 1623.65 2134.05 1626.49L2134.05 1626.5C2134.05 1629.35 2131.74 1631.66 2128.9 1631.66 2126.05 1631.66 2123.74 1629.35 2123.74 1626.5ZM2123.74 1605.87 2123.74 1605.86C2123.74 1603.01 2126.05 1600.7 2128.9 1600.7 2131.74 1600.7 2134.05 1603.01 2134.05 1605.86L2134.05 1605.87C2134.05 1608.72 2131.74 1611.02 2128.9 1611.02 2126.05 1611.02 2123.74 1608.72 2123.74 1605.87ZM2123.74 1585.23 2123.74 1585.22C2123.74 1582.37 2126.05 1580.07 2128.9 1580.07 2131.74 1580.07 2134.05 1582.37 2134.05 1585.22L2134.05 1585.23C2134.05 1588.08 2131.74 1590.39 2128.9 1590.39 2126.05 1590.39 2123.74 1588.08 2123.74 1585.23ZM2123.74 1564.6 2123.74 1564.59C2123.74 1561.74 2126.05 1559.43 2128.9 1559.43 2131.74 1559.43 2134.05 1561.74 2134.05 1564.59L2134.05 1564.6C2134.05 1567.44 2131.74 1569.75 2128.9 1569.75 2126.05 1569.75 2123.74 1567.44 2123.74 1564.6ZM2123.74 1543.96 2123.74 1543.95C2123.74 1541.1 2126.05 1538.8 2128.9 1538.8 2131.74 1538.8 2134.05 1541.1 2134.05 1543.95L2134.05 1543.96C2134.05 1546.81 2131.74 1549.12 2128.9 1549.12 2126.05 1549.12 2123.74 1546.81 2123.74 1543.96ZM2123.74 1523.33 2123.74 1523.32C2123.74 1520.47 2126.05 1518.16 2128.9 1518.16 2131.74 1518.16 2134.05 1520.47 2134.05 1523.32L2134.05 1523.33C2134.05 1526.17 2131.74 1528.48 2128.9 1528.48 2126.05 1528.48 2123.74 1526.17 2123.74 1523.33ZM2123.74 1502.69 2123.74 1502.68C2123.74 1499.83 2126.05 1497.52 2128.9 1497.52 2131.74 1497.52 2134.05 1499.83 2134.05 1502.68L2134.05 1502.69C2134.05 1505.54 2131.74 1507.85 2128.9 1507.85 2126.05 1507.85 2123.74 1505.54 2123.74 1502.69ZM2123.74 1482.06 2123.74 1482.05C2123.74 1479.2 2126.05 1476.89 2128.9 1476.89 2131.74 1476.89 2134.05 1479.2 2134.05 1482.05L2134.05 1482.06C2134.05 1484.9 2131.74 1487.21 2128.9 1487.21 2126.05 1487.21 2123.74 1484.9 2123.74 1482.06Z" fill="#9B9BAE" fill-rule="nonzero" fill-opacity="1"/><path d="M2300.32 642 2300.32 642.01C2300.32 644.858 2298.01 647.167 2295.17 647.167 2292.32 647.167 2290.01 644.858 2290.01 642.01L2290.01 642C2290.01 639.152 2292.32 636.844 2295.17 636.844 2298.01 636.844 2300.32 639.152 2300.32 642ZM2274.58 647.206 2274.57 647.206C2271.72 647.206 2269.41 644.897 2269.41 642.049 2269.41 639.202 2271.72 636.893 2274.57 636.893L2274.58 636.893C2277.43 636.893 2279.74 639.202 2279.74 642.049 2279.74 644.897 2277.43 647.206 2274.58 647.206ZM2253.95 647.206 2253.94 647.206C2251.09 647.206 2248.78 644.897 2248.78 642.049 2248.78 639.202 2251.09 636.893 2253.94 636.893L2253.95 636.893C2256.79 636.893 2259.1 639.202 2259.1 642.049 2259.1 644.897 2256.79 647.206 2253.95 647.206ZM2245.16 648.739 2245.16 648.749C2245.16 651.597 2242.85 653.905 2240 653.905 2237.15 653.905 2234.84 651.597 2234.84 648.749L2234.84 648.739C2234.84 645.891 2237.15 643.582 2240 643.582 2242.85 643.582 2245.16 645.891 2245.16 648.739ZM2245.16 669.374 2245.16 669.384C2245.16 672.232 2242.85 674.54 2240 674.54 2237.15 674.54 2234.84 672.232 2234.84 669.384L2234.84 669.374C2234.84 666.526 2237.15 664.218 2240 664.218 2242.85 664.218 2245.16 666.526 2245.16 669.374ZM2245.16 690.009 2245.16 690.02C2245.16 692.867 2242.85 695.176 2240 695.176 2237.15 695.176 2234.84 692.867 2234.84 690.02L2234.84 690.009C2234.84 687.161 2237.15 684.853 2240 684.853 2242.85 684.853 2245.16 687.161 2245.16 690.009ZM2245.16 710.645 2245.16 710.655C2245.16 713.503 2242.85 715.811 2240 715.811 2237.15 715.811 2234.84 713.503 2234.84 710.655L2234.84 710.645C2234.84 707.797 2237.15 705.488 2240 705.488 2242.85 705.488 2245.16 707.797 2245.16 710.645ZM2245.16 731.28 2245.16 731.29C2245.16 734.138 2242.85 736.446 2240 736.446 2237.15 736.446 2234.84 734.138 2234.84 731.29L2234.84 731.28C2234.84 728.432 2237.15 726.124 2240 726.124 2242.85 726.124 2245.16 728.432 2245.16 731.28ZM2245.16 751.915 2245.16 751.925C2245.16 754.773 2242.85 757.082 2240 757.082 2237.15 757.082 2234.84 754.773 2234.84 751.925L2234.84 751.915C2234.84 749.067 2237.15 746.759 2240 746.759 2242.85 746.759 2245.16 749.067 2245.16 751.915ZM2245.16 772.55 2245.16 772.561C2245.16 775.409 2242.85 777.717 2240 777.717 2237.15 777.717 2234.84 775.409 2234.84 772.561L2234.84 772.55C2234.84 769.703 2237.15 767.394 2240 767.394 2242.85 767.394 2245.16 769.703 2245.16 772.55ZM2245.16 793.186 2245.16 793.196C2245.16 796.044 2242.85 798.352 2240 798.352 2237.15 798.352 2234.84 796.044 2234.84 793.196L2234.84 793.186C2234.84 790.338 2237.15 788.03 2240 788.03 2242.85 788.03 2245.16 790.338 2245.16 793.186ZM2245.16 813.821 2245.16 813.831C2245.16 816.679 2242.85 818.988 2240 818.988 2237.15 818.988 2234.84 816.679 2234.84 813.831L2234.84 813.821C2234.84 810.973 2237.15 808.665 2240 808.665 2242.85 808.665 2245.16 810.973 2245.16 813.821ZM2245.16 834.456 2245.16 834.467C2245.16 837.314 2242.85 839.623 2240 839.623 2237.15 839.623 2234.84 837.314 2234.84 834.467L2234.84 834.456C2234.84 831.609 2237.15 829.3 2240 829.3 2242.85 829.3 2245.16 831.609 2245.16 834.456ZM2245.16 855.092 2245.16 855.102C2245.16 857.95 2242.85 860.258 2240 860.258 2237.15 860.258 2234.84 857.95 2234.84 855.102L2234.84 855.092C2234.84 852.244 2237.15 849.935 2240 849.935 2242.85 849.935 2245.16 852.244 2245.16 855.092ZM2245.16 875.727 2245.16 875.737C2245.16 878.585 2242.85 880.894 2240 880.894 2237.15 880.894 2234.84 878.585 2234.84 875.737L2234.84 875.727C2234.84 872.879 2237.15 870.571 2240 870.571 2242.85 870.571 2245.16 872.879 2245.16 875.727ZM2245.16 896.362 2245.16 896.373C2245.16 899.22 2242.85 901.529 2240 901.529 2237.15 901.529 2234.84 899.22 2234.84 896.373L2234.84 896.362C2234.84 893.515 2237.15 891.206 2240 891.206 2242.85 891.206 2245.16 893.515 2245.16 896.362ZM2245.16 916.998 2245.16 917.008C2245.16 919.856 2242.85 922.164 2240 922.164 2237.15 922.164 2234.84 919.856 2234.84 917.008L2234.84 916.998C2234.84 914.15 2237.15 911.841 2240 911.841 2242.85 911.841 2245.16 914.15 2245.16 916.998ZM2245.16 937.633 2245.16 937.643C2245.16 940.491 2242.85 942.799 2240 942.799 2237.15 942.799 2234.84 940.491 2234.84 937.643L2234.84 937.633C2234.84 934.785 2237.15 932.477 2240 932.477 2242.85 932.477 2245.16 934.785 2245.16 937.633ZM2245.16 958.268 2245.16 958.279C2245.16 961.126 2242.85 963.435 2240 963.435 2237.15 963.435 2234.84 961.126 2234.84 958.279L2234.84 958.268C2234.84 955.421 2237.15 953.112 2240 953.112 2242.85 953.112 2245.16 955.421 2245.16 958.268ZM2245.16 978.904 2245.16 978.914C2245.16 981.762 2242.85 984.07 2240 984.07 2237.15 984.07 2234.84 981.762 2234.84 978.914L2234.84 978.904C2234.84 976.056 2237.15 973.747 2240 973.747 2242.85 973.747 2245.16 976.056 2245.16 978.904ZM2245.16 999.539 2245.16 999.549C2245.16 1002.4 2242.85 1004.71 2240 1004.71 2237.15 1004.71 2234.84 1002.4 2234.84 999.549L2234.84 999.539C2234.84 996.691 2237.15 994.383 2240 994.383 2242.85 994.383 2245.16 996.691 2245.16 999.539ZM2245.16 1020.17 2245.16 1020.18C2245.16 1023.03 2242.85 1025.34 2240 1025.34 2237.15 1025.34 2234.84 1023.03 2234.84 1020.18L2234.84 1020.17C2234.84 1017.33 2237.15 1015.02 2240 1015.02 2242.85 1015.02 2245.16 1017.33 2245.16 1020.17ZM2245.16 1040.81 2245.16 1040.82C2245.16 1043.67 2242.85 1045.98 2240 1045.98 2237.15 1045.98 2234.84 1043.67 2234.84 1040.82L2234.84 1040.81C2234.84 1037.96 2237.15 1035.65 2240 1035.65 2242.85 1035.65 2245.16 1037.96 2245.16 1040.81ZM2245.16 1061.44 2245.16 1061.46C2245.16 1064.3 2242.85 1066.61 2240 1066.61 2237.15 1066.61 2234.84 1064.3 2234.84 1061.46L2234.84 1061.44C2234.84 1058.6 2237.15 1056.29 2240 1056.29 2242.85 1056.29 2245.16 1058.6 2245.16 1061.44ZM2245.16 1082.08 2245.16 1082.09C2245.16 1084.94 2242.85 1087.25 2240 1087.25 2237.15 1087.25 2234.84 1084.94 2234.84 1082.09L2234.84 1082.08C2234.84 1079.23 2237.15 1076.92 2240 1076.92 2242.85 1076.92 2245.16 1079.23 2245.16 1082.08Z" fill="#9B9BAE" fill-rule="nonzero" fill-opacity="1"/><path d="M2580.6 921 2580.6 921.01C2580.6 923.858 2578.29 926.166 2575.44 926.166 2572.59 926.166 2570.28 923.858 2570.28 921.01L2570.28 921C2570.28 918.152 2572.59 915.844 2575.44 915.844 2578.29 915.844 2580.6 918.152 2580.6 921ZM2556.68 928.03 2556.67 928.03C2553.82 928.03 2551.51 925.721 2551.51 922.873 2551.51 920.026 2553.82 917.717 2556.67 917.717L2556.68 917.717C2559.53 917.717 2561.84 920.026 2561.84 922.873 2561.84 925.721 2559.53 928.03 2556.68 928.03ZM2536.04 928.03 2536.03 928.03C2533.19 928.03 2530.88 925.721 2530.88 922.873 2530.88 920.026 2533.19 917.717 2536.03 917.717L2536.04 917.717C2538.89 917.717 2541.2 920.026 2541.2 922.873 2541.2 925.721 2538.89 928.03 2536.04 928.03ZM2515.41 928.03 2515.4 928.03C2512.55 928.03 2510.24 925.721 2510.24 922.873 2510.24 920.026 2512.55 917.717 2515.4 917.717L2515.41 917.717C2518.26 917.717 2520.56 920.026 2520.56 922.873 2520.56 925.721 2518.26 928.03 2515.41 928.03ZM2494.77 928.03 2494.76 928.03C2491.92 928.03 2489.61 925.721 2489.61 922.873 2489.61 920.026 2491.92 917.717 2494.76 917.717L2494.77 917.717C2497.62 917.717 2499.93 920.026 2499.93 922.873 2499.93 925.721 2497.62 928.03 2494.77 928.03ZM2474.14 928.03 2474.13 928.03C2471.28 928.03 2468.97 925.721 2468.97 922.873 2468.97 920.026 2471.28 917.717 2474.13 917.717L2474.14 917.717C2476.99 917.717 2479.29 920.026 2479.29 922.873 2479.29 925.721 2476.99 928.03 2474.14 928.03ZM2453.5 928.03 2453.49 928.03C2450.64 928.03 2448.34 925.721 2448.34 922.873 2448.34 920.026 2450.64 917.717 2453.49 917.717L2453.5 917.717C2456.35 917.717 2458.66 920.026 2458.66 922.873 2458.66 925.721 2456.35 928.03 2453.5 928.03ZM2432.87 928.03 2432.86 928.03C2430.01 928.03 2427.7 925.721 2427.7 922.873 2427.7 920.026 2430.01 917.717 2432.86 917.717L2432.87 917.717C2435.72 917.717 2438.02 920.026 2438.02 922.873 2438.02 925.721 2435.72 928.03 2432.87 928.03ZM2412.23 928.03 2412.22 928.03C2409.37 928.03 2407.07 925.721 2407.07 922.873 2407.07 920.026 2409.37 917.717 2412.22 917.717L2412.23 917.717C2415.08 917.717 2417.39 920.026 2417.39 922.873 2417.39 925.721 2415.08 928.03 2412.23 928.03ZM2391.6 928.03 2391.59 928.03C2388.74 928.03 2386.43 925.721 2386.43 922.873 2386.43 920.026 2388.74 917.717 2391.59 917.717L2391.6 917.717C2394.44 917.717 2396.75 920.026 2396.75 922.873 2396.75 925.721 2394.44 928.03 2391.6 928.03ZM2370.96 928.03 2370.95 928.03C2368.1 928.03 2365.79 925.721 2365.79 922.873 2365.79 920.026 2368.1 917.717 2370.95 917.717L2370.96 917.717C2373.81 917.717 2376.12 920.026 2376.12 922.873 2376.12 925.721 2373.81 928.03 2370.96 928.03ZM2350.33 928.03 2350.32 928.03C2347.47 928.03 2345.16 925.721 2345.16 922.873 2345.16 920.026 2347.47 917.717 2350.32 917.717L2350.33 917.717C2353.17 917.717 2355.48 920.026 2355.48 922.873 2355.48 925.721 2353.17 928.03 2350.33 928.03ZM2349.16 937.183 2349.16 937.193C2349.16 940.041 2346.85 942.349 2344 942.349 2341.15 942.349 2338.84 940.041 2338.84 937.193L2338.84 937.183C2338.84 934.335 2341.15 932.026 2344 932.026 2346.85 932.026 2349.16 934.335 2349.16 937.183ZM2349.16 957.818 2349.16 957.828C2349.16 960.676 2346.85 962.984 2344 962.984 2341.15 962.984 2338.84 960.676 2338.84 957.828L2338.84 957.818C2338.84 954.97 2341.15 952.662 2344 952.662 2346.85 952.662 2349.16 954.97 2349.16 957.818ZM2349.16 978.453 2349.16 978.464C2349.16 981.311 2346.85 983.62 2344 983.62 2341.15 983.62 2338.84 981.311 2338.84 978.464L2338.84 978.453C2338.84 975.606 2341.15 973.297 2344 973.297 2346.85 973.297 2349.16 975.606 2349.16 978.453ZM2349.16 999.089 2349.16 999.099C2349.16 1001.95 2346.85 1004.26 2344 1004.26 2341.15 1004.26 2338.84 1001.95 2338.84 999.099L2338.84 999.089C2338.84 996.241 2341.15 993.932 2344 993.932 2346.85 993.932 2349.16 996.241 2349.16 999.089ZM2349.16 1019.72 2349.16 1019.73C2349.16 1022.58 2346.85 1024.89 2344 1024.89 2341.15 1024.89 2338.84 1022.58 2338.84 1019.73L2338.84 1019.72C2338.84 1016.88 2341.15 1014.57 2344 1014.57 2346.85 1014.57 2349.16 1016.88 2349.16 1019.72ZM2349.16 1040.36 2349.16 1040.37C2349.16 1043.22 2346.85 1045.53 2344 1045.53 2341.15 1045.53 2338.84 1043.22 2338.84 1040.37L2338.84 1040.36C2338.84 1037.51 2341.15 1035.2 2344 1035.2 2346.85 1035.2 2349.16 1037.51 2349.16 1040.36ZM2349.16 1060.99 2349.16 1061C2349.16 1063.85 2346.85 1066.16 2344 1066.16 2341.15 1066.16 2338.84 1063.85 2338.84 1061L2338.84 1060.99C2338.84 1058.15 2341.15 1055.84 2344 1055.84 2346.85 1055.84 2349.16 1058.15 2349.16 1060.99ZM2349.16 1081.63 2349.16 1081.64C2349.16 1084.49 2346.85 1086.8 2344 1086.8 2341.15 1086.8 2338.84 1084.49 2338.84 1081.64L2338.84 1081.63C2338.84 1078.78 2341.15 1076.47 2344 1076.47 2346.85 1076.47 2349.16 1078.78 2349.16 1081.63ZM2349.16 1102.27 2349.16 1102.28C2349.16 1105.12 2346.85 1107.43 2344 1107.43 2341.15 1107.43 2338.84 1105.12 2338.84 1102.28L2338.84 1102.27C2338.84 1099.42 2341.15 1097.11 2344 1097.11 2346.85 1097.11 2349.16 1099.42 2349.16 1102.27ZM2349.16 1122.9 2349.16 1122.91C2349.16 1125.76 2346.85 1128.07 2344 1128.07 2341.15 1128.07 2338.84 1125.76 2338.84 1122.91L2338.84 1122.9C2338.84 1120.05 2341.15 1117.74 2344 1117.74 2346.85 1117.74 2349.16 1120.05 2349.16 1122.9ZM2349.16 1143.54 2349.16 1143.55C2349.16 1146.39 2346.85 1148.7 2344 1148.7 2341.15 1148.7 2338.84 1146.39 2338.84 1143.55L2338.84 1143.54C2338.84 1140.69 2341.15 1138.38 2344 1138.38 2346.85 1138.38 2349.16 1140.69 2349.16 1143.54Z" fill="#9B9BAE" fill-rule="nonzero" fill-opacity="1"/><path d="M2779.04 1289.58 2779.03 1289.58C2776.18 1289.58 2773.87 1287.27 2773.87 1284.42 2773.87 1281.58 2776.18 1279.27 2779.03 1279.27L2779.04 1279.27C2781.89 1279.27 2784.2 1281.58 2784.2 1284.42 2784.2 1287.27 2781.89 1289.58 2779.04 1289.58ZM2758.41 1289.58 2758.4 1289.58C2755.55 1289.58 2753.24 1287.27 2753.24 1284.42 2753.24 1281.58 2755.55 1279.27 2758.4 1279.27L2758.41 1279.27C2761.25 1279.27 2763.56 1281.58 2763.56 1284.42 2763.56 1287.27 2761.25 1289.58 2758.41 1289.58ZM2737.77 1289.58 2737.76 1289.58C2734.91 1289.58 2732.6 1287.27 2732.6 1284.42 2732.6 1281.58 2734.91 1279.27 2737.76 1279.27L2737.77 1279.27C2740.62 1279.27 2742.93 1281.58 2742.93 1284.42 2742.93 1287.27 2740.62 1289.58 2737.77 1289.58ZM2717.13 1289.58 2717.12 1289.58C2714.28 1289.58 2711.97 1287.27 2711.97 1284.42 2711.97 1281.58 2714.28 1279.27 2717.12 1279.27L2717.13 1279.27C2719.98 1279.27 2722.29 1281.58 2722.29 1284.42 2722.29 1287.27 2719.98 1289.58 2717.13 1289.58ZM2696.5 1289.58 2696.49 1289.58C2693.64 1289.58 2691.33 1287.27 2691.33 1284.42 2691.33 1281.58 2693.64 1279.27 2696.49 1279.27L2696.5 1279.27C2699.35 1279.27 2701.66 1281.58 2701.66 1284.42 2701.66 1287.27 2699.35 1289.58 2696.5 1289.58ZM2675.86 1289.58 2675.85 1289.58C2673.01 1289.58 2670.7 1287.27 2670.7 1284.42 2670.7 1281.58 2673.01 1279.27 2675.85 1279.27L2675.86 1279.27C2678.71 1279.27 2681.02 1281.58 2681.02 1284.42 2681.02 1287.27 2678.71 1289.58 2675.86 1289.58ZM2655.23 1289.58 2655.22 1289.58C2652.37 1289.58 2650.06 1287.27 2650.06 1284.42 2650.06 1281.58 2652.37 1279.27 2655.22 1279.27L2655.23 1279.27C2658.08 1279.27 2660.39 1281.58 2660.39 1284.42 2660.39 1287.27 2658.08 1289.58 2655.23 1289.58ZM2634.59 1289.58 2634.58 1289.58C2631.74 1289.58 2629.43 1287.27 2629.43 1284.42 2629.43 1281.58 2631.74 1279.27 2634.58 1279.27L2634.59 1279.27C2637.44 1279.27 2639.75 1281.58 2639.75 1284.42 2639.75 1287.27 2637.44 1289.58 2634.59 1289.58ZM2613.96 1289.58 2613.95 1289.58C2611.1 1289.58 2608.79 1287.27 2608.79 1284.42 2608.79 1281.58 2611.1 1279.27 2613.95 1279.27L2613.96 1279.27C2616.81 1279.27 2619.11 1281.58 2619.11 1284.42 2619.11 1287.27 2616.81 1289.58 2613.96 1289.58ZM2593.32 1289.58 2593.31 1289.58C2590.46 1289.58 2588.16 1287.27 2588.16 1284.42 2588.16 1281.58 2590.46 1279.27 2593.31 1279.27L2593.32 1279.27C2596.17 1279.27 2598.48 1281.58 2598.48 1284.42 2598.48 1287.27 2596.17 1289.58 2593.32 1289.58ZM2572.69 1289.58 2572.68 1289.58C2569.83 1289.58 2567.52 1287.27 2567.52 1284.42 2567.52 1281.58 2569.83 1279.27 2572.68 1279.27L2572.69 1279.27C2575.54 1279.27 2577.84 1281.58 2577.84 1284.42 2577.84 1287.27 2575.54 1289.58 2572.69 1289.58ZM2552.05 1289.58 2552.04 1289.58C2549.19 1289.58 2546.89 1287.27 2546.89 1284.42 2546.89 1281.58 2549.19 1279.27 2552.04 1279.27L2552.05 1279.27C2554.9 1279.27 2557.21 1281.58 2557.21 1284.42 2557.21 1287.27 2554.9 1289.58 2552.05 1289.58ZM2531.42 1289.58 2531.41 1289.58C2528.56 1289.58 2526.25 1287.27 2526.25 1284.42 2526.25 1281.58 2528.56 1279.27 2531.41 1279.27L2531.42 1279.27C2534.26 1279.27 2536.57 1281.58 2536.57 1284.42 2536.57 1287.27 2534.26 1289.58 2531.42 1289.58ZM2510.78 1289.58 2510.77 1289.58C2507.92 1289.58 2505.62 1287.27 2505.62 1284.42 2505.62 1281.58 2507.92 1279.27 2510.77 1279.27L2510.78 1279.27C2513.63 1279.27 2515.94 1281.58 2515.94 1284.42 2515.94 1287.27 2513.63 1289.58 2510.78 1289.58ZM2490.15 1289.58 2490.14 1289.58C2487.29 1289.58 2484.98 1287.27 2484.98 1284.42 2484.98 1281.58 2487.29 1279.27 2490.14 1279.27L2490.15 1279.27C2492.99 1279.27 2495.3 1281.58 2495.3 1284.42 2495.3 1287.27 2492.99 1289.58 2490.15 1289.58ZM2469.51 1289.58 2469.5 1289.58C2466.65 1289.58 2464.34 1287.27 2464.34 1284.42 2464.34 1281.58 2466.65 1279.27 2469.5 1279.27L2469.51 1279.27C2472.36 1279.27 2474.67 1281.58 2474.67 1284.42 2474.67 1287.27 2472.36 1289.58 2469.51 1289.58ZM2448.88 1289.58 2448.87 1289.58C2446.02 1289.58 2443.71 1287.27 2443.71 1284.42 2443.71 1281.58 2446.02 1279.27 2448.87 1279.27L2448.88 1279.27C2451.72 1279.27 2454.03 1281.58 2454.03 1284.42 2454.03 1287.27 2451.72 1289.58 2448.88 1289.58ZM2428.24 1289.58 2428.23 1289.58C2425.38 1289.58 2423.07 1287.27 2423.07 1284.42 2423.07 1281.58 2425.38 1279.27 2428.23 1279.27L2428.24 1279.27C2431.09 1279.27 2433.4 1281.58 2433.4 1284.42 2433.4 1287.27 2431.09 1289.58 2428.24 1289.58ZM2407.61 1289.58 2407.59 1289.58C2404.75 1289.58 2402.44 1287.27 2402.44 1284.42 2402.44 1281.58 2404.75 1279.27 2407.59 1279.27L2407.61 1279.27C2410.45 1279.27 2412.76 1281.58 2412.76 1284.42 2412.76 1287.27 2410.45 1289.58 2407.61 1289.58ZM2386.97 1289.58 2386.96 1289.58C2384.11 1289.58 2381.8 1287.27 2381.8 1284.42 2381.8 1281.58 2384.11 1279.27 2386.96 1279.27L2386.97 1279.27C2389.82 1279.27 2392.13 1281.58 2392.13 1284.42 2392.13 1287.27 2389.82 1289.58 2386.97 1289.58ZM2392.98 1275.84 2392.99 1275.84C2395.84 1275.84 2398.15 1278.15 2398.15 1281 2398.15 1283.85 2395.84 1286.16 2392.99 1286.16L2392.98 1286.16C2390.14 1286.16 2387.83 1283.85 2387.83 1281 2387.83 1278.15 2390.14 1275.84 2392.98 1275.84Z" fill="#9B9BAE" fill-rule="nonzero" fill-opacity="1"/><path d="M2636.73 1583.55 2636.72 1583.55C2633.87 1583.55 2631.56 1581.24 2631.56 1578.39 2631.56 1575.54 2633.87 1573.24 2636.72 1573.24L2636.73 1573.24C2639.58 1573.24 2641.89 1575.54 2641.89 1578.39 2641.89 1581.24 2639.58 1583.55 2636.73 1583.55ZM2616.09 1583.55 2616.08 1583.55C2613.24 1583.55 2610.93 1581.24 2610.93 1578.39 2610.93 1575.54 2613.24 1573.24 2616.08 1573.24L2616.09 1573.24C2618.94 1573.24 2621.25 1575.54 2621.25 1578.39 2621.25 1581.24 2618.94 1583.55 2616.09 1583.55ZM2595.46 1583.55 2595.45 1583.55C2592.6 1583.55 2590.29 1581.24 2590.29 1578.39 2590.29 1575.54 2592.6 1573.24 2595.45 1573.24L2595.46 1573.24C2598.31 1573.24 2600.62 1575.54 2600.62 1578.39 2600.62 1581.24 2598.31 1583.55 2595.46 1583.55ZM2574.82 1583.55 2574.81 1583.55C2571.97 1583.55 2569.66 1581.24 2569.66 1578.39 2569.66 1575.54 2571.97 1573.24 2574.81 1573.24L2574.82 1573.24C2577.67 1573.24 2579.98 1575.54 2579.98 1578.39 2579.98 1581.24 2577.67 1583.55 2574.82 1583.55ZM2554.19 1583.55 2554.18 1583.55C2551.33 1583.55 2549.02 1581.24 2549.02 1578.39 2549.02 1575.54 2551.33 1573.24 2554.18 1573.24L2554.19 1573.24C2557.04 1573.24 2559.35 1575.54 2559.35 1578.39 2559.35 1581.24 2557.04 1583.55 2554.19 1583.55ZM2533.55 1583.55 2533.54 1583.55C2530.7 1583.55 2528.39 1581.24 2528.39 1578.39 2528.39 1575.54 2530.7 1573.24 2533.54 1573.24L2533.55 1573.24C2536.4 1573.24 2538.71 1575.54 2538.71 1578.39 2538.71 1581.24 2536.4 1583.55 2533.55 1583.55ZM2512.92 1583.55 2512.91 1583.55C2510.06 1583.55 2507.75 1581.24 2507.75 1578.39 2507.75 1575.54 2510.06 1573.24 2512.91 1573.24L2512.92 1573.24C2515.77 1573.24 2518.07 1575.54 2518.07 1578.39 2518.07 1581.24 2515.77 1583.55 2512.92 1583.55ZM2505.71 1559.81 2505.71 1559.8C2505.71 1556.95 2508.02 1554.64 2510.86 1554.64 2513.71 1554.64 2516.02 1556.95 2516.02 1559.8L2516.02 1559.81C2516.02 1562.66 2513.71 1564.97 2510.86 1564.97 2508.02 1564.97 2505.71 1562.66 2505.71 1559.81ZM2505.71 1539.17 2505.71 1539.16C2505.71 1536.32 2508.02 1534.01 2510.86 1534.01 2513.71 1534.01 2516.02 1536.32 2516.02 1539.16L2516.02 1539.17C2516.02 1542.02 2513.71 1544.33 2510.86 1544.33 2508.02 1544.33 2505.71 1542.02 2505.71 1539.17ZM2505.71 1518.54 2505.71 1518.53C2505.71 1515.68 2508.02 1513.37 2510.86 1513.37 2513.71 1513.37 2516.02 1515.68 2516.02 1518.53L2516.02 1518.54C2516.02 1521.39 2513.71 1523.69 2510.86 1523.69 2508.02 1523.69 2505.71 1521.39 2505.71 1518.54ZM2505.71 1497.9 2505.71 1497.89C2505.71 1495.05 2508.02 1492.74 2510.86 1492.74 2513.71 1492.74 2516.02 1495.05 2516.02 1497.89L2516.02 1497.9C2516.02 1500.75 2513.71 1503.06 2510.86 1503.06 2508.02 1503.06 2505.71 1500.75 2505.71 1497.9ZM2497.13 1496.16 2497.12 1496.16C2494.28 1496.16 2491.97 1493.85 2491.97 1491 2491.97 1488.15 2494.28 1485.84 2497.12 1485.84L2497.13 1485.84C2499.98 1485.84 2502.29 1488.15 2502.29 1491 2502.29 1493.85 2499.98 1496.16 2497.13 1496.16ZM2476.5 1496.16 2476.49 1496.16C2473.64 1496.16 2471.33 1493.85 2471.33 1491 2471.33 1488.15 2473.64 1485.84 2476.49 1485.84L2476.5 1485.84C2479.35 1485.84 2481.65 1488.15 2481.65 1491 2481.65 1493.85 2479.35 1496.16 2476.5 1496.16ZM2455.86 1496.16 2455.85 1496.16C2453 1496.16 2450.7 1493.85 2450.7 1491 2450.7 1488.15 2453 1485.84 2455.85 1485.84L2455.86 1485.84C2458.71 1485.84 2461.02 1488.15 2461.02 1491 2461.02 1493.85 2458.71 1496.16 2455.86 1496.16ZM2435.23 1496.16 2435.22 1496.16C2432.37 1496.16 2430.06 1493.85 2430.06 1491 2430.06 1488.15 2432.37 1485.84 2435.22 1485.84L2435.23 1485.84C2438.08 1485.84 2440.38 1488.15 2440.38 1491 2440.38 1493.85 2438.08 1496.16 2435.23 1496.16ZM2414.59 1496.16 2414.58 1496.16C2411.73 1496.16 2409.43 1493.85 2409.43 1491 2409.43 1488.15 2411.73 1485.84 2414.58 1485.84L2414.59 1485.84C2417.44 1485.84 2419.75 1488.15 2419.75 1491 2419.75 1493.85 2417.44 1496.16 2414.59 1496.16ZM2393.96 1496.16 2393.95 1496.16C2391.1 1496.16 2388.79 1493.85 2388.79 1491 2388.79 1488.15 2391.1 1485.84 2393.95 1485.84L2393.96 1485.84C2396.8 1485.84 2399.11 1488.15 2399.11 1491 2399.11 1493.85 2396.8 1496.16 2393.96 1496.16Z" fill="#9B9BAE" fill-rule="nonzero" fill-opacity="1"/><path d="M0-5.15625 0.0103125-5.15625C2.85803-5.15625 5.16656-2.84772 5.16656 0 5.16656 2.84772 2.85803 5.15625 0.0103125 5.15625L0 5.15625C-2.84772 5.15625-5.15625 2.84772-5.15625 0-5.15625-2.84772-2.84772-5.15625 0-5.15625ZM5.42545 20.3661 5.42545 20.3764C5.42545 23.2241 3.11692 25.5327 0.2692 25.5327-2.57852 25.5327-4.88705 23.2241-4.88705 20.3764L-4.88705 20.3661C-4.88705 17.5184-2.57852 15.2099 0.2692 15.2099 3.11692 15.2099 5.42545 17.5184 5.42545 20.3661ZM5.42545 41.0014 5.42545 41.0117C5.42545 43.8595 3.11692 46.168 0.2692 46.168-2.57852 46.168-4.88705 43.8595-4.88705 41.0117L-4.88705 41.0014C-4.88705 38.1537-2.57852 35.8452 0.2692 35.8452 3.11692 35.8452 5.42545 38.1537 5.42545 41.0014ZM5.42545 61.6367 5.42545 61.6471C5.42545 64.4948 3.11692 66.8033 0.2692 66.8033-2.57852 66.8033-4.88705 64.4948-4.88705 61.6471L-4.88705 61.6367C-4.88705 58.789-2.57852 56.4805 0.2692 56.4805 3.11692 56.4805 5.42545 58.789 5.42545 61.6367ZM5.42545 82.272 5.42545 82.2824C5.42545 85.1301 3.11692 87.4386 0.2692 87.4386-2.57852 87.4386-4.88705 85.1301-4.88705 82.2824L-4.88705 82.272C-4.88705 79.4243-2.57852 77.1158 0.2692 77.1158 3.11692 77.1158 5.42545 79.4243 5.42545 82.272ZM17.0002 81.0202 17.0105 81.0202C19.8582 81.0202 22.1667 83.3287 22.1667 86.1764 22.1667 89.0241 19.8582 91.3327 17.0105 91.3327L17.0002 91.3327C14.1524 91.3327 11.8439 89.0241 11.8439 86.1764 11.8439 83.3287 14.1524 81.0202 17.0002 81.0202ZM37.6355 81.0202 37.6458 81.0202C40.4935 81.0202 42.802 83.3287 42.802 86.1764 42.802 89.0241 40.4935 91.3327 37.6458 91.3327L37.6355 91.3327C34.7877 91.3327 32.4792 89.0241 32.4792 86.1764 32.4792 83.3287 34.7877 81.0202 37.6355 81.0202ZM58.2708 81.0202 58.2811 81.0202C61.1288 81.0202 63.4373 83.3287 63.4373 86.1764 63.4373 89.0241 61.1288 91.3327 58.2811 91.3327L58.2708 91.3327C55.4231 91.3327 53.1145 89.0241 53.1145 86.1764 53.1145 83.3287 55.4231 81.0202 58.2708 81.0202ZM78.9061 81.0202 78.9164 81.0202C81.7641 81.0202 84.0727 83.3287 84.0727 86.1764 84.0727 89.0241 81.7641 91.3327 78.9164 91.3327L78.9061 91.3327C76.0584 91.3327 73.7498 89.0241 73.7498 86.1764 73.7498 83.3287 76.0584 81.0202 78.9061 81.0202ZM99.5414 81.0202 99.5517 81.0202C102.399 81.0202 104.708 83.3287 104.708 86.1764 104.708 89.0241 102.399 91.3327 99.5517 91.3327L99.5414 91.3327C96.6937 91.3327 94.3852 89.0241 94.3852 86.1764 94.3852 83.3287 96.6937 81.0202 99.5414 81.0202ZM120.177 81.0202 120.187 81.0202C123.035 81.0202 125.343 83.3287 125.343 86.1764 125.343 89.0241 123.035 91.3327 120.187 91.3327L120.177 91.3327C117.329 91.3327 115.02 89.0241 115.02 86.1764 115.02 83.3287 117.329 81.0202 120.177 81.0202ZM140.812 81.0202 140.822 81.0202C143.67 81.0202 145.979 83.3287 145.979 86.1764 145.979 89.0241 143.67 91.3327 140.822 91.3327L140.812 91.3327C137.964 91.3327 135.656 89.0241 135.656 86.1764 135.656 83.3287 137.964 81.0202 140.812 81.0202ZM161.447 81.0202 161.458 81.0202C164.305 81.0202 166.614 83.3287 166.614 86.1764 166.614 89.0241 164.305 91.3327 161.458 91.3327L161.447 91.3327C158.6 91.3327 156.291 89.0241 156.291 86.1764 156.291 83.3287 158.6 81.0202 161.447 81.0202ZM182.083 81.0202 182.093 81.0202C184.941 81.0202 187.249 83.3287 187.249 86.1764 187.249 89.0241 184.941 91.3327 182.093 91.3327L182.083 91.3327C179.235 91.3327 176.926 89.0241 176.926 86.1764 176.926 83.3287 179.235 81.0202 182.083 81.0202ZM202.718 81.0202 202.728 81.0202C205.576 81.0202 207.885 83.3287 207.885 86.1764 207.885 89.0241 205.576 91.3327 202.728 91.3327L202.718 91.3327C199.87 91.3327 197.562 89.0241 197.562 86.1764 197.562 83.3287 199.87 81.0202 202.718 81.0202ZM223.353 81.0202 223.364 81.0202C226.211 81.0202 228.52 83.3287 228.52 86.1764 228.52 89.0241 226.211 91.3327 223.364 91.3327L223.353 91.3327C220.506 91.3327 218.197 89.0241 218.197 86.1764 218.197 83.3287 220.506 81.0202 223.353 81.0202ZM243.989 81.0202 243.999 81.0202C246.847 81.0202 249.155 83.3287 249.155 86.1764 249.155 89.0241 246.847 91.3327 243.999 91.3327L243.989 91.3327C241.141 91.3327 238.832 89.0241 238.832 86.1764 238.832 83.3287 241.141 81.0202 243.989 81.0202ZM264.624 81.0202 264.634 81.0202C267.482 81.0202 269.79 83.3287 269.79 86.1764 269.79 89.0241 267.482 91.3327 264.634 91.3327L264.624 91.3327C261.776 91.3327 259.468 89.0241 259.468 86.1764 259.468 83.3287 261.776 81.0202 264.624 81.0202ZM285.259 81.0202 285.269 81.0202C288.117 81.0202 290.426 83.3287 290.426 86.1764 290.426 89.0241 288.117 91.3327 285.269 91.3327L285.259 91.3327C282.411 91.3327 280.103 89.0241 280.103 86.1764 280.103 83.3287 282.411 81.0202 285.259 81.0202ZM305.894 81.0202 305.905 81.0202C308.753 81.0202 311.061 83.3287 311.061 86.1764 311.061 89.0241 308.753 91.3327 305.905 91.3327L305.894 91.3327C303.047 91.3327 300.738 89.0241 300.738 86.1764 300.738 83.3287 303.047 81.0202 305.894 81.0202ZM326.53 81.0202 326.54 81.0202C329.388 81.0202 331.696 83.3287 331.696 86.1764 331.696 89.0241 329.388 91.3327 326.54 91.3327L326.53 91.3327C323.682 91.3327 321.374 89.0241 321.374 86.1764 321.374 83.3287 323.682 81.0202 326.53 81.0202ZM347.165 81.0202 347.175 81.0202C350.023 81.0202 352.332 83.3287 352.332 86.1764 352.332 89.0241 350.023 91.3327 347.175 91.3327L347.165 91.3327C344.317 91.3327 342.009 89.0241 342.009 86.1764 342.009 83.3287 344.317 81.0202 347.165 81.0202ZM367.8 81.0202 367.811 81.0202C370.658 81.0202 372.967 83.3287 372.967 86.1764 372.967 89.0241 370.658 91.3327 367.811 91.3327L367.8 91.3327C364.953 91.3327 362.644 89.0241 362.644 86.1764 362.644 83.3287 364.953 81.0202 367.8 81.0202ZM388.436 81.0202 388.446 81.0202C391.294 81.0202 393.602 83.3287 393.602 86.1764 393.602 89.0241 391.294 91.3327 388.446 91.3327L388.436 91.3327C385.588 91.3327 383.28 89.0241 383.28 86.1764 383.28 83.3287 385.588 81.0202 388.436 81.0202ZM409.071 81.0202 409.081 81.0202C411.929 81.0202 414.238 83.3287 414.238 86.1764 414.238 89.0241 411.929 91.3327 409.081 91.3327L409.071 91.3327C406.223 91.3327 403.915 89.0241 403.915 86.1764 403.915 83.3287 406.223 81.0202 409.071 81.0202ZM429.706 81.0202 429.717 81.0202C432.564 81.0202 434.873 83.3287 434.873 86.1764 434.873 89.0241 432.564 91.3327 429.717 91.3327L429.706 91.3327C426.859 91.3327 424.55 89.0241 424.55 86.1764 424.55 83.3287 426.859 81.0202 429.706 81.0202ZM450.342 81.0202 450.352 81.0202C453.2 81.0202 455.508 83.3287 455.508 86.1764 455.508 89.0241 453.2 91.3327 450.352 91.3327L450.342 91.3327C447.494 91.3327 445.186 89.0241 445.186 86.1764 445.186 83.3287 447.494 81.0202 450.342 81.0202ZM470.977 81.0202 470.987 81.0202C473.835 81.0202 476.144 83.3287 476.144 86.1764 476.144 89.0241 473.835 91.3327 470.987 91.3327L470.977 91.3327C468.129 91.3327 465.821 89.0241 465.821 86.1764 465.821 83.3287 468.129 81.0202 470.977 81.0202Z" fill="#9B9BAE" fill-rule="nonzero" fill-opacity="1" transform="matrix(-1.83697e-16 -1 -1 1.83697e-16 2307.18 1951.77)"/><text fill="#60607D" fill-opacity="1" font-family="Calibri,Calibri_MSFontService,sans-serif" font-style="normal" font-variant="normal" font-weight="400" font-stretch="normal" font-size="83" text-anchor="start" direction="ltr" writing-mode="lr-tb" unicode-bidi="normal" text-decoration="none" transform="matrix(1 0 0 1 2669.88 1605)">Routine<tspan fill="#000000" fill-opacity="1" font-family="Calibri,Calibri_MSFontService,sans-serif" font-style="normal" font-variant="normal" font-weight="400" font-stretch="normal" font-size="83" text-anchor="start" direction="ltr" writing-mode="lr-tb" unicode-bidi="normal" text-decoration="none" x="281.875" y="0">backups</tspan></text><path d="M1871 1277.5C1871 1110.99 2005.76 976 2172 976 2338.24 976 2473 1110.99 2473 1277.5 2473 1444.01 2338.24 1579 2172 1579 2005.76 1579 1871 1444.01 1871 1277.5Z" fill="#60607D" fill-rule="evenodd" fill-opacity="1"/><g clip-path="url(#clip1)"><g clip-path="url(#clip2)"><g clip-path="url(#clip3)"><path d="M2105.91 1235.41 2105.91 1188.58C2105.91 1155.63 2135.05 1128.91 2171 1128.91 2206.94 1128.91 2236.09 1155.65 2236.09 1188.58L2236.09 1235.41 2249.29 1235.41C2261.6 1235.41 2271.59 1246.03 2271.59 1259.06L2271.59 1377.44C2271.59 1390.49 2261.6 1401.09 2249.29 1401.09L2092.71 1401.09C2080.4 1401.09 2070.41 1390.47 2070.41 1377.44L2070.41 1259.06C2070.41 1246.01 2080.4 1235.41 2092.71 1235.41ZM2094.09 1259.09 2094.09 1377.41 2247.91 1377.41 2247.91 1259.09ZM2212.41 1235.41 2212.41 1188.58C2212.41 1169.19 2194.3 1152.59 2171 1152.59 2147.68 1152.59 2129.59 1169.17 2129.59 1188.58L2129.59 1235.41ZM2159.16 1303.86C2159.16 1297.33 2164.42 1292.04 2171 1292.04 2177.53 1292.04 2182.84 1297.28 2182.84 1303.86L2182.84 1339.37C2182.84 1345.91 2177.58 1351.2 2171 1351.2 2164.47 1351.2 2159.16 1345.95 2159.16 1339.37Z" fill="#FFFFFF" fill-rule="nonzero" fill-opacity="1"/></g></g></g><text fill="#60607D" fill-opacity="1" font-family="Calibri,Calibri_MSFontService,sans-serif" font-style="normal" font-variant="normal" font-weight="400" font-stretch="normal" font-size="83" text-anchor="start" direction="ltr" writing-mode="lr-tb" unicode-bidi="normal" text-decoration="none" transform="matrix(1 0 0 1 2652.01 945)">Anti<tspan fill="#000000" fill-opacity="1" font-family="Calibri,Calibri_MSFontService,sans-serif" font-style="normal" font-variant="normal" font-weight="400" font-stretch="normal" font-size="83" text-anchor="start" direction="ltr" writing-mode="lr-tb" unicode-bidi="normal" text-decoration="none" x="137.5" y="0">-</tspan><tspan fill="#000000" fill-opacity="1" font-family="Calibri,Calibri_MSFontService,sans-serif" font-style="normal" font-variant="normal" font-weight="400" font-stretch="normal" font-size="83" text-anchor="start" direction="ltr" writing-mode="lr-tb" unicode-bidi="normal" text-decoration="none" x="162.708" y="0">virus</tspan></text></g></svg>