<svg width="4340" height="1719" xmlns="http://www.w3.org/2000/svg" xmlns:xlink="http://www.w3.org/1999/xlink" overflow="hidden"><defs><clipPath id="clip0"><rect x="197" y="91" width="4340" height="1719"/></clipPath></defs><g clip-path="url(#clip0)" transform="translate(-197 -91)"><path d="M304.5 1806.5 2116.32 246.5 3943.5 1806.5Z" stroke="#E5E5E8" stroke-width="3.4375" stroke-linecap="butt" stroke-linejoin="round" stroke-miterlimit="10" stroke-opacity="1" fill="#FFFFFF" fill-rule="evenodd" fill-opacity="1"/><path d="M1730 1592C1730 1559.97 1755.74 1534 1787.5 1534 1819.26 1534 1845 1559.97 1845 1592 1845 1624.03 1819.26 1650 1787.5 1650 1755.74 1650 1730 1624.03 1730 1592Z" fill="#60607D" fill-rule="evenodd" fill-opacity="1"/><path d="M1787 1600.03C1797.6 1600.03 1806.41 1591.17 1806.41 1580.52 1806.41 1569.71 1797.6 1561 1787 1561 1776.4 1561 1767.74 1569.71 1767.74 1580.52 1767.74 1591.17 1776.4 1600.03 1787 1600.03ZM1787 1566.7C1794.47 1566.7 1800.59 1572.86 1800.59 1580.52 1800.59 1588.02 1794.47 1594.18 1787 1594.18 1779.53 1594.18 1773.41 1588.02 1773.41 1580.52 1773.41 1572.86 1779.53 1566.7 1787 1566.7ZM1795.96 1601.83C1795.06 1601.53 1794.02 1601.83 1793.27 1602.43 1787 1607.69 1787 1607.69 1787 1607.69 1780.73 1602.43 1780.73 1602.43 1780.73 1602.43 1779.98 1601.83 1779.09 1601.53 1778.04 1601.83 1774.01 1603.18 1754 1610.09 1754 1620.15 1754 1621.65 1755.34 1623 1756.84 1623 1817.16 1623 1817.16 1623 1817.16 1623 1818.81 1623 1820 1621.65 1820 1620.15 1820 1610.09 1799.99 1603.18 1795.96 1601.83ZM1761.32 1617.3C1764.45 1613.84 1771.92 1610.09 1778.34 1607.84 1785.21 1613.69 1785.21 1613.69 1785.21 1613.69 1786.25 1614.59 1787.75 1614.59 1788.94 1613.69 1795.66 1607.84 1795.66 1607.84 1795.66 1607.84 1802.08 1610.09 1809.55 1613.84 1812.83 1617.3L1761.32 1617.3Z" fill="#FFFFFF" fill-rule="evenodd" fill-opacity="1"/><path d="M1848 1592C1848 1559.97 1873.74 1534 1905.5 1534 1937.26 1534 1963 1559.97 1963 1592 1963 1624.03 1937.26 1650 1905.5 1650 1873.74 1650 1848 1624.03 1848 1592Z" fill="#60607D" fill-rule="evenodd" fill-opacity="1"/><path d="M1905 1600.03C1915.6 1600.03 1924.41 1591.17 1924.41 1580.52 1924.41 1569.71 1915.6 1561 1905 1561 1894.4 1561 1885.74 1569.71 1885.74 1580.52 1885.74 1591.17 1894.4 1600.03 1905 1600.03ZM1905 1566.7C1912.47 1566.7 1918.59 1572.86 1918.59 1580.52 1918.59 1588.02 1912.47 1594.18 1905 1594.18 1897.53 1594.18 1891.41 1588.02 1891.41 1580.52 1891.41 1572.86 1897.53 1566.7 1905 1566.7ZM1913.96 1601.83C1913.06 1601.53 1912.02 1601.83 1911.27 1602.43 1905 1607.69 1905 1607.69 1905 1607.69 1898.73 1602.43 1898.73 1602.43 1898.73 1602.43 1897.98 1601.83 1897.09 1601.53 1896.04 1601.83 1892.01 1603.18 1872 1610.09 1872 1620.15 1872 1621.65 1873.34 1623 1874.84 1623 1935.16 1623 1935.16 1623 1935.16 1623 1936.81 1623 1938 1621.65 1938 1620.15 1938 1610.09 1917.99 1603.18 1913.96 1601.83ZM1879.32 1617.3C1882.45 1613.84 1889.92 1610.09 1896.34 1607.84 1903.21 1613.69 1903.21 1613.69 1903.21 1613.69 1904.25 1614.59 1905.75 1614.59 1906.94 1613.69 1913.66 1607.84 1913.66 1607.84 1913.66 1607.84 1920.08 1610.09 1927.55 1613.84 1930.83 1617.3L1879.32 1617.3Z" fill="#FFFFFF" fill-rule="evenodd" fill-opacity="1"/><text fill="#000000" fill-opacity="1" font-family="Calibri,Calibri_MSFontService,sans-serif" font-style="normal" font-variant="normal" font-weight="400" font-stretch="normal" font-size="37" text-anchor="start" direction="ltr" writing-mode="lr-tb" unicode-bidi="normal" text-decoration="none" transform="matrix(1 0 0 1 1901.09 667)">C level<tspan fill="#000000" fill-opacity="1" font-family="Calibri,Calibri_MSFontService,sans-serif" font-style="normal" font-variant="normal" font-weight="400" font-stretch="normal" font-size="37" text-anchor="start" direction="ltr" writing-mode="lr-tb" unicode-bidi="normal" text-decoration="none" x="296.404" y="0">C Level</tspan></text><path d="M1562.5 721.5 4097.76 721.5" stroke="#E5E5E8" stroke-width="3.4375" stroke-linecap="butt" stroke-linejoin="round" stroke-miterlimit="10" stroke-opacity="1" fill="none" fill-rule="evenodd"/><path d="M0 0 0.144718 1558.69" stroke="#E5E5E8" stroke-width="3.4375" stroke-linecap="butt" stroke-linejoin="round" stroke-miterlimit="10" stroke-opacity="1" fill="none" fill-rule="evenodd" transform="matrix(1 0 0 -1 2116.5 1806.19)"/><path d="M1.13374-1.2918 3.71733 0.975682 1.44985 3.55927-1.13374 1.2918ZM11.4681 7.77812 14.0517 10.0456 11.7842 12.6292 9.20063 10.3617ZM21.8025 16.848 24.3861 19.1155 22.1186 21.6991 19.535 19.4316ZM32.1368 25.9179 34.7204 28.1854 32.453 30.769 29.8694 28.5015ZM42.4712 34.9879 45.0548 37.2553 42.7873 39.8389 40.2037 37.5714ZM52.8056 44.0578 55.3892 46.3252 53.1217 48.9088 50.5381 46.6414ZM63.14 53.1277 65.7235 55.3951 63.4561 57.9787 60.8725 55.7113ZM73.4743 62.1976 76.0579 64.4651 73.7905 67.0487 71.2069 64.7812ZM83.8087 71.2675 86.3923 73.535 84.1248 76.1186 81.5412 73.8511ZM94.1431 80.3374 96.7267 82.6049 94.4592 85.1885 91.8756 82.921ZM104.477 89.4073 107.061 91.6748 104.794 94.2584 102.21 91.9909ZM114.812 98.4772 117.395 100.745 115.128 103.328 112.544 101.061ZM125.146 107.547 127.73 109.815 125.462 112.398 122.879 110.131ZM135.481 116.617 138.064 118.885 135.797 121.468 133.213 119.201ZM145.815 125.687 148.398 127.954 146.131 130.538 143.547 128.271ZM156.149 134.757 158.733 137.024 156.465 139.608 153.882 137.34ZM166.484 143.827 169.067 146.094 166.8 148.678 164.216 146.41ZM176.818 152.897 179.402 155.164 177.134 157.748 174.551 155.48ZM187.152 161.967 189.736 164.234 187.469 166.818 184.885 164.55ZM197.487 171.037 200.07 173.304 197.803 175.888 195.219 173.62ZM207.821 180.106 210.405 182.374 208.137 184.958 205.554 182.69ZM218.155 189.176 220.739 191.444 218.472 194.027 215.888 191.76ZM228.49 198.246 231.073 200.514 228.806 203.097 226.222 200.83ZM238.824 207.316 241.408 209.584 239.14 212.167 236.557 209.9ZM249.159 216.386 251.742 218.654 249.475 221.237 246.891 218.97ZM259.493 225.456 262.076 227.724 259.809 230.307 257.225 228.04ZM269.827 234.526 272.411 236.793 270.143 239.377 267.56 237.11ZM280.162 243.596 282.745 245.863 280.478 248.447 277.894 246.179ZM290.496 252.666 293.08 254.933 290.812 257.517 288.228 255.249ZM300.83 261.736 303.414 264.003 301.146 266.587 298.563 264.319ZM311.165 270.806 313.748 273.073 311.481 275.657 308.897 273.389ZM321.499 279.876 324.083 282.143 321.815 284.727 319.232 282.459ZM331.833 288.946 334.417 291.213 332.15 293.797 329.566 291.529ZM342.168 298.015 344.751 300.283 342.484 302.867 339.9 300.599ZM352.502 307.085 355.086 309.353 352.818 311.936 350.235 309.669ZM362.836 316.155 365.42 318.423 363.153 321.006 360.569 318.739ZM373.171 325.225 375.754 327.493 373.487 330.076 370.903 327.809ZM383.505 334.295 386.089 336.563 383.821 339.146 381.238 336.879ZM393.84 343.365 396.423 345.633 394.156 348.216 391.572 345.949ZM404.174 352.435 406.758 354.702 404.49 357.286 401.906 355.019ZM414.508 361.505 417.092 363.772 414.824 366.356 412.241 364.089ZM424.843 370.575 427.426 372.842 425.159 375.426 422.575 373.158ZM435.177 379.645 437.761 381.912 435.493 384.496 432.91 382.228ZM445.511 388.715 448.095 390.982 445.828 393.566 443.244 391.298ZM455.846 397.785 458.429 400.052 456.162 402.636 453.578 400.368ZM466.18 406.854 468.764 409.122 466.496 411.706 463.913 409.438ZM476.515 415.924 479.098 418.192 476.831 420.775 474.247 418.508ZM486.849 424.994 489.433 427.262 487.165 429.845 484.581 427.578ZM497.183 434.064 499.767 436.332 497.499 438.915 494.916 436.648ZM507.518 443.134 510.101 445.402 507.834 447.985 505.25 445.718ZM517.852 452.204 520.436 454.471 518.168 457.055 515.585 454.788ZM528.186 461.274 530.77 463.541 528.503 466.125 525.919 463.858ZM538.521 470.344 541.104 472.611 538.837 475.195 536.253 472.927ZM548.855 479.414 551.439 481.681 549.171 484.265 546.588 481.997ZM559.19 488.484 561.773 490.751 559.506 493.335 556.922 491.067ZM569.524 497.553 572.108 499.821 569.84 502.405 567.257 500.137ZM579.858 506.623 582.442 508.891 580.174 511.475 577.591 509.207ZM590.193 515.693 592.776 517.961 590.509 520.544 587.925 518.277ZM600.527 524.763 603.111 527.031 600.843 529.614 598.26 527.347ZM610.862 533.833 613.445 536.101 611.178 538.684 608.594 536.417ZM621.196 542.903 623.779 545.17 621.512 547.754 618.928 545.487ZM631.53 551.973 634.114 554.24 631.846 556.824 629.263 554.557ZM641.865 561.043 644.448 563.31 642.181 565.894 639.597 563.626ZM652.199 570.113 654.783 572.38 652.515 574.964 649.932 572.696ZM662.533 579.183 665.117 581.45 662.849 584.034 660.266 581.766ZM672.868 588.253 675.451 590.52 673.184 593.104 670.6 590.836ZM683.202 597.322 685.786 599.59 683.518 602.174 680.935 599.906ZM693.537 606.392 696.12 608.66 693.853 611.243 691.269 608.976ZM703.871 615.462 706.455 617.73 704.187 620.313 701.603 618.046ZM714.205 624.532 716.789 626.8 714.521 629.383 711.938 627.116ZM724.54 633.602 727.123 635.87 724.856 638.453 722.272 636.186ZM734.874 642.672 737.458 644.939 735.19 647.523 732.607 645.256ZM745.208 651.742 747.792 654.009 745.525 656.593 742.941 654.325ZM755.543 660.812 758.126 663.079 755.859 665.663 753.275 663.395ZM765.877 669.882 768.461 672.149 766.193 674.733 763.61 672.465ZM776.212 678.952 778.795 681.219 776.528 683.803 773.944 681.535ZM786.546 688.021 789.13 690.289 786.862 692.873 784.279 690.605ZM796.881 697.091 799.464 699.359 797.197 701.942 794.613 699.675ZM807.215 706.161 809.799 708.429 807.531 711.012 804.947 708.745ZM817.549 715.231 820.133 717.499 817.866 720.082 815.282 717.815ZM827.884 724.301 830.467 726.569 828.2 729.152 825.616 726.885ZM838.218 733.371 840.802 735.638 838.534 738.222 835.951 735.955ZM848.553 742.441 851.136 744.708 848.869 747.292 846.285 745.024ZM858.887 751.511 861.471 753.778 859.203 756.362 856.62 754.094ZM869.221 760.581 871.805 762.848 869.538 765.432 866.954 763.164ZM879.556 769.651 882.14 771.918 879.872 774.502 877.288 772.234ZM889.89 778.721 892.474 780.988 890.206 783.572 887.623 781.304ZM900.225 787.791 902.808 790.058 900.541 792.642 897.957 790.374ZM910.559 796.86 913.143 799.128 910.875 801.712 908.292 799.444ZM920.894 805.93 923.477 808.198 921.21 810.782 918.626 808.514ZM931.228 815 933.812 817.268 931.544 819.852 928.961 817.584ZM941.562 824.07 944.146 826.338 941.879 828.921 939.295 826.654ZM951.897 833.14 954.481 835.408 952.213 837.991 949.629 835.724ZM962.231 842.21 964.815 844.478 962.547 847.061 959.964 844.794ZM972.566 851.28 975.149 853.548 972.882 856.131 970.298 853.864ZM982.9 860.35 985.484 862.618 983.216 865.201 980.633 862.934ZM993.235 869.42 995.818 871.688 993.551 874.271 990.967 872.004ZM1003.57 878.49 1006.15 880.758 1003.89 883.341 1001.3 881.074ZM1013.9 887.56 1016.49 889.827 1014.22 892.411 1011.64 890.144ZM1024.24 896.63 1026.82 898.897 1024.55 901.481 1021.97 899.214ZM1034.57 905.7 1037.16 907.967 1034.89 910.551 1032.3 908.284ZM1044.91 914.77 1047.49 917.037 1045.22 919.621 1042.64 917.353ZM1055.24 923.84 1057.82 926.107 1055.56 928.691 1052.97 926.423ZM1065.58 932.91 1068.16 935.177 1065.89 937.761 1063.31 935.493ZM1075.91 941.98 1078.49 944.247 1076.23 946.831 1073.64 944.563ZM1086.24 951.05 1088.83 953.317 1086.56 955.901 1083.98 953.633ZM1096.58 960.12 1099.16 962.387 1096.9 964.971 1094.31 962.703ZM1106.91 969.19 1109.5 971.457 1107.23 974.041 1104.65 971.773ZM1117.25 978.259 1119.83 980.527 1117.56 983.111 1114.98 980.843ZM1127.58 987.329 1130.17 989.597 1127.9 992.18 1125.31 989.913ZM1137.92 996.399 1140.5 998.667 1138.23 1001.25 1135.65 998.983ZM1148.25 1005.47 1150.83 1007.74 1148.57 1010.32 1145.98 1008.05ZM1158.59 1014.54 1161.17 1016.81 1158.9 1019.39 1156.32 1017.12ZM1168.92 1023.61 1171.5 1025.88 1169.24 1028.46 1166.65 1026.19ZM1179.25 1032.68 1181.84 1034.95 1179.57 1037.53 1176.99 1035.26ZM1189.59 1041.75 1192.17 1044.02 1189.9 1046.6 1187.32 1044.33ZM1199.92 1050.82 1202.51 1053.09 1200.24 1055.67 1197.66 1053.4ZM1210.26 1059.89 1212.84 1062.16 1210.57 1064.74 1207.99 1062.47ZM1220.59 1068.96 1223.17 1071.23 1220.91 1073.81 1218.32 1071.54ZM1230.93 1078.03 1233.51 1080.3 1231.24 1082.88 1228.66 1080.61ZM1241.26 1087.1 1243.84 1089.37 1241.58 1091.95 1238.99 1089.68ZM1251.59 1096.17 1254.18 1098.44 1251.91 1101.02 1249.33 1098.75ZM1261.93 1105.24 1264.51 1107.51 1262.24 1110.09 1259.66 1107.82ZM1272.26 1114.31 1274.85 1116.58 1272.58 1119.16 1270 1116.89ZM1282.6 1123.38 1285.18 1125.65 1282.91 1128.23 1280.33 1125.96ZM1292.93 1132.45 1295.52 1134.72 1293.25 1137.3 1290.66 1135.03ZM1303.27 1141.52 1305.85 1143.79 1303.58 1146.37 1301 1144.1ZM1313.6 1150.59 1316.18 1152.86 1313.92 1155.44 1311.33 1153.17ZM1323.93 1159.66 1326.52 1161.93 1324.25 1164.51 1321.67 1162.24ZM1334.27 1168.73 1336.85 1171 1334.58 1173.58 1332 1171.31ZM1344.6 1177.8 1347.19 1180.07 1344.92 1182.65 1342.34 1180.38ZM1354.94 1186.87 1357.52 1189.14 1355.25 1191.72 1352.67 1189.45ZM1365.27 1195.94 1367.86 1198.21 1365.59 1200.79 1363 1198.52ZM1375.61 1205.01 1378.19 1207.28 1375.92 1209.86 1373.34 1207.59ZM1385.94 1214.08 1388.52 1216.34 1386.26 1218.93 1383.67 1216.66ZM1396.27 1223.15 1398.86 1225.41 1396.59 1228 1394.01 1225.73ZM1406.61 1232.22 1409.19 1234.48 1406.93 1237.07 1404.34 1234.8ZM1416.94 1241.29 1419.53 1243.55 1417.26 1246.14 1414.68 1243.87ZM1427.28 1250.36 1429.86 1252.62 1427.59 1255.21 1425.01 1252.94ZM1437.61 1259.43 1440.2 1261.69 1437.93 1264.28 1435.34 1262.01ZM1447.95 1268.5 1450.53 1270.76 1448.26 1273.35 1445.68 1271.08ZM1458.28 1277.57 1460.86 1279.83 1458.6 1282.42 1456.01 1280.15ZM1468.62 1286.64 1471.2 1288.9 1468.93 1291.49 1466.35 1289.22ZM1478.95 1295.71 1481.53 1297.97 1479.27 1300.56 1476.68 1298.29ZM1489.28 1304.78 1491.87 1307.04 1489.6 1309.63 1487.02 1307.36ZM1499.62 1313.85 1502.2 1316.11 1499.93 1318.7 1497.35 1316.43ZM1509.95 1322.92 1512.54 1325.18 1510.27 1327.77 1507.69 1325.5ZM1520.29 1331.99 1522.87 1334.25 1520.6 1336.84 1518.02 1334.57ZM1530.62 1341.06 1533.2 1343.32 1530.94 1345.91 1528.35 1343.64ZM1540.96 1350.13 1543.54 1352.39 1541.27 1354.98 1538.69 1352.71ZM1551.29 1359.2 1553.87 1361.46 1551.61 1364.05 1549.02 1361.78ZM1561.62 1368.27 1564.21 1370.53 1561.94 1373.12 1559.36 1370.85ZM1571.96 1377.34 1574.54 1379.6 1572.27 1382.19 1569.69 1379.92ZM1582.29 1386.41 1584.88 1388.67 1582.61 1391.26 1580.03 1388.99ZM1592.63 1395.48 1595.21 1397.74 1592.94 1400.33 1590.36 1398.06ZM1602.96 1404.55 1605.55 1406.81 1603.28 1409.4 1600.69 1407.13ZM1613.3 1413.61 1615.88 1415.88 1613.61 1418.47 1611.03 1416.2ZM1623.63 1422.68 1626.21 1424.95 1623.95 1427.54 1621.36 1425.27ZM1633.96 1431.75 1636.55 1434.02 1634.28 1436.61 1631.7 1434.34ZM1644.3 1440.82 1646.88 1443.09 1644.61 1445.68 1642.03 1443.41ZM1654.63 1449.89 1657.22 1452.16 1654.95 1454.75 1652.37 1452.48ZM1664.97 1458.96 1667.55 1461.23 1665.28 1463.82 1662.7 1461.55ZM1675.3 1468.03 1677.89 1470.3 1675.62 1472.89 1673.03 1470.62ZM1685.64 1477.1 1688.22 1479.37 1685.95 1481.96 1683.37 1479.69ZM1695.97 1486.17 1698.55 1488.44 1696.29 1491.03 1693.7 1488.76ZM1706.3 1495.24 1708.89 1497.51 1706.62 1500.1 1704.04 1497.83ZM1716.64 1504.31 1719.22 1506.58 1716.96 1509.16 1714.37 1506.9ZM1726.97 1513.38 1729.56 1515.65 1727.29 1518.23 1724.71 1515.97ZM1737.31 1522.45 1739.89 1524.72 1737.62 1527.3 1735.04 1525.04ZM1747.64 1531.52 1750.23 1533.79 1747.96 1536.37 1745.37 1534.11ZM1757.98 1540.59 1760.56 1542.86 1758.29 1545.44 1755.71 1543.18ZM1768.31 1549.66 1770.89 1551.93 1768.63 1554.51 1766.04 1552.25ZM1778.65 1558.73 1781.23 1561 1778.96 1563.58 1776.38 1561.32ZM1788.98 1567.8 1789.47 1568.23 1787.2 1570.82 1786.71 1570.39ZM1793.95 1556.16 1805.55 1584.63 1775.81 1576.83Z" fill="#60607D" fill-rule="nonzero" fill-opacity="1" transform="matrix(1 0 0 -1 201.5 1706.13)"/><path d="M806.789 1058.13 1207.15 710.042 1245.86 754.566 845.501 1102.65Z" fill="#FFFFFF" fill-rule="evenodd" fill-opacity="1"/><text fill="#000000" fill-opacity="1" font-family="Calibri,Calibri_MSFontService,sans-serif" font-style="normal" font-variant="normal" font-weight="400" font-stretch="normal" font-size="48" text-anchor="start" direction="ltr" writing-mode="lr-tb" unicode-bidi="normal" text-decoration="none" transform="matrix(0.754652 -0.656125 0.656125 0.754652 836.971 1093)">ESCALATION &amp; REPORTING</text><text fill="#000000" fill-opacity="1" font-family="Calibri,Calibri_MSFontService,sans-serif" font-style="normal" font-variant="normal" font-weight="400" font-stretch="normal" font-size="37" text-anchor="start" direction="ltr" writing-mode="lr-tb" unicode-bidi="normal" text-decoration="none" transform="matrix(1 0 0 1 1471.81 998)">Commerce <tspan fill="#000000" fill-opacity="1" font-family="Calibri,Calibri_MSFontService,sans-serif" font-style="normal" font-variant="normal" font-weight="400" font-stretch="normal" font-size="37" text-anchor="start" direction="ltr" writing-mode="lr-tb" unicode-bidi="normal" text-decoration="none" x="170.156" y="0">Lead,Client</tspan><tspan fill="#000000" fill-opacity="1" font-family="Calibri,Calibri_MSFontService,sans-serif" font-style="normal" font-variant="normal" font-weight="400" font-stretch="normal" font-size="37" text-anchor="start" direction="ltr" writing-mode="lr-tb" unicode-bidi="normal" text-decoration="none" x="344.896" y="0">Partner, Global </tspan><tspan fill="#000000" fill-opacity="1" font-family="Calibri,Calibri_MSFontService,sans-serif" font-style="normal" font-variant="normal" font-weight="400" font-stretch="normal" font-size="37" text-anchor="start" direction="ltr" writing-mode="lr-tb" unicode-bidi="normal" text-decoration="none" x="55.8479" y="44">Program Lead, Dev Team Head</tspan></text><path d="M1102.5 1117.5 4097.61 1117.5" stroke="#E5E5E8" stroke-width="3.4375" stroke-linecap="butt" stroke-linejoin="round" stroke-miterlimit="10" stroke-opacity="1" fill="none" fill-rule="evenodd"/><text fill="#000000" fill-opacity="1" font-family="Calibri,Calibri_MSFontService,sans-serif" font-style="normal" font-variant="normal" font-weight="400" font-stretch="normal" font-size="37" text-anchor="start" direction="ltr" writing-mode="lr-tb" unicode-bidi="normal" text-decoration="none" transform="matrix(1 0 0 1 1215.76 1347)">All Discipline <tspan fill="#000000" fill-opacity="1" font-family="Calibri,Calibri_MSFontService,sans-serif" font-style="normal" font-variant="normal" font-weight="400" font-stretch="normal" font-size="37" text-anchor="start" direction="ltr" writing-mode="lr-tb" unicode-bidi="normal" text-decoration="none" x="52.4334" y="44">Leads</tspan><tspan fill="#000000" fill-opacity="1" font-family="Calibri,Calibri_MSFontService,sans-serif" font-style="normal" font-variant="normal" font-weight="400" font-stretch="normal" font-size="37" text-anchor="start" direction="ltr" writing-mode="lr-tb" unicode-bidi="normal" text-decoration="none" x="366.276" y="0">Local and Offshore Program </tspan><tspan fill="#000000" fill-opacity="1" font-family="Calibri,Calibri_MSFontService,sans-serif" font-style="normal" font-variant="normal" font-weight="400" font-stretch="normal" font-size="37" text-anchor="start" direction="ltr" writing-mode="lr-tb" unicode-bidi="normal" text-decoration="none" x="410.963" y="44">and Project Managers</tspan><tspan fill="#000000" fill-opacity="1" font-family="Calibri,Calibri_MSFontService,sans-serif" font-style="normal" font-variant="normal" font-weight="400" font-stretch="normal" font-size="37" text-anchor="start" direction="ltr" writing-mode="lr-tb" unicode-bidi="normal" text-decoration="none" x="1020.53" y="0">Prog/ Proj. </tspan><tspan fill="#000000" fill-opacity="1" font-family="Calibri,Calibri_MSFontService,sans-serif" font-style="normal" font-variant="normal" font-weight="400" font-stretch="normal" font-size="37" text-anchor="start" direction="ltr" writing-mode="lr-tb" unicode-bidi="normal" text-decoration="none" x="1025.69" y="44">Managers</tspan><tspan fill="#000000" fill-opacity="1" font-family="Calibri,Calibri_MSFontService,sans-serif" font-style="normal" font-variant="normal" font-weight="400" font-stretch="normal" font-size="37" text-anchor="start" direction="ltr" writing-mode="lr-tb" unicode-bidi="normal" text-decoration="none" x="1333.41" y="0">Program </tspan><tspan fill="#000000" fill-opacity="1" font-family="Calibri,Calibri_MSFontService,sans-serif" font-style="normal" font-variant="normal" font-weight="400" font-stretch="normal" font-size="37" text-anchor="start" direction="ltr" writing-mode="lr-tb" unicode-bidi="normal" text-decoration="none" x="1336.55" y="44">Sponsor</tspan><tspan fill="#000000" fill-opacity="1" font-family="Calibri,Calibri_MSFontService,sans-serif" font-style="normal" font-variant="normal" font-weight="400" font-stretch="normal" font-size="37" text-anchor="start" direction="ltr" writing-mode="lr-tb" unicode-bidi="normal" text-decoration="none" x="1524.83" y="0">Third Party Representatives</tspan></text><path d="M698.5 1462.5 4097.65 1462.5" stroke="#E5E5E8" stroke-width="3.4375" stroke-linecap="butt" stroke-linejoin="round" stroke-miterlimit="10" stroke-opacity="1" fill="none" fill-rule="evenodd"/><path d="M1489.33 622.093 2031.81 152.622 2087.57 217.052 1545.09 686.523Z" fill="#7F7F7F" fill-rule="nonzero" fill-opacity="0.741176"/><text fill="#FFFFFF" fill-opacity="1" font-family="Calibri,Calibri_MSFontService,sans-serif" font-style="normal" font-variant="normal" font-weight="400" font-stretch="normal" font-size="41" text-anchor="start" direction="ltr" writing-mode="lr-tb" unicode-bidi="normal" text-decoration="none" transform="matrix(0.756155 -0.654393 0.654393 0.756155 1698.35 516)">Executive Team </text><path d="M1038.04 1025.41 1483.07 629.825 1541.56 695.635 1096.53 1091.22Z" fill="#A6A6A6" fill-rule="nonzero" fill-opacity="1"/><text fill="#FFFFFF" fill-opacity="1" font-family="Calibri,Calibri_MSFontService,sans-serif" font-style="normal" font-variant="normal" font-weight="400" font-stretch="normal" font-size="41" text-anchor="start" direction="ltr" writing-mode="lr-tb" unicode-bidi="normal" text-decoration="none" transform="matrix(0.74741 -0.664363 0.664363 0.74741 1173.38 983)">Steering Committee </text><path d="M657.929 1355.91 1030.86 1033.32 1086.6 1097.76 713.667 1420.35Z" fill="#BFBFBF" fill-rule="nonzero" fill-opacity="1"/><text fill="#FFFFFF" fill-opacity="1" font-family="Calibri,Calibri_MSFontService,sans-serif" font-style="normal" font-variant="normal" font-weight="400" font-stretch="normal" font-size="41" text-anchor="start" direction="ltr" writing-mode="lr-tb" unicode-bidi="normal" text-decoration="none" transform="matrix(0.756307 -0.654217 0.654217 0.756307 796.227 1311)">Management</text><path d="M221.283 1735.61 646.455 1364.73 702.542 1429.03 277.37 1799.91Z" fill="#D9D9D9" fill-rule="nonzero" fill-opacity="1"/><text fill="#000000" fill-opacity="1" font-family="Calibri,Calibri_MSFontService,sans-serif" font-style="normal" font-variant="normal" font-weight="400" font-stretch="normal" font-size="41" text-anchor="start" direction="ltr" writing-mode="lr-tb" unicode-bidi="normal" text-decoration="none" transform="matrix(0.753584 -0.657352 0.657352 0.753584 430.051 1629)">Teams</text><text fill="#000000" fill-opacity="1" font-family="Calibri,Calibri_MSFontService,sans-serif" font-style="normal" font-variant="normal" font-weight="400" font-stretch="normal" font-size="37" text-anchor="start" direction="ltr" writing-mode="lr-tb" unicode-bidi="normal" text-decoration="none" transform="matrix(1 0 0 1 2322.58 998)">Merchant VP and <tspan fill="#000000" fill-opacity="1" font-family="Calibri,Calibri_MSFontService,sans-serif" font-style="normal" font-variant="normal" font-weight="400" font-stretch="normal" font-size="37" text-anchor="start" direction="ltr" writing-mode="lr-tb" unicode-bidi="normal" text-decoration="none" x="0.87085" y="44">Program Director</tspan><tspan fill="#000000" fill-opacity="1" font-family="Calibri,Calibri_MSFontService,sans-serif" font-style="normal" font-variant="normal" font-weight="400" font-stretch="normal" font-size="37" text-anchor="start" direction="ltr" writing-mode="lr-tb" unicode-bidi="normal" text-decoration="none" x="-1468.12" y="711">Creative,  Dev, Test, BA Leads and Team </tspan><tspan fill="#000000" fill-opacity="1" font-family="Calibri,Calibri_MSFontService,sans-serif" font-style="normal" font-variant="normal" font-weight="400" font-stretch="normal" font-size="37" text-anchor="start" direction="ltr" writing-mode="lr-tb" unicode-bidi="normal" text-decoration="none" x="-551.139" y="711">Architects</tspan><tspan fill="#000000" fill-opacity="1" font-family="Calibri,Calibri_MSFontService,sans-serif" font-style="normal" font-variant="normal" font-weight="400" font-stretch="normal" font-size="43" text-anchor="start" direction="ltr" writing-mode="lr-tb" unicode-bidi="normal" text-decoration="none" x="1358.15" y="625">DAILY</tspan><tspan fill="#000000" fill-opacity="1" font-family="Calibri,Calibri_MSFontService,sans-serif" font-style="normal" font-variant="normal" font-weight="400" font-stretch="normal" font-size="43" text-anchor="start" direction="ltr" writing-mode="lr-tb" unicode-bidi="normal" text-decoration="none" x="1358.15" y="676">Scrum, Standup, Blocker </tspan><tspan fill="#000000" fill-opacity="1" font-family="Calibri,Calibri_MSFontService,sans-serif" font-style="normal" font-variant="normal" font-weight="400" font-stretch="normal" font-size="43" text-anchor="start" direction="ltr" writing-mode="lr-tb" unicode-bidi="normal" text-decoration="none" x="1358.15" y="255">WEEKLY</tspan><tspan fill="#000000" fill-opacity="1" font-family="Calibri,Calibri_MSFontService,sans-serif" font-style="normal" font-variant="normal" font-weight="400" font-stretch="normal" font-size="43" text-anchor="start" direction="ltr" writing-mode="lr-tb" unicode-bidi="normal" text-decoration="none" x="1358.15" y="306">Program status, ARB, </tspan><tspan fill="#000000" fill-opacity="1" font-family="Calibri,Calibri_MSFontService,sans-serif" font-style="normal" font-variant="normal" font-weight="400" font-stretch="normal" font-size="43" text-anchor="start" direction="ltr" writing-mode="lr-tb" unicode-bidi="normal" text-decoration="none" x="1358.15" y="358">Change Control</tspan><tspan fill="#000000" fill-opacity="1" font-family="Calibri,Calibri_MSFontService,sans-serif" font-style="normal" font-variant="normal" font-weight="400" font-stretch="normal" font-size="43" text-anchor="start" direction="ltr" writing-mode="lr-tb" unicode-bidi="normal" text-decoration="none" x="1318.27" y="-90">MONTHLY</tspan><tspan fill="#000000" fill-opacity="1" font-family="Calibri,Calibri_MSFontService,sans-serif" font-style="normal" font-variant="normal" font-weight="400" font-stretch="normal" font-size="43" text-anchor="start" direction="ltr" writing-mode="lr-tb" unicode-bidi="normal" text-decoration="none" x="1318.27" y="-39">Steering Committee</tspan><tspan fill="#000000" fill-opacity="1" font-family="Calibri,Calibri_MSFontService,sans-serif" font-style="normal" font-variant="normal" font-weight="400" font-stretch="normal" font-size="43" text-anchor="start" direction="ltr" writing-mode="lr-tb" unicode-bidi="normal" text-decoration="none" x="1313.75" y="-468">QBR</tspan><tspan fill="#000000" fill-opacity="1" font-family="Calibri,Calibri_MSFontService,sans-serif" font-style="normal" font-variant="normal" font-weight="400" font-stretch="normal" font-size="43" text-anchor="start" direction="ltr" writing-mode="lr-tb" unicode-bidi="normal" text-decoration="none" x="1313.75" y="-417">Executive Connect</tspan><tspan fill="#000000" fill-opacity="1" font-family="Calibri,Calibri_MSFontService,sans-serif" font-style="normal" font-variant="normal" font-weight="400" font-stretch="normal" font-size="37" text-anchor="start" direction="ltr" writing-mode="lr-tb" unicode-bidi="normal" text-decoration="none" x="648.855" y="711">Third Party Contacts</tspan></text><path d="M3065 1592C3065 1559.97 3090.74 1534 3122.5 1534 3154.26 1534 3180 1559.97 3180 1592 3180 1624.03 3154.26 1650 3122.5 1650 3090.74 1650 3065 1624.03 3065 1592Z" fill="#CDCDD2" fill-rule="evenodd" fill-opacity="1"/><path d="M3122 1600.03C3132.6 1600.03 3141.41 1591.17 3141.41 1580.52 3141.41 1569.71 3132.6 1561 3122 1561 3111.4 1561 3102.74 1569.71 3102.74 1580.52 3102.74 1591.17 3111.4 1600.03 3122 1600.03ZM3122 1566.7C3129.47 1566.7 3135.59 1572.86 3135.59 1580.52 3135.59 1588.02 3129.47 1594.18 3122 1594.18 3114.53 1594.18 3108.41 1588.02 3108.41 1580.52 3108.41 1572.86 3114.53 1566.7 3122 1566.7ZM3130.96 1601.83C3130.06 1601.53 3129.02 1601.83 3128.27 1602.43 3122 1607.69 3122 1607.69 3122 1607.69 3115.73 1602.43 3115.73 1602.43 3115.73 1602.43 3114.98 1601.83 3114.09 1601.53 3113.04 1601.83 3109.01 1603.18 3089 1610.09 3089 1620.15 3089 1621.65 3090.34 1623 3091.84 1623 3152.16 1623 3152.16 1623 3152.16 1623 3153.81 1623 3155 1621.65 3155 1620.15 3155 1610.09 3134.99 1603.18 3130.96 1601.83ZM3096.32 1617.3C3099.45 1613.84 3106.92 1610.09 3113.34 1607.84 3120.21 1613.69 3120.21 1613.69 3120.21 1613.69 3121.25 1614.59 3122.75 1614.59 3123.94 1613.69 3130.66 1607.84 3130.66 1607.84 3130.66 1607.84 3137.08 1610.09 3144.55 1613.84 3147.83 1617.3L3096.32 1617.3Z" fill="#FFFFFF" fill-rule="evenodd" fill-opacity="1"/><text fill="#000000" fill-opacity="1" font-family="Calibri,Calibri_MSFontService,sans-serif" font-style="normal" font-variant="normal" font-weight="400" font-stretch="normal" font-size="37" text-anchor="start" direction="ltr" writing-mode="lr-tb" unicode-bidi="normal" text-decoration="none" transform="matrix(1 0 0 1 2343.11 1709)">Merchant <tspan fill="#000000" fill-opacity="1" font-family="Calibri,Calibri_MSFontService,sans-serif" font-style="normal" font-variant="normal" font-weight="400" font-stretch="normal" font-size="37" text-anchor="start" direction="ltr" writing-mode="lr-tb" unicode-bidi="normal" text-decoration="none" x="154.688" y="0">POCs</tspan></text><path d="M2401 1592C2401 1559.97 2426.97 1534 2459 1534 2491.03 1534 2517 1559.97 2517 1592 2517 1624.03 2491.03 1650 2459 1650 2426.97 1650 2401 1624.03 2401 1592Z" fill="#9B9BAE" fill-rule="evenodd" fill-opacity="1"/><path d="M2459 1600.03C2469.6 1600.03 2478.41 1591.17 2478.41 1580.52 2478.41 1569.71 2469.6 1561 2459 1561 2448.4 1561 2439.74 1569.71 2439.74 1580.52 2439.74 1591.17 2448.4 1600.03 2459 1600.03ZM2459 1566.7C2466.47 1566.7 2472.59 1572.86 2472.59 1580.52 2472.59 1588.02 2466.47 1594.18 2459 1594.18 2451.53 1594.18 2445.41 1588.02 2445.41 1580.52 2445.41 1572.86 2451.53 1566.7 2459 1566.7ZM2467.96 1601.83C2467.06 1601.53 2466.02 1601.83 2465.27 1602.43 2459 1607.69 2459 1607.69 2459 1607.69 2452.73 1602.43 2452.73 1602.43 2452.73 1602.43 2451.98 1601.83 2451.09 1601.53 2450.04 1601.83 2446.01 1603.18 2426 1610.09 2426 1620.15 2426 1621.65 2427.34 1623 2428.84 1623 2489.16 1623 2489.16 1623 2489.16 1623 2490.81 1623 2492 1621.65 2492 1620.15 2492 1610.09 2471.99 1603.18 2467.96 1601.83ZM2433.32 1617.3C2436.45 1613.84 2443.92 1610.09 2450.34 1607.84 2457.21 1613.69 2457.21 1613.69 2457.21 1613.69 2458.25 1614.59 2459.75 1614.59 2460.94 1613.69 2467.66 1607.84 2467.66 1607.84 2467.66 1607.84 2474.08 1610.09 2481.55 1613.84 2484.83 1617.3L2433.32 1617.3Z" fill="#FFFFFF" fill-rule="evenodd" fill-opacity="1"/><path d="M916 1592C916 1559.97 941.968 1534 974 1534 1006.03 1534 1032 1559.97 1032 1592 1032 1624.03 1006.03 1650 974 1650 941.968 1650 916 1624.03 916 1592Z" fill="#60607D" fill-rule="evenodd" fill-opacity="1"/><path d="M974 1600.03C984.602 1600.03 993.412 1591.17 993.412 1580.52 993.412 1569.71 984.602 1561 974 1561 963.398 1561 954.737 1569.71 954.737 1580.52 954.737 1591.17 963.398 1600.03 974 1600.03ZM974 1566.7C981.466 1566.7 987.588 1572.86 987.588 1580.52 987.588 1588.02 981.466 1594.18 974 1594.18 966.534 1594.18 960.412 1588.02 960.412 1580.52 960.412 1572.86 966.534 1566.7 974 1566.7ZM982.959 1601.83C982.063 1601.53 981.018 1601.83 980.271 1602.43 974 1607.69 974 1607.69 974 1607.69 967.728 1602.43 967.728 1602.43 967.728 1602.43 966.982 1601.83 966.086 1601.53 965.041 1601.83 961.009 1603.18 941 1610.09 941 1620.15 941 1621.65 942.344 1623 943.837 1623 1004.16 1623 1004.16 1623 1004.16 1623 1005.81 1623 1007 1621.65 1007 1620.15 1007 1610.09 986.991 1603.18 982.959 1601.83ZM948.317 1617.3C951.452 1613.84 958.918 1610.09 965.339 1607.84 972.208 1613.69 972.208 1613.69 972.208 1613.69 973.253 1614.59 974.746 1614.59 975.941 1613.69 982.66 1607.84 982.66 1607.84 982.66 1607.84 989.081 1610.09 996.547 1613.84 999.832 1617.3L948.317 1617.3Z" fill="#FFFFFF" fill-rule="evenodd" fill-opacity="1"/><path d="M1035 1592C1035 1559.97 1060.74 1534 1092.5 1534 1124.26 1534 1150 1559.97 1150 1592 1150 1624.03 1124.26 1650 1092.5 1650 1060.74 1650 1035 1624.03 1035 1592Z" fill="#60607D" fill-rule="evenodd" fill-opacity="1"/><path d="M1092 1600.03C1102.6 1600.03 1111.41 1591.17 1111.41 1580.52 1111.41 1569.71 1102.6 1561 1092 1561 1081.4 1561 1072.74 1569.71 1072.74 1580.52 1072.74 1591.17 1081.4 1600.03 1092 1600.03ZM1092 1566.7C1099.47 1566.7 1105.59 1572.86 1105.59 1580.52 1105.59 1588.02 1099.47 1594.18 1092 1594.18 1084.53 1594.18 1078.41 1588.02 1078.41 1580.52 1078.41 1572.86 1084.53 1566.7 1092 1566.7ZM1100.96 1601.83C1100.06 1601.53 1099.02 1601.83 1098.27 1602.43 1092 1607.69 1092 1607.69 1092 1607.69 1085.73 1602.43 1085.73 1602.43 1085.73 1602.43 1084.98 1601.83 1084.09 1601.53 1083.04 1601.83 1079.01 1603.18 1059 1610.09 1059 1620.15 1059 1621.65 1060.34 1623 1061.84 1623 1122.16 1623 1122.16 1623 1122.16 1623 1123.81 1623 1125 1621.65 1125 1620.15 1125 1610.09 1104.99 1603.18 1100.96 1601.83ZM1066.32 1617.3C1069.45 1613.84 1076.92 1610.09 1083.34 1607.84 1090.21 1613.69 1090.21 1613.69 1090.21 1613.69 1091.25 1614.59 1092.75 1614.59 1093.94 1613.69 1100.66 1607.84 1100.66 1607.84 1100.66 1607.84 1107.08 1610.09 1114.55 1613.84 1117.83 1617.3L1066.32 1617.3Z" fill="#FFFFFF" fill-rule="evenodd" fill-opacity="1"/><path d="M1153 1592C1153 1559.97 1178.74 1534 1210.5 1534 1242.26 1534 1268 1559.97 1268 1592 1268 1624.03 1242.26 1650 1210.5 1650 1178.74 1650 1153 1624.03 1153 1592Z" fill="#60607D" fill-rule="evenodd" fill-opacity="1"/><path d="M1210 1600.03C1220.6 1600.03 1229.41 1591.17 1229.41 1580.52 1229.41 1569.71 1220.6 1561 1210 1561 1199.4 1561 1190.74 1569.71 1190.74 1580.52 1190.74 1591.17 1199.4 1600.03 1210 1600.03ZM1210 1566.7C1217.47 1566.7 1223.59 1572.86 1223.59 1580.52 1223.59 1588.02 1217.47 1594.18 1210 1594.18 1202.53 1594.18 1196.41 1588.02 1196.41 1580.52 1196.41 1572.86 1202.53 1566.7 1210 1566.7ZM1218.96 1601.83C1218.06 1601.53 1217.02 1601.83 1216.27 1602.43 1210 1607.69 1210 1607.69 1210 1607.69 1203.73 1602.43 1203.73 1602.43 1203.73 1602.43 1202.98 1601.83 1202.09 1601.53 1201.04 1601.83 1197.01 1603.18 1177 1610.09 1177 1620.15 1177 1621.65 1178.34 1623 1179.84 1623 1240.16 1623 1240.16 1623 1240.16 1623 1241.81 1623 1243 1621.65 1243 1620.15 1243 1610.09 1222.99 1603.18 1218.96 1601.83ZM1184.32 1617.3C1187.45 1613.84 1194.92 1610.09 1201.34 1607.84 1208.21 1613.69 1208.21 1613.69 1208.21 1613.69 1209.25 1614.59 1210.75 1614.59 1211.94 1613.69 1218.66 1607.84 1218.66 1607.84 1218.66 1607.84 1225.08 1610.09 1232.55 1613.84 1235.83 1617.3L1184.32 1617.3Z" fill="#FFFFFF" fill-rule="evenodd" fill-opacity="1"/><path d="M1271 1592C1271 1559.97 1296.74 1534 1328.5 1534 1360.26 1534 1386 1559.97 1386 1592 1386 1624.03 1360.26 1650 1328.5 1650 1296.74 1650 1271 1624.03 1271 1592Z" fill="#60607D" fill-rule="evenodd" fill-opacity="1"/><path d="M1328 1600.03C1338.6 1600.03 1347.41 1591.17 1347.41 1580.52 1347.41 1569.71 1338.6 1561 1328 1561 1317.4 1561 1308.74 1569.71 1308.74 1580.52 1308.74 1591.17 1317.4 1600.03 1328 1600.03ZM1328 1566.7C1335.47 1566.7 1341.59 1572.86 1341.59 1580.52 1341.59 1588.02 1335.47 1594.18 1328 1594.18 1320.53 1594.18 1314.41 1588.02 1314.41 1580.52 1314.41 1572.86 1320.53 1566.7 1328 1566.7ZM1336.96 1601.83C1336.06 1601.53 1335.02 1601.83 1334.27 1602.43 1328 1607.69 1328 1607.69 1328 1607.69 1321.73 1602.43 1321.73 1602.43 1321.73 1602.43 1320.98 1601.83 1320.09 1601.53 1319.04 1601.83 1315.01 1603.18 1295 1610.09 1295 1620.15 1295 1621.65 1296.34 1623 1297.84 1623 1358.16 1623 1358.16 1623 1358.16 1623 1359.81 1623 1361 1621.65 1361 1620.15 1361 1610.09 1340.99 1603.18 1336.96 1601.83ZM1302.32 1617.3C1305.45 1613.84 1312.92 1610.09 1319.34 1607.84 1326.21 1613.69 1326.21 1613.69 1326.21 1613.69 1327.25 1614.59 1328.75 1614.59 1329.94 1613.69 1336.66 1607.84 1336.66 1607.84 1336.66 1607.84 1343.08 1610.09 1350.55 1613.84 1353.83 1617.3L1302.32 1617.3Z" fill="#FFFFFF" fill-rule="evenodd" fill-opacity="1"/><path d="M2167.63 161.202 2170.22 163.454 2167.97 166.051 2165.37 163.798ZM2178.01 170.212 2180.61 172.465 2178.36 175.061 2175.76 172.809ZM2188.4 179.223 2191 181.475 2188.74 184.072 2186.15 181.819ZM2198.79 188.233 2201.38 190.486 2199.13 193.082 2196.53 190.83ZM2209.17 197.243 2211.77 199.496 2209.52 202.093 2206.92 199.84ZM2219.56 206.254 2222.15 208.506 2219.9 211.103 2217.31 208.85ZM2229.94 215.264 2232.54 217.517 2230.29 220.113 2227.69 217.861ZM2240.33 224.275 2242.93 226.527 2240.67 229.124 2238.08 226.871ZM2250.72 233.285 2253.31 235.538 2251.06 238.134 2248.46 235.882ZM2261.1 242.295 2263.7 244.548 2261.45 247.145 2258.85 244.892ZM2271.49 251.306 2274.09 253.558 2271.83 256.155 2269.24 253.902ZM2281.88 260.316 2284.47 262.569 2282.22 265.165 2279.62 262.913ZM2292.26 269.327 2294.86 271.579 2292.61 274.176 2290.01 271.923ZM2302.65 278.337 2305.24 280.59 2302.99 283.186 2300.4 280.934ZM2313.03 287.347 2315.63 289.6 2313.38 292.197 2310.78 289.944ZM2323.42 296.358 2326.02 298.611 2323.76 301.207 2321.17 298.954ZM2333.81 305.368 2336.4 307.621 2334.15 310.217 2331.55 307.965ZM2344.19 314.379 2346.79 316.631 2344.54 319.228 2341.94 316.975ZM2354.58 323.389 2357.18 325.642 2354.92 328.238 2352.33 325.986ZM2364.97 332.4 2367.56 334.652 2365.31 337.249 2362.71 334.996ZM2375.35 341.41 2377.95 343.663 2375.7 346.259 2373.1 344.007ZM2385.74 350.42 2388.34 352.673 2386.08 355.27 2383.49 353.017ZM2396.12 359.431 2398.72 361.683 2396.47 364.28 2393.87 362.027ZM2406.51 368.441 2409.11 370.694 2406.86 373.29 2404.26 371.038ZM2416.9 377.452 2419.49 379.704 2417.24 382.301 2414.65 380.048ZM2427.28 386.462 2429.88 388.715 2427.63 391.311 2425.03 389.059ZM2437.67 395.472 2440.27 397.725 2438.01 400.322 2435.42 398.069ZM2448.06 404.483 2450.65 406.735 2448.4 409.332 2445.8 407.079ZM2458.44 413.493 2461.04 415.746 2458.79 418.342 2456.19 416.09ZM2468.83 422.504 2471.43 424.756 2469.17 427.353 2466.58 425.1ZM2479.22 431.514 2481.81 433.767 2479.56 436.363 2476.96 434.111ZM2489.6 440.524 2492.2 442.777 2489.95 445.374 2487.35 443.121ZM2499.99 449.535 2502.58 451.787 2500.33 454.384 2497.74 452.131ZM2510.37 458.545 2512.97 460.798 2510.72 463.394 2508.12 461.142ZM2520.76 467.556 2523.36 469.808 2521.1 472.405 2518.51 470.152ZM2531.15 476.566 2533.74 478.819 2531.49 481.415 2528.89 479.163ZM2541.53 485.576 2544.13 487.829 2541.88 490.426 2539.28 488.173ZM2551.92 494.587 2554.52 496.839 2552.26 499.436 2549.67 497.183ZM2562.31 503.597 2564.9 505.85 2562.65 508.446 2560.05 506.194ZM2572.69 512.608 2575.29 514.86 2573.04 517.457 2570.44 515.204ZM2583.08 521.618 2585.68 523.871 2583.42 526.467 2580.83 524.215ZM2593.46 530.628 2596.06 532.881 2593.81 535.478 2591.21 533.225ZM2603.85 539.639 2606.45 541.891 2604.2 544.488 2601.6 542.235ZM2614.24 548.649 2616.83 550.902 2614.58 553.498 2611.98 551.246ZM2624.62 557.66 2627.22 559.912 2624.97 562.509 2622.37 560.256ZM2635.01 566.67 2637.61 568.923 2635.35 571.519 2632.76 569.267ZM2645.4 575.68 2647.99 577.933 2645.74 580.53 2643.14 578.277ZM2655.78 584.691 2658.38 586.943 2656.13 589.54 2653.53 587.287ZM2666.17 593.701 2668.77 595.954 2666.51 598.55 2663.92 596.298ZM2676.56 602.712 2679.15 604.964 2676.9 607.561 2674.3 605.308ZM2686.94 611.722 2689.54 613.975 2687.29 616.571 2684.69 614.319ZM2697.33 620.732 2699.92 622.985 2697.67 625.582 2695.08 623.329ZM2707.71 629.743 2710.31 631.995 2708.06 634.592 2705.46 632.339ZM2718.1 638.753 2720.7 641.006 2718.44 643.602 2715.85 641.35ZM2728.49 647.764 2731.08 650.016 2728.83 652.613 2726.23 650.36ZM2738.87 656.774 2741.47 659.027 2739.22 661.623 2736.62 659.371ZM2749.26 665.784 2751.86 668.037 2749.6 670.634 2747.01 668.381ZM2759.65 674.795 2762.24 677.047 2759.99 679.644 2757.39 677.391ZM2770.03 683.805 2772.63 686.058 2770.38 688.654 2767.78 686.402ZM2780.42 692.816 2783.01 695.068 2780.76 697.665 2778.17 695.412ZM2790.8 701.826 2793.4 704.079 2791.15 706.675 2788.55 704.423ZM2801.19 710.836 2803.79 713.089 2801.53 715.686 2798.94 713.433ZM2811.58 719.847 2814.17 722.099 2811.92 724.696 2809.32 722.443ZM2821.96 728.857 2824.56 731.11 2822.31 733.706 2819.71 731.454ZM2832.35 737.868 2834.95 740.12 2832.69 742.717 2830.1 740.464ZM2842.74 746.878 2845.33 749.131 2843.08 751.727 2840.48 749.475ZM2853.12 755.888 2855.72 758.141 2853.47 760.738 2850.87 758.485ZM2863.51 764.899 2866.11 767.151 2863.85 769.748 2861.26 767.495ZM2873.89 773.909 2876.49 776.162 2874.24 778.758 2871.64 776.506ZM2884.28 782.92 2886.88 785.172 2884.63 787.769 2882.03 785.516ZM2894.67 791.93 2897.26 794.183 2895.01 796.779 2892.41 794.527ZM2905.05 800.94 2907.65 803.193 2905.4 805.79 2902.8 803.537ZM2915.44 809.951 2918.04 812.203 2915.78 814.8 2913.19 812.547ZM2925.83 818.961 2928.42 821.214 2926.17 823.81 2923.57 821.558ZM2936.21 827.972 2938.81 830.224 2936.56 832.821 2933.96 830.568ZM2946.6 836.982 2949.2 839.235 2946.94 841.831 2944.35 839.579ZM2956.99 845.992 2959.58 848.245 2957.33 850.842 2954.73 848.589ZM2967.37 855.003 2969.97 857.255 2967.72 859.852 2965.12 857.599ZM2977.76 864.013 2980.35 866.266 2978.1 868.862 2975.5 866.61ZM2988.14 873.024 2990.74 875.276 2988.49 877.873 2985.89 875.62ZM2998.53 882.034 3001.13 884.287 2998.87 886.883 2996.28 884.631ZM3008.92 891.044 3011.51 893.297 3009.26 895.894 3006.66 893.641ZM3019.3 900.055 3021.9 902.307 3019.65 904.904 3017.05 902.651ZM3029.69 909.065 3032.29 911.318 3030.03 913.914 3027.44 911.662ZM3040.07 918.076 3042.67 920.328 3040.42 922.925 3037.82 920.672ZM3050.46 927.086 3053.06 929.339 3050.8 931.935 3048.21 929.683ZM3060.85 936.096 3063.44 938.349 3061.19 940.946 3058.59 938.693ZM3071.23 945.107 3073.83 947.359 3071.58 949.956 3068.98 947.703ZM3081.62 954.117 3084.22 956.37 3081.96 958.966 3079.37 956.714ZM3092.01 963.128 3094.6 965.38 3092.35 967.977 3089.75 965.724ZM3102.39 972.138 3104.99 974.391 3102.74 976.987 3100.14 974.735ZM3112.78 981.148 3115.37 983.401 3113.12 985.998 3110.53 983.745ZM3123.16 990.159 3125.76 992.411 3123.51 995.008 3120.91 992.755ZM3133.55 999.169 3136.15 1001.42 3133.89 1004.02 3131.3 1001.77ZM3143.94 1008.18 3146.53 1010.43 3144.28 1013.03 3141.68 1010.78ZM3154.32 1017.19 3156.92 1019.44 3154.67 1022.04 3152.07 1019.79ZM3164.71 1026.2 3167.31 1028.45 3165.05 1031.05 3162.46 1028.8ZM3175.1 1035.21 3177.69 1037.46 3175.44 1040.06 3172.84 1037.81ZM3185.48 1044.22 3188.08 1046.47 3185.83 1049.07 3183.23 1046.82ZM3195.87 1053.23 3198.46 1055.48 3196.21 1058.08 3193.62 1055.83ZM3206.25 1062.24 3208.85 1064.49 3206.6 1067.09 3204 1064.84ZM3216.64 1071.25 3219.24 1073.51 3216.99 1076.1 3214.39 1073.85ZM3227.03 1080.26 3229.62 1082.52 3227.37 1085.11 3224.77 1082.86ZM3237.41 1089.27 3240.01 1091.53 3237.76 1094.12 3235.16 1091.87ZM3247.8 1098.28 3250.4 1100.54 3248.14 1103.13 3245.55 1100.88ZM3258.19 1107.29 3260.78 1109.55 3258.53 1112.14 3255.93 1109.89ZM3268.57 1116.3 3271.17 1118.56 3268.92 1121.15 3266.32 1118.9ZM3278.96 1125.31 3281.56 1127.57 3279.3 1130.16 3276.71 1127.91ZM3289.34 1134.33 3291.94 1136.58 3289.69 1139.17 3287.09 1136.92ZM3299.73 1143.34 3302.33 1145.59 3300.08 1148.18 3297.48 1145.93ZM3310.12 1152.35 3312.71 1154.6 3310.46 1157.2 3307.86 1154.94ZM3320.5 1161.36 3323.1 1163.61 3320.85 1166.21 3318.25 1163.95ZM3330.89 1170.37 3333.49 1172.62 3331.23 1175.22 3328.64 1172.96ZM3341.28 1179.38 3343.87 1181.63 3341.62 1184.23 3339.02 1181.97ZM3351.66 1188.39 3354.26 1190.64 3352.01 1193.24 3349.41 1190.98ZM3362.05 1197.4 3364.65 1199.65 3362.39 1202.25 3359.8 1199.99ZM3372.44 1206.41 3375.03 1208.66 3372.78 1211.26 3370.18 1209.01ZM3382.82 1215.42 3385.42 1217.67 3383.17 1220.27 3380.57 1218.02ZM3393.21 1224.43 3395.8 1226.68 3393.55 1229.28 3390.96 1227.03ZM3403.59 1233.44 3406.19 1235.69 3403.94 1238.29 3401.34 1236.04ZM3413.98 1242.45 3416.58 1244.7 3414.32 1247.3 3411.73 1245.05ZM3424.37 1251.46 3426.96 1253.71 3424.71 1256.31 3422.11 1254.06ZM3434.75 1260.47 3437.35 1262.72 3435.1 1265.32 3432.5 1263.07ZM3445.14 1269.48 3447.74 1271.73 3445.48 1274.33 3442.89 1272.08ZM3455.53 1278.49 3458.12 1280.74 3455.87 1283.34 3453.27 1281.09ZM3465.91 1287.5 3468.51 1289.75 3466.26 1292.35 3463.66 1290.1ZM3476.3 1296.51 3478.9 1298.77 3476.64 1301.36 3474.05 1299.11ZM3486.68 1305.52 3489.28 1307.78 3487.03 1310.37 3484.43 1308.12ZM3497.07 1314.53 3499.67 1316.79 3497.42 1319.38 3494.82 1317.13ZM3507.46 1323.54 3510.05 1325.8 3507.8 1328.39 3505.2 1326.14ZM3517.84 1332.55 3520.44 1334.81 3518.19 1337.4 3515.59 1335.15ZM3528.23 1341.56 3530.83 1343.82 3528.57 1346.41 3525.98 1344.16ZM3538.62 1350.57 3541.21 1352.83 3538.96 1355.42 3536.36 1353.17ZM3549 1359.59 3551.6 1361.84 3549.35 1364.43 3546.75 1362.18ZM3559.39 1368.6 3561.99 1370.85 3559.73 1373.44 3557.14 1371.19ZM3569.78 1377.61 3572.37 1379.86 3570.12 1382.46 3567.52 1380.2ZM3580.16 1386.62 3582.76 1388.87 3580.51 1391.47 3577.91 1389.21ZM3590.55 1395.63 3593.14 1397.88 3590.89 1400.48 3588.3 1398.22ZM3600.93 1404.64 3603.53 1406.89 3601.28 1409.49 3598.68 1407.23ZM3611.32 1413.65 3613.92 1415.9 3611.66 1418.5 3609.07 1416.24ZM3621.71 1422.66 3624.3 1424.91 3622.05 1427.51 3619.45 1425.25ZM3632.09 1431.67 3634.69 1433.92 3632.44 1436.52 3629.84 1434.27ZM3642.48 1440.68 3645.08 1442.93 3642.82 1445.53 3640.23 1443.28ZM3652.87 1449.69 3655.46 1451.94 3653.21 1454.54 3650.61 1452.29ZM3663.25 1458.7 3665.85 1460.95 3663.6 1463.55 3661 1461.3ZM3673.64 1467.71 3676.23 1469.96 3673.98 1472.56 3671.39 1470.31ZM3684.02 1476.72 3686.62 1478.97 3684.37 1481.57 3681.77 1479.32ZM3694.41 1485.73 3697.01 1487.98 3694.75 1490.58 3692.16 1488.33ZM3704.8 1494.74 3707.39 1496.99 3705.14 1499.59 3702.54 1497.34ZM3715.18 1503.75 3717.78 1506 3715.53 1508.6 3712.93 1506.35ZM3725.57 1512.76 3728.17 1515.01 3725.91 1517.61 3723.32 1515.36ZM3735.96 1521.77 3738.55 1524.03 3736.3 1526.62 3733.7 1524.37ZM3746.34 1530.78 3748.94 1533.04 3746.69 1535.63 3744.09 1533.38ZM3756.73 1539.79 3759.33 1542.05 3757.07 1544.64 3754.48 1542.39ZM3767.11 1548.8 3769.71 1551.06 3767.46 1553.65 3764.86 1551.4ZM3777.5 1557.81 3780.1 1560.07 3777.85 1562.66 3775.25 1560.41ZM3787.89 1566.82 3790.48 1569.08 3788.23 1571.67 3785.64 1569.42ZM3798.27 1575.83 3800.87 1578.09 3798.62 1580.68 3796.02 1578.43ZM3808.66 1584.85 3811.26 1587.1 3809 1589.69 3806.41 1587.44ZM3819.05 1593.86 3821.64 1596.11 3819.39 1598.71 3816.79 1596.45ZM3829.43 1602.87 3832.03 1605.12 3829.78 1607.72 3827.18 1605.46ZM3839.82 1611.88 3842.42 1614.13 3840.16 1616.73 3837.57 1614.47ZM3850.21 1620.89 3852.8 1623.14 3850.55 1625.74 3847.95 1623.48ZM3860.59 1629.9 3863.19 1632.15 3860.94 1634.75 3858.34 1632.49ZM3870.98 1638.91 3873.57 1641.16 3871.32 1643.76 3868.73 1641.5ZM3881.36 1647.92 3883.96 1650.17 3881.71 1652.77 3879.11 1650.52ZM3891.75 1656.93 3894.35 1659.18 3892.09 1661.78 3889.5 1659.53ZM3902.14 1665.94 3904.73 1668.19 3902.48 1670.79 3899.88 1668.54ZM3912.52 1674.95 3915.12 1677.2 3912.87 1679.8 3910.27 1677.55ZM3922.91 1683.96 3925.51 1686.21 3923.25 1688.81 3920.66 1686.56ZM3933.3 1692.97 3935.89 1695.22 3933.64 1697.82 3931.04 1695.57ZM3943.68 1701.98 3946.28 1704.23 3944.03 1706.83 3941.43 1704.58ZM3954.07 1710.99 3956.67 1713.24 3954.41 1715.84 3951.82 1713.59ZM3964.45 1720 3967.05 1722.26 3964.8 1724.85 3962.2 1722.6ZM3974.84 1729.01 3977.44 1731.27 3975.19 1733.86 3972.59 1731.61ZM3989.3 1725.63 4001.06 1754.04 3971.28 1746.4Z" fill="#60607D" fill-rule="nonzero" fill-opacity="1"/><path d="M2885.69 738.384 3335.95 1132.11 3297.11 1176.52 2846.85 782.799Z" fill="#FFFFFF" fill-rule="evenodd" fill-opacity="1"/><text fill="#000000" fill-opacity="1" font-family="Calibri,Calibri_MSFontService,sans-serif" font-style="normal" font-variant="normal" font-weight="400" font-stretch="normal" font-size="48" text-anchor="start" direction="ltr" writing-mode="lr-tb" unicode-bidi="normal" text-decoration="none" transform="matrix(0.752789 0.658262 -0.658262 0.752789 2855.41 773)">DIRECTION AND ENABLEMENT</text><path d="M1253 1232.5C1253 1200.74 1278.97 1175 1311 1175 1343.03 1175 1369 1200.74 1369 1232.5 1369 1264.26 1343.03 1290 1311 1290 1278.97 1290 1253 1264.26 1253 1232.5Z" fill="#60607D" fill-rule="evenodd" fill-opacity="1"/><path d="M1311 1240.4C1321.6 1240.4 1330.41 1231.69 1330.41 1221.2 1330.41 1210.57 1321.6 1202 1311 1202 1300.4 1202 1291.74 1210.57 1291.74 1221.2 1291.74 1231.69 1300.4 1240.4 1311 1240.4ZM1311 1207.61C1318.47 1207.61 1324.59 1213.67 1324.59 1221.2 1324.59 1228.59 1318.47 1234.64 1311 1234.64 1303.53 1234.64 1297.41 1228.59 1297.41 1221.2 1297.41 1213.67 1303.53 1207.61 1311 1207.61ZM1319.96 1242.17C1319.06 1241.88 1318.02 1242.17 1317.27 1242.77 1311 1247.93 1311 1247.93 1311 1247.93 1304.73 1242.77 1304.73 1242.77 1304.73 1242.77 1303.98 1242.17 1303.09 1241.88 1302.04 1242.17 1298.01 1243.5 1278 1250.3 1278 1260.19 1278 1261.67 1279.34 1263 1280.84 1263 1341.16 1263 1341.16 1263 1341.16 1263 1342.81 1263 1344 1261.67 1344 1260.19 1344 1250.3 1323.99 1243.5 1319.96 1242.17ZM1285.32 1257.39C1288.45 1253.99 1295.92 1250.3 1302.34 1248.08 1309.21 1253.84 1309.21 1253.84 1309.21 1253.84 1310.25 1254.73 1311.75 1254.73 1312.94 1253.84 1319.66 1248.08 1319.66 1248.08 1319.66 1248.08 1326.08 1250.3 1333.55 1253.99 1336.83 1257.39L1285.32 1257.39Z" fill="#FFFFFF" fill-rule="evenodd" fill-opacity="1"/><path d="M1733 1232.5C1733 1200.74 1758.74 1175 1790.5 1175 1822.26 1175 1848 1200.74 1848 1232.5 1848 1264.26 1822.26 1290 1790.5 1290 1758.74 1290 1733 1264.26 1733 1232.5Z" fill="#60607D" fill-rule="evenodd" fill-opacity="1"/><path d="M1790 1240.4C1800.6 1240.4 1809.41 1231.69 1809.41 1221.2 1809.41 1210.57 1800.6 1202 1790 1202 1779.4 1202 1770.74 1210.57 1770.74 1221.2 1770.74 1231.69 1779.4 1240.4 1790 1240.4ZM1790 1207.61C1797.47 1207.61 1803.59 1213.67 1803.59 1221.2 1803.59 1228.59 1797.47 1234.64 1790 1234.64 1782.53 1234.64 1776.41 1228.59 1776.41 1221.2 1776.41 1213.67 1782.53 1207.61 1790 1207.61ZM1798.96 1242.17C1798.06 1241.88 1797.02 1242.17 1796.27 1242.77 1790 1247.93 1790 1247.93 1790 1247.93 1783.73 1242.77 1783.73 1242.77 1783.73 1242.77 1782.98 1242.17 1782.09 1241.88 1781.04 1242.17 1777.01 1243.5 1757 1250.3 1757 1260.19 1757 1261.67 1758.34 1263 1759.84 1263 1820.16 1263 1820.16 1263 1820.16 1263 1821.81 1263 1823 1261.67 1823 1260.19 1823 1250.3 1802.99 1243.5 1798.96 1242.17ZM1764.32 1257.39C1767.45 1253.99 1774.92 1250.3 1781.34 1248.08 1788.21 1253.84 1788.21 1253.84 1788.21 1253.84 1789.25 1254.73 1790.75 1254.73 1791.94 1253.84 1798.66 1248.08 1798.66 1248.08 1798.66 1248.08 1805.08 1250.3 1812.55 1253.99 1815.83 1257.39L1764.32 1257.39Z" fill="#FFFFFF" fill-rule="evenodd" fill-opacity="1"/><path d="M2889 1226.5C2889 1194.74 2914.97 1169 2947 1169 2979.03 1169 3005 1194.74 3005 1226.5 3005 1258.26 2979.03 1284 2947 1284 2914.97 1284 2889 1258.26 2889 1226.5Z" fill="#CDCDD2" fill-rule="evenodd" fill-opacity="1"/><path d="M2947 1235.03C2957.6 1235.03 2966.41 1226.17 2966.41 1215.52 2966.41 1204.71 2957.6 1196 2947 1196 2936.4 1196 2927.74 1204.71 2927.74 1215.52 2927.74 1226.17 2936.4 1235.03 2947 1235.03ZM2947 1201.7C2954.47 1201.7 2960.59 1207.86 2960.59 1215.52 2960.59 1223.02 2954.47 1229.18 2947 1229.18 2939.53 1229.18 2933.41 1223.02 2933.41 1215.52 2933.41 1207.86 2939.53 1201.7 2947 1201.7ZM2955.96 1236.83C2955.06 1236.53 2954.02 1236.83 2953.27 1237.43 2947 1242.69 2947 1242.69 2947 1242.69 2940.73 1237.43 2940.73 1237.43 2940.73 1237.43 2939.98 1236.83 2939.09 1236.53 2938.04 1236.83 2934.01 1238.18 2914 1245.09 2914 1255.15 2914 1256.65 2915.34 1258 2916.84 1258 2977.16 1258 2977.16 1258 2977.16 1258 2978.81 1258 2980 1256.65 2980 1255.15 2980 1245.09 2959.99 1238.18 2955.96 1236.83ZM2921.32 1252.3C2924.45 1248.84 2931.92 1245.09 2938.34 1242.84 2945.21 1248.69 2945.21 1248.69 2945.21 1248.69 2946.25 1249.59 2947.75 1249.59 2948.94 1248.69 2955.66 1242.84 2955.66 1242.84 2955.66 1242.84 2962.08 1245.09 2969.55 1248.84 2972.83 1252.3L2921.32 1252.3Z" fill="#FFFFFF" fill-rule="evenodd" fill-opacity="1"/><path d="M2555 1226.5C2555 1194.74 2580.97 1169 2613 1169 2645.03 1169 2671 1194.74 2671 1226.5 2671 1258.26 2645.03 1284 2613 1284 2580.97 1284 2555 1258.26 2555 1226.5Z" fill="#9B9BAE" fill-rule="evenodd" fill-opacity="1"/><path d="M2613 1235.03C2623.6 1235.03 2632.41 1226.17 2632.41 1215.52 2632.41 1204.71 2623.6 1196 2613 1196 2602.4 1196 2593.74 1204.71 2593.74 1215.52 2593.74 1226.17 2602.4 1235.03 2613 1235.03ZM2613 1201.7C2620.47 1201.7 2626.59 1207.86 2626.59 1215.52 2626.59 1223.02 2620.47 1229.18 2613 1229.18 2605.53 1229.18 2599.41 1223.02 2599.41 1215.52 2599.41 1207.86 2605.53 1201.7 2613 1201.7ZM2621.96 1236.83C2621.06 1236.53 2620.02 1236.83 2619.27 1237.43 2613 1242.69 2613 1242.69 2613 1242.69 2606.73 1237.43 2606.73 1237.43 2606.73 1237.43 2605.98 1236.83 2605.09 1236.53 2604.04 1236.83 2600.01 1238.18 2580 1245.09 2580 1255.15 2580 1256.65 2581.34 1258 2582.84 1258 2643.16 1258 2643.16 1258 2643.16 1258 2644.81 1258 2646 1256.65 2646 1255.15 2646 1245.09 2625.99 1238.18 2621.96 1236.83ZM2587.32 1252.3C2590.45 1248.84 2597.92 1245.09 2604.34 1242.84 2611.21 1248.69 2611.21 1248.69 2611.21 1248.69 2612.25 1249.59 2613.75 1249.59 2614.94 1248.69 2621.66 1242.84 2621.66 1242.84 2621.66 1242.84 2628.08 1245.09 2635.55 1248.84 2638.83 1252.3L2587.32 1252.3Z" fill="#FFFFFF" fill-rule="evenodd" fill-opacity="1"/><path d="M2258 1226.5C2258 1194.74 2283.97 1169 2316 1169 2348.03 1169 2374 1194.74 2374 1226.5 2374 1258.26 2348.03 1284 2316 1284 2283.97 1284 2258 1258.26 2258 1226.5Z" fill="#9B9BAE" fill-rule="evenodd" fill-opacity="1"/><path d="M2316 1235.03C2326.6 1235.03 2335.41 1226.17 2335.41 1215.52 2335.41 1204.71 2326.6 1196 2316 1196 2305.4 1196 2296.74 1204.71 2296.74 1215.52 2296.74 1226.17 2305.4 1235.03 2316 1235.03ZM2316 1201.7C2323.47 1201.7 2329.59 1207.86 2329.59 1215.52 2329.59 1223.02 2323.47 1229.18 2316 1229.18 2308.53 1229.18 2302.41 1223.02 2302.41 1215.52 2302.41 1207.86 2308.53 1201.7 2316 1201.7ZM2324.96 1236.83C2324.06 1236.53 2323.02 1236.83 2322.27 1237.43 2316 1242.69 2316 1242.69 2316 1242.69 2309.73 1237.43 2309.73 1237.43 2309.73 1237.43 2308.98 1236.83 2308.09 1236.53 2307.04 1236.83 2303.01 1238.18 2283 1245.09 2283 1255.15 2283 1256.65 2284.34 1258 2285.84 1258 2346.16 1258 2346.16 1258 2346.16 1258 2347.81 1258 2349 1256.65 2349 1255.15 2349 1245.09 2328.99 1238.18 2324.96 1236.83ZM2290.32 1252.3C2293.45 1248.84 2300.92 1245.09 2307.34 1242.84 2314.21 1248.69 2314.21 1248.69 2314.21 1248.69 2315.25 1249.59 2316.75 1249.59 2317.94 1248.69 2324.66 1242.84 2324.66 1242.84 2324.66 1242.84 2331.08 1245.09 2338.55 1248.84 2341.83 1252.3L2290.32 1252.3Z" fill="#FFFFFF" fill-rule="evenodd" fill-opacity="1"/><path d="M2279 882.5C2279 850.744 2304.97 825 2337 825 2369.03 825 2395 850.744 2395 882.5 2395 914.257 2369.03 940 2337 940 2304.97 940 2279 914.257 2279 882.5Z" fill="#9B9BAE" fill-rule="evenodd" fill-opacity="1"/><path d="M2337 890.031C2347.6 890.031 2356.41 881.174 2356.41 870.516 2356.41 859.707 2347.6 851 2337 851 2326.4 851 2317.74 859.707 2317.74 870.516 2317.74 881.174 2326.4 890.031 2337 890.031ZM2337 856.705C2344.47 856.705 2350.59 862.86 2350.59 870.516 2350.59 878.022 2344.47 884.177 2337 884.177 2329.53 884.177 2323.41 878.022 2323.41 870.516 2323.41 862.86 2329.53 856.705 2337 856.705ZM2345.96 891.833C2345.06 891.533 2344.02 891.833 2343.27 892.433 2337 897.688 2337 897.688 2337 897.688 2330.73 892.433 2330.73 892.433 2330.73 892.433 2329.98 891.833 2329.09 891.533 2328.04 891.833 2324.01 893.184 2304 900.09 2304 910.148 2304 911.649 2305.34 913 2306.84 913 2367.16 913 2367.16 913 2367.16 913 2368.81 913 2370 911.649 2370 910.148 2370 900.09 2349.99 893.184 2345.96 891.833ZM2311.32 907.295C2314.45 903.843 2321.92 900.09 2328.34 897.838 2335.21 903.693 2335.21 903.693 2335.21 903.693 2336.25 904.593 2337.75 904.593 2338.94 903.693 2345.66 897.838 2345.66 897.838 2345.66 897.838 2352.08 900.09 2359.55 903.843 2362.83 907.295L2311.32 907.295Z" fill="#FFFFFF" fill-rule="evenodd" fill-opacity="1"/><path d="M2394 882.5C2394 850.744 2419.97 825 2452 825 2484.03 825 2510 850.744 2510 882.5 2510 914.257 2484.03 940 2452 940 2419.97 940 2394 914.257 2394 882.5Z" fill="#9B9BAE" fill-rule="evenodd" fill-opacity="1"/><path d="M2452 890.031C2462.6 890.031 2471.41 881.174 2471.41 870.516 2471.41 859.707 2462.6 851 2452 851 2441.4 851 2432.74 859.707 2432.74 870.516 2432.74 881.174 2441.4 890.031 2452 890.031ZM2452 856.705C2459.47 856.705 2465.59 862.86 2465.59 870.516 2465.59 878.022 2459.47 884.177 2452 884.177 2444.53 884.177 2438.41 878.022 2438.41 870.516 2438.41 862.86 2444.53 856.705 2452 856.705ZM2460.96 891.833C2460.06 891.533 2459.02 891.833 2458.27 892.433 2452 897.688 2452 897.688 2452 897.688 2445.73 892.433 2445.73 892.433 2445.73 892.433 2444.98 891.833 2444.09 891.533 2443.04 891.833 2439.01 893.184 2419 900.09 2419 910.148 2419 911.649 2420.34 913 2421.84 913 2482.16 913 2482.16 913 2482.16 913 2483.81 913 2485 911.649 2485 910.148 2485 900.09 2464.99 893.184 2460.96 891.833ZM2426.32 907.295C2429.45 903.843 2436.92 900.09 2443.34 897.838 2450.21 903.693 2450.21 903.693 2450.21 903.693 2451.25 904.593 2452.75 904.593 2453.94 903.693 2460.66 897.838 2460.66 897.838 2460.66 897.838 2467.08 900.09 2474.55 903.843 2477.83 907.295L2426.32 907.295Z" fill="#FFFFFF" fill-rule="evenodd" fill-opacity="1"/><path d="M2509 882.5C2509 850.744 2534.97 825 2567 825 2599.03 825 2625 850.744 2625 882.5 2625 914.257 2599.03 940 2567 940 2534.97 940 2509 914.257 2509 882.5Z" fill="#9B9BAE" fill-rule="evenodd" fill-opacity="1"/><path d="M2567 890.031C2577.6 890.031 2586.41 881.174 2586.41 870.516 2586.41 859.707 2577.6 851 2567 851 2556.4 851 2547.74 859.707 2547.74 870.516 2547.74 881.174 2556.4 890.031 2567 890.031ZM2567 856.705C2574.47 856.705 2580.59 862.86 2580.59 870.516 2580.59 878.022 2574.47 884.177 2567 884.177 2559.53 884.177 2553.41 878.022 2553.41 870.516 2553.41 862.86 2559.53 856.705 2567 856.705ZM2575.96 891.833C2575.06 891.533 2574.02 891.833 2573.27 892.433 2567 897.688 2567 897.688 2567 897.688 2560.73 892.433 2560.73 892.433 2560.73 892.433 2559.98 891.833 2559.09 891.533 2558.04 891.833 2554.01 893.184 2534 900.09 2534 910.148 2534 911.649 2535.34 913 2536.84 913 2597.16 913 2597.16 913 2597.16 913 2598.81 913 2600 911.649 2600 910.148 2600 900.09 2579.99 893.184 2575.96 891.833ZM2541.32 907.295C2544.45 903.843 2551.92 900.09 2558.34 897.838 2565.21 903.693 2565.21 903.693 2565.21 903.693 2566.25 904.593 2567.75 904.593 2568.94 903.693 2575.66 897.838 2575.66 897.838 2575.66 897.838 2582.08 900.09 2589.55 903.843 2592.83 907.295L2541.32 907.295Z" fill="#FFFFFF" fill-rule="evenodd" fill-opacity="1"/><path d="M1565 882.5C1565 850.744 1590.74 825 1622.5 825 1654.26 825 1680 850.744 1680 882.5 1680 914.257 1654.26 940 1622.5 940 1590.74 940 1565 914.257 1565 882.5Z" fill="#60607D" fill-rule="evenodd" fill-opacity="1"/><path d="M1623 890.031C1633.6 890.031 1642.41 881.174 1642.41 870.516 1642.41 859.707 1633.6 851 1623 851 1612.4 851 1603.74 859.707 1603.74 870.516 1603.74 881.174 1612.4 890.031 1623 890.031ZM1623 856.705C1630.47 856.705 1636.59 862.86 1636.59 870.516 1636.59 878.022 1630.47 884.177 1623 884.177 1615.53 884.177 1609.41 878.022 1609.41 870.516 1609.41 862.86 1615.53 856.705 1623 856.705ZM1631.96 891.833C1631.06 891.533 1630.02 891.833 1629.27 892.433 1623 897.688 1623 897.688 1623 897.688 1616.73 892.433 1616.73 892.433 1616.73 892.433 1615.98 891.833 1615.09 891.533 1614.04 891.833 1610.01 893.184 1590 900.09 1590 910.148 1590 911.649 1591.34 913 1592.84 913 1653.16 913 1653.16 913 1653.16 913 1654.81 913 1656 911.649 1656 910.148 1656 900.09 1635.99 893.184 1631.96 891.833ZM1597.32 907.295C1600.45 903.843 1607.92 900.09 1614.34 897.838 1621.21 903.693 1621.21 903.693 1621.21 903.693 1622.25 904.593 1623.75 904.593 1624.94 903.693 1631.66 897.838 1631.66 897.838 1631.66 897.838 1638.08 900.09 1645.55 903.843 1648.83 907.295L1597.32 907.295Z" fill="#FFFFFF" fill-rule="evenodd" fill-opacity="1"/><path d="M1683 882.5C1683 850.744 1708.97 825 1741 825 1773.03 825 1799 850.744 1799 882.5 1799 914.257 1773.03 940 1741 940 1708.97 940 1683 914.257 1683 882.5Z" fill="#60607D" fill-rule="evenodd" fill-opacity="1"/><path d="M1741 890.031C1751.6 890.031 1760.41 881.174 1760.41 870.516 1760.41 859.707 1751.6 851 1741 851 1730.4 851 1721.74 859.707 1721.74 870.516 1721.74 881.174 1730.4 890.031 1741 890.031ZM1741 856.705C1748.47 856.705 1754.59 862.86 1754.59 870.516 1754.59 878.022 1748.47 884.177 1741 884.177 1733.53 884.177 1727.41 878.022 1727.41 870.516 1727.41 862.86 1733.53 856.705 1741 856.705ZM1749.96 891.833C1749.06 891.533 1748.02 891.833 1747.27 892.433 1741 897.688 1741 897.688 1741 897.688 1734.73 892.433 1734.73 892.433 1734.73 892.433 1733.98 891.833 1733.09 891.533 1732.04 891.833 1728.01 893.184 1708 900.09 1708 910.148 1708 911.649 1709.34 913 1710.84 913 1771.16 913 1771.16 913 1771.16 913 1772.81 913 1774 911.649 1774 910.148 1774 900.09 1753.99 893.184 1749.96 891.833ZM1715.32 907.295C1718.45 903.843 1725.92 900.09 1732.34 897.838 1739.21 903.693 1739.21 903.693 1739.21 903.693 1740.25 904.593 1741.75 904.593 1742.94 903.693 1749.66 897.838 1749.66 897.838 1749.66 897.838 1756.08 900.09 1763.55 903.843 1766.83 907.295L1715.32 907.295Z" fill="#FFFFFF" fill-rule="evenodd" fill-opacity="1"/><path d="M1801 882.5C1801 850.744 1826.97 825 1859 825 1891.03 825 1917 850.744 1917 882.5 1917 914.257 1891.03 940 1859 940 1826.97 940 1801 914.257 1801 882.5Z" fill="#60607D" fill-rule="evenodd" fill-opacity="1"/><path d="M1859 890.031C1869.6 890.031 1878.41 881.174 1878.41 870.516 1878.41 859.707 1869.6 851 1859 851 1848.4 851 1839.74 859.707 1839.74 870.516 1839.74 881.174 1848.4 890.031 1859 890.031ZM1859 856.705C1866.47 856.705 1872.59 862.86 1872.59 870.516 1872.59 878.022 1866.47 884.177 1859 884.177 1851.53 884.177 1845.41 878.022 1845.41 870.516 1845.41 862.86 1851.53 856.705 1859 856.705ZM1867.96 891.833C1867.06 891.533 1866.02 891.833 1865.27 892.433 1859 897.688 1859 897.688 1859 897.688 1852.73 892.433 1852.73 892.433 1852.73 892.433 1851.98 891.833 1851.09 891.533 1850.04 891.833 1846.01 893.184 1826 900.09 1826 910.148 1826 911.649 1827.34 913 1828.84 913 1889.16 913 1889.16 913 1889.16 913 1890.81 913 1892 911.649 1892 910.148 1892 900.09 1871.99 893.184 1867.96 891.833ZM1833.32 907.295C1836.45 903.843 1843.92 900.09 1850.34 897.838 1857.21 903.693 1857.21 903.693 1857.21 903.693 1858.25 904.593 1859.75 904.593 1860.94 903.693 1867.66 897.838 1867.66 897.838 1867.66 897.838 1874.08 900.09 1881.55 903.843 1884.83 907.295L1833.32 907.295Z" fill="#FFFFFF" fill-rule="evenodd" fill-opacity="1"/><path d="M1920 882.5C1920 850.744 1945.74 825 1977.5 825 2009.26 825 2035 850.744 2035 882.5 2035 914.257 2009.26 940 1977.5 940 1945.74 940 1920 914.257 1920 882.5Z" fill="#60607D" fill-rule="evenodd" fill-opacity="1"/><path d="M1977 890.031C1987.6 890.031 1996.41 881.174 1996.41 870.516 1996.41 859.707 1987.6 851 1977 851 1966.4 851 1957.74 859.707 1957.74 870.516 1957.74 881.174 1966.4 890.031 1977 890.031ZM1977 856.705C1984.47 856.705 1990.59 862.86 1990.59 870.516 1990.59 878.022 1984.47 884.177 1977 884.177 1969.53 884.177 1963.41 878.022 1963.41 870.516 1963.41 862.86 1969.53 856.705 1977 856.705ZM1985.96 891.833C1985.06 891.533 1984.02 891.833 1983.27 892.433 1977 897.688 1977 897.688 1977 897.688 1970.73 892.433 1970.73 892.433 1970.73 892.433 1969.98 891.833 1969.09 891.533 1968.04 891.833 1964.01 893.184 1944 900.09 1944 910.148 1944 911.649 1945.34 913 1946.84 913 2007.16 913 2007.16 913 2007.16 913 2008.81 913 2010 911.649 2010 910.148 2010 900.09 1989.99 893.184 1985.96 891.833ZM1951.32 907.295C1954.45 903.843 1961.92 900.09 1968.34 897.838 1975.21 903.693 1975.21 903.693 1975.21 903.693 1976.25 904.593 1977.75 904.593 1978.94 903.693 1985.66 897.838 1985.66 897.838 1985.66 897.838 1992.08 900.09 1999.55 903.843 2002.83 907.295L1951.32 907.295Z" fill="#FFFFFF" fill-rule="evenodd" fill-opacity="1"/><path d="M2192 548.5C2192 516.744 2217.97 491 2250 491 2282.03 491 2308 516.744 2308 548.5 2308 580.256 2282.03 606 2250 606 2217.97 606 2192 580.256 2192 548.5Z" fill="#9B9BAE" fill-rule="evenodd" fill-opacity="1"/><path d="M2250 556.402C2260.6 556.402 2269.41 547.688 2269.41 537.201 2269.41 526.567 2260.6 518 2250 518 2239.4 518 2230.74 526.567 2230.74 537.201 2230.74 547.688 2239.4 556.402 2250 556.402ZM2250 523.613C2257.47 523.613 2263.59 529.668 2263.59 537.201 2263.59 544.586 2257.47 550.642 2250 550.642 2242.53 550.642 2236.41 544.586 2236.41 537.201 2236.41 529.668 2242.53 523.613 2250 523.613ZM2258.96 558.174C2258.06 557.879 2257.02 558.174 2256.27 558.765 2250 563.935 2250 563.935 2250 563.935 2243.73 558.765 2243.73 558.765 2243.73 558.765 2242.98 558.174 2242.09 557.879 2241.04 558.174 2237.01 559.504 2217 566.298 2217 576.194 2217 577.671 2218.34 579 2219.84 579 2280.16 579 2280.16 579 2280.16 579 2281.81 579 2283 577.671 2283 576.194 2283 566.298 2262.99 559.504 2258.96 558.174ZM2224.32 573.387C2227.45 569.99 2234.92 566.298 2241.34 564.082 2248.21 569.843 2248.21 569.843 2248.21 569.843 2249.25 570.729 2250.75 570.729 2251.94 569.843 2258.66 564.082 2258.66 564.082 2258.66 564.082 2265.08 566.298 2272.55 569.99 2275.83 573.387L2224.32 573.387Z" fill="#FFFFFF" fill-rule="evenodd" fill-opacity="1"/><path d="M1892 548.5C1892 516.744 1917.97 491 1950 491 1982.03 491 2008 516.744 2008 548.5 2008 580.256 1982.03 606 1950 606 1917.97 606 1892 580.256 1892 548.5Z" fill="#60607D" fill-rule="evenodd" fill-opacity="1"/><path d="M1950 556.402C1960.6 556.402 1969.41 547.688 1969.41 537.201 1969.41 526.567 1960.6 518 1950 518 1939.4 518 1930.74 526.567 1930.74 537.201 1930.74 547.688 1939.4 556.402 1950 556.402ZM1950 523.613C1957.47 523.613 1963.59 529.668 1963.59 537.201 1963.59 544.586 1957.47 550.642 1950 550.642 1942.53 550.642 1936.41 544.586 1936.41 537.201 1936.41 529.668 1942.53 523.613 1950 523.613ZM1958.96 558.174C1958.06 557.879 1957.02 558.174 1956.27 558.765 1950 563.935 1950 563.935 1950 563.935 1943.73 558.765 1943.73 558.765 1943.73 558.765 1942.98 558.174 1942.09 557.879 1941.04 558.174 1937.01 559.504 1917 566.298 1917 576.194 1917 577.671 1918.34 579 1919.84 579 1980.16 579 1980.16 579 1980.16 579 1981.81 579 1983 577.671 1983 576.194 1983 566.298 1962.99 559.504 1958.96 558.174ZM1924.32 573.387C1927.45 569.99 1934.92 566.298 1941.34 564.082 1948.21 569.843 1948.21 569.843 1948.21 569.843 1949.25 570.729 1950.75 570.729 1951.94 569.843 1958.66 564.082 1958.66 564.082 1958.66 564.082 1965.08 566.298 1972.55 569.99 1975.83 573.387L1924.32 573.387Z" fill="#FFFFFF" fill-rule="evenodd" fill-opacity="1"/><text fill="#000000" fill-opacity="1" font-family="Calibri,Calibri_MSFontService,sans-serif" font-style="normal" font-variant="normal" font-weight="400" font-stretch="normal" font-size="41" text-anchor="start" direction="ltr" writing-mode="lr-tb" unicode-bidi="normal" text-decoration="none" transform="matrix(1 0 0 1 436.669 537)">Service Provider<tspan fill="#000000" fill-opacity="1" font-family="Calibri,Calibri_MSFontService,sans-serif" font-style="normal" font-variant="normal" font-weight="400" font-stretch="normal" font-size="41" text-anchor="start" direction="ltr" writing-mode="lr-tb" unicode-bidi="normal" text-decoration="none" x="0" y="155">Customer</tspan><tspan fill="#000000" fill-opacity="1" font-family="Calibri,Calibri_MSFontService,sans-serif" font-style="normal" font-variant="normal" font-weight="400" font-stretch="normal" font-size="41" text-anchor="start" direction="ltr" writing-mode="lr-tb" unicode-bidi="normal" text-decoration="none" x="0" y="309">Third parties</tspan></text><path d="M290 523.5C290 491.744 315.968 466 348 466 380.033 466 406 491.744 406 523.5 406 555.256 380.033 581 348 581 315.968 581 290 555.256 290 523.5Z" fill="#60607D" fill-rule="evenodd" fill-opacity="1"/><path d="M348 531.032C358.602 531.032 367.412 522.174 367.412 511.516 367.412 500.707 358.602 492 348 492 337.398 492 328.737 500.707 328.737 511.516 328.737 522.174 337.398 531.032 348 531.032ZM348 497.705C355.466 497.705 361.588 503.86 361.588 511.516 361.588 519.022 355.466 525.177 348 525.177 340.534 525.177 334.412 519.022 334.412 511.516 334.412 503.86 340.534 497.705 348 497.705ZM356.959 532.833C356.063 532.533 355.018 532.833 354.271 533.433 348 538.688 348 538.688 348 538.688 341.728 533.433 341.728 533.433 341.728 533.433 340.982 532.833 340.086 532.533 339.041 532.833 335.009 534.184 315 541.09 315 551.148 315 552.649 316.344 554 317.837 554 378.163 554 378.163 554 378.163 554 379.805 554 381 552.649 381 551.148 381 541.09 360.991 534.184 356.959 532.833ZM322.317 548.296C325.452 544.843 332.918 541.09 339.339 538.838 346.208 544.693 346.208 544.693 346.208 544.693 347.253 545.593 348.746 545.593 349.941 544.693 356.661 538.838 356.661 538.838 356.661 538.838 363.081 541.09 370.547 544.843 373.832 548.296L322.317 548.296Z" fill="#FFFFFF" fill-rule="evenodd" fill-opacity="1"/><path d="M290 677.5C290 645.744 315.968 620 348 620 380.033 620 406 645.744 406 677.5 406 709.256 380.033 735 348 735 315.968 735 290 709.256 290 677.5Z" fill="#9B9BAE" fill-rule="evenodd" fill-opacity="1"/><path d="M348 685.402C358.602 685.402 367.412 676.688 367.412 666.201 367.412 655.567 358.602 647 348 647 337.398 647 328.737 655.567 328.737 666.201 328.737 676.688 337.398 685.402 348 685.402ZM348 652.613C355.466 652.613 361.588 658.668 361.588 666.201 361.588 673.586 355.466 679.642 348 679.642 340.534 679.642 334.412 673.586 334.412 666.201 334.412 658.668 340.534 652.613 348 652.613ZM356.959 687.174C356.063 686.879 355.018 687.174 354.271 687.765 348 692.935 348 692.935 348 692.935 341.728 687.765 341.728 687.765 341.728 687.765 340.982 687.174 340.086 686.879 339.041 687.174 335.009 688.504 315 695.298 315 705.194 315 706.671 316.344 708 317.837 708 378.163 708 378.163 708 378.163 708 379.805 708 381 706.671 381 705.194 381 695.298 360.991 688.504 356.959 687.174ZM322.317 702.388C325.452 698.99 332.918 695.298 339.339 693.082 346.208 698.843 346.208 698.843 346.208 698.843 347.253 699.729 348.746 699.729 349.941 698.843 356.661 693.082 356.661 693.082 356.661 693.082 363.081 695.298 370.547 698.99 373.832 702.388L322.317 702.388Z" fill="#FFFFFF" fill-rule="evenodd" fill-opacity="1"/><path d="M290 831.5C290 799.744 315.968 774 348 774 380.033 774 406 799.744 406 831.5 406 863.256 380.033 889 348 889 315.968 889 290 863.256 290 831.5Z" fill="#CDCDD2" fill-rule="evenodd" fill-opacity="1"/><path d="M348 839.402C358.602 839.402 367.412 830.688 367.412 820.201 367.412 809.567 358.602 801 348 801 337.398 801 328.737 809.567 328.737 820.201 328.737 830.688 337.398 839.402 348 839.402ZM348 806.613C355.466 806.613 361.588 812.668 361.588 820.201 361.588 827.586 355.466 833.642 348 833.642 340.534 833.642 334.412 827.586 334.412 820.201 334.412 812.668 340.534 806.613 348 806.613ZM356.959 841.174C356.063 840.879 355.018 841.174 354.271 841.765 348 846.935 348 846.935 348 846.935 341.728 841.765 341.728 841.765 341.728 841.765 340.982 841.174 340.086 840.879 339.041 841.174 335.009 842.504 315 849.298 315 859.194 315 860.671 316.344 862 317.837 862 378.163 862 378.163 862 378.163 862 379.805 862 381 860.671 381 859.194 381 849.298 360.991 842.504 356.959 841.174ZM322.317 856.388C325.452 852.99 332.918 849.298 339.339 847.082 346.208 852.843 346.208 852.843 346.208 852.843 347.253 853.729 348.746 853.729 349.941 852.843 356.661 847.082 356.661 847.082 356.661 847.082 363.081 849.298 370.547 852.99 373.832 856.388L322.317 856.388Z" fill="#FFFFFF" fill-rule="evenodd" fill-opacity="1"/><text fill="#000000" fill-opacity="1" font-family="Calibri,Calibri_MSFontService,sans-serif" font-style="normal" font-variant="normal" font-weight="400" font-stretch="normal" font-size="73" text-anchor="start" direction="ltr" writing-mode="lr-tb" unicode-bidi="normal" text-decoration="none" transform="matrix(1 0 0 1 286.842 382)">Governance</text></g></svg>