<svg width="4042" height="1356" xmlns="http://www.w3.org/2000/svg" xmlns:xlink="http://www.w3.org/1999/xlink" overflow="hidden"><defs><clipPath id="clip0"><rect x="165" y="559" width="4042" height="1356"/></clipPath></defs><g clip-path="url(#clip0)" transform="translate(-165 -559)"><path d="M745 758C745 648.648 833.648 560 943 560 1052.35 560 1141 648.648 1141 758 1141 867.352 1052.35 956 943 956 833.648 956 745 867.352 745 758Z" fill="#DEDEE6" fill-rule="evenodd" fill-opacity="1"/><path d="M1290 1122.5C1290 1012.87 1378.65 924 1488 924 1597.35 924 1686 1012.87 1686 1122.5 1686 1232.13 1597.35 1321 1488 1321 1378.65 1321 1290 1232.13 1290 1122.5Z" fill="#BEBECD" fill-rule="evenodd" fill-opacity="1"/><path d="M196.5 1123C196.5 1013.37 285.372 924.5 395 924.5 504.629 924.5 593.5 1013.37 593.5 1123 593.5 1232.63 504.629 1321.5 395 1321.5 285.372 1321.5 196.5 1232.63 196.5 1123Z" stroke="#44445A" stroke-width="4.58333" stroke-linecap="butt" stroke-linejoin="miter" stroke-miterlimit="8" stroke-opacity="1" fill="#48485E" fill-rule="evenodd" fill-opacity="1"/><path d="M394 1716.5C394 1606.87 482.871 1518 592.5 1518 702.128 1518 791 1606.87 791 1716.5 791 1826.13 702.128 1915 592.5 1915 482.871 1915 394 1826.13 394 1716.5Z" fill="#6E6E88" fill-rule="evenodd" fill-opacity="1"/><path d="M1829.5 937.602C1829.5 918.216 1845.22 902.5 1864.6 902.5L2833.4 902.5C2852.78 902.5 2868.5 918.216 2868.5 937.602L2868.5 1728.4C2868.5 1747.78 2852.78 1763.5 2833.4 1763.5L1864.6 1763.5C1845.22 1763.5 1829.5 1747.78 1829.5 1728.4Z" stroke="#9B9BAE" stroke-width="4.58333" stroke-linecap="butt" stroke-linejoin="miter" stroke-miterlimit="8" stroke-dasharray="18.3333 13.75" stroke-opacity="1" fill="#FFFFFF" fill-rule="evenodd" fill-opacity="1"/><path d="M1092 1716.5C1092 1606.87 1180.65 1518 1290 1518 1399.35 1518 1488 1606.87 1488 1716.5 1488 1826.13 1399.35 1915 1290 1915 1180.65 1915 1092 1826.13 1092 1716.5Z" fill="#9D9DB4" fill-rule="evenodd" fill-opacity="1"/><path d="M1890 1295.5C1890 1185.87 1978.87 1097 2088.5 1097 2198.13 1097 2287 1185.87 2287 1295.5 2287 1405.13 2198.13 1494 2088.5 1494 1978.87 1494 1890 1405.13 1890 1295.5Z" fill="#DEDEE6" fill-rule="evenodd" fill-opacity="1"/><path d="M2885.5 937.603C2885.5 918.216 2901.22 902.5 2920.6 902.5L4168.4 902.5C4187.78 902.5 4203.5 918.216 4203.5 937.603L4203.5 1728.4C4203.5 1747.78 4187.78 1763.5 4168.4 1763.5L2920.6 1763.5C2901.22 1763.5 2885.5 1747.78 2885.5 1728.4Z" stroke="#60607D" stroke-width="4.58333" stroke-linecap="butt" stroke-linejoin="miter" stroke-miterlimit="8" stroke-dasharray="18.3333 13.75" stroke-opacity="1" fill="#FFFFFF" fill-rule="evenodd" fill-opacity="1"/><path d="M2368 1295.5C2368 1185.87 2456.65 1097 2566 1097 2675.35 1097 2764 1185.87 2764 1295.5 2764 1405.13 2675.35 1494 2566 1494 2456.65 1494 2368 1405.13 2368 1295.5Z" fill="#BEBECD" fill-rule="evenodd" fill-opacity="1"/><path d="M2953 1295.5C2953 1185.87 3041.65 1097 3151 1097 3260.35 1097 3349 1185.87 3349 1295.5 3349 1405.13 3260.35 1494 3151 1494 3041.65 1494 2953 1405.13 2953 1295.5Z" fill="#9D9DB4" fill-rule="evenodd" fill-opacity="1"/><path d="M3468 1122.5C3468 1012.87 3556.65 924 3666 924 3775.35 924 3864 1012.87 3864 1122.5 3864 1232.13 3775.35 1321 3666 1321 3556.65 1321 3468 1232.13 3468 1122.5Z" fill="#6E6E88" fill-rule="evenodd" fill-opacity="1"/><path d="M3735.5 1553.5C3735.5 1444.15 3824.37 1355.5 3934 1355.5 4043.63 1355.5 4132.5 1444.15 4132.5 1553.5 4132.5 1662.85 4043.63 1751.5 3934 1751.5 3824.37 1751.5 3735.5 1662.85 3735.5 1553.5Z" stroke="#44445A" stroke-width="4.58333" stroke-linecap="butt" stroke-linejoin="miter" stroke-miterlimit="8" stroke-opacity="1" fill="#48485E" fill-rule="evenodd" fill-opacity="1"/><text fill="#000000" fill-opacity="1" font-family="Calibri,Calibri_MSFontService,sans-serif" font-style="normal" font-variant="normal" font-weight="400" font-stretch="normal" font-size="55" text-anchor="start" direction="ltr" writing-mode="lr-tb" unicode-bidi="normal" text-decoration="none" transform="matrix(1 0 0 1 898.678 740)">Test<tspan fill="#000000" fill-opacity="1" font-family="Calibri,Calibri_MSFontService,sans-serif" font-style="normal" font-variant="normal" font-weight="400" font-stretch="normal" font-size="55" text-anchor="start" direction="ltr" writing-mode="lr-tb" unicode-bidi="normal" text-decoration="none" x="-3.62079" y="66">Plan</tspan><tspan fill="#000000" fill-opacity="1" font-family="Calibri,Calibri_MSFontService,sans-serif" font-style="normal" font-variant="normal" font-weight="400" font-stretch="normal" font-size="55" text-anchor="start" direction="ltr" writing-mode="lr-tb" unicode-bidi="normal" text-decoration="none" x="546.858" y="362">Test</tspan><tspan fill="#000000" fill-opacity="1" font-family="Calibri,Calibri_MSFontService,sans-serif" font-style="normal" font-variant="normal" font-weight="400" font-stretch="normal" font-size="55" text-anchor="start" direction="ltr" writing-mode="lr-tb" unicode-bidi="normal" text-decoration="none" x="516.31" y="428">Design</tspan><tspan fill="#FFFFFF" fill-opacity="1" font-family="Calibri,Calibri_MSFontService,sans-serif" font-style="normal" font-variant="normal" font-weight="400" font-stretch="normal" font-size="55" text-anchor="start" direction="ltr" writing-mode="lr-tb" unicode-bidi="normal" text-decoration="none" x="-546.868" y="362">Test</tspan><tspan fill="#FFFFFF" fill-opacity="1" font-family="Calibri,Calibri_MSFontService,sans-serif" font-style="normal" font-variant="normal" font-weight="400" font-stretch="normal" font-size="55" text-anchor="start" direction="ltr" writing-mode="lr-tb" unicode-bidi="normal" text-decoration="none" x="-611.585" y="428">Reporting</tspan><tspan fill="#FFFFFF" fill-opacity="1" font-family="Calibri,Calibri_MSFontService,sans-serif" font-style="normal" font-variant="normal" font-weight="400" font-stretch="normal" font-size="55" text-anchor="start" direction="ltr" writing-mode="lr-tb" unicode-bidi="normal" text-decoration="none" x="-347.152" y="956">Exit</tspan><tspan fill="#FFFFFF" fill-opacity="1" font-family="Calibri,Calibri_MSFontService,sans-serif" font-style="normal" font-variant="normal" font-weight="400" font-stretch="normal" font-size="55" text-anchor="start" direction="ltr" writing-mode="lr-tb" unicode-bidi="normal" text-decoration="none" x="-388.104" y="1022">Criteria</tspan><tspan fill="#000000" fill-opacity="1" font-family="Calibri,Calibri_MSFontService,sans-serif" font-style="normal" font-variant="normal" font-weight="400" font-stretch="normal" font-size="55" text-anchor="start" direction="ltr" writing-mode="lr-tb" unicode-bidi="normal" text-decoration="none" x="347.022" y="956">Test</tspan><tspan fill="#000000" fill-opacity="1" font-family="Calibri,Calibri_MSFontService,sans-serif" font-style="normal" font-variant="normal" font-weight="400" font-stretch="normal" font-size="55" text-anchor="start" direction="ltr" writing-mode="lr-tb" unicode-bidi="normal" text-decoration="none" x="282.534" y="1022">Execution</tspan></text><path d="M1.38609-1.82497 202.938 151.257 200.166 154.906-1.38609 1.82497ZM206.218 139.359 219.802 166.942 189.585 161.259Z" fill="#60607D" fill-rule="nonzero" fill-opacity="1" transform="matrix(1 0 0 -1 535.5 982.442)"/><path d="M1133.89 817.675 1335.44 970.757 1332.67 974.406 1131.11 821.325ZM1338.72 958.859 1352.3 986.442 1322.09 980.759Z" fill="#60607D" fill-rule="nonzero" fill-opacity="1"/><text fill="#000000" fill-opacity="1" font-family="Calibri,Calibri_MSFontService,sans-serif" font-style="normal" font-variant="normal" font-weight="400" font-stretch="normal" font-size="55" text-anchor="start" direction="ltr" writing-mode="lr-tb" unicode-bidi="normal" text-decoration="none" transform="matrix(1 0 0 1 2197.61 854)">Development<tspan fill="#000000" fill-opacity="1" font-family="Calibri,Calibri_MSFontService,sans-serif" font-style="normal" font-variant="normal" font-weight="400" font-stretch="normal" font-size="55" text-anchor="start" direction="ltr" writing-mode="lr-tb" unicode-bidi="normal" text-decoration="none" x="472.156" y="-99">QC activities in project life cycle</tspan><tspan fill="#000000" fill-opacity="1" font-family="Calibri,Calibri_MSFontService,sans-serif" font-style="normal" font-variant="normal" font-weight="400" font-stretch="normal" font-size="55" text-anchor="start" direction="ltr" writing-mode="lr-tb" unicode-bidi="normal" text-decoration="none" x="1226.12" y="0">InternalQC</tspan></text><path d="M0 0 635.717 0.000360892" stroke="#60607D" stroke-width="4.58333" stroke-linecap="butt" stroke-linejoin="miter" stroke-miterlimit="8" stroke-opacity="1" fill="none" fill-rule="evenodd" transform="matrix(-1 0 0 1 4203.22 737.5)"/><path d="M0 0 635.717 0.000360892" stroke="#60607D" stroke-width="4.58333" stroke-linecap="butt" stroke-linejoin="miter" stroke-miterlimit="8" stroke-opacity="1" fill="none" fill-rule="evenodd" transform="matrix(-1 0 0 1 2462.22 737.5)"/><path d="M2.18034-0.705602 64.372 191.469 60.0113 192.88-2.18034 0.705602ZM73.8625 183.58 69.2477 213.978 47.6984 192.047Z" fill="#60607D" fill-rule="nonzero" fill-opacity="1" transform="matrix(-1 0 0 1 1419.75 1315.5)"/><path d="M533.567 1524.18 471.376 1332.01 475.736 1330.6 537.928 1522.77ZM461.885 1339.9 466.5 1309.5 488.049 1331.43Z" fill="#60607D" fill-rule="nonzero" fill-opacity="1"/><path d="M2.82789e-06-2.29167 269.543-2.29133 269.543 2.292-2.82789e-06 2.29167ZM264.96-13.7497 292.46 0.000360892 264.96 13.7503Z" fill="#60607D" fill-rule="nonzero" fill-opacity="1" transform="matrix(-1 0 0 1 1089.96 1716.5)"/><path d="M2286.5 1298.21 2345.34 1298.21 2345.34 1302.79 2286.5 1302.79ZM2340.76 1286.75 2368.26 1300.5 2340.76 1314.25Z" fill="#60607D" fill-rule="nonzero" fill-opacity="1"/><path d="M2764.5 1298.21 2930.2 1298.21 2930.2 1302.79 2764.5 1302.79ZM2925.61 1286.75 2953.11 1300.5 2925.61 1314.25Z" fill="#60607D" fill-rule="nonzero" fill-opacity="1"/><path d="M1.6449-1.59563 105.158 105.114 101.869 108.305-1.6449 1.59563ZM110.192 93.8459 119.47 123.159 90.4528 112.994Z" fill="#60607D" fill-rule="nonzero" fill-opacity="1" transform="matrix(1 0 0 -1 3349.5 1300.66)"/><path d="M3787.35 1280.14 3841.54 1353.97 3837.85 1356.68 3783.65 1282.86ZM3848.07 1343.49 3853.26 1373.79 3825.9 1359.76Z" fill="#60607D" fill-rule="nonzero" fill-opacity="1"/><text fill="#000000" fill-opacity="1" font-family="Calibri,Calibri_MSFontService,sans-serif" font-style="normal" font-variant="normal" font-weight="400" font-stretch="normal" font-size="55" text-anchor="start" direction="ltr" writing-mode="lr-tb" unicode-bidi="normal" text-decoration="none" transform="matrix(1 0 0 1 2045.82 1271)">Test<tspan fill="#000000" fill-opacity="1" font-family="Calibri,Calibri_MSFontService,sans-serif" font-style="normal" font-variant="normal" font-weight="400" font-stretch="normal" font-size="55" text-anchor="start" direction="ltr" writing-mode="lr-tb" unicode-bidi="normal" text-decoration="none" x="-3.62085" y="66">Plan</tspan><tspan fill="#000000" fill-opacity="1" font-family="Calibri,Calibri_MSFontService,sans-serif" font-style="normal" font-variant="normal" font-weight="400" font-stretch="normal" font-size="55" text-anchor="start" direction="ltr" writing-mode="lr-tb" unicode-bidi="normal" text-decoration="none" x="477.714" y="0">Test</tspan><tspan fill="#000000" fill-opacity="1" font-family="Calibri,Calibri_MSFontService,sans-serif" font-style="normal" font-variant="normal" font-weight="400" font-stretch="normal" font-size="55" text-anchor="start" direction="ltr" writing-mode="lr-tb" unicode-bidi="normal" text-decoration="none" x="447.166" y="66">Design</tspan><tspan fill="#000000" fill-opacity="1" font-family="Calibri,Calibri_MSFontService,sans-serif" font-style="normal" font-variant="normal" font-weight="400" font-stretch="normal" font-size="55" text-anchor="start" direction="ltr" writing-mode="lr-tb" unicode-bidi="normal" text-decoration="none" x="1062.29" y="0">Test</tspan><tspan fill="#000000" fill-opacity="1" font-family="Calibri,Calibri_MSFontService,sans-serif" font-style="normal" font-variant="normal" font-weight="400" font-stretch="normal" font-size="55" text-anchor="start" direction="ltr" writing-mode="lr-tb" unicode-bidi="normal" text-decoration="none" x="997.799" y="66">Execution</tspan><tspan fill="#FFFFFF" fill-opacity="1" font-family="Calibri,Calibri_MSFontService,sans-serif" font-style="normal" font-variant="normal" font-weight="400" font-stretch="normal" font-size="55" text-anchor="start" direction="ltr" writing-mode="lr-tb" unicode-bidi="normal" text-decoration="none" x="1578.11" y="-176">Exit </tspan><tspan fill="#FFFFFF" fill-opacity="1" font-family="Calibri,Calibri_MSFontService,sans-serif" font-style="normal" font-variant="normal" font-weight="400" font-stretch="normal" font-size="55" text-anchor="start" direction="ltr" writing-mode="lr-tb" unicode-bidi="normal" text-decoration="none" x="1537.16" y="-110">Criteria</tspan><tspan fill="#FFFFFF" fill-opacity="1" font-family="Calibri,Calibri_MSFontService,sans-serif" font-style="normal" font-variant="normal" font-weight="400" font-stretch="normal" font-size="55" text-anchor="start" direction="ltr" writing-mode="lr-tb" unicode-bidi="normal" text-decoration="none" x="1847.99" y="261">Test</tspan><tspan fill="#FFFFFF" fill-opacity="1" font-family="Calibri,Calibri_MSFontService,sans-serif" font-style="normal" font-variant="normal" font-weight="400" font-stretch="normal" font-size="55" text-anchor="start" direction="ltr" writing-mode="lr-tb" unicode-bidi="normal" text-decoration="none" x="1783.27" y="327">Reporting</tspan></text></g></svg>