<svg width="2283" height="2301" xmlns="http://www.w3.org/2000/svg" xmlns:xlink="http://www.w3.org/1999/xlink" overflow="hidden"><defs><clipPath id="clip0"><rect x="1952" y="77" width="2283" height="2301"/></clipPath></defs><g clip-path="url(#clip0)" transform="translate(-1952 -77)"><path d="M1956.05 406.132 2903.47 406.132 2903.47 513.573 1956.05 513.573Z" fill="#E5E5E8" fill-rule="evenodd" fill-opacity="1"/><path d="M2903.47 406.132 3220.91 406.132 3220.91 513.573 2903.47 513.573Z" fill="#CDCDD2" fill-rule="evenodd" fill-opacity="1"/><path d="M3220.91 406.132 3538.36 406.132 3538.36 513.573 3220.91 513.573Z" fill="#6C6C7A" fill-rule="evenodd" fill-opacity="0.6"/><path d="M3538.36 406.132 3855.8 406.132 3855.8 513.573 3538.36 513.573Z" fill="#60607D" fill-rule="evenodd" fill-opacity="1"/><path d="M3855.8 406.132 4173.25 406.132 4173.25 513.573 3855.8 513.573Z" fill="#36363D" fill-rule="evenodd" fill-opacity="1"/><path d="M1956.05 513.573 2903.47 513.573 2903.47 587.087 1956.05 587.087Z" fill="#F3F3F3" fill-rule="evenodd" fill-opacity="1"/><path d="M2903.47 513.573 3220.91 513.573 3220.91 587.087 2903.47 587.087Z" fill="#F3F3F3" fill-rule="evenodd" fill-opacity="1"/><path d="M3220.91 513.573 3538.36 513.573 3538.36 587.087 3220.91 587.087Z" fill="#F3F3F3" fill-rule="evenodd" fill-opacity="1"/><path d="M3538.36 513.573 3855.8 513.573 3855.8 587.087 3538.36 587.087Z" fill="#F3F3F3" fill-rule="evenodd" fill-opacity="1"/><path d="M3855.8 513.573 4173.25 513.573 4173.25 587.087 3855.8 587.087Z" fill="#F3F3F3" fill-rule="evenodd" fill-opacity="1"/><path d="M1956.05 660.602 2903.47 660.602 2903.47 734.116 1956.05 734.116Z" fill="#F3F3F3" fill-rule="evenodd" fill-opacity="1"/><path d="M2903.47 660.602 3220.91 660.602 3220.91 734.116 2903.47 734.116Z" fill="#F3F3F3" fill-rule="evenodd" fill-opacity="1"/><path d="M3220.91 660.602 3538.36 660.602 3538.36 734.116 3220.91 734.116Z" fill="#F3F3F3" fill-rule="evenodd" fill-opacity="1"/><path d="M3538.36 660.602 3855.8 660.602 3855.8 734.116 3538.36 734.116Z" fill="#F3F3F3" fill-rule="evenodd" fill-opacity="1"/><path d="M3855.8 660.602 4173.25 660.602 4173.25 734.116 3855.8 734.116Z" fill="#F3F3F3" fill-rule="evenodd" fill-opacity="1"/><path d="M1956.05 807.63 2903.47 807.63 2903.47 881.144 1956.05 881.144Z" fill="#F3F3F3" fill-rule="evenodd" fill-opacity="1"/><path d="M2903.47 807.63 3220.91 807.63 3220.91 881.144 2903.47 881.144Z" fill="#F3F3F3" fill-rule="evenodd" fill-opacity="1"/><path d="M3220.91 807.63 3538.36 807.63 3538.36 881.144 3220.91 881.144Z" fill="#F3F3F3" fill-rule="evenodd" fill-opacity="1"/><path d="M3538.36 807.63 3855.8 807.63 3855.8 881.144 3538.36 881.144Z" fill="#F3F3F3" fill-rule="evenodd" fill-opacity="1"/><path d="M3855.8 807.63 4173.25 807.63 4173.25 881.144 3855.8 881.144Z" fill="#F3F3F3" fill-rule="evenodd" fill-opacity="1"/><path d="M1956.05 954.658 2903.47 954.658 2903.47 1028.17 1956.05 1028.17Z" fill="#F3F3F3" fill-rule="evenodd" fill-opacity="1"/><path d="M2903.47 954.658 3220.91 954.658 3220.91 1028.17 2903.47 1028.17Z" fill="#F3F3F3" fill-rule="evenodd" fill-opacity="1"/><path d="M3220.91 954.658 3538.36 954.658 3538.36 1028.17 3220.91 1028.17Z" fill="#F3F3F3" fill-rule="evenodd" fill-opacity="1"/><path d="M3538.36 954.658 3855.8 954.658 3855.8 1028.17 3538.36 1028.17Z" fill="#F3F3F3" fill-rule="evenodd" fill-opacity="1"/><path d="M3855.8 954.658 4173.25 954.658 4173.25 1028.17 3855.8 1028.17Z" fill="#F3F3F3" fill-rule="evenodd" fill-opacity="1"/><path d="M1956.05 1101.69 2903.47 1101.69 2903.47 1175.2 1956.05 1175.2Z" fill="#F3F3F3" fill-rule="evenodd" fill-opacity="1"/><path d="M2903.47 1101.69 3220.91 1101.69 3220.91 1175.2 2903.47 1175.2Z" fill="#F3F3F3" fill-rule="evenodd" fill-opacity="1"/><path d="M3220.91 1101.69 3538.36 1101.69 3538.36 1175.2 3220.91 1175.2Z" fill="#F3F3F3" fill-rule="evenodd" fill-opacity="1"/><path d="M3538.36 1101.69 3855.8 1101.69 3855.8 1175.2 3538.36 1175.2Z" fill="#F3F3F3" fill-rule="evenodd" fill-opacity="1"/><path d="M3855.8 1101.69 4173.25 1101.69 4173.25 1175.2 3855.8 1175.2Z" fill="#F3F3F3" fill-rule="evenodd" fill-opacity="1"/><path d="M1956.05 1248.71 2903.47 1248.71 2903.47 1322.23 1956.05 1322.23Z" fill="#F3F3F3" fill-rule="evenodd" fill-opacity="1"/><path d="M2903.47 1248.71 3220.91 1248.71 3220.91 1322.23 2903.47 1322.23Z" fill="#F3F3F3" fill-rule="evenodd" fill-opacity="1"/><path d="M3220.91 1248.71 3538.36 1248.71 3538.36 1322.23 3220.91 1322.23Z" fill="#F3F3F3" fill-rule="evenodd" fill-opacity="1"/><path d="M3538.36 1248.71 3855.8 1248.71 3855.8 1322.23 3538.36 1322.23Z" fill="#F3F3F3" fill-rule="evenodd" fill-opacity="1"/><path d="M3855.8 1248.71 4173.25 1248.71 4173.25 1322.23 3855.8 1322.23Z" fill="#F3F3F3" fill-rule="evenodd" fill-opacity="1"/><path d="M1956.05 1395.74 2903.47 1395.74 2903.47 1469.26 1956.05 1469.26Z" fill="#F3F3F3" fill-rule="evenodd" fill-opacity="1"/><path d="M2903.47 1395.74 3220.91 1395.74 3220.91 1469.26 2903.47 1469.26Z" fill="#F3F3F3" fill-rule="evenodd" fill-opacity="1"/><path d="M3220.91 1395.74 3538.36 1395.74 3538.36 1469.26 3220.91 1469.26Z" fill="#F3F3F3" fill-rule="evenodd" fill-opacity="1"/><path d="M3538.36 1395.74 3855.8 1395.74 3855.8 1469.26 3538.36 1469.26Z" fill="#F3F3F3" fill-rule="evenodd" fill-opacity="1"/><path d="M3855.8 1395.74 4173.25 1395.74 4173.25 1469.26 3855.8 1469.26Z" fill="#F3F3F3" fill-rule="evenodd" fill-opacity="1"/><path d="M1956.05 1542.77 2903.47 1542.77 2903.47 1616.29 1956.05 1616.29Z" fill="#F3F3F3" fill-rule="evenodd" fill-opacity="1"/><path d="M2903.47 1542.77 3220.91 1542.77 3220.91 1616.29 2903.47 1616.29Z" fill="#F3F3F3" fill-rule="evenodd" fill-opacity="1"/><path d="M3220.91 1542.77 3538.36 1542.77 3538.36 1616.29 3220.91 1616.29Z" fill="#F3F3F3" fill-rule="evenodd" fill-opacity="1"/><path d="M3538.36 1542.77 3855.8 1542.77 3855.8 1616.29 3538.36 1616.29Z" fill="#F3F3F3" fill-rule="evenodd" fill-opacity="1"/><path d="M3855.8 1542.77 4173.25 1542.77 4173.25 1616.29 3855.8 1616.29Z" fill="#F3F3F3" fill-rule="evenodd" fill-opacity="1"/><path d="M1956.05 1689.8 2903.47 1689.8 2903.47 1763.31 1956.05 1763.31Z" fill="#F3F3F3" fill-rule="evenodd" fill-opacity="1"/><path d="M2903.47 1689.8 3220.91 1689.8 3220.91 1763.31 2903.47 1763.31Z" fill="#F3F3F3" fill-rule="evenodd" fill-opacity="1"/><path d="M3220.91 1689.8 3538.36 1689.8 3538.36 1763.31 3220.91 1763.31Z" fill="#F3F3F3" fill-rule="evenodd" fill-opacity="1"/><path d="M3538.36 1689.8 3855.8 1689.8 3855.8 1763.31 3538.36 1763.31Z" fill="#F3F3F3" fill-rule="evenodd" fill-opacity="1"/><path d="M3855.8 1689.8 4173.25 1689.8 4173.25 1763.31 3855.8 1763.31Z" fill="#F3F3F3" fill-rule="evenodd" fill-opacity="1"/><path d="M1956.05 1836.83 2903.47 1836.83 2903.47 1910.34 1956.05 1910.34Z" fill="#F3F3F3" fill-rule="evenodd" fill-opacity="1"/><path d="M2903.47 1836.83 3220.91 1836.83 3220.91 1910.34 2903.47 1910.34Z" fill="#F3F3F3" fill-rule="evenodd" fill-opacity="1"/><path d="M3220.91 1836.83 3538.36 1836.83 3538.36 1910.34 3220.91 1910.34Z" fill="#F3F3F3" fill-rule="evenodd" fill-opacity="1"/><path d="M3538.36 1836.83 3855.8 1836.83 3855.8 1910.34 3538.36 1910.34Z" fill="#F3F3F3" fill-rule="evenodd" fill-opacity="1"/><path d="M3855.8 1836.83 4173.25 1836.83 4173.25 1910.34 3855.8 1910.34Z" fill="#F3F3F3" fill-rule="evenodd" fill-opacity="1"/><path d="M1956.05 1983.86 2903.47 1983.86 2903.47 2057.37 1956.05 2057.37Z" fill="#F3F3F3" fill-rule="evenodd" fill-opacity="1"/><path d="M2903.47 1983.86 3220.91 1983.86 3220.91 2057.37 2903.47 2057.37Z" fill="#F3F3F3" fill-rule="evenodd" fill-opacity="1"/><path d="M3220.91 1983.86 3538.36 1983.86 3538.36 2057.37 3220.91 2057.37Z" fill="#F3F3F3" fill-rule="evenodd" fill-opacity="1"/><path d="M3538.36 1983.86 3855.8 1983.86 3855.8 2057.37 3538.36 2057.37Z" fill="#F3F3F3" fill-rule="evenodd" fill-opacity="1"/><path d="M3855.8 1983.86 4173.25 1983.86 4173.25 2057.37 3855.8 2057.37Z" fill="#F3F3F3" fill-rule="evenodd" fill-opacity="1"/><path d="M1956.05 2130.88 2903.47 2130.88 2903.47 2204.4 1956.05 2204.4Z" fill="#F3F3F3" fill-rule="evenodd" fill-opacity="1"/><path d="M2903.47 2130.88 3220.91 2130.88 3220.91 2204.4 2903.47 2204.4Z" fill="#F3F3F3" fill-rule="evenodd" fill-opacity="1"/><path d="M3220.91 2130.88 3538.36 2130.88 3538.36 2204.4 3220.91 2204.4Z" fill="#F3F3F3" fill-rule="evenodd" fill-opacity="1"/><path d="M3538.36 2130.88 3855.8 2130.88 3855.8 2204.4 3538.36 2204.4Z" fill="#F3F3F3" fill-rule="evenodd" fill-opacity="1"/><path d="M3855.8 2130.88 4173.25 2130.88 4173.25 2204.4 3855.8 2204.4Z" fill="#F3F3F3" fill-rule="evenodd" fill-opacity="1"/><path d="M2903.47 404.414 2903.47 513.573" stroke="#FFFFFF" stroke-width="3.4375" stroke-linecap="butt" stroke-linejoin="round" stroke-miterlimit="10" stroke-opacity="1" fill="none" fill-rule="evenodd"/><path d="M2903.47 513.573 2903.47 2279.63" stroke="#EFEFEF" stroke-width="3.4375" stroke-linecap="butt" stroke-linejoin="round" stroke-miterlimit="10" stroke-opacity="1" fill="none" fill-rule="evenodd"/><path d="M3220.91 404.414 3220.91 513.573" stroke="#FFFFFF" stroke-width="3.4375" stroke-linecap="butt" stroke-linejoin="round" stroke-miterlimit="10" stroke-opacity="1" fill="none" fill-rule="evenodd"/><path d="M3220.91 513.573 3220.91 2279.63" stroke="#EFEFEF" stroke-width="3.4375" stroke-linecap="butt" stroke-linejoin="round" stroke-miterlimit="10" stroke-opacity="1" fill="none" fill-rule="evenodd"/><path d="M3538.36 404.414 3538.36 513.573" stroke="#FFFFFF" stroke-width="3.4375" stroke-linecap="butt" stroke-linejoin="round" stroke-miterlimit="10" stroke-opacity="1" fill="none" fill-rule="evenodd"/><path d="M3538.36 513.573 3538.36 2279.63" stroke="#EFEFEF" stroke-width="3.4375" stroke-linecap="butt" stroke-linejoin="round" stroke-miterlimit="10" stroke-opacity="1" fill="none" fill-rule="evenodd"/><path d="M3855.8 404.414 3855.8 513.573" stroke="#FFFFFF" stroke-width="3.4375" stroke-linecap="butt" stroke-linejoin="round" stroke-miterlimit="10" stroke-opacity="1" fill="none" fill-rule="evenodd"/><path d="M3855.8 513.573 3855.8 2279.63" stroke="#EFEFEF" stroke-width="3.4375" stroke-linecap="butt" stroke-linejoin="round" stroke-miterlimit="10" stroke-opacity="1" fill="none" fill-rule="evenodd"/><path d="M1954.33 513.573 2903.47 513.573" stroke="#D9D9D9" stroke-width="3.4375" stroke-linecap="butt" stroke-linejoin="round" stroke-miterlimit="10" stroke-opacity="0" fill="none" fill-rule="evenodd"/><path d="M2903.47 513.573 4174.97 513.573" stroke="#EFEFEF" stroke-width="3.4375" stroke-linecap="butt" stroke-linejoin="round" stroke-miterlimit="10" stroke-opacity="1" fill="none" fill-rule="evenodd"/><path d="M1954.33 587.087 2903.47 587.087" stroke="#D9D9D9" stroke-width="3.4375" stroke-linecap="butt" stroke-linejoin="round" stroke-miterlimit="10" stroke-opacity="0" fill="none" fill-rule="evenodd"/><path d="M2903.47 587.087 4174.97 587.087" stroke="#EFEFEF" stroke-width="3.4375" stroke-linecap="butt" stroke-linejoin="round" stroke-miterlimit="10" stroke-opacity="1" fill="none" fill-rule="evenodd"/><path d="M1954.33 660.602 2903.47 660.602" stroke="#D9D9D9" stroke-width="3.4375" stroke-linecap="butt" stroke-linejoin="round" stroke-miterlimit="10" stroke-opacity="0" fill="none" fill-rule="evenodd"/><path d="M2903.47 660.602 4174.97 660.602" stroke="#EFEFEF" stroke-width="3.4375" stroke-linecap="butt" stroke-linejoin="round" stroke-miterlimit="10" stroke-opacity="1" fill="none" fill-rule="evenodd"/><path d="M1954.33 734.116 2903.47 734.116" stroke="#D9D9D9" stroke-width="3.4375" stroke-linecap="butt" stroke-linejoin="round" stroke-miterlimit="10" stroke-opacity="0" fill="none" fill-rule="evenodd"/><path d="M2903.47 734.116 4174.97 734.116" stroke="#EFEFEF" stroke-width="3.4375" stroke-linecap="butt" stroke-linejoin="round" stroke-miterlimit="10" stroke-opacity="1" fill="none" fill-rule="evenodd"/><path d="M1954.33 807.63 2903.47 807.63" stroke="#D9D9D9" stroke-width="3.4375" stroke-linecap="butt" stroke-linejoin="round" stroke-miterlimit="10" stroke-opacity="0" fill="none" fill-rule="evenodd"/><path d="M2903.47 807.63 4174.97 807.63" stroke="#EFEFEF" stroke-width="3.4375" stroke-linecap="butt" stroke-linejoin="round" stroke-miterlimit="10" stroke-opacity="1" fill="none" fill-rule="evenodd"/><path d="M1954.33 881.144 2903.47 881.144" stroke="#D9D9D9" stroke-width="3.4375" stroke-linecap="butt" stroke-linejoin="round" stroke-miterlimit="10" stroke-opacity="0" fill="none" fill-rule="evenodd"/><path d="M2903.47 881.144 4174.97 881.144" stroke="#EFEFEF" stroke-width="3.4375" stroke-linecap="butt" stroke-linejoin="round" stroke-miterlimit="10" stroke-opacity="1" fill="none" fill-rule="evenodd"/><path d="M1954.33 954.658 2903.47 954.658" stroke="#D9D9D9" stroke-width="3.4375" stroke-linecap="butt" stroke-linejoin="round" stroke-miterlimit="10" stroke-opacity="0" fill="none" fill-rule="evenodd"/><path d="M2903.47 954.658 4174.97 954.658" stroke="#EFEFEF" stroke-width="3.4375" stroke-linecap="butt" stroke-linejoin="round" stroke-miterlimit="10" stroke-opacity="1" fill="none" fill-rule="evenodd"/><path d="M1954.33 1028.17 2903.47 1028.17" stroke="#D9D9D9" stroke-width="3.4375" stroke-linecap="butt" stroke-linejoin="round" stroke-miterlimit="10" stroke-opacity="0" fill="none" fill-rule="evenodd"/><path d="M2903.47 1028.17 4174.97 1028.17" stroke="#EFEFEF" stroke-width="3.4375" stroke-linecap="butt" stroke-linejoin="round" stroke-miterlimit="10" stroke-opacity="1" fill="none" fill-rule="evenodd"/><path d="M1954.33 1101.69 2903.47 1101.69" stroke="#D9D9D9" stroke-width="3.4375" stroke-linecap="butt" stroke-linejoin="round" stroke-miterlimit="10" stroke-opacity="0" fill="none" fill-rule="evenodd"/><path d="M2903.47 1101.69 4174.97 1101.69" stroke="#EFEFEF" stroke-width="3.4375" stroke-linecap="butt" stroke-linejoin="round" stroke-miterlimit="10" stroke-opacity="1" fill="none" fill-rule="evenodd"/><path d="M1954.33 1175.2 2903.47 1175.2" stroke="#D9D9D9" stroke-width="3.4375" stroke-linecap="butt" stroke-linejoin="round" stroke-miterlimit="10" stroke-opacity="0" fill="none" fill-rule="evenodd"/><path d="M2903.47 1175.2 4174.97 1175.2" stroke="#EFEFEF" stroke-width="3.4375" stroke-linecap="butt" stroke-linejoin="round" stroke-miterlimit="10" stroke-opacity="1" fill="none" fill-rule="evenodd"/><path d="M1954.33 1248.71 2903.47 1248.71" stroke="#D9D9D9" stroke-width="3.4375" stroke-linecap="butt" stroke-linejoin="round" stroke-miterlimit="10" stroke-opacity="0" fill="none" fill-rule="evenodd"/><path d="M2903.47 1248.71 4174.97 1248.71" stroke="#EFEFEF" stroke-width="3.4375" stroke-linecap="butt" stroke-linejoin="round" stroke-miterlimit="10" stroke-opacity="1" fill="none" fill-rule="evenodd"/><path d="M1954.33 1322.23 2903.47 1322.23" stroke="#D9D9D9" stroke-width="3.4375" stroke-linecap="butt" stroke-linejoin="round" stroke-miterlimit="10" stroke-opacity="0" fill="none" fill-rule="evenodd"/><path d="M2903.47 1322.23 4174.97 1322.23" stroke="#EFEFEF" stroke-width="3.4375" stroke-linecap="butt" stroke-linejoin="round" stroke-miterlimit="10" stroke-opacity="1" fill="none" fill-rule="evenodd"/><path d="M1954.33 1395.74 2903.47 1395.74" stroke="#D9D9D9" stroke-width="3.4375" stroke-linecap="butt" stroke-linejoin="round" stroke-miterlimit="10" stroke-opacity="0" fill="none" fill-rule="evenodd"/><path d="M2903.47 1395.74 4174.97 1395.74" stroke="#EFEFEF" stroke-width="3.4375" stroke-linecap="butt" stroke-linejoin="round" stroke-miterlimit="10" stroke-opacity="1" fill="none" fill-rule="evenodd"/><path d="M1954.33 1469.26 2903.47 1469.26" stroke="#D9D9D9" stroke-width="3.4375" stroke-linecap="butt" stroke-linejoin="round" stroke-miterlimit="10" stroke-opacity="0" fill="none" fill-rule="evenodd"/><path d="M2903.47 1469.26 4174.97 1469.26" stroke="#EFEFEF" stroke-width="3.4375" stroke-linecap="butt" stroke-linejoin="round" stroke-miterlimit="10" stroke-opacity="1" fill="none" fill-rule="evenodd"/><path d="M1954.33 1542.77 2903.47 1542.77" stroke="#D9D9D9" stroke-width="3.4375" stroke-linecap="butt" stroke-linejoin="round" stroke-miterlimit="10" stroke-opacity="0" fill="none" fill-rule="evenodd"/><path d="M2903.47 1542.77 4174.97 1542.77" stroke="#EFEFEF" stroke-width="3.4375" stroke-linecap="butt" stroke-linejoin="round" stroke-miterlimit="10" stroke-opacity="1" fill="none" fill-rule="evenodd"/><path d="M1954.33 1616.29 2903.47 1616.29" stroke="#D9D9D9" stroke-width="3.4375" stroke-linecap="butt" stroke-linejoin="round" stroke-miterlimit="10" stroke-opacity="0" fill="none" fill-rule="evenodd"/><path d="M2903.47 1616.29 4174.97 1616.29" stroke="#EFEFEF" stroke-width="3.4375" stroke-linecap="butt" stroke-linejoin="round" stroke-miterlimit="10" stroke-opacity="1" fill="none" fill-rule="evenodd"/><path d="M1954.33 1689.8 2903.47 1689.8" stroke="#D9D9D9" stroke-width="3.4375" stroke-linecap="butt" stroke-linejoin="round" stroke-miterlimit="10" stroke-opacity="0" fill="none" fill-rule="evenodd"/><path d="M2903.47 1689.8 4174.97 1689.8" stroke="#EFEFEF" stroke-width="3.4375" stroke-linecap="butt" stroke-linejoin="round" stroke-miterlimit="10" stroke-opacity="1" fill="none" fill-rule="evenodd"/><path d="M1954.33 1763.31 2903.47 1763.31" stroke="#D9D9D9" stroke-width="3.4375" stroke-linecap="butt" stroke-linejoin="round" stroke-miterlimit="10" stroke-opacity="0" fill="none" fill-rule="evenodd"/><path d="M2903.47 1763.31 4174.97 1763.31" stroke="#EFEFEF" stroke-width="3.4375" stroke-linecap="butt" stroke-linejoin="round" stroke-miterlimit="10" stroke-opacity="1" fill="none" fill-rule="evenodd"/><path d="M1954.33 1836.83 2903.47 1836.83" stroke="#D9D9D9" stroke-width="3.4375" stroke-linecap="butt" stroke-linejoin="round" stroke-miterlimit="10" stroke-opacity="0" fill="none" fill-rule="evenodd"/><path d="M2903.47 1836.83 4174.97 1836.83" stroke="#EFEFEF" stroke-width="3.4375" stroke-linecap="butt" stroke-linejoin="round" stroke-miterlimit="10" stroke-opacity="1" fill="none" fill-rule="evenodd"/><path d="M1954.33 1910.34 2903.47 1910.34" stroke="#D9D9D9" stroke-width="3.4375" stroke-linecap="butt" stroke-linejoin="round" stroke-miterlimit="10" stroke-opacity="0" fill="none" fill-rule="evenodd"/><path d="M2903.47 1910.34 4174.97 1910.34" stroke="#EFEFEF" stroke-width="3.4375" stroke-linecap="butt" stroke-linejoin="round" stroke-miterlimit="10" stroke-opacity="1" fill="none" fill-rule="evenodd"/><path d="M1954.33 1983.86 2903.47 1983.86" stroke="#D9D9D9" stroke-width="3.4375" stroke-linecap="butt" stroke-linejoin="round" stroke-miterlimit="10" stroke-opacity="0" fill="none" fill-rule="evenodd"/><path d="M2903.47 1983.86 4174.97 1983.86" stroke="#EFEFEF" stroke-width="3.4375" stroke-linecap="butt" stroke-linejoin="round" stroke-miterlimit="10" stroke-opacity="1" fill="none" fill-rule="evenodd"/><path d="M1954.33 2057.37 2903.47 2057.37" stroke="#D9D9D9" stroke-width="3.4375" stroke-linecap="butt" stroke-linejoin="round" stroke-miterlimit="10" stroke-opacity="0" fill="none" fill-rule="evenodd"/><path d="M2903.47 2057.37 4174.97 2057.37" stroke="#EFEFEF" stroke-width="3.4375" stroke-linecap="butt" stroke-linejoin="round" stroke-miterlimit="10" stroke-opacity="1" fill="none" fill-rule="evenodd"/><path d="M1954.33 2130.88 2903.47 2130.88" stroke="#D9D9D9" stroke-width="3.4375" stroke-linecap="butt" stroke-linejoin="round" stroke-miterlimit="10" stroke-opacity="0" fill="none" fill-rule="evenodd"/><path d="M2903.47 2130.88 4174.97 2130.88" stroke="#EFEFEF" stroke-width="3.4375" stroke-linecap="butt" stroke-linejoin="round" stroke-miterlimit="10" stroke-opacity="1" fill="none" fill-rule="evenodd"/><path d="M1954.33 2204.4 2903.47 2204.4" stroke="#D9D9D9" stroke-width="3.4375" stroke-linecap="butt" stroke-linejoin="round" stroke-miterlimit="10" stroke-opacity="0" fill="none" fill-rule="evenodd"/><path d="M2903.47 2204.4 4174.97 2204.4" stroke="#EFEFEF" stroke-width="3.4375" stroke-linecap="butt" stroke-linejoin="round" stroke-miterlimit="10" stroke-opacity="1" fill="none" fill-rule="evenodd"/><path d="M1956.05 404.414 1956.05 2279.63" stroke="#D9D9D9" stroke-width="3.4375" stroke-linecap="butt" stroke-linejoin="round" stroke-miterlimit="10" stroke-opacity="0" fill="none" fill-rule="evenodd"/><path d="M4173.25 404.414 4173.25 513.573" stroke="#D9D9D9" stroke-width="3.4375" stroke-linecap="butt" stroke-linejoin="round" stroke-miterlimit="10" stroke-opacity="0" fill="none" fill-rule="evenodd"/><path d="M4173.25 513.573 4173.25 2279.63" stroke="#EFEFEF" stroke-width="3.4375" stroke-linecap="butt" stroke-linejoin="round" stroke-miterlimit="10" stroke-opacity="1" fill="none" fill-rule="evenodd"/><path d="M1954.33 406.132 4174.97 406.132" stroke="#D9D9D9" stroke-width="3.4375" stroke-linecap="butt" stroke-linejoin="round" stroke-miterlimit="10" stroke-opacity="0" fill="none" fill-rule="evenodd"/><path d="M1954.33 2277.91 2903.47 2277.91" stroke="#D9D9D9" stroke-width="3.4375" stroke-linecap="butt" stroke-linejoin="round" stroke-miterlimit="10" stroke-opacity="0" fill="none" fill-rule="evenodd"/><path d="M2903.47 2277.91 4174.97 2277.91" stroke="#EFEFEF" stroke-width="3.4375" stroke-linecap="butt" stroke-linejoin="round" stroke-miterlimit="10" stroke-opacity="1" fill="none" fill-rule="evenodd"/><text fill="#000020" fill-opacity="1" font-family="Calibri,Calibri_MSFontService,sans-serif" font-style="normal" font-variant="normal" font-weight="400" font-stretch="normal" font-size="41" text-anchor="start" direction="ltr" writing-mode="lr-tb" unicode-bidi="normal" text-decoration="none" transform="matrix(1 0 0 1 1992.34 475)">Activity <tspan fill="#000020" fill-opacity="1" font-family="Calibri,Calibri_MSFontService,sans-serif" font-style="normal" font-variant="normal" font-weight="400" font-stretch="normal" font-size="41" text-anchor="start" direction="ltr" writing-mode="lr-tb" unicode-bidi="normal" text-decoration="none" x="969.52" y="0">Responsible</tspan><tspan fill="#FFFFFF" fill-opacity="1" font-family="Calibri,Calibri_MSFontService,sans-serif" font-style="normal" font-variant="normal" font-weight="400" font-stretch="normal" font-size="41" text-anchor="start" direction="ltr" writing-mode="lr-tb" unicode-bidi="normal" text-decoration="none" x="1309.31" y="0">Approver</tspan><tspan fill="#FFFFFF" fill-opacity="1" font-family="Calibri,Calibri_MSFontService,sans-serif" font-style="normal" font-variant="normal" font-weight="400" font-stretch="normal" font-size="41" text-anchor="start" direction="ltr" writing-mode="lr-tb" unicode-bidi="normal" text-decoration="none" x="1621.03" y="0">Consulted</tspan><tspan fill="#FFFFFF" fill-opacity="1" font-family="Calibri,Calibri_MSFontService,sans-serif" font-style="normal" font-variant="normal" font-weight="400" font-stretch="normal" font-size="41" text-anchor="start" direction="ltr" writing-mode="lr-tb" unicode-bidi="normal" text-decoration="none" x="1944.77" y="0">Informed</tspan><tspan fill="#000020" fill-opacity="1" font-family="Calibri,Calibri_MSFontService,sans-serif" font-style="normal" font-variant="normal" font-weight="400" font-stretch="normal" font-size="32" text-anchor="start" direction="ltr" writing-mode="lr-tb" unicode-bidi="normal" text-decoration="none" x="0" y="87">Program and Project Planning </tspan><tspan fill="#000020" fill-opacity="1" font-family="Calibri,Calibri_MSFontService,sans-serif" font-style="normal" font-variant="normal" font-weight="400" font-stretch="normal" font-size="32" text-anchor="start" direction="ltr" writing-mode="lr-tb" unicode-bidi="normal" text-decoration="none" x="0" y="160">Product Decisions and </tspan><tspan fill="#000020" fill-opacity="1" font-family="Calibri,Calibri_MSFontService,sans-serif" font-style="normal" font-variant="normal" font-weight="400" font-stretch="normal" font-size="32" text-anchor="start" direction="ltr" writing-mode="lr-tb" unicode-bidi="normal" text-decoration="none" x="297.344" y="160">Prioritization</tspan><tspan fill="#000020" fill-opacity="1" font-family="Calibri,Calibri_MSFontService,sans-serif" font-style="normal" font-variant="normal" font-weight="400" font-stretch="normal" font-size="32" text-anchor="start" direction="ltr" writing-mode="lr-tb" unicode-bidi="normal" text-decoration="none" x="0" y="234">Managing Non</tspan><tspan fill="#000020" fill-opacity="1" font-family="Calibri,Calibri_MSFontService,sans-serif" font-style="normal" font-variant="normal" font-weight="400" font-stretch="normal" font-size="32" text-anchor="start" direction="ltr" writing-mode="lr-tb" unicode-bidi="normal" text-decoration="none" x="190.781" y="234">-</tspan><tspan fill="#000020" fill-opacity="1" font-family="Calibri,Calibri_MSFontService,sans-serif" font-style="normal" font-variant="normal" font-weight="400" font-stretch="normal" font-size="32" text-anchor="start" direction="ltr" writing-mode="lr-tb" unicode-bidi="normal" text-decoration="none" x="200.521" y="234">Platform</tspan><tspan fill="#000020" fill-opacity="1" font-family="Calibri,Calibri_MSFontService,sans-serif" font-style="normal" font-variant="normal" font-weight="400" font-stretch="normal" font-size="32" text-anchor="start" direction="ltr" writing-mode="lr-tb" unicode-bidi="normal" text-decoration="none" x="322.552" y="234">Dependencies</tspan><tspan fill="#000020" fill-opacity="1" font-family="Calibri,Calibri_MSFontService,sans-serif" font-style="normal" font-variant="normal" font-weight="400" font-stretch="normal" font-size="32" text-anchor="start" direction="ltr" writing-mode="lr-tb" unicode-bidi="normal" text-decoration="none" x="0" y="307">Requirement Definition / Gathering </tspan><tspan fill="#000020" fill-opacity="1" font-family="Calibri,Calibri_MSFontService,sans-serif" font-style="normal" font-variant="normal" font-weight="400" font-stretch="normal" font-size="32" text-anchor="start" direction="ltr" writing-mode="lr-tb" unicode-bidi="normal" text-decoration="none" x="0" y="381">Scope determination /Finalization of Scope </tspan><tspan fill="#000020" fill-opacity="1" font-family="Calibri,Calibri_MSFontService,sans-serif" font-style="normal" font-variant="normal" font-weight="400" font-stretch="normal" font-size="32" text-anchor="start" direction="ltr" writing-mode="lr-tb" unicode-bidi="normal" text-decoration="none" x="0" y="455">Solution finalization</tspan><tspan fill="#000020" fill-opacity="1" font-family="Calibri,Calibri_MSFontService,sans-serif" font-style="normal" font-variant="normal" font-weight="400" font-stretch="normal" font-size="32" text-anchor="start" direction="ltr" writing-mode="lr-tb" unicode-bidi="normal" text-decoration="none" x="0" y="528">Identify the dependencies </tspan><tspan fill="#000020" fill-opacity="1" font-family="Calibri,Calibri_MSFontService,sans-serif" font-style="normal" font-variant="normal" font-weight="400" font-stretch="normal" font-size="32" text-anchor="start" direction="ltr" writing-mode="lr-tb" unicode-bidi="normal" text-decoration="none" x="0" y="602">Technical / Solution Design</tspan><tspan fill="#000020" fill-opacity="1" font-family="Calibri,Calibri_MSFontService,sans-serif" font-style="normal" font-variant="normal" font-weight="400" font-stretch="normal" font-size="32" text-anchor="start" direction="ltr" writing-mode="lr-tb" unicode-bidi="normal" text-decoration="none" x="0" y="675">Creating Branding guidelines</tspan><tspan fill="#000020" fill-opacity="1" font-family="Calibri,Calibri_MSFontService,sans-serif" font-style="normal" font-variant="normal" font-weight="400" font-stretch="normal" font-size="32" text-anchor="start" direction="ltr" writing-mode="lr-tb" unicode-bidi="normal" text-decoration="none" x="0" y="749">Visual Designs</tspan><tspan fill="#000020" fill-opacity="1" font-family="Calibri,Calibri_MSFontService,sans-serif" font-style="normal" font-variant="normal" font-weight="400" font-stretch="normal" font-size="32" text-anchor="start" direction="ltr" writing-mode="lr-tb" unicode-bidi="normal" text-decoration="none" x="0" y="822">UX Designs</tspan><tspan fill="#000020" fill-opacity="1" font-family="Calibri,Calibri_MSFontService,sans-serif" font-style="normal" font-variant="normal" font-weight="400" font-stretch="normal" font-size="32" text-anchor="start" direction="ltr" writing-mode="lr-tb" unicode-bidi="normal" text-decoration="none" x="0" y="896">Wireframes</tspan><tspan fill="#000020" fill-opacity="1" font-family="Calibri,Calibri_MSFontService,sans-serif" font-style="normal" font-variant="normal" font-weight="400" font-stretch="normal" font-size="32" text-anchor="start" direction="ltr" writing-mode="lr-tb" unicode-bidi="normal" text-decoration="none" x="0" y="969">Story Grooming </tspan><tspan fill="#000020" fill-opacity="1" font-family="Calibri,Calibri_MSFontService,sans-serif" font-style="normal" font-variant="normal" font-weight="400" font-stretch="normal" font-size="32" text-anchor="start" direction="ltr" writing-mode="lr-tb" unicode-bidi="normal" text-decoration="none" x="0" y="1043">Sprint Release Planning</tspan><tspan fill="#000020" fill-opacity="1" font-family="Calibri,Calibri_MSFontService,sans-serif" font-style="normal" font-variant="normal" font-weight="400" font-stretch="normal" font-size="32" text-anchor="start" direction="ltr" writing-mode="lr-tb" unicode-bidi="normal" text-decoration="none" x="0" y="1116">Code, Code Review and Unit Test</tspan><tspan fill="#000020" fill-opacity="1" font-family="Calibri,Calibri_MSFontService,sans-serif" font-style="normal" font-variant="normal" font-weight="400" font-stretch="normal" font-size="32" text-anchor="start" direction="ltr" writing-mode="lr-tb" unicode-bidi="normal" text-decoration="none" x="0" y="1190">Functional Testing </tspan><tspan fill="#000020" fill-opacity="1" font-family="Calibri,Calibri_MSFontService,sans-serif" font-style="normal" font-variant="normal" font-weight="400" font-stretch="normal" font-size="32" text-anchor="start" direction="ltr" writing-mode="lr-tb" unicode-bidi="normal" text-decoration="none" x="0" y="1263">Test Data Creation</tspan><tspan fill="#000020" fill-opacity="1" font-family="Calibri,Calibri_MSFontService,sans-serif" font-style="normal" font-variant="normal" font-weight="400" font-stretch="normal" font-size="32" text-anchor="start" direction="ltr" writing-mode="lr-tb" unicode-bidi="normal" text-decoration="none" x="0" y="1337">Test Payment Accounts / Credit Cards</tspan><tspan fill="#000020" fill-opacity="1" font-family="Calibri,Calibri_MSFontService,sans-serif" font-style="normal" font-variant="normal" font-weight="400" font-stretch="normal" font-size="32" text-anchor="start" direction="ltr" writing-mode="lr-tb" unicode-bidi="normal" text-decoration="none" x="0" y="1410">System Integration Testing </tspan><tspan fill="#000020" fill-opacity="1" font-family="Calibri,Calibri_MSFontService,sans-serif" font-style="normal" font-variant="normal" font-weight="400" font-stretch="normal" font-size="32" text-anchor="start" direction="ltr" writing-mode="lr-tb" unicode-bidi="normal" text-decoration="none" x="0" y="1484">Change Request Process  </tspan><tspan fill="#000020" fill-opacity="1" font-family="Calibri,Calibri_MSFontService,sans-serif" font-style="normal" font-variant="normal" font-weight="400" font-stretch="normal" font-size="32" text-anchor="start" direction="ltr" writing-mode="lr-tb" unicode-bidi="normal" text-decoration="none" x="0" y="1557">Security/Penetration Testing and Logging Defects in Jira</tspan><tspan fill="#000020" fill-opacity="1" font-family="Calibri,Calibri_MSFontService,sans-serif" font-style="normal" font-variant="normal" font-weight="400" font-stretch="normal" font-size="32" text-anchor="start" direction="ltr" writing-mode="lr-tb" unicode-bidi="normal" text-decoration="none" x="0" y="1631">Security/Penetration Testing </tspan><tspan fill="#000020" fill-opacity="1" font-family="Calibri,Calibri_MSFontService,sans-serif" font-style="normal" font-variant="normal" font-weight="400" font-stretch="normal" font-size="32" text-anchor="start" direction="ltr" writing-mode="lr-tb" unicode-bidi="normal" text-decoration="none" x="382.135" y="1631">-</tspan><tspan fill="#000020" fill-opacity="1" font-family="Calibri,Calibri_MSFontService,sans-serif" font-style="normal" font-variant="normal" font-weight="400" font-stretch="normal" font-size="32" text-anchor="start" direction="ltr" writing-mode="lr-tb" unicode-bidi="normal" text-decoration="none" x="399.323" y="1631">Bug Fixing</tspan><tspan fill="#000020" fill-opacity="1" font-family="Calibri,Calibri_MSFontService,sans-serif" font-style="normal" font-variant="normal" font-weight="400" font-stretch="normal" font-size="32" text-anchor="start" direction="ltr" writing-mode="lr-tb" unicode-bidi="normal" text-decoration="none" x="0" y="1704">Performance Testing and Logging Defects in Jira</tspan><tspan fill="#000020" fill-opacity="1" font-family="Calibri,Calibri_MSFontService,sans-serif" font-style="normal" font-variant="normal" font-weight="400" font-stretch="normal" font-size="32" text-anchor="start" direction="ltr" writing-mode="lr-tb" unicode-bidi="normal" text-decoration="none" x="0" y="1778">Performance Testing </tspan><tspan fill="#000020" fill-opacity="1" font-family="Calibri,Calibri_MSFontService,sans-serif" font-style="normal" font-variant="normal" font-weight="400" font-stretch="normal" font-size="32" text-anchor="start" direction="ltr" writing-mode="lr-tb" unicode-bidi="normal" text-decoration="none" x="279.01" y="1778">-</tspan><tspan fill="#000020" fill-opacity="1" font-family="Calibri,Calibri_MSFontService,sans-serif" font-style="normal" font-variant="normal" font-weight="400" font-stretch="normal" font-size="32" text-anchor="start" direction="ltr" writing-mode="lr-tb" unicode-bidi="normal" text-decoration="none" x="296.198" y="1778">Bug Fixing</tspan></text><path d="M3047 550C3047 538.954 3055.73 530 3066.5 530 3077.27 530 3086 538.954 3086 550 3086 561.046 3077.27 570 3066.5 570 3055.73 570 3047 561.046 3047 550Z" fill="#9B9BAE" fill-rule="evenodd" fill-opacity="1"/><path d="M3047 772C3047 760.954 3055.73 752 3066.5 752 3077.27 752 3086 760.954 3086 772 3086 783.046 3077.27 792 3066.5 792 3055.73 792 3047 783.046 3047 772Z" fill="#9B9BAE" fill-rule="evenodd" fill-opacity="1"/><path d="M3047 846C3047 834.954 3055.73 826 3066.5 826 3077.27 826 3086 834.954 3086 846 3086 857.046 3077.27 866 3066.5 866 3055.73 866 3047 857.046 3047 846Z" fill="#9B9BAE" fill-rule="evenodd" fill-opacity="1"/><path d="M3047 919C3047 907.954 3055.73 899 3066.5 899 3077.27 899 3086 907.954 3086 919 3086 930.046 3077.27 939 3066.5 939 3055.73 939 3047 930.046 3047 919Z" fill="#9B9BAE" fill-rule="evenodd" fill-opacity="1"/><path d="M3047 992C3047 980.954 3055.73 972 3066.5 972 3077.27 972 3086 980.954 3086 992 3086 1003.05 3077.27 1012 3066.5 1012 3055.73 1012 3047 1003.05 3047 992Z" fill="#9B9BAE" fill-rule="evenodd" fill-opacity="1"/><path d="M3047 1070C3047 1058.95 3055.73 1050 3066.5 1050 3077.27 1050 3086 1058.95 3086 1070 3086 1081.05 3077.27 1090 3066.5 1090 3055.73 1090 3047 1081.05 3047 1070Z" fill="#9B9BAE" fill-rule="evenodd" fill-opacity="1"/><path d="M3047 1436C3047 1424.95 3055.73 1416 3066.5 1416 3077.27 1416 3086 1424.95 3086 1436 3086 1447.05 3077.27 1456 3066.5 1456 3055.73 1456 3047 1447.05 3047 1436Z" fill="#9B9BAE" fill-rule="evenodd" fill-opacity="1"/><path d="M3047 1506.5C3047 1495.73 3055.73 1487 3066.5 1487 3077.27 1487 3086 1495.73 3086 1506.5 3086 1517.27 3077.27 1526 3066.5 1526 3055.73 1526 3047 1517.27 3047 1506.5Z" fill="#9B9BAE" fill-rule="evenodd" fill-opacity="1"/><path d="M3047 1577C3047 1565.95 3055.73 1557 3066.5 1557 3077.27 1557 3086 1565.95 3086 1577 3086 1588.05 3077.27 1597 3066.5 1597 3055.73 1597 3047 1588.05 3047 1577Z" fill="#9B9BAE" fill-rule="evenodd" fill-opacity="1"/><path d="M3047 1656.5C3047 1645.73 3055.73 1637 3066.5 1637 3077.27 1637 3086 1645.73 3086 1656.5 3086 1667.27 3077.27 1676 3066.5 1676 3055.73 1676 3047 1667.27 3047 1656.5Z" fill="#9B9BAE" fill-rule="evenodd" fill-opacity="1"/><path d="M3047 1880C3047 1868.95 3055.73 1860 3066.5 1860 3077.27 1860 3086 1868.95 3086 1880 3086 1891.05 3077.27 1900 3066.5 1900 3055.73 1900 3047 1891.05 3047 1880Z" fill="#9B9BAE" fill-rule="evenodd" fill-opacity="1"/><path d="M3047 1949C3047 1937.95 3055.73 1929 3066.5 1929 3077.27 1929 3086 1937.95 3086 1949 3086 1960.05 3077.27 1969 3066.5 1969 3055.73 1969 3047 1960.05 3047 1949Z" fill="#9B9BAE" fill-rule="evenodd" fill-opacity="1"/><path d="M3047 2097C3047 2085.95 3055.73 2077 3066.5 2077 3077.27 2077 3086 2085.95 3086 2097 3086 2108.05 3077.27 2117 3066.5 2117 3055.73 2117 3047 2108.05 3047 2097Z" fill="#9B9BAE" fill-rule="evenodd" fill-opacity="1"/><path d="M3047 2244C3047 2232.95 3055.73 2224 3066.5 2224 3077.27 2224 3086 2232.95 3086 2244 3086 2255.05 3077.27 2264 3066.5 2264 3055.73 2264 3047 2255.05 3047 2244Z" fill="#9B9BAE" fill-rule="evenodd" fill-opacity="1"/><path d="M3047 2172C3047 2160.95 3055.73 2152 3066.5 2152 3077.27 2152 3086 2160.95 3086 2172 3086 2183.05 3077.27 2192 3066.5 2192 3055.73 2192 3047 2183.05 3047 2172Z" fill="#36363D" fill-rule="evenodd" fill-opacity="1"/><path d="M3047 2021C3047 2009.95 3055.73 2001 3066.5 2001 3077.27 2001 3086 2009.95 3086 2021 3086 2032.05 3077.27 2041 3066.5 2041 3055.73 2041 3047 2032.05 3047 2021Z" fill="#36363D" fill-rule="evenodd" fill-opacity="1"/><path d="M3047 1808.5C3047 1797.73 3055.73 1789 3066.5 1789 3077.27 1789 3086 1797.73 3086 1808.5 3086 1819.27 3077.27 1828 3066.5 1828 3055.73 1828 3047 1819.27 3047 1808.5Z" fill="#36363D" fill-rule="evenodd" fill-opacity="1"/><path d="M3047 1732.5C3047 1721.73 3055.73 1713 3066.5 1713 3077.27 1713 3086 1721.73 3086 1732.5 3086 1743.27 3077.27 1752 3066.5 1752 3055.73 1752 3047 1743.27 3047 1732.5Z" fill="#36363D" fill-rule="evenodd" fill-opacity="1"/><path d="M3047 1360C3047 1348.95 3055.73 1340 3066.5 1340 3077.27 1340 3086 1348.95 3086 1360 3086 1371.05 3077.27 1380 3066.5 1380 3055.73 1380 3047 1371.05 3047 1360Z" fill="#36363D" fill-rule="evenodd" fill-opacity="1"/><path d="M3047 1285.5C3047 1274.73 3055.73 1266 3066.5 1266 3077.27 1266 3086 1274.73 3086 1285.5 3086 1296.27 3077.27 1305 3066.5 1305 3055.73 1305 3047 1296.27 3047 1285.5Z" fill="#36363D" fill-rule="evenodd" fill-opacity="1"/><path d="M3047 1214C3047 1202.95 3055.73 1194 3066.5 1194 3077.27 1194 3086 1202.95 3086 1214 3086 1225.05 3077.27 1234 3066.5 1234 3055.73 1234 3047 1225.05 3047 1214Z" fill="#36363D" fill-rule="evenodd" fill-opacity="1"/><path d="M3047 1140.5C3047 1129.73 3055.73 1121 3066.5 1121 3077.27 1121 3086 1129.73 3086 1140.5 3086 1151.27 3077.27 1160 3066.5 1160 3055.73 1160 3047 1151.27 3047 1140.5Z" fill="#36363D" fill-rule="evenodd" fill-opacity="1"/><path d="M3047 699.5C3047 688.73 3055.73 680 3066.5 680 3077.27 680 3086 688.73 3086 699.5 3086 710.27 3077.27 719 3066.5 719 3055.73 719 3047 710.27 3047 699.5Z" fill="#000000" fill-rule="evenodd" fill-opacity="1"/><path d="M3047 627C3047 615.954 3055.73 607 3066.5 607 3077.27 607 3086 615.954 3086 627 3086 638.046 3077.27 647 3066.5 647 3055.73 647 3047 638.046 3047 627Z" fill="#000000" fill-rule="evenodd" fill-opacity="1"/><path d="M3367 847C3367 835.954 3375.73 827 3386.5 827 3397.27 827 3406 835.954 3406 847 3406 858.046 3397.27 867 3386.5 867 3375.73 867 3367 858.046 3367 847Z" fill="#36363D" fill-rule="evenodd" fill-opacity="1"/><path d="M3367 917.5C3367 906.73 3375.73 898 3386.5 898 3397.27 898 3406 906.73 3406 917.5 3406 928.27 3397.27 937 3386.5 937 3375.73 937 3367 928.27 3367 917.5Z" fill="#36363D" fill-rule="evenodd" fill-opacity="1"/><path d="M3367 1066C3367 1054.95 3375.73 1046 3386.5 1046 3397.27 1046 3406 1054.95 3406 1066 3406 1077.05 3397.27 1086 3386.5 1086 3375.73 1086 3367 1077.05 3367 1066Z" fill="#36363D" fill-rule="evenodd" fill-opacity="1"/><path d="M3367 1437C3367 1425.95 3375.73 1417 3386.5 1417 3397.27 1417 3406 1425.95 3406 1437 3406 1448.05 3397.27 1457 3386.5 1457 3375.73 1457 3367 1448.05 3367 1437Z" fill="#36363D" fill-rule="evenodd" fill-opacity="1"/><path d="M3367 1508C3367 1496.95 3375.73 1488 3386.5 1488 3397.27 1488 3406 1496.95 3406 1508 3406 1519.05 3397.27 1528 3386.5 1528 3375.73 1528 3367 1519.05 3367 1508Z" fill="#36363D" fill-rule="evenodd" fill-opacity="1"/><path d="M3367 1947C3367 1935.95 3375.73 1927 3386.5 1927 3397.27 1927 3406 1935.95 3406 1947 3406 1958.05 3397.27 1967 3386.5 1967 3375.73 1967 3367 1958.05 3367 1947Z" fill="#36363D" fill-rule="evenodd" fill-opacity="1"/><path d="M3682 549C3682 537.954 3690.95 529 3702 529 3713.05 529 3722 537.954 3722 549 3722 560.046 3713.05 569 3702 569 3690.95 569 3682 560.046 3682 549Z" fill="#36363D" fill-rule="evenodd" fill-opacity="1"/><path d="M3682 624.5C3682 613.73 3690.95 605 3702 605 3713.05 605 3722 613.73 3722 624.5 3722 635.269 3713.05 644 3702 644 3690.95 644 3682 635.269 3682 624.5Z" fill="#9B9BAE" fill-rule="evenodd" fill-opacity="1"/><path d="M3682 774C3682 762.954 3690.95 754 3702 754 3713.05 754 3722 762.954 3722 774 3722 785.046 3713.05 794 3702 794 3690.95 794 3682 785.046 3682 774Z" fill="#36363D" fill-rule="evenodd" fill-opacity="1"/><path d="M3682 991C3682 979.954 3690.95 971 3702 971 3713.05 971 3722 979.954 3722 991 3722 1002.05 3713.05 1011 3702 1011 3690.95 1011 3682 1002.05 3682 991Z" fill="#36363D" fill-rule="evenodd" fill-opacity="1"/><path d="M3682 1437C3682 1425.95 3690.95 1417 3702 1417 3713.05 1417 3722 1425.95 3722 1437 3722 1448.05 3713.05 1457 3702 1457 3690.95 1457 3682 1448.05 3682 1437Z" fill="#36363D" fill-rule="evenodd" fill-opacity="1"/><path d="M3682 1875C3682 1863.95 3690.95 1855 3702 1855 3713.05 1855 3722 1863.95 3722 1875 3722 1886.05 3713.05 1895 3702 1895 3690.95 1895 3682 1886.05 3682 1875Z" fill="#36363D" fill-rule="evenodd" fill-opacity="1"/><path d="M4003 549C4003 537.954 4011.95 529 4023 529 4034.05 529 4043 537.954 4043 549 4043 560.046 4034.05 569 4023 569 4011.95 569 4003 560.046 4003 549Z" fill="#36363D" fill-rule="evenodd" fill-opacity="1"/><path d="M4003 624.5C4003 613.73 4011.95 605 4023 605 4034.05 605 4043 613.73 4043 624.5 4043 635.269 4034.05 644 4023 644 4011.95 644 4003 635.269 4003 624.5Z" fill="#9B9BAE" fill-rule="evenodd" fill-opacity="1"/><path d="M4003 1139C4003 1127.95 4011.95 1119 4023 1119 4034.05 1119 4043 1127.95 4043 1139 4043 1150.05 4034.05 1159 4023 1159 4011.95 1159 4003 1150.05 4003 1139Z" fill="#9B9BAE" fill-rule="evenodd" fill-opacity="1"/><path d="M4003 1212C4003 1200.95 4011.95 1192 4023 1192 4034.05 1192 4043 1200.95 4043 1212 4043 1223.05 4034.05 1232 4023 1232 4011.95 1232 4003 1223.05 4003 1212Z" fill="#9B9BAE" fill-rule="evenodd" fill-opacity="1"/><path d="M4003 1287C4003 1275.95 4011.95 1267 4023 1267 4034.05 1267 4043 1275.95 4043 1287 4043 1298.05 4034.05 1307 4023 1307 4011.95 1307 4003 1298.05 4003 1287Z" fill="#9B9BAE" fill-rule="evenodd" fill-opacity="1"/><path d="M4003 1360C4003 1348.95 4011.95 1340 4023 1340 4034.05 1340 4043 1348.95 4043 1360 4043 1371.05 4034.05 1380 4023 1380 4011.95 1380 4003 1371.05 4003 1360Z" fill="#9B9BAE" fill-rule="evenodd" fill-opacity="1"/><path d="M4003 1726C4003 1714.95 4011.95 1706 4023 1706 4034.05 1706 4043 1714.95 4043 1726 4043 1737.05 4034.05 1746 4023 1746 4011.95 1746 4003 1737.05 4003 1726Z" fill="#9B9BAE" fill-rule="evenodd" fill-opacity="1"/><path d="M4003 1802C4003 1790.95 4011.95 1782 4023 1782 4034.05 1782 4043 1790.95 4043 1802 4043 1813.05 4034.05 1822 4023 1822 4011.95 1822 4003 1813.05 4003 1802Z" fill="#9B9BAE" fill-rule="evenodd" fill-opacity="1"/><path d="M4003 1653.5C4003 1642.73 4011.95 1634 4023 1634 4034.05 1634 4043 1642.73 4043 1653.5 4043 1664.27 4034.05 1673 4023 1673 4011.95 1673 4003 1664.27 4003 1653.5Z" fill="#36363D" fill-rule="evenodd" fill-opacity="1"/><path d="M4003 2020C4003 2008.95 4011.95 2000 4023 2000 4034.05 2000 4043 2008.95 4043 2020 4043 2031.05 4034.05 2040 4023 2040 4011.95 2040 4003 2031.05 4003 2020Z" fill="#36363D" fill-rule="evenodd" fill-opacity="1"/><path d="M4003 2168C4003 2156.95 4011.95 2148 4023 2148 4034.05 2148 4043 2156.95 4043 2168 4043 2179.05 4034.05 2188 4023 2188 4011.95 2188 4003 2179.05 4003 2168Z" fill="#36363D" fill-rule="evenodd" fill-opacity="1"/><text fill="#000000" fill-opacity="1" font-family="Calibri,Calibri_MSFontService,sans-serif" font-style="normal" font-variant="normal" font-weight="700" font-stretch="normal" font-size="46" text-anchor="start" direction="ltr" writing-mode="lr-tb" unicode-bidi="normal" text-decoration="none" transform="matrix(1 0 0 1 3754.8 138)">RASI Framework<tspan fill="#000000" fill-opacity="1" font-family="Calibri,Calibri_MSFontService,sans-serif" font-style="normal" font-variant="normal" font-weight="700" font-stretch="normal" font-size="46" text-anchor="start" direction="ltr" writing-mode="lr-tb" unicode-bidi="normal" text-decoration="none" x="0" y="55">R</tspan><tspan fill="#60607D" fill-opacity="1" font-family="Calibri,Calibri_MSFontService,sans-serif" font-style="normal" font-variant="normal" font-weight="400" font-stretch="normal" font-size="46" text-anchor="start" direction="ltr" writing-mode="lr-tb" unicode-bidi="normal" text-decoration="none" x="25.7813" y="55">esponsible</tspan><tspan fill="#000000" fill-opacity="1" font-family="Calibri,Calibri_MSFontService,sans-serif" font-style="normal" font-variant="normal" font-weight="700" font-stretch="normal" font-size="46" text-anchor="start" direction="ltr" writing-mode="lr-tb" unicode-bidi="normal" text-decoration="none" x="0" y="110">A</tspan><tspan fill="#60607D" fill-opacity="1" font-family="Calibri,Calibri_MSFontService,sans-serif" font-style="normal" font-variant="normal" font-weight="400" font-stretch="normal" font-size="46" text-anchor="start" direction="ltr" writing-mode="lr-tb" unicode-bidi="normal" text-decoration="none" x="27.5" y="110">pprover </tspan><tspan fill="#000000" fill-opacity="1" font-family="Calibri,Calibri_MSFontService,sans-serif" font-style="normal" font-variant="normal" font-weight="700" font-stretch="normal" font-size="46" text-anchor="start" direction="ltr" writing-mode="lr-tb" unicode-bidi="normal" text-decoration="none" x="0" y="165">C</tspan><tspan fill="#60607D" fill-opacity="1" font-family="Calibri,Calibri_MSFontService,sans-serif" font-style="normal" font-variant="normal" font-weight="400" font-stretch="normal" font-size="46" text-anchor="start" direction="ltr" writing-mode="lr-tb" unicode-bidi="normal" text-decoration="none" x="24.0625" y="165">onsulted</tspan><tspan fill="#000000" fill-opacity="1" font-family="Calibri,Calibri_MSFontService,sans-serif" font-style="normal" font-variant="normal" font-weight="700" font-stretch="normal" font-size="46" text-anchor="start" direction="ltr" writing-mode="lr-tb" unicode-bidi="normal" text-decoration="none" x="0" y="220">I</tspan><tspan fill="#60607D" fill-opacity="1" font-family="Calibri,Calibri_MSFontService,sans-serif" font-style="normal" font-variant="normal" font-weight="400" font-stretch="normal" font-size="46" text-anchor="start" direction="ltr" writing-mode="lr-tb" unicode-bidi="normal" text-decoration="none" x="12.0313" y="220">nformed</tspan><tspan fill="#000000" fill-opacity="1" font-family="Calibri,Calibri_MSFontService,sans-serif" font-style="normal" font-variant="normal" font-weight="400" font-stretch="normal" font-size="37" text-anchor="start" direction="ltr" writing-mode="lr-tb" unicode-bidi="normal" text-decoration="none" x="-1743.2" y="2205">Service Provider</tspan></text><path d="M1956 2332C1956 2320.95 1964.95 2312 1976 2312 1987.05 2312 1996 2320.95 1996 2332 1996 2343.05 1987.05 2352 1976 2352 1964.95 2352 1956 2343.05 1956 2332Z" fill="#9B9BAE" fill-rule="evenodd" fill-opacity="1"/><text fill="#000000" fill-opacity="1" font-family="Calibri,Calibri_MSFontService,sans-serif" font-style="normal" font-variant="normal" font-weight="400" font-stretch="normal" font-size="37" text-anchor="start" direction="ltr" writing-mode="lr-tb" unicode-bidi="normal" text-decoration="none" transform="matrix(1 0 0 1 2413.85 2343)">Customer</text><path d="M2358 2332C2358 2320.95 2366.95 2312 2378 2312 2389.05 2312 2398 2320.95 2398 2332 2398 2343.05 2389.05 2352 2378 2352 2366.95 2352 2358 2343.05 2358 2332Z" fill="#36363D" fill-rule="evenodd" fill-opacity="1"/></g></svg>