<svg width="2672" height="376" xmlns="http://www.w3.org/2000/svg" xmlns:xlink="http://www.w3.org/1999/xlink" overflow="hidden"><defs><clipPath id="clip0"><rect x="1558" y="403" width="2672" height="376"/></clipPath><clipPath id="clip1"><rect x="2923" y="405" width="192" height="193"/></clipPath><clipPath id="clip2"><rect x="2923" y="405" width="192" height="193"/></clipPath><clipPath id="clip3"><rect x="2923" y="405" width="192" height="193"/></clipPath><clipPath id="clip4"><rect x="3382" y="424" width="165" height="166"/></clipPath><clipPath id="clip5"><rect x="3382" y="424" width="165" height="166"/></clipPath><clipPath id="clip6"><rect x="3382" y="424" width="165" height="166"/></clipPath></defs><g clip-path="url(#clip0)" transform="translate(-1558 -403)"><path d="M1715 411C1666.75 411 1639.17 424.475 1635.47 438.174 1635.2 438.643 1635 439.156 1635 439.734L1635 557.875C1635 558.395 1635.14 558.878 1635.38 559.319 1639.15 574.946 1672.96 586.616 1715 586.616 1725.13 586.616 1734.99 585.916 1744.36 584.565 1751.34 589.837 1759.99 593 1769.4 593 1792.34 593 1811 574.377 1811 551.492 1811 538.241 1804.72 526.44 1795 518.837L1795 439.734C1795 439.156 1794.8 438.637 1794.53 438.167 1790.83 424.476 1763.25 411.001 1715 411.001ZM1715 417.384C1758.37 417.384 1788.6 430.007 1788.6 441.329 1788.6 452.66 1758.38 465.275 1715 465.275 1671.63 465.275 1641.4 452.652 1641.4 441.329 1641.4 429.999 1671.63 417.384 1715 417.384ZM1641.4 453.448C1641.78 453.794 1642.22 454.141 1642.64 454.48 1642.87 454.675 1643.08 454.863 1643.32 455.051 1644.29 455.802 1645.32 456.546 1646.44 457.268 1646.67 457.419 1646.93 457.564 1647.18 457.715 1648.12 458.3 1649.11 458.878 1650.16 459.434 1650.55 459.643 1650.94 459.838 1651.33 460.048 1652.5 460.64 1653.73 461.218 1655.03 461.781 1655.24 461.875 1655.42 461.969 1655.64 462.055 1657.14 462.691 1658.74 463.298 1660.4 463.882 1660.85 464.049 1661.33 464.2 1661.8 464.366 1663.12 464.807 1664.48 465.233 1665.9 465.645 1666.4 465.789 1666.91 465.941 1667.43 466.085 1669.3 466.605 1671.23 467.096 1673.26 467.551 1673.54 467.616 1673.84 467.666 1674.12 467.724 1675.91 468.114 1677.76 468.475 1679.67 468.807 1680.32 468.923 1680.98 469.039 1681.64 469.147 1683.45 469.443 1685.32 469.717 1687.24 469.963 1687.73 470.028 1688.2 470.1 1688.7 470.165 1691.08 470.454 1693.54 470.699 1696.07 470.909 1696.7 470.959 1697.35 471.003 1697.98 471.046 1700 471.191 1702.07 471.313 1704.19 471.407 1704.96 471.443 1705.73 471.472 1706.52 471.501 1709.28 471.595 1712.09 471.66 1715 471.66 1717.91 471.66 1720.72 471.588 1723.48 471.501 1724.26 471.472 1725.03 471.436 1725.8 471.407 1727.92 471.313 1729.99 471.191 1732.01 471.046 1732.65 470.995 1733.29 470.959 1733.91 470.909 1736.45 470.699 1738.91 470.454 1741.3 470.165 1741.8 470.107 1742.27 470.028 1742.76 469.963 1744.68 469.717 1746.54 469.443 1748.36 469.147 1749.02 469.039 1749.67 468.923 1750.31 468.807 1752.22 468.475 1754.08 468.114 1755.87 467.724 1756.15 467.666 1756.46 467.616 1756.73 467.551 1758.76 467.096 1760.69 466.605 1762.56 466.085 1763.09 465.941 1763.59 465.789 1764.1 465.645 1765.51 465.233 1766.87 464.807 1768.19 464.366 1768.66 464.207 1769.14 464.049 1769.6 463.882 1771.26 463.297 1772.85 462.691 1774.35 462.055 1774.56 461.969 1774.75 461.868 1774.97 461.781 1776.26 461.218 1777.48 460.64 1778.65 460.048 1779.05 459.846 1779.44 459.643 1779.82 459.434 1780.87 458.878 1781.87 458.3 1782.81 457.715 1783.05 457.564 1783.31 457.419 1783.55 457.268 1784.67 456.546 1785.71 455.802 1786.67 455.051 1786.91 454.856 1787.13 454.668 1787.36 454.48 1787.77 454.134 1788.21 453.794 1788.6 453.448L1788.6 479.654C1788.6 480.174 1788.47 480.694 1788.34 481.221 1788.26 481.597 1788.14 481.965 1787.99 482.341 1787.85 482.673 1787.69 482.998 1787.51 483.323 1787.3 483.706 1787.07 484.081 1786.8 484.464 1786.58 484.767 1786.33 485.078 1786.07 485.388 1785.72 485.793 1785.35 486.204 1784.94 486.601 1784.67 486.869 1784.38 487.128 1784.07 487.388 1783.56 487.829 1783.02 488.277 1782.43 488.717 1782.15 488.919 1781.86 489.122 1781.57 489.324 1780.86 489.815 1780.11 490.299 1779.3 490.768 1779.06 490.905 1778.81 491.042 1778.57 491.18 1777.63 491.707 1776.65 492.234 1775.61 492.74 1775.45 492.812 1775.28 492.884 1775.12 492.963 1773.94 493.519 1772.71 494.061 1771.39 494.588 1771.33 494.61 1771.26 494.632 1771.2 494.66 1763.94 497.549 1754.67 499.975 1743.86 501.571 1743.78 501.578 1743.7 501.593 1743.62 501.607 1741.53 501.911 1739.41 502.185 1737.21 502.423 1736.83 502.467 1736.42 502.488 1736.04 502.532 1734.12 502.727 1732.18 502.914 1730.19 503.059 1729.25 503.124 1728.28 503.167 1727.33 503.218 1725.83 503.304 1724.34 503.398 1722.8 503.456 1720.25 503.543 1717.66 503.601 1715.01 503.601 1712.36 503.601 1709.77 503.55 1707.23 503.456 1705.69 503.398 1704.2 503.304 1702.69 503.218 1701.75 503.16 1700.77 503.124 1699.83 503.059 1697.83 502.914 1695.9 502.734 1693.98 502.532 1693.6 502.488 1693.19 502.467 1692.82 502.423 1690.62 502.185 1688.48 501.911 1686.4 501.607 1686.32 501.6 1686.24 501.586 1686.17 501.578 1675.35 499.983 1666.08 497.549 1658.82 494.66 1658.76 494.639 1658.71 494.617 1658.66 494.595 1657.33 494.061 1656.09 493.52 1654.9 492.956 1654.75 492.884 1654.59 492.819 1654.44 492.747 1653.35 492.241 1652.37 491.707 1651.43 491.18 1651.19 491.042 1650.94 490.913 1650.72 490.775 1649.9 490.299 1649.15 489.808 1648.43 489.317 1648.15 489.122 1647.86 488.927 1647.59 488.724 1646.99 488.284 1646.44 487.836 1645.93 487.388 1645.63 487.128 1645.34 486.869 1645.07 486.616 1644.65 486.204 1644.28 485.793 1643.92 485.381 1643.67 485.078 1643.43 484.774 1643.21 484.471 1642.93 484.088 1642.7 483.698 1642.49 483.316 1642.31 482.991 1642.15 482.666 1642.02 482.348 1641.87 481.965 1641.74 481.59 1641.65 481.214 1641.53 480.694 1641.4 480.167 1641.4 479.654ZM1641.4 491.765C1641.46 491.816 1641.52 491.873 1641.58 491.924 1642.33 492.581 1643.08 493.224 1643.94 493.852 1656.01 502.937 1680.1 509.992 1715 509.992 1749.81 509.992 1773.87 502.973 1785.97 493.917 1786.9 493.238 1787.73 492.538 1788.52 491.83 1788.55 491.809 1788.57 491.787 1788.6 491.765L1788.6 514.692C1788.43 514.606 1788.24 514.548 1788.07 514.454 1786.93 513.884 1785.77 513.364 1784.59 512.894 1784.14 512.721 1783.69 512.562 1783.23 512.403 1782.23 512.049 1781.23 511.739 1780.2 511.464 1779.69 511.327 1779.18 511.19 1778.67 511.074 1777.62 510.836 1776.56 510.648 1775.48 510.49 1775.01 510.417 1774.54 510.331 1774.06 510.28 1772.52 510.114 1770.97 509.999 1769.39 509.999 1768.06 509.999 1766.75 510.071 1765.45 510.201 1765.02 510.244 1764.6 510.309 1764.17 510.36 1763.31 510.468 1762.46 510.591 1761.61 510.75 1761.12 510.843 1760.64 510.959 1760.16 511.067 1759.38 511.248 1758.61 511.443 1757.84 511.667 1757.37 511.804 1756.9 511.941 1756.44 512.093 1755.64 512.36 1754.84 512.656 1754.06 512.966 1753.68 513.118 1753.29 513.255 1752.92 513.414 1751.86 513.869 1750.83 514.375 1749.81 514.909 1749.73 514.952 1749.65 514.988 1749.56 515.032 1748.42 515.653 1747.31 516.332 1746.23 517.054 1746.12 517.133 1746 517.22 1745.88 517.307 1744.96 517.942 1744.06 518.621 1743.18 519.329 1742.97 519.502 1742.77 519.69 1742.56 519.863 1741.8 520.513 1741.06 521.177 1740.34 521.878 1740.12 522.094 1739.91 522.304 1739.7 522.528 1739.01 523.228 1738.34 523.958 1737.71 524.709 1737.51 524.94 1737.31 525.164 1737.12 525.395 1736.48 526.189 1735.87 527.012 1735.28 527.85 1735.14 528.059 1734.97 528.261 1734.83 528.471 1734.14 529.511 1733.48 530.572 1732.88 531.684 1732.83 531.771 1732.79 531.858 1732.75 531.944 1732.21 532.941 1731.71 533.974 1731.26 535.028 1730.99 535.634 1730.77 536.27 1730.53 536.898 1730.34 537.411 1730.14 537.909 1729.96 538.429 1729.72 539.173 1729.5 539.939 1729.3 540.697 1729.23 540.942 1729.15 541.181 1729.09 541.426 1727.81 541.513 1726.53 541.592 1725.26 541.65 1724.4 541.693 1723.56 541.744 1722.7 541.773 1720.14 541.852 1717.58 541.917 1715.03 541.917 1712.38 541.917 1709.79 541.867 1707.25 541.773 1705.71 541.715 1704.21 541.621 1702.71 541.535 1701.76 541.477 1700.78 541.441 1699.84 541.376 1697.85 541.231 1695.91 541.05 1694 540.848 1693.61 540.805 1693.21 540.783 1692.83 540.74 1690.64 540.502 1688.5 540.227 1686.41 539.924 1686.33 539.917 1686.25 539.902 1686.18 539.895 1675.37 538.299 1666.09 535.866 1658.83 532.977 1658.77 532.955 1658.72 532.934 1658.67 532.912 1657.35 532.378 1656.1 531.836 1654.92 531.273 1654.76 531.201 1654.61 531.136 1654.45 531.063 1653.39 530.551 1652.41 530.024 1651.46 529.489 1651.23 529.352 1650.98 529.222 1650.75 529.092 1649.9 528.615 1649.15 528.132 1648.43 527.64 1648.15 527.438 1647.86 527.243 1647.59 527.041 1646.99 526.601 1646.44 526.153 1645.93 525.705 1645.63 525.445 1645.34 525.192 1645.07 524.933 1644.65 524.521 1644.28 524.109 1643.92 523.698 1643.67 523.394 1643.43 523.098 1643.21 522.795 1642.93 522.405 1642.7 522.015 1642.49 521.632 1642.31 521.307 1642.15 520.99 1642.02 520.665 1641.87 520.282 1641.74 519.906 1641.65 519.531 1641.53 519.011 1641.4 518.491 1641.4 517.971ZM1769.4 516.374C1770.5 516.374 1771.57 516.44 1772.64 516.534 1772.97 516.562 1773.3 516.613 1773.63 516.649 1774.38 516.736 1775.12 516.851 1775.85 516.988 1776.21 517.053 1776.56 517.118 1776.92 517.19 1777.7 517.357 1778.46 517.566 1779.22 517.783 1779.48 517.855 1779.74 517.92 1779.99 517.992 1780.93 518.288 1781.84 518.635 1782.75 519.003 1783.18 519.184 1783.6 519.378 1784.02 519.574 1784.52 519.798 1785.01 520.036 1785.48 520.281 1785.96 520.527 1786.43 520.787 1786.9 521.054 1787.29 521.285 1787.68 521.516 1788.08 521.762 1788.56 522.065 1789.04 522.368 1789.51 522.7 1798.61 529.055 1804.6 539.584 1804.6 551.492 1804.6 570.86 1788.81 586.616 1769.4 586.616 1760.96 586.616 1753.19 583.627 1747.12 578.658 1746.18 577.886 1745.29 577.077 1744.45 576.232 1744.1 575.885 1743.79 575.51 1743.46 575.149 1742.98 574.622 1742.49 574.094 1742.04 573.538 1741.66 573.069 1741.31 572.578 1740.96 572.094 1740.6 571.61 1740.25 571.126 1739.92 570.621 1739.58 570.094 1739.26 569.559 1738.95 569.018 1738.65 568.505 1738.37 567.992 1738.1 567.465 1737.82 566.924 1737.55 566.375 1737.3 565.812 1737.03 565.234 1736.8 564.656 1736.58 564.064 1736.37 563.53 1736.17 562.995 1735.99 562.446 1735.77 561.782 1735.58 561.103 1735.41 560.424 1735.28 559.926 1735.13 559.428 1735.02 558.922 1734.85 558.121 1734.73 557.319 1734.61 556.503 1734.55 556.091 1734.47 555.687 1734.42 555.261 1734.28 554.012 1734.21 552.755 1734.21 551.484 1734.21 550.387 1734.28 549.311 1734.38 548.235 1734.48 547.188 1734.63 546.126 1734.83 545.028 1734.99 544.162 1735.21 543.324 1735.43 542.486 1735.49 542.255 1735.54 542.024 1735.6 541.786 1735.8 541.085 1736.04 540.392 1736.28 539.713 1736.42 539.338 1736.54 538.969 1736.69 538.594 1736.91 538.031 1737.16 537.467 1737.41 536.919 1737.63 536.442 1737.85 535.973 1738.09 535.503 1738.32 535.056 1738.55 534.615 1738.8 534.175 1739.12 533.611 1739.47 533.062 1739.81 532.521 1740.03 532.189 1740.23 531.849 1740.47 531.524 1740.91 530.881 1741.39 530.253 1741.88 529.64 1742.04 529.43 1742.2 529.213 1742.38 529.004 1743.04 528.203 1743.74 527.437 1744.47 526.693L1744.53 526.636C1746.09 525.09 1747.79 523.689 1749.61 522.447 1749.81 522.31 1750.04 522.18 1750.25 522.043 1750.93 521.602 1751.62 521.176 1752.33 520.786 1752.65 520.606 1752.99 520.44 1753.32 520.266 1753.93 519.948 1754.56 519.645 1755.2 519.364 1755.59 519.19 1755.98 519.031 1756.38 518.872 1756.99 518.627 1757.6 518.403 1758.23 518.194 1758.66 518.057 1759.08 517.912 1759.51 517.789 1760.14 517.602 1760.79 517.45 1761.43 517.306 1761.86 517.204 1762.28 517.096 1762.72 517.01 1763.43 516.872 1764.15 516.771 1764.88 516.677 1765.27 516.627 1765.64 516.562 1766.02 516.526 1767.13 516.424 1768.25 516.36 1769.4 516.36ZM1769.4 529.149C1767.64 529.149 1766.21 530.579 1766.21 532.341L1766.21 548.308 1750.2 548.308C1748.44 548.308 1747.01 549.737 1747.01 551.499 1747.01 553.269 1748.44 554.691 1750.2 554.691L1766.21 554.691 1766.21 570.658C1766.21 572.427 1767.64 573.85 1769.4 573.85 1771.17 573.85 1772.6 572.42 1772.6 570.658L1772.6 554.691 1788.6 554.691C1790.37 554.691 1791.8 553.261 1791.8 551.499 1791.8 549.73 1790.37 548.308 1788.6 548.308L1772.6 548.308 1772.6 532.341C1772.6 530.572 1771.17 529.149 1769.4 529.149ZM1641.4 530.081C1641.46 530.131 1641.52 530.189 1641.58 530.24 1642.33 530.897 1643.08 531.54 1643.94 532.168 1656.01 541.252 1680.1 548.308 1715 548.308 1717.54 548.308 1720.11 548.25 1722.66 548.156 1723.43 548.127 1724.18 548.091 1724.95 548.055 1725.95 548.012 1726.97 547.975 1727.96 547.918 1727.86 549.131 1727.8 550.322 1727.8 551.5 1727.8 552.857 1727.88 554.207 1728 555.544 1728.04 555.977 1728.12 556.388 1728.17 556.815 1728.29 557.717 1728.41 558.62 1728.59 559.501 1728.68 559.97 1728.8 560.425 1728.91 560.895 1729.11 561.725 1729.3 562.555 1729.55 563.379 1729.68 563.819 1729.83 564.252 1729.98 564.686 1730.26 565.516 1730.56 566.332 1730.89 567.141 1731.05 567.531 1731.21 567.921 1731.39 568.304 1731.76 569.134 1732.15 569.95 1732.57 570.752 1732.75 571.091 1732.94 571.438 1733.13 571.777 1733.59 572.586 1734.07 573.388 1734.58 574.167 1734.78 574.478 1734.98 574.788 1735.19 575.099 1735.72 575.865 1736.29 576.601 1736.87 577.33 1737.1 577.634 1737.35 577.937 1737.6 578.226 1737.8 578.464 1737.98 578.717 1738.19 578.955 1730.71 579.807 1722.93 580.24 1714.98 580.24 1673.26 580.24 1643.29 568.419 1641.48 557.371 1641.48 557.226 1641.45 557.082 1641.4 556.952Z" fill="#60607D" fill-rule="evenodd" fill-opacity="1"/><path d="M2251.19 499.226C2249.1 499.226 2247.39 500.933 2247.39 503.026 2247.39 547.106 2211.43 583.208 2167.1 583.208 2122.76 583.215 2086.8 547.3 2086.8 503.218 2086.8 460.844 2119.72 426.264 2161.39 423.414L2157.96 426.071C2156.25 427.4 2155.87 429.871 2157.2 431.578 2157.96 432.528 2159.11 433.1 2160.25 433.1 2161.01 433.1 2161.96 432.907 2162.53 432.343L2175.47 422.464C2176.42 421.707 2177 420.564 2177 419.235 2177 417.907 2176.24 416.764 2175.29 416.192L2162.35 407.642C2160.64 406.499 2158.16 406.885 2157.02 408.785 2155.87 410.492 2156.26 412.963 2158.16 414.106L2160.82 415.813C2115.15 418.857 2079 456.859 2079 503.218 2079 551.67 2118.38 591 2166.9 591 2215.43 591 2255 551.67 2255 503.218 2255 501.125 2253.29 499.225 2251.19 499.225Z" fill="#60607D" fill-rule="evenodd" fill-opacity="1"/><path d="M2253 483.003C2253 489.666 2243 489.666 2243 483.003 2243 476.332 2253 476.332 2253 483.003" fill="#60607D" fill-rule="evenodd" fill-opacity="1"/><path d="M2247 465.5C2247 471.5 2237 471.5 2237 465.5 2237 459.5 2247 459.5 2247 465.5" fill="#60607D" fill-rule="evenodd" fill-opacity="1"/><path d="M2235 449.003C2235 455.666 2226 455.666 2226 449.003 2226 442.332 2235 442.332 2235 449.003" fill="#60607D" fill-rule="evenodd" fill-opacity="1"/><path d="M2219 434.503C2219 440.499 2210 440.499 2210 434.503 2210 428.499 2219 428.499 2219 434.503" fill="#60607D" fill-rule="evenodd" fill-opacity="1"/><path d="M2201 424.503C2201 430.499 2191 430.499 2191 424.503 2191 418.499 2201 418.499 2201 424.503" fill="#60607D" fill-rule="evenodd" fill-opacity="1"/><path d="M2201 484.504C2201 482.398 2199.27 480.487 2196.95 480.487L2144.69 480.487 2153.57 471.69C2155.11 470.16 2155.11 467.673 2153.57 466.15 2152.8 465.389 2151.83 465 2150.67 465 2149.71 465 2148.55 465.381 2147.78 466.15L2132.16 481.637C2130.61 483.167 2130.61 485.654 2132.16 487.177L2147.78 502.85C2148.55 503.612 2149.51 504 2150.67 504 2151.83 504 2152.8 503.619 2153.57 502.85 2154.33 502.088 2154.73 501.133 2154.73 499.983 2154.73 498.833 2154.34 497.877 2153.57 497.116L2144.69 488.133 2196.95 488.133C2199.07 488.521 2201 486.609 2201 484.504Z" fill="#60607D" fill-rule="evenodd" fill-opacity="1"/><path d="M2182.61 544C2183.75 544 2184.7 543.619 2185.46 542.85L2200.86 527.176C2202.38 525.645 2202.38 523.159 2200.86 521.635L2185.46 506.148C2183.94 504.617 2181.47 504.617 2179.95 506.148 2178.43 507.679 2178.43 510.165 2179.95 511.689L2188.7 520.485 2136.99 520.485C2134.9 520.485 2133 522.203 2133 524.503 2133 526.609 2134.71 528.52 2136.99 528.52L2188.51 528.52 2179.76 537.503C2179 538.265 2178.62 539.221 2178.62 540.371 2178.62 541.521 2178.99 542.477 2179.76 543.239 2180.52 543.619 2181.47 544 2182.61 544Z" fill="#60607D" fill-rule="evenodd" fill-opacity="1"/><path d="M2607.59 435.022C2605.66 435.234 2604.21 436.885 2604.26 438.821L2604.26 458.225 2554.4 458.225C2554.27 458.218 2554.13 458.218 2553.99 458.225 2552.8 458.349 2551.73 459.043 2551.13 460.095L2520.47 513.632C2520.15 514.202 2519.99 514.852 2520 515.503L2520 562.26C2520 564.327 2521.68 566 2523.74 566L2692.26 566C2694.33 566 2696 564.327 2696 562.26L2696 515.503C2696.01 514.852 2695.85 514.202 2695.53 513.632L2664.87 460.095C2664.2 458.926 2662.95 458.211 2661.6 458.225L2611.74 458.225 2611.74 438.821C2611.77 437.747 2611.33 436.709 2610.53 435.979 2609.73 435.256 2608.67 434.905 2607.59 435.022ZM2556.51 465.706 2604.26 465.706 2604.26 499.547 2589.92 486.513C2589.17 485.826 2588.19 485.468 2587.17 485.52 2585.65 485.6 2584.33 486.586 2583.82 488.026 2583.32 489.465 2583.74 491.057 2584.89 492.065L2605.48 510.768C2606.91 512.062 2609.09 512.062 2610.52 510.768L2631.11 492.065C2632.65 490.678 2632.76 488.311 2631.38 486.776 2629.99 485.242 2627.62 485.125 2626.08 486.513L2611.74 499.547 2611.74 465.706 2659.49 465.706 2685.82 511.762 2637.96 511.762C2635.89 511.762 2634.21 513.435 2634.21 515.502L2634.21 526.724 2581.79 526.724 2581.79 515.502C2581.79 513.435 2580.11 511.762 2578.04 511.762L2530.18 511.762ZM2527.49 519.243 2574.3 519.243 2574.3 530.464C2574.3 532.532 2575.97 534.205 2578.04 534.205L2637.96 534.205C2640.03 534.205 2641.7 532.532 2641.7 530.464L2641.7 519.243 2688.51 519.243 2688.51 558.519 2527.49 558.519Z" fill="#60607D" fill-rule="evenodd" fill-opacity="1"/><g clip-path="url(#clip1)"><g clip-path="url(#clip2)"><g clip-path="url(#clip3)"><path d="M75.9848 138.841C39.0165 138.841 8.9433 108.76 8.9433 71.7915 8.93588 34.8232 39.0165 4.75 75.9848 4.75 112.961 4.75 143.034 34.8232 143.034 71.7915 143.034 108.76 112.961 138.841 75.9848 138.841ZM75.9848 16.0303C45.2352 16.0303 20.216 41.0419 20.216 71.7991 20.216 102.549 45.2276 127.56 75.9848 127.56 106.734 127.56 131.746 102.556 131.746 71.7991 131.746 41.0419 106.734 16.0303 75.9848 16.0303Z" fill="#60607D" fill-rule="nonzero" fill-opacity="1" transform="matrix(1 0 0 1.00526 2924 406)"/><path d="M175.423 185.25C173.924 185.25 172.425 184.642 171.304 183.461L112.93 121.259C110.808 118.988 110.919 115.418 113.19 113.288 115.446 111.165 119.016 111.262 121.161 113.548L179.535 175.75C181.658 178.021 181.546 181.591 179.275 183.721 178.192 184.738 176.811 185.25 175.423 185.25Z" fill="#60607D" fill-rule="nonzero" fill-opacity="1" transform="matrix(1 0 0 1.00526 2924 406)"/></g></g></g><g clip-path="url(#clip4)"><g clip-path="url(#clip5)"><g clip-path="url(#clip6)"><path d="M152.956 134.423C141.073 122.539 128.312 109.79 115.608 97.0863 110.304 91.7883 105.013 86.5033 99.7979 81.2886L125.288 55.7915C126.704 54.3757 128.44 53.7223 130.426 53.876 130.964 53.9143 131.496 53.9337 132.034 53.9337 138.063 53.9337 143.732 51.589 147.992 47.3225 155.539 39.7823 156.756 27.8541 150.894 18.9554 150.458 18.3019 149.754 17.9175 148.94 17.9432 148.159 17.9688 147.441 18.3916 147.051 19.0707L139.639 31.9152C138.729 33.4975 137.018 34.4777 135.18 34.4777 134.289 34.4777 133.405 34.2406 132.63 33.7922L128.312 31.3002C125.865 29.8844 125.019 26.7454 126.435 24.2982L133.424 12.1968C133.834 11.4858 133.828 10.6145 133.405 9.90986 132.982 9.20517 132.207 8.74392 131.4 8.80798 125.615 8.96812 120.163 11.3127 116.07 15.4064 111.547 19.9291 109.145 26.1944 109.491 32.5886 109.593 34.5425 108.952 36.2338 107.569 37.6111L81.8798 63.3066C78.2539 59.3796 75.9028 55.1963 74.3781 49.9175L66.8251 23.8382C65.7679 20.1866 63.6218 17.5601 60.4509 16.0227 52.2381 12.0444 45.0311 10.1096 38.4076 10.1096 31.8285 10.1096 25.9282 12.0444 20.3611 16.0163 19.7012 16.484 19.3489 17.2782 19.4256 18.079 19.5089 18.8862 20.015 19.5845 20.7517 19.9176L41.6552 29.2579 42.4048 33.2298 37.3182 46.3882C33.1285 44.7738 28.9324 43.1594 24.7363 41.5451 20.0085 39.7257 15.2806 37.9129 10.572 36.0934 9.80969 35.7987 8.95766 35.9334 8.32982 36.4523 7.70201 36.9648 7.39451 37.7784 7.52904 38.5792 9.84177 52.3142 16.658 61.7639 28.8868 68.2009L27.5094 71.7564C27.2724 72.3714 27.3173 73.0631 27.6312 73.6461 27.9451 74.229 28.5024 74.6454 29.1494 74.78L62.6152 81.8462C62.8138 81.8845 62.9996 81.9423 63.1982 81.987L37.0665 108.119C35.6828 109.503 33.9915 110.156 32.0376 110.047 25.6056 109.695 19.4045 112.072 14.8553 116.626 7.31507 124.173 6.09147 136.101 11.9597 144.993 12.3889 145.647 13.1257 146.063 13.9136 146.006 14.6952 145.98 15.4127 145.557 15.8034 144.878L23.2153 132.034C24.125 130.451 25.8356 129.471 27.6742 129.471 28.5647 129.471 29.4487 129.708 30.2175 130.15L34.5353 132.642C36.9825 134.058 37.8217 137.197 36.4123 139.644L29.4231 151.746C29.0131 152.457 29.0195 153.328 29.4423 154.033 29.8523 154.718 30.5889 155.134 31.3834 155.134L31.4475 155.134C37.2387 154.974 42.6841 152.63 46.7777 148.536 51.403 143.911 53.7925 137.504 53.3313 130.97 53.1904 128.978 53.8374 127.248 55.2468 125.832L82.5889 98.49 135.735 151.636C138.028 153.929 141.084 155.191 144.345 155.191 147.606 155.191 150.668 153.929 152.961 151.636 155.255 149.342 156.517 146.287 156.517 143.019 156.51 139.771 155.248 136.709 152.955 134.422ZM110.764 40.8081C113.057 38.5147 114.185 35.587 114.006 32.3454 113.73 27.2268 115.646 22.2171 119.265 18.5976 121.488 16.3746 124.211 14.7987 127.17 13.9723L122.513 22.0314C119.854 26.6375 121.437 32.5505 126.043 35.2092L130.361 37.7011C131.821 38.5467 133.48 38.9889 135.165 38.9889 138.612 38.9889 141.821 37.1439 143.538 34.1714L148.888 24.908C151.373 31.4296 149.887 39.0274 144.794 44.1271 141.078 47.8427 135.992 49.7455 130.745 49.3674 127.433 49.1431 124.428 50.2642 122.097 52.5963L96.5996 78.0933C92.679 74.1792 88.8224 70.3225 85.0363 66.5364ZM30.4745 63.9469C20.974 58.8283 15.3878 51.8391 12.8117 41.8069 16.2389 43.1266 19.6728 44.4463 23.1 45.766 27.2706 47.3676 31.4473 48.9755 35.605 50.5771 35.3039 51.3907 35.0028 52.2107 34.7017 53.0371 34.4711 53.6649 34.2406 54.2927 34.0098 54.9205L31.1334 62.3646C30.9156 62.8963 30.6978 63.428 30.4737 63.9469ZM79.3858 95.2987 52.0437 122.641C49.6926 124.986 48.5779 127.977 48.8149 131.289 49.1865 136.517 47.2774 141.635 43.5746 145.338 41.3516 147.561 38.629 149.137 35.6693 149.963L40.3266 141.904C42.9852 137.298 41.4028 131.392 36.7968 128.727L32.479 126.235C31.0185 125.389 29.3593 124.947 27.6743 124.947 24.2277 124.947 21.0182 126.792 19.3013 129.764L13.9521 139.028C11.4665 132.506 12.9528 124.908 18.0521 119.809 21.691 116.17 26.6749 114.274 31.7999 114.549 35.0479 114.735 37.9755 113.595 40.2626 111.307L67.6359 83.9342C67.7192 83.9855 67.7961 84.0431 67.8729 84.1008 68.11 84.2738 68.347 84.4467 68.5776 84.6325 68.6801 84.7158 68.789 84.8055 68.8915 84.8888 69.2182 85.1706 69.545 85.4589 69.8589 85.7728ZM149.758 148.451C148.317 149.893 146.395 150.681 144.339 150.681 142.282 150.681 140.36 149.886 138.919 148.451L73.0564 82.5887C72.6977 82.2301 72.3325 81.8904 71.9673 81.5701 71.8841 81.4932 71.7944 81.4293 71.7111 81.3587 71.4228 81.1154 71.1281 80.8718 70.827 80.654 70.7373 80.5899 70.6477 80.5323 70.558 80.4682 70.2569 80.2504 69.9494 80.039 69.6355 79.8404 69.5522 79.7893 69.4625 79.7379 69.3728 79.6868 69.0525 79.4946 68.7322 79.3087 68.3991 79.1421 68.367 79.1229 68.335 79.1037 68.303 79.0846 68.2902 79.0782 68.2773 79.0782 68.2645 79.0718 66.8167 78.3351 65.26 77.7904 63.5431 77.4254L32.6717 70.9037 35.2984 64.1004C36.3234 61.6212 37.2778 59.0843 38.2067 56.5731L46.8359 34.2478C46.9898 33.857 47.0281 33.4278 46.9448 33.0114L45.8559 27.2458C45.7148 26.5219 45.2345 25.9069 44.5553 25.6058L26.4776 17.5339C30.2124 15.5863 34.1459 14.6318 38.3932 14.6318 44.319 14.6318 50.8854 16.4192 58.4701 20.09 60.4689 21.0573 61.7821 22.6973 62.474 25.0997L70.027 51.179C71.904 57.6557 74.9982 62.8896 79.7645 67.6561 79.9183 67.8097 80.0784 67.9699 80.2322 68.13L80.2386 68.1364 94.9922 82.8836 94.9986 82.8836C100.732 88.6108 106.562 94.4405 112.404 100.282 125.108 112.98 137.875 125.735 149.752 137.619 151.193 139.06 151.981 140.982 151.981 143.038 151.994 145.088 151.199 147.01 149.758 148.452Z" stroke="#60607D" stroke-width="1.64" stroke-linecap="butt" stroke-linejoin="miter" stroke-miterlimit="4" stroke-opacity="1" fill="#60607D" fill-rule="nonzero" fill-opacity="1" transform="matrix(1 0 0 1.0061 3382 425)"/><path d="M144.377 137.363C142.885 137.363 141.475 137.946 140.418 139.003 139.361 140.06 138.778 141.469 138.778 142.962 138.778 144.455 139.361 145.864 140.418 146.921 141.475 147.978 142.885 148.561 144.377 148.561 145.87 148.561 147.279 147.978 148.336 146.921 149.393 145.864 149.976 144.455 149.976 142.962 149.976 141.469 149.393 140.06 148.336 139.003 147.286 137.94 145.876 137.363 144.377 137.363ZM145.94 144.525C145.101 145.364 143.647 145.364 142.814 144.525 142.398 144.109 142.167 143.551 142.167 142.962 142.167 142.373 142.398 141.816 142.814 141.399 143.231 140.983 143.788 140.752 144.377 140.752 144.967 140.752 145.524 140.983 145.941 141.399 146.357 141.816 146.588 142.373 146.588 142.962 146.594 143.552 146.363 144.109 145.941 144.525Z" stroke="#60607D" stroke-width="1.64" stroke-linecap="butt" stroke-linejoin="miter" stroke-miterlimit="4" stroke-opacity="1" fill="#60607D" fill-rule="nonzero" fill-opacity="1" transform="matrix(1 0 0 1.0061 3382 425)"/><path d="M65.2474 53.3377 47.9569 47.6938C47.0727 47.3991 46.1119 47.886 45.8172 48.7765L40.5513 64.9138C40.263 65.8042 40.7435 66.7588 41.634 67.0535L58.9245 72.6974C59.0974 72.755 59.2768 72.7806 59.4498 72.7806 59.7124 72.7806 59.9751 72.7166 60.2185 72.5949 60.6157 72.3899 60.9232 72.0375 61.0641 71.6083L66.3299 55.471C66.471 55.0418 66.4324 54.5805 66.2274 54.1769 66.029 53.7735 65.6766 53.4722 65.2474 53.3377ZM48.5145 51.4415 52.3134 52.6843 51.6151 54.8304 49.2767 54.0488 48.207 57.2647 50.5645 58.0463 49.847 60.2565 47.5856 59.5007 46.5156 62.7165 48.7962 63.4788 48.1045 65.5993 44.3056 64.3565ZM58.3673 68.9502 51.3203 66.6504 52.0059 64.5492 54.4147 65.35 55.4845 62.1342 53.0564 61.327 53.7739 59.1167 56.0995 59.892 57.1692 56.6761 54.8183 55.8945 55.5228 53.7292 62.5698 56.0289Z" stroke="#60607D" stroke-width="1.64" stroke-linecap="butt" stroke-linejoin="miter" stroke-miterlimit="4" stroke-opacity="1" fill="#60607D" fill-rule="nonzero" fill-opacity="1" transform="matrix(1 0 0 1.0061 3382 425)"/></g></g></g><path d="M4019.28 497.227C4018.52 497.227 4017.51 497.227 4016.75 497.227 4016.75 497.227 4016.75 497.227 4016.75 497.227 4016.75 484.769 4010.65 473.328 4000.75 466.209 3990.59 459.09 3977.64 457.31 3965.96 461.379 3956.31 442.564 3934.99 432.903 3914.67 437.734 3894.36 442.564 3879.63 460.87 3879.63 481.972 3879.63 481.972 3879.63 482.226 3879.63 482.481 3865.67 480.193 3851.7 486.04 3843.07 497.227 3834.69 508.668 3833.17 523.669 3839.01 536.381 3845.1 549.093 3857.8 557.483 3871.76 558.246L3871.76 558.5 4019.03 558.5C4035.79 558.5 4049.5 544.771 4049.5 527.991 4049.5 511.211 4036.04 497.227 4019.28 497.227Z" stroke="#60607D" stroke-width="20.625" stroke-linecap="butt" stroke-linejoin="miter" stroke-miterlimit="8" stroke-opacity="1" fill="none" fill-rule="evenodd"/><text fill="#000000" fill-opacity="1" font-family="Calibri,Calibri_MSFontService,sans-serif" font-style="normal" font-variant="normal" font-weight="400" font-stretch="normal" font-size="41" text-anchor="start" direction="ltr" writing-mode="lr-tb" unicode-bidi="normal" text-decoration="none" transform="matrix(1 0 0 1 1630.7 690)">Cacheable <tspan fill="#000000" fill-opacity="1" font-family="Calibri,Calibri_MSFontService,sans-serif" font-style="normal" font-variant="normal" font-weight="400" font-stretch="normal" font-size="41" text-anchor="start" direction="ltr" writing-mode="lr-tb" unicode-bidi="normal" text-decoration="none" x="-11.4584" y="49">architecture</tspan><tspan fill="#000000" fill-opacity="1" font-family="Calibri,Calibri_MSFontService,sans-serif" font-style="normal" font-variant="normal" font-weight="400" font-stretch="normal" font-size="41" text-anchor="start" direction="ltr" writing-mode="lr-tb" unicode-bidi="normal" text-decoration="none" x="367.32" y="-4">High concurrency </tspan><tspan fill="#000000" fill-opacity="1" font-family="Calibri,Calibri_MSFontService,sans-serif" font-style="normal" font-variant="normal" font-weight="400" font-stretch="normal" font-size="41" text-anchor="start" direction="ltr" writing-mode="lr-tb" unicode-bidi="normal" text-decoration="none" x="415.743" y="45">transactions</tspan><tspan fill="#000000" fill-opacity="1" font-family="Calibri,Calibri_MSFontService,sans-serif" font-style="normal" font-variant="normal" font-weight="400" font-stretch="normal" font-size="41" text-anchor="start" direction="ltr" writing-mode="lr-tb" unicode-bidi="normal" text-decoration="none" x="864.029" y="-6">Bulk updates </tspan><tspan fill="#000000" fill-opacity="1" font-family="Calibri,Calibri_MSFontService,sans-serif" font-style="normal" font-variant="normal" font-weight="400" font-stretch="normal" font-size="41" text-anchor="start" direction="ltr" writing-mode="lr-tb" unicode-bidi="normal" text-decoration="none" x="886.372" y="43">to catalogs</tspan><tspan fill="#000000" fill-opacity="1" font-family="Calibri,Calibri_MSFontService,sans-serif" font-style="normal" font-variant="normal" font-weight="400" font-stretch="normal" font-size="41" text-anchor="start" direction="ltr" writing-mode="lr-tb" unicode-bidi="normal" text-decoration="none" x="1257.03" y="-5">Performant and </tspan><tspan fill="#000000" fill-opacity="1" font-family="Calibri,Calibri_MSFontService,sans-serif" font-style="normal" font-variant="normal" font-weight="400" font-stretch="normal" font-size="41" text-anchor="start" direction="ltr" writing-mode="lr-tb" unicode-bidi="normal" text-decoration="none" x="1267.92" y="44">scalable search</tspan><tspan fill="#000000" fill-opacity="1" font-family="Calibri,Calibri_MSFontService,sans-serif" font-style="normal" font-variant="normal" font-weight="400" font-stretch="normal" font-size="41" text-anchor="start" direction="ltr" writing-mode="lr-tb" unicode-bidi="normal" text-decoration="none" x="1683.6" y="-5">Performance toolkit </tspan><tspan fill="#000000" fill-opacity="1" font-family="Calibri,Calibri_MSFontService,sans-serif" font-style="normal" font-variant="normal" font-weight="400" font-stretch="normal" font-size="41" text-anchor="start" direction="ltr" writing-mode="lr-tb" unicode-bidi="normal" text-decoration="none" x="1674.16" y="44">for consistent testing </tspan><tspan fill="#000000" fill-opacity="1" font-family="Calibri,Calibri_MSFontService,sans-serif" font-style="normal" font-variant="normal" font-weight="400" font-stretch="normal" font-size="41" text-anchor="start" direction="ltr" writing-mode="lr-tb" unicode-bidi="normal" text-decoration="none" x="2211.15" y="-15">Proven cloud </tspan><tspan fill="#000000" fill-opacity="1" font-family="Calibri,Calibri_MSFontService,sans-serif" font-style="normal" font-variant="normal" font-weight="400" font-stretch="normal" font-size="41" text-anchor="start" direction="ltr" writing-mode="lr-tb" unicode-bidi="normal" text-decoration="none" x="2167.91" y="34">hosting and agility</tspan></text></g></svg>