<svg width="4084" height="1838" xmlns="http://www.w3.org/2000/svg" xmlns:xlink="http://www.w3.org/1999/xlink" overflow="hidden"><defs><clipPath id="clip0"><rect x="151" y="412" width="4084" height="1838"/></clipPath></defs><g clip-path="url(#clip0)" transform="translate(-151 -412)"><path d="M155.333 558.4 663.953 558.4 663.953 2236.3 155.333 2236.3Z" fill="#E5E5E8" fill-rule="evenodd" fill-opacity="1"/><path d="M663.953 558.4 1172.57 558.4 1172.57 2236.3 663.953 2236.3Z" fill="#E5E5E8" fill-rule="evenodd" fill-opacity="1"/><path d="M1172.57 558.4 1681.19 558.4 1681.19 2236.3 1172.57 2236.3Z" fill="#E5E5E8" fill-rule="evenodd" fill-opacity="1"/><path d="M1681.19 558.4 2189.81 558.4 2189.81 2236.3 1681.19 2236.3Z" fill="#E5E5E8" fill-rule="evenodd" fill-opacity="1"/><path d="M2189.81 558.4 2698.43 558.4 2698.43 2236.3 2189.81 2236.3Z" fill="#E5E5E8" fill-rule="evenodd" fill-opacity="1"/><path d="M2698.43 558.4 3207.05 558.4 3207.05 2236.3 2698.43 2236.3Z" fill="#E5E5E8" fill-rule="evenodd" fill-opacity="1"/><path d="M3207.05 558.4 3715.67 558.4 3715.67 2236.3 3207.05 2236.3Z" fill="#E5E5E8" fill-rule="evenodd" fill-opacity="1"/><path d="M3715.67 558.4 4224.29 558.4 4224.29 2236.3 3715.67 2236.3Z" fill="#E5E5E8" fill-rule="evenodd" fill-opacity="1"/><path d="M663.953 556.108 663.953 2243.18" stroke="#FFFFFF" stroke-width="4.58333" stroke-linecap="butt" stroke-linejoin="round" stroke-miterlimit="10" stroke-opacity="1" fill="none" fill-rule="evenodd"/><path d="M1172.57 556.108 1172.57 2243.18" stroke="#FFFFFF" stroke-width="4.58333" stroke-linecap="butt" stroke-linejoin="round" stroke-miterlimit="10" stroke-opacity="1" fill="none" fill-rule="evenodd"/><path d="M1681.19 556.108 1681.19 2243.18" stroke="#FFFFFF" stroke-width="4.58333" stroke-linecap="butt" stroke-linejoin="round" stroke-miterlimit="10" stroke-opacity="1" fill="none" fill-rule="evenodd"/><path d="M2189.81 556.108 2189.81 2243.18" stroke="#FFFFFF" stroke-width="4.58333" stroke-linecap="butt" stroke-linejoin="round" stroke-miterlimit="10" stroke-opacity="1" fill="none" fill-rule="evenodd"/><path d="M2698.43 556.108 2698.43 2243.18" stroke="#FFFFFF" stroke-width="4.58333" stroke-linecap="butt" stroke-linejoin="round" stroke-miterlimit="10" stroke-opacity="1" fill="none" fill-rule="evenodd"/><path d="M3207.05 556.108 3207.05 2243.18" stroke="#FFFFFF" stroke-width="4.58333" stroke-linecap="butt" stroke-linejoin="round" stroke-miterlimit="10" stroke-opacity="1" fill="none" fill-rule="evenodd"/><path d="M3715.67 556.108 3715.67 2243.18" stroke="#FFFFFF" stroke-width="4.58333" stroke-linecap="butt" stroke-linejoin="round" stroke-miterlimit="10" stroke-opacity="1" fill="none" fill-rule="evenodd"/><path d="M155.333 556.108 155.333 2243.18" stroke="#FFFFFF" stroke-width="4.58333" stroke-linecap="butt" stroke-linejoin="round" stroke-miterlimit="10" stroke-opacity="1" fill="none" fill-rule="evenodd"/><path d="M4224.29 556.108 4224.29 2243.18" stroke="#FFFFFF" stroke-width="4.58333" stroke-linecap="butt" stroke-linejoin="round" stroke-miterlimit="10" stroke-opacity="1" fill="none" fill-rule="evenodd"/><path d="M153.041 558.4 4226.58 558.4" stroke="#FFFFFF" stroke-width="4.58333" stroke-linecap="butt" stroke-linejoin="round" stroke-miterlimit="10" stroke-opacity="1" fill="none" fill-rule="evenodd"/><path d="M153.041 2236.3 4226.58 2236.3" stroke="#FFFFFF" stroke-width="13.75" stroke-linecap="butt" stroke-linejoin="round" stroke-miterlimit="10" stroke-opacity="1" fill="none" fill-rule="evenodd"/><text fill="#000020" fill-opacity="1" font-family="Calibri,Calibri_MSFontService,sans-serif" font-style="normal" font-variant="normal" font-weight="400" font-stretch="normal" font-size="55" text-anchor="start" direction="ltr" writing-mode="lr-tb" unicode-bidi="normal" text-decoration="none" transform="matrix(1 0 0 1 372.116 623)">Jun<tspan fill="#000020" fill-opacity="1" font-family="Calibri,Calibri_MSFontService,sans-serif" font-style="normal" font-variant="normal" font-weight="400" font-stretch="normal" font-size="55" text-anchor="start" direction="ltr" writing-mode="lr-tb" unicode-bidi="normal" text-decoration="none" x="516.641" y="0">Jul</tspan><tspan fill="#000020" fill-opacity="1" font-family="Calibri,Calibri_MSFontService,sans-serif" font-style="normal" font-variant="normal" font-weight="400" font-stretch="normal" font-size="55" text-anchor="start" direction="ltr" writing-mode="lr-tb" unicode-bidi="normal" text-decoration="none" x="1011.51" y="0">Aug</tspan><tspan fill="#000020" fill-opacity="1" font-family="Calibri,Calibri_MSFontService,sans-serif" font-style="normal" font-variant="normal" font-weight="400" font-stretch="normal" font-size="55" text-anchor="start" direction="ltr" writing-mode="lr-tb" unicode-bidi="normal" text-decoration="none" x="1522.71" y="0">Sep</tspan><tspan fill="#000020" fill-opacity="1" font-family="Calibri,Calibri_MSFontService,sans-serif" font-style="normal" font-variant="normal" font-weight="400" font-stretch="normal" font-size="55" text-anchor="start" direction="ltr" writing-mode="lr-tb" unicode-bidi="normal" text-decoration="none" x="2032.76" y="0">Oct</tspan><tspan fill="#000020" fill-opacity="1" font-family="Calibri,Calibri_MSFontService,sans-serif" font-style="normal" font-variant="normal" font-weight="400" font-stretch="normal" font-size="55" text-anchor="start" direction="ltr" writing-mode="lr-tb" unicode-bidi="normal" text-decoration="none" x="2536.06" y="0">Nov</tspan><tspan fill="#000020" fill-opacity="1" font-family="Calibri,Calibri_MSFontService,sans-serif" font-style="normal" font-variant="normal" font-weight="400" font-stretch="normal" font-size="55" text-anchor="start" direction="ltr" writing-mode="lr-tb" unicode-bidi="normal" text-decoration="none" x="3046.85" y="0">Dec</tspan><tspan fill="#000020" fill-opacity="1" font-family="Calibri,Calibri_MSFontService,sans-serif" font-style="normal" font-variant="normal" font-weight="400" font-stretch="normal" font-size="55" text-anchor="start" direction="ltr" writing-mode="lr-tb" unicode-bidi="normal" text-decoration="none" x="3561.48" y="0">Jan</tspan></text><rect x="621.5" y="1054.5" width="3096" height="1136" stroke="#60607D" stroke-width="4.58333" stroke-linecap="butt" stroke-linejoin="miter" stroke-miterlimit="8" stroke-dasharray="13.75 4.58333" stroke-opacity="1" fill="#DEDEE6" fill-opacity="0.541176"/><text fill="#000000" fill-opacity="1" font-family="Calibri,Calibri_MSFontService,sans-serif" font-style="normal" font-variant="normal" font-weight="400" font-stretch="normal" font-size="73" text-anchor="start" direction="ltr" writing-mode="lr-tb" unicode-bidi="normal" text-decoration="none" transform="matrix(1 0 0 1 407.336 1240)">Client </text><rect x="1170" y="778" width="1020" height="215" fill="#48485E" fill-opacity="1"/><text fill="#FFFFFF" fill-opacity="1" font-family="Calibri,Calibri_MSFontService,sans-serif" font-style="normal" font-variant="normal" font-weight="700" font-stretch="normal" font-size="41" text-anchor="start" direction="ltr" writing-mode="lr-tb" unicode-bidi="normal" text-decoration="none" transform="matrix(1 0 0 1 1563.61 900)">Development</text><rect x="2193" y="778" width="616" height="216" fill="#60607D" fill-opacity="1"/><text fill="#FFFFFF" fill-opacity="1" font-family="Calibri,Calibri_MSFontService,sans-serif" font-style="normal" font-variant="normal" font-weight="700" font-stretch="normal" font-size="41" text-anchor="start" direction="ltr" writing-mode="lr-tb" unicode-bidi="normal" text-decoration="none" transform="matrix(1 0 0 1 2262.06 875)">Internal Testing and System <tspan fill="#FFFFFF" fill-opacity="1" font-family="Calibri,Calibri_MSFontService,sans-serif" font-style="normal" font-variant="normal" font-weight="700" font-stretch="normal" font-size="41" text-anchor="start" direction="ltr" writing-mode="lr-tb" unicode-bidi="normal" text-decoration="none" x="75.9002" y="49">Integration Testing</tspan></text><rect x="2812" y="779" width="389" height="213" fill="#9B9BAE" fill-opacity="1"/><text fill="#FFFFFF" fill-opacity="1" font-family="Calibri,Calibri_MSFontService,sans-serif" font-style="normal" font-variant="normal" font-weight="700" font-stretch="normal" font-size="41" text-anchor="start" direction="ltr" writing-mode="lr-tb" unicode-bidi="normal" text-decoration="none" transform="matrix(1 0 0 1 2933.24 875)">UAT and <tspan fill="#FFFFFF" fill-opacity="1" font-family="Calibri,Calibri_MSFontService,sans-serif" font-style="normal" font-variant="normal" font-weight="700" font-stretch="normal" font-size="41" text-anchor="start" direction="ltr" writing-mode="lr-tb" unicode-bidi="normal" text-decoration="none" x="-32.3584" y="49">Deployment</tspan></text><rect x="666" y="779" width="504" height="213" fill="#30303F" fill-opacity="1"/><text fill="#FFFFFF" fill-opacity="1" font-family="Calibri,Calibri_MSFontService,sans-serif" font-style="normal" font-variant="normal" font-weight="700" font-stretch="normal" font-size="37" text-anchor="start" direction="ltr" writing-mode="lr-tb" unicode-bidi="normal" text-decoration="none" transform="matrix(1 0 0 1 699.974 876)">Creative Design Alignment <tspan fill="#FFFFFF" fill-opacity="1" font-family="Calibri,Calibri_MSFontService,sans-serif" font-style="normal" font-variant="normal" font-weight="700" font-stretch="normal" font-size="37" text-anchor="start" direction="ltr" writing-mode="lr-tb" unicode-bidi="normal" text-decoration="none" x="410.208" y="0">&amp; </tspan><tspan fill="#FFFFFF" fill-opacity="1" font-family="Calibri,Calibri_MSFontService,sans-serif" font-style="normal" font-variant="normal" font-weight="700" font-stretch="normal" font-size="37" text-anchor="start" direction="ltr" writing-mode="lr-tb" unicode-bidi="normal" text-decoration="none" x="44.1146" y="44">Specifications Creation</tspan><tspan fill="#000000" fill-opacity="1" font-family="Calibri,Calibri_MSFontService,sans-serif" font-style="normal" font-variant="normal" font-weight="700" font-stretch="normal" font-size="55" text-anchor="start" direction="ltr" writing-mode="lr-tb" unicode-bidi="normal" text-decoration="none" x="-128.366" y="-389">Kick off</tspan><tspan fill="#000000" fill-opacity="1" font-family="Calibri,Calibri_MSFontService,sans-serif" font-style="normal" font-variant="normal" font-weight="700" font-stretch="normal" font-size="55" text-anchor="start" direction="ltr" writing-mode="lr-tb" unicode-bidi="normal" text-decoration="none" x="2315.1" y="-392">Cutover /</tspan><tspan fill="#000000" fill-opacity="1" font-family="Calibri,Calibri_MSFontService,sans-serif" font-style="normal" font-variant="normal" font-weight="700" font-stretch="normal" font-size="55" text-anchor="start" direction="ltr" writing-mode="lr-tb" unicode-bidi="normal" text-decoration="none" x="2543.07" y="-392">G</tspan><tspan fill="#000000" fill-opacity="1" font-family="Calibri,Calibri_MSFontService,sans-serif" font-style="normal" font-variant="normal" font-weight="700" font-stretch="normal" font-size="55" text-anchor="start" direction="ltr" writing-mode="lr-tb" unicode-bidi="normal" text-decoration="none" x="2578.02" y="-392">o live</tspan><tspan fill="#000000" fill-opacity="1" font-family="Calibri,Calibri_MSFontService,sans-serif" font-style="normal" font-variant="normal" font-weight="700" font-stretch="normal" font-size="55" text-anchor="start" direction="ltr" writing-mode="lr-tb" unicode-bidi="normal" text-decoration="none" x="2063.67" y="-395">UAT</tspan></text><rect x="3212" y="778" width="505" height="214" fill="#BEBECD" fill-opacity="1"/><text fill="#FFFFFF" fill-opacity="1" font-family="Calibri,Calibri_MSFontService,sans-serif" font-style="normal" font-variant="normal" font-weight="700" font-stretch="normal" font-size="41" text-anchor="start" direction="ltr" writing-mode="lr-tb" unicode-bidi="normal" text-decoration="none" transform="matrix(1 0 0 1 3382.22 900)">Warranty </text><rect x="2811" y="1950" width="397" height="158" fill="#A32CC1" fill-opacity="1"/><text fill="#FFFFFF" fill-opacity="1" font-family="Calibri,Calibri_MSFontService,sans-serif" font-style="normal" font-variant="normal" font-weight="700" font-stretch="normal" font-size="41" text-anchor="start" direction="ltr" writing-mode="lr-tb" unicode-bidi="normal" text-decoration="none" transform="matrix(1 0 0 1 2973.48 2043)">UAT</text><rect x="2191" y="1724" width="619" height="171" fill="#441392" fill-opacity="1"/><text fill="#FFFFFF" fill-opacity="1" font-family="Calibri,Calibri_MSFontService,sans-serif" font-style="normal" font-variant="normal" font-weight="700" font-stretch="normal" font-size="41" text-anchor="start" direction="ltr" writing-mode="lr-tb" unicode-bidi="normal" text-decoration="none" transform="matrix(1 0 0 1 2222.63 1824)">Platform &amp; UAT process training</text><rect x="1923" y="1413" width="891" height="188" fill="#441392" fill-opacity="1"/><text fill="#FFFFFF" fill-opacity="1" font-family="Calibri,Calibri_MSFontService,sans-serif" font-style="normal" font-variant="normal" font-weight="700" font-stretch="normal" font-size="41" text-anchor="start" direction="ltr" writing-mode="lr-tb" unicode-bidi="normal" text-decoration="none" transform="matrix(1 0 0 1 2166.67 1521)">Confirm operation flow</text><rect x="1170" y="1126" width="1020" height="187" fill="#00979B" fill-opacity="1"/><text fill="#FFFFFF" fill-opacity="1" font-family="Calibri,Calibri_MSFontService,sans-serif" font-style="normal" font-variant="normal" font-weight="700" font-stretch="normal" font-size="37" text-anchor="start" direction="ltr" writing-mode="lr-tb" unicode-bidi="normal" text-decoration="none" transform="matrix(1 0 0 1 1576.78 1211)">Business plan<tspan fill="#FFFFFF" fill-opacity="1" font-family="Calibri,Calibri_MSFontService,sans-serif" font-style="normal" font-variant="normal" font-weight="700" font-stretch="normal" font-size="37" text-anchor="start" direction="ltr" writing-mode="lr-tb" unicode-bidi="normal" text-decoration="none" x="-59.5834" y="41">Forecast &amp; Allocation</tspan></text><rect x="659" y="1126" width="513" height="188" fill="#005FBF" fill-opacity="1"/><text fill="#FFFFFF" fill-opacity="1" font-family="Calibri,Calibri_MSFontService,sans-serif" font-style="normal" font-variant="normal" font-weight="700" font-stretch="normal" font-size="37" text-anchor="start" direction="ltr" writing-mode="lr-tb" unicode-bidi="normal" text-decoration="none" transform="matrix(1 0 0 1 780.347 1210)">Creative Design &amp; <tspan fill="#FFFFFF" fill-opacity="1" font-family="Calibri,Calibri_MSFontService,sans-serif" font-style="normal" font-variant="normal" font-weight="700" font-stretch="normal" font-size="37" text-anchor="start" direction="ltr" writing-mode="lr-tb" unicode-bidi="normal" text-decoration="none" x="-52.1354" y="44">Specifications</tspan><tspan fill="#FFFFFF" fill-opacity="1" font-family="Calibri,Calibri_MSFontService,sans-serif" font-style="normal" font-variant="normal" font-weight="700" font-stretch="normal" font-size="37" text-anchor="start" direction="ltr" writing-mode="lr-tb" unicode-bidi="normal" text-decoration="none" x="165.573" y="44">Validation</tspan></text><path d="M3210.16 518.969 3210.16 518.979C3210.17 521.827 3207.88 524.149 3205.03 524.167 3202.18 524.184 3199.86 521.889 3199.84 519.042L3199.84 519.031C3199.83 516.184 3202.12 513.861 3204.97 513.844 3207.82 513.827 3210.14 516.121 3210.16 518.969ZM3210.28 539.604 3210.28 539.614C3210.3 542.462 3208 544.784 3205.16 544.801 3202.31 544.819 3199.99 542.524 3199.97 539.677L3199.97 539.666C3199.95 536.818 3202.25 534.496 3205.09 534.479 3207.94 534.462 3210.26 536.756 3210.28 539.604ZM3210.41 560.239 3210.41 560.249C3210.42 563.097 3208.13 565.419 3205.28 565.436 3202.43 565.454 3200.11 563.159 3200.09 560.311L3200.09 560.301C3200.08 557.453 3202.37 555.131 3205.22 555.114 3208.07 555.097 3210.39 557.391 3210.41 560.239ZM3210.53 580.874 3210.53 580.884C3210.55 583.732 3208.25 586.054 3205.41 586.071 3202.56 586.089 3200.24 583.794 3200.22 580.946L3200.22 580.936C3200.2 578.088 3202.5 575.766 3205.34 575.749 3208.19 575.732 3210.51 578.026 3210.53 580.874ZM3210.66 601.509 3210.66 601.519C3210.67 604.367 3208.38 606.689 3205.53 606.706 3202.68 606.724 3200.36 604.429 3200.34 601.581L3200.34 601.571C3200.33 598.723 3202.62 596.401 3205.47 596.384 3208.32 596.366 3210.64 598.661 3210.66 601.509ZM3210.78 622.144 3210.78 622.154C3210.8 625.002 3208.5 627.324 3205.66 627.341 3202.81 627.358 3200.49 625.064 3200.47 622.216L3200.47 622.206C3200.45 619.358 3202.75 617.036 3205.59 617.019 3208.44 617.001 3210.76 619.296 3210.78 622.144ZM3210.91 642.778 3210.91 642.789C3210.92 645.636 3208.63 647.959 3205.78 647.976 3202.93 647.993 3200.61 645.699 3200.59 642.851L3200.59 642.841C3200.58 639.993 3202.87 637.671 3205.72 637.654 3208.57 637.636 3210.89 639.931 3210.91 642.778ZM3211.03 663.413 3211.03 663.424C3211.05 666.271 3208.75 668.594 3205.91 668.611 3203.06 668.628 3200.73 666.334 3200.72 663.486L3200.72 663.476C3200.7 660.628 3202.99 658.306 3205.84 658.288 3208.69 658.271 3211.01 660.566 3211.03 663.413ZM3211.15 684.048 3211.15 684.059C3211.17 686.906 3208.88 689.229 3206.03 689.246 3203.18 689.263 3200.86 686.969 3200.84 684.121L3200.84 684.111C3200.83 681.263 3203.12 678.941 3205.97 678.923 3208.81 678.906 3211.14 681.201 3211.15 684.048ZM3211.28 704.683 3211.28 704.694C3211.3 707.541 3209 709.864 3206.15 709.881 3203.31 709.898 3200.98 707.604 3200.97 704.756L3200.97 704.746C3200.95 701.898 3203.24 699.576 3206.09 699.558 3208.94 699.541 3211.26 701.836 3211.28 704.683ZM3211.4 725.318 3211.4 725.328C3211.42 728.176 3209.13 730.499 3206.28 730.516 3203.43 730.533 3201.11 728.239 3201.09 725.391L3201.09 725.381C3201.07 722.533 3203.37 720.21 3206.22 720.193 3209.06 720.176 3211.39 722.471 3211.4 725.318ZM3211.53 745.953 3211.53 745.963C3211.55 748.811 3209.25 751.134 3206.4 751.151 3203.56 751.168 3201.23 748.873 3201.22 746.026L3201.22 746.016C3201.2 743.168 3203.49 740.845 3206.34 740.828 3209.19 740.811 3211.51 743.105 3211.53 745.953ZM3211.65 766.588 3211.65 766.598C3211.67 769.446 3209.38 771.768 3206.53 771.786 3203.68 771.803 3201.36 769.508 3201.34 766.661L3201.34 766.65C3201.32 763.803 3203.62 761.48 3206.47 761.463 3209.31 761.446 3211.64 763.74 3211.65 766.588ZM3211.78 787.223 3211.78 787.233C3211.8 790.081 3209.5 792.403 3206.65 792.421 3203.81 792.438 3201.48 790.143 3201.47 787.296L3201.47 787.285C3201.45 784.438 3203.74 782.115 3206.59 782.098 3209.44 782.081 3211.76 784.375 3211.78 787.223ZM3211.9 807.858 3211.9 807.868C3211.92 810.716 3209.63 813.038 3206.78 813.056 3203.93 813.073 3201.61 810.778 3201.59 807.931L3201.59 807.92C3201.57 805.073 3203.87 802.75 3206.72 802.733 3209.56 802.716 3211.89 805.01 3211.9 807.858ZM3212.03 828.493 3212.03 828.503C3212.05 831.351 3209.75 833.673 3206.9 833.69 3204.06 833.708 3201.73 831.413 3201.72 828.565L3201.72 828.555C3201.7 825.708 3203.99 823.385 3206.84 823.368 3209.69 823.351 3212.01 825.645 3212.03 828.493ZM3212.15 849.128 3212.15 849.138C3212.17 851.986 3209.88 854.308 3207.03 854.325 3204.18 854.343 3201.86 852.048 3201.84 849.2L3201.84 849.19C3201.82 846.342 3204.12 844.02 3206.97 844.003 3209.81 843.986 3212.14 846.28 3212.15 849.128ZM3212.28 869.763 3212.28 869.773C3212.3 872.621 3210 874.943 3207.15 874.96 3204.31 874.978 3201.98 872.683 3201.97 869.835L3201.97 869.825C3201.95 866.977 3204.24 864.655 3207.09 864.638 3209.94 864.62 3212.26 866.915 3212.28 869.763ZM3212.4 890.398 3212.4 890.408C3212.42 893.256 3210.13 895.578 3207.28 895.595 3204.43 895.612 3202.11 893.318 3202.09 890.47L3202.09 890.46C3202.07 887.612 3204.37 885.29 3207.22 885.273 3210.06 885.255 3212.39 887.55 3212.4 890.398ZM3212.53 911.033 3212.53 911.043C3212.54 913.891 3210.25 916.213 3207.4 916.23 3204.55 916.247 3202.23 913.953 3202.22 911.105L3202.22 911.095C3202.2 908.247 3204.49 905.925 3207.34 905.908 3210.19 905.89 3212.51 908.185 3212.53 911.033ZM3212.65 931.668 3212.65 931.678C3212.67 934.526 3210.38 936.848 3207.53 936.865 3204.68 936.882 3202.36 934.588 3202.34 931.74L3202.34 931.73C3202.32 928.882 3204.62 926.56 3207.46 926.542 3210.31 926.525 3212.64 928.82 3212.65 931.668ZM3212.78 952.302 3212.78 952.313C3212.79 955.16 3210.5 957.483 3207.65 957.5 3204.8 957.517 3202.48 955.223 3202.46 952.375L3202.46 952.365C3202.45 949.517 3204.74 947.195 3207.59 947.177 3210.44 947.16 3212.76 949.455 3212.78 952.302ZM3212.9 972.937 3212.9 972.948C3212.92 975.795 3210.62 978.118 3207.78 978.135 3204.93 978.152 3202.61 975.858 3202.59 973.01L3202.59 973C3202.57 970.152 3204.87 967.83 3207.71 967.812 3210.56 967.795 3212.88 970.09 3212.9 972.937ZM3213.03 993.572 3213.03 993.583C3213.04 996.43 3210.75 998.753 3207.9 998.77 3205.05 998.787 3202.73 996.493 3202.71 993.645L3202.71 993.635C3202.7 990.787 3204.99 988.464 3207.84 988.447 3210.69 988.43 3213.01 990.725 3213.03 993.572ZM3213.15 1014.21 3213.15 1014.22C3213.17 1017.07 3210.87 1019.39 3208.03 1019.4 3205.18 1019.42 3202.86 1017.13 3202.84 1014.28L3202.84 1014.27C3202.82 1011.42 3205.12 1009.1 3207.96 1009.08 3210.81 1009.07 3213.13 1011.36 3213.15 1014.21ZM3213.28 1034.84 3213.28 1034.85C3213.29 1037.7 3211 1040.02 3208.15 1040.04 3205.3 1040.06 3202.98 1037.76 3202.96 1034.91L3202.96 1034.9C3202.95 1032.06 3205.24 1029.73 3208.09 1029.72 3210.94 1029.7 3213.26 1031.99 3213.28 1034.84ZM3213.4 1055.48 3213.4 1055.49C3213.42 1058.34 3211.12 1060.66 3208.28 1060.67 3205.43 1060.69 3203.11 1058.4 3203.09 1055.55L3203.09 1055.54C3203.07 1052.69 3205.37 1050.37 3208.21 1050.35 3211.06 1050.33 3213.38 1052.63 3213.4 1055.48ZM3213.53 1076.11 3213.53 1076.12C3213.54 1078.97 3211.25 1081.29 3208.4 1081.31 3205.55 1081.33 3203.23 1079.03 3203.21 1076.18L3203.21 1076.17C3203.2 1073.33 3205.49 1071 3208.34 1070.99 3211.19 1070.97 3213.51 1073.26 3213.53 1076.11ZM3213.65 1096.75 3213.65 1096.76C3213.67 1099.6 3211.37 1101.93 3208.53 1101.94 3205.68 1101.96 3203.36 1099.67 3203.34 1096.82L3203.34 1096.81C3203.32 1093.96 3205.62 1091.64 3208.46 1091.62 3211.31 1091.6 3213.63 1093.9 3213.65 1096.75ZM3213.78 1117.38 3213.78 1117.39C3213.79 1120.24 3211.5 1122.56 3208.65 1122.58 3205.8 1122.6 3203.48 1120.3 3203.46 1117.45L3203.46 1117.44C3203.45 1114.6 3205.74 1112.27 3208.59 1112.26 3211.44 1112.24 3213.76 1114.53 3213.78 1117.38ZM3213.9 1138.02 3213.9 1138.03C3213.92 1140.87 3211.62 1143.2 3208.78 1143.21 3205.93 1143.23 3203.6 1140.94 3203.59 1138.09L3203.59 1138.08C3203.57 1135.23 3205.87 1132.91 3208.71 1132.89 3211.56 1132.87 3213.88 1135.17 3213.9 1138.02ZM3214.02 1158.65 3214.02 1158.66C3214.04 1161.51 3211.75 1163.83 3208.9 1163.85 3206.05 1163.87 3203.73 1161.57 3203.71 1158.72L3203.71 1158.71C3203.7 1155.87 3205.99 1153.54 3208.84 1153.53 3211.69 1153.51 3214.01 1155.8 3214.02 1158.65ZM3214.15 1179.29 3214.15 1179.3C3214.17 1182.14 3211.87 1184.47 3209.02 1184.48 3206.18 1184.5 3203.85 1182.21 3203.84 1179.36L3203.84 1179.35C3203.82 1176.5 3206.11 1174.18 3208.96 1174.16 3211.81 1174.14 3214.13 1176.44 3214.15 1179.29ZM3214.27 1199.92 3214.27 1199.93C3214.29 1202.78 3212 1205.1 3209.15 1205.12 3206.3 1205.14 3203.98 1202.84 3203.96 1199.99L3203.96 1199.98C3203.95 1197.14 3206.24 1194.81 3209.09 1194.8 3211.93 1194.78 3214.26 1197.07 3214.27 1199.92ZM3214.4 1220.56 3214.4 1220.57C3214.42 1223.41 3212.12 1225.74 3209.27 1225.75 3206.43 1225.77 3204.1 1223.48 3204.09 1220.63L3204.09 1220.62C3204.07 1217.77 3206.36 1215.45 3209.21 1215.43 3212.06 1215.41 3214.38 1217.71 3214.4 1220.56ZM3214.52 1241.19 3214.52 1241.2C3214.54 1244.05 3212.25 1246.37 3209.4 1246.39 3206.55 1246.41 3204.23 1244.11 3204.21 1241.26L3204.21 1241.25C3204.19 1238.41 3206.49 1236.08 3209.34 1236.07 3212.18 1236.05 3214.51 1238.34 3214.52 1241.19ZM3214.65 1261.83 3214.65 1261.84C3214.67 1264.68 3212.37 1267.01 3209.52 1267.02 3206.68 1267.04 3204.35 1264.75 3204.34 1261.9L3204.34 1261.89C3204.32 1259.04 3206.61 1256.72 3209.46 1256.7 3212.31 1256.68 3214.63 1258.98 3214.65 1261.83ZM3214.77 1282.46 3214.77 1282.47C3214.79 1285.32 3212.5 1287.64 3209.65 1287.66 3206.8 1287.68 3204.48 1285.38 3204.46 1282.53L3204.46 1282.52C3204.44 1279.68 3206.74 1277.35 3209.59 1277.34 3212.43 1277.32 3214.76 1279.61 3214.77 1282.46ZM3214.9 1303.1 3214.9 1303.11C3214.92 1305.95 3212.62 1308.28 3209.77 1308.29 3206.93 1308.31 3204.6 1306.02 3204.59 1303.17L3204.59 1303.16C3204.57 1300.31 3206.86 1297.99 3209.71 1297.97 3212.56 1297.95 3214.88 1300.25 3214.9 1303.1ZM3215.02 1323.73 3215.02 1323.74C3215.04 1326.59 3212.75 1328.91 3209.9 1328.93 3207.05 1328.95 3204.73 1326.65 3204.71 1323.8L3204.71 1323.79C3204.69 1320.95 3206.99 1318.62 3209.84 1318.61 3212.68 1318.59 3215.01 1320.88 3215.02 1323.73ZM3215.15 1344.37 3215.15 1344.38C3215.17 1347.22 3212.87 1349.55 3210.02 1349.56 3207.18 1349.58 3204.85 1347.29 3204.84 1344.44L3204.84 1344.43C3204.82 1341.58 3207.11 1339.26 3209.96 1339.24 3212.81 1339.22 3215.13 1341.52 3215.15 1344.37ZM3215.27 1365 3215.27 1365.01C3215.29 1367.86 3213 1370.18 3210.15 1370.2 3207.3 1370.22 3204.98 1367.92 3204.96 1365.07L3204.96 1365.06C3204.94 1362.22 3207.24 1359.89 3210.09 1359.88 3212.93 1359.86 3215.26 1362.15 3215.27 1365ZM3215.4 1385.64 3215.4 1385.65C3215.42 1388.49 3213.12 1390.82 3210.27 1390.83 3207.43 1390.85 3205.1 1388.56 3205.09 1385.71L3205.09 1385.7C3205.07 1382.85 3207.36 1380.53 3210.21 1380.51 3213.06 1380.49 3215.38 1382.79 3215.4 1385.64ZM3215.52 1406.27 3215.52 1406.28C3215.54 1409.13 3213.25 1411.45 3210.4 1411.47 3207.55 1411.49 3205.23 1409.19 3205.21 1406.34L3205.21 1406.33C3205.19 1403.49 3207.49 1401.16 3210.33 1401.15 3213.18 1401.13 3215.51 1403.42 3215.52 1406.27ZM3215.65 1426.91 3215.65 1426.92C3215.66 1429.76 3213.37 1432.09 3210.52 1432.1 3207.67 1432.12 3205.35 1429.83 3205.33 1426.98L3205.33 1426.97C3205.32 1424.12 3207.61 1421.8 3210.46 1421.78 3213.31 1421.76 3215.63 1424.06 3215.65 1426.91ZM3215.77 1447.54 3215.77 1447.55C3215.79 1450.4 3213.49 1452.72 3210.65 1452.74 3207.8 1452.76 3205.48 1450.46 3205.46 1447.61L3205.46 1447.6C3205.44 1444.76 3207.74 1442.43 3210.58 1442.42 3213.43 1442.4 3215.75 1444.69 3215.77 1447.54ZM3215.9 1468.18 3215.9 1468.19C3215.91 1471.03 3213.62 1473.36 3210.77 1473.37 3207.92 1473.39 3205.6 1471.1 3205.58 1468.25L3205.58 1468.24C3205.57 1465.39 3207.86 1463.07 3210.71 1463.05 3213.56 1463.03 3215.88 1465.33 3215.9 1468.18ZM3216.02 1488.81 3216.02 1488.82C3216.04 1491.67 3213.74 1493.99 3210.9 1494.01 3208.05 1494.03 3205.73 1491.73 3205.71 1488.88L3205.71 1488.87C3205.69 1486.03 3207.99 1483.7 3210.83 1483.69 3213.68 1483.67 3216 1485.96 3216.02 1488.81ZM3216.15 1509.45 3216.15 1509.46C3216.16 1512.3 3213.87 1514.63 3211.02 1514.64 3208.17 1514.66 3205.85 1512.37 3205.83 1509.52L3205.83 1509.51C3205.82 1506.66 3208.11 1504.34 3210.96 1504.32 3213.81 1504.3 3216.13 1506.6 3216.15 1509.45ZM3216.27 1530.08 3216.27 1530.09C3216.29 1532.94 3213.99 1535.26 3211.15 1535.28 3208.3 1535.3 3205.98 1533 3205.96 1530.15L3205.96 1530.14C3205.94 1527.29 3208.24 1524.97 3211.08 1524.96 3213.93 1524.94 3216.25 1527.23 3216.27 1530.08ZM3216.4 1550.72 3216.4 1550.73C3216.41 1553.57 3214.12 1555.9 3211.27 1555.91 3208.42 1555.93 3206.1 1553.64 3206.08 1550.79L3206.08 1550.78C3206.07 1547.93 3208.36 1545.61 3211.21 1545.59 3214.06 1545.57 3216.38 1547.87 3216.4 1550.72ZM3216.52 1571.35 3216.52 1571.36C3216.54 1574.21 3214.24 1576.53 3211.4 1576.55 3208.55 1576.56 3206.23 1574.27 3206.21 1571.42L3206.21 1571.41C3206.19 1568.56 3208.49 1566.24 3211.33 1566.23 3214.18 1566.21 3216.5 1568.5 3216.52 1571.35ZM3216.65 1591.99 3216.65 1592C3216.66 1594.84 3214.37 1597.17 3211.52 1597.18 3208.67 1597.2 3206.35 1594.91 3206.33 1592.06L3206.33 1592.05C3206.32 1589.2 3208.61 1586.88 3211.46 1586.86 3214.31 1586.84 3216.63 1589.14 3216.65 1591.99ZM3216.77 1612.62 3216.77 1612.63C3216.79 1615.48 3214.49 1617.8 3211.65 1617.82 3208.8 1617.83 3206.48 1615.54 3206.46 1612.69L3206.46 1612.68C3206.44 1609.83 3208.74 1607.51 3211.58 1607.49 3214.43 1607.48 3216.75 1609.77 3216.77 1612.62ZM3216.9 1633.26 3216.9 1633.27C3216.91 1636.11 3214.62 1638.44 3211.77 1638.45 3208.92 1638.47 3206.6 1636.18 3206.58 1633.33L3206.58 1633.32C3206.57 1630.47 3208.86 1628.15 3211.71 1628.13 3214.56 1628.11 3216.88 1630.41 3216.9 1633.26ZM3217.02 1653.89 3217.02 1653.9C3217.04 1656.75 3214.74 1659.07 3211.89 1659.09 3209.05 1659.1 3206.72 1656.81 3206.71 1653.96L3206.71 1653.95C3206.69 1651.1 3208.98 1648.78 3211.83 1648.76 3214.68 1648.75 3217 1651.04 3217.02 1653.89ZM3217.14 1674.52 3217.14 1674.54C3217.16 1677.38 3214.87 1679.71 3212.02 1679.72 3209.17 1679.74 3206.85 1677.44 3206.83 1674.6L3206.83 1674.59C3206.82 1671.74 3209.11 1669.42 3211.96 1669.4 3214.81 1669.38 3217.13 1671.68 3217.14 1674.52ZM3217.27 1695.16 3217.27 1695.17C3217.29 1698.02 3214.99 1700.34 3212.14 1700.36 3209.3 1700.37 3206.97 1698.08 3206.96 1695.23L3206.96 1695.22C3206.94 1692.37 3209.23 1690.05 3212.08 1690.03 3214.93 1690.02 3217.25 1692.31 3217.27 1695.16ZM3217.39 1715.79 3217.39 1715.8C3217.41 1718.65 3215.12 1720.98 3212.27 1720.99 3209.42 1721.01 3207.1 1718.71 3207.08 1715.87L3207.08 1715.86C3207.06 1713.01 3209.36 1710.69 3212.21 1710.67 3215.05 1710.65 3217.38 1712.95 3217.39 1715.79ZM3217.52 1736.43 3217.52 1736.44C3217.54 1739.29 3215.24 1741.61 3212.39 1741.63 3209.55 1741.64 3207.22 1739.35 3207.21 1736.5L3207.21 1736.49C3207.19 1733.64 3209.48 1731.32 3212.33 1731.3 3215.18 1731.29 3217.5 1733.58 3217.52 1736.43ZM3217.64 1757.06 3217.64 1757.07C3217.66 1759.92 3215.37 1762.24 3212.52 1762.26 3209.67 1762.28 3207.35 1759.98 3207.33 1757.14L3207.33 1757.13C3207.31 1754.28 3209.61 1751.96 3212.46 1751.94 3215.3 1751.92 3217.63 1754.22 3217.64 1757.06ZM3217.77 1777.7 3217.77 1777.71C3217.79 1780.56 3215.49 1782.88 3212.64 1782.9 3209.8 1782.91 3207.47 1780.62 3207.46 1777.77L3207.46 1777.76C3207.44 1774.91 3209.73 1772.59 3212.58 1772.57 3215.43 1772.56 3217.75 1774.85 3217.77 1777.7ZM3217.89 1798.33 3217.89 1798.34C3217.91 1801.19 3215.62 1803.51 3212.77 1803.53 3209.92 1803.55 3207.6 1801.25 3207.58 1798.41L3207.58 1798.4C3207.56 1795.55 3209.86 1793.23 3212.71 1793.21 3215.55 1793.19 3217.88 1795.49 3217.89 1798.33ZM3218.02 1818.97 3218.02 1818.98C3218.04 1821.83 3215.74 1824.15 3212.89 1824.17 3210.05 1824.18 3207.72 1821.89 3207.71 1819.04L3207.71 1819.03C3207.69 1816.18 3209.98 1813.86 3212.83 1813.84 3215.68 1813.83 3218 1816.12 3218.02 1818.97ZM3218.14 1839.6 3218.14 1839.61C3218.16 1842.46 3215.87 1844.78 3213.02 1844.8 3210.17 1844.82 3207.85 1842.52 3207.83 1839.68L3207.83 1839.67C3207.81 1836.82 3210.11 1834.5 3212.96 1834.48 3215.8 1834.46 3218.13 1836.76 3218.14 1839.6ZM3218.27 1860.24 3218.27 1860.25C3218.28 1863.1 3215.99 1865.42 3213.14 1865.44 3210.3 1865.45 3207.97 1863.16 3207.96 1860.31L3207.96 1860.3C3207.94 1857.45 3210.23 1855.13 3213.08 1855.11 3215.93 1855.1 3218.25 1857.39 3218.27 1860.24ZM3218.39 1880.87 3218.39 1880.88C3218.41 1883.73 3216.12 1886.05 3213.27 1886.07 3210.42 1886.09 3208.1 1883.79 3208.08 1880.95L3208.08 1880.94C3208.06 1878.09 3210.36 1875.77 3213.21 1875.75 3216.05 1875.73 3218.38 1878.03 3218.39 1880.87ZM3218.52 1901.51 3218.52 1901.52C3218.53 1904.37 3216.24 1906.69 3213.39 1906.71 3210.54 1906.72 3208.22 1904.43 3208.21 1901.58L3208.21 1901.57C3208.19 1898.72 3210.48 1896.4 3213.33 1896.38 3216.18 1896.37 3218.5 1898.66 3218.52 1901.51ZM3218.64 1922.14 3218.64 1922.15C3218.66 1925 3216.36 1927.32 3213.52 1927.34 3210.67 1927.36 3208.35 1925.06 3208.33 1922.22L3208.33 1922.21C3208.31 1919.36 3210.61 1917.04 3213.45 1917.02 3216.3 1917 3218.62 1919.3 3218.64 1922.14ZM3218.77 1942.78 3218.77 1942.79C3218.78 1945.64 3216.49 1947.96 3213.64 1947.98 3210.79 1947.99 3208.47 1945.7 3208.45 1942.85L3208.45 1942.84C3208.44 1939.99 3210.73 1937.67 3213.58 1937.65 3216.43 1937.64 3218.75 1939.93 3218.77 1942.78ZM3218.89 1963.41 3218.89 1963.42C3218.91 1966.27 3216.61 1968.59 3213.77 1968.61 3210.92 1968.63 3208.6 1966.33 3208.58 1963.49L3208.58 1963.48C3208.56 1960.63 3210.86 1958.31 3213.7 1958.29 3216.55 1958.27 3218.87 1960.57 3218.89 1963.41ZM3219.02 1984.05 3219.02 1984.06C3219.03 1986.91 3216.74 1989.23 3213.89 1989.25 3211.04 1989.26 3208.72 1986.97 3208.7 1984.12L3208.7 1984.11C3208.69 1981.26 3210.98 1978.94 3213.83 1978.92 3216.68 1978.91 3219 1981.2 3219.02 1984.05ZM3219.14 2004.68 3219.14 2004.69C3219.16 2007.54 3216.86 2009.86 3214.02 2009.88 3211.17 2009.9 3208.85 2007.6 3208.83 2004.76L3208.83 2004.75C3208.81 2001.9 3211.11 1999.58 3213.95 1999.56 3216.8 1999.54 3219.12 2001.84 3219.14 2004.68ZM3219.27 2025.32 3219.27 2025.33C3219.28 2028.18 3216.99 2030.5 3214.14 2030.52 3211.29 2030.53 3208.97 2028.24 3208.95 2025.39L3208.95 2025.38C3208.94 2022.53 3211.23 2020.21 3214.08 2020.19 3216.93 2020.18 3219.25 2022.47 3219.27 2025.32ZM3219.39 2045.95 3219.39 2045.96C3219.41 2048.81 3217.11 2051.13 3214.27 2051.15 3211.42 2051.17 3209.1 2048.87 3209.08 2046.03L3209.08 2046.02C3209.06 2043.17 3211.36 2040.85 3214.2 2040.83 3217.05 2040.81 3219.37 2043.11 3219.39 2045.95ZM3219.52 2066.59 3219.52 2066.6C3219.53 2069.45 3217.24 2071.77 3214.39 2071.79 3211.54 2071.8 3209.22 2069.51 3209.2 2066.66L3209.2 2066.65C3209.19 2063.8 3211.48 2061.48 3214.33 2061.46 3217.18 2061.45 3219.5 2063.74 3219.52 2066.59ZM3219.64 2087.22 3219.64 2087.23C3219.66 2090.08 3217.36 2092.4 3214.52 2092.42 3211.67 2092.44 3209.35 2090.14 3209.33 2087.3L3209.33 2087.29C3209.31 2084.44 3211.61 2082.12 3214.45 2082.1 3217.3 2082.08 3219.62 2084.38 3219.64 2087.22Z" fill="#60607D" fill-rule="nonzero" fill-opacity="1"/><path d="M2817.16 519 2817.16 519.01C2817.16 521.858 2814.85 524.167 2812 524.167 2809.15 524.167 2806.84 521.858 2806.84 519.01L2806.84 519C2806.84 516.152 2809.15 513.844 2812 513.844 2814.85 513.844 2817.16 516.152 2817.16 519ZM2817.16 539.635 2817.16 539.646C2817.16 542.493 2814.85 544.802 2812 544.802 2809.15 544.802 2806.84 542.493 2806.84 539.646L2806.84 539.635C2806.84 536.788 2809.15 534.479 2812 534.479 2814.85 534.479 2817.16 536.788 2817.16 539.635ZM2817.16 560.271 2817.16 560.281C2817.16 563.129 2814.85 565.437 2812 565.437 2809.15 565.437 2806.84 563.129 2806.84 560.281L2806.84 560.271C2806.84 557.423 2809.15 555.114 2812 555.114 2814.85 555.114 2817.16 557.423 2817.16 560.271ZM2817.16 580.906 2817.16 580.916C2817.16 583.764 2814.85 586.073 2812 586.073 2809.15 586.073 2806.84 583.764 2806.84 580.916L2806.84 580.906C2806.84 578.058 2809.15 575.75 2812 575.75 2814.85 575.75 2817.16 578.058 2817.16 580.906ZM2817.16 601.541 2817.16 601.552C2817.16 604.399 2814.85 606.708 2812 606.708 2809.15 606.708 2806.84 604.399 2806.84 601.552L2806.84 601.541C2806.84 598.694 2809.15 596.385 2812 596.385 2814.85 596.385 2817.16 598.694 2817.16 601.541ZM2817.16 622.177 2817.16 622.187C2817.16 625.035 2814.85 627.343 2812 627.343 2809.15 627.343 2806.84 625.035 2806.84 622.187L2806.84 622.177C2806.84 619.329 2809.15 617.02 2812 617.02 2814.85 617.02 2817.16 619.329 2817.16 622.177ZM2817.16 642.812 2817.16 642.822C2817.16 645.67 2814.85 647.978 2812 647.978 2809.15 647.978 2806.84 645.67 2806.84 642.822L2806.84 642.812C2806.84 639.964 2809.15 637.656 2812 637.656 2814.85 637.656 2817.16 639.964 2817.16 642.812ZM2817.16 663.447 2817.16 663.458C2817.16 666.305 2814.85 668.614 2812 668.614 2809.15 668.614 2806.84 666.305 2806.84 663.458L2806.84 663.447C2806.84 660.599 2809.15 658.291 2812 658.291 2814.85 658.291 2817.16 660.599 2817.16 663.447ZM2817.16 684.083 2817.16 684.093C2817.16 686.941 2814.85 689.249 2812 689.249 2809.15 689.249 2806.84 686.941 2806.84 684.093L2806.84 684.083C2806.84 681.235 2809.15 678.926 2812 678.926 2814.85 678.926 2817.16 681.235 2817.16 684.083ZM2817.16 704.718 2817.16 704.728C2817.16 707.576 2814.85 709.884 2812 709.884 2809.15 709.884 2806.84 707.576 2806.84 704.728L2806.84 704.718C2806.84 701.87 2809.15 699.562 2812 699.562 2814.85 699.562 2817.16 701.87 2817.16 704.718ZM2817.16 725.353 2817.16 725.363C2817.16 728.211 2814.85 730.52 2812 730.52 2809.15 730.52 2806.84 728.211 2806.84 725.363L2806.84 725.353C2806.84 722.505 2809.15 720.197 2812 720.197 2814.85 720.197 2817.16 722.505 2817.16 725.353ZM2817.16 745.988 2817.16 745.999C2817.16 748.846 2814.85 751.155 2812 751.155 2809.15 751.155 2806.84 748.846 2806.84 745.999L2806.84 745.988C2806.84 743.141 2809.15 740.832 2812 740.832 2814.85 740.832 2817.16 743.141 2817.16 745.988ZM2817.16 766.624 2817.16 766.634C2817.16 769.482 2814.85 771.79 2812 771.79 2809.15 771.79 2806.84 769.482 2806.84 766.634L2806.84 766.624C2806.84 763.776 2809.15 761.468 2812 761.468 2814.85 761.468 2817.16 763.776 2817.16 766.624ZM2817.16 787.259 2817.16 787.269C2817.16 790.117 2814.85 792.426 2812 792.426 2809.15 792.426 2806.84 790.117 2806.84 787.269L2806.84 787.259C2806.84 784.411 2809.15 782.103 2812 782.103 2814.85 782.103 2817.16 784.411 2817.16 787.259ZM2817.16 807.894 2817.16 807.905C2817.16 810.752 2814.85 813.061 2812 813.061 2809.15 813.061 2806.84 810.752 2806.84 807.905L2806.84 807.894C2806.84 805.047 2809.15 802.738 2812 802.738 2814.85 802.738 2817.16 805.047 2817.16 807.894ZM2817.16 828.53 2817.16 828.54C2817.16 831.388 2814.85 833.696 2812 833.696 2809.15 833.696 2806.84 831.388 2806.84 828.54L2806.84 828.53C2806.84 825.682 2809.15 823.373 2812 823.373 2814.85 823.373 2817.16 825.682 2817.16 828.53ZM2817.16 849.165 2817.16 849.175C2817.16 852.023 2814.85 854.332 2812 854.332 2809.15 854.332 2806.84 852.023 2806.84 849.175L2806.84 849.165C2806.84 846.317 2809.15 844.009 2812 844.009 2814.85 844.009 2817.16 846.317 2817.16 849.165ZM2817.16 869.8 2817.16 869.811C2817.16 872.658 2814.85 874.967 2812 874.967 2809.15 874.967 2806.84 872.658 2806.84 869.811L2806.84 869.8C2806.84 866.953 2809.15 864.644 2812 864.644 2814.85 864.644 2817.16 866.953 2817.16 869.8ZM2817.16 890.436 2817.16 890.446C2817.16 893.294 2814.85 895.602 2812 895.602 2809.15 895.602 2806.84 893.294 2806.84 890.446L2806.84 890.436C2806.84 887.588 2809.15 885.279 2812 885.279 2814.85 885.279 2817.16 887.588 2817.16 890.436ZM2817.16 911.071 2817.16 911.081C2817.16 913.929 2814.85 916.237 2812 916.237 2809.15 916.237 2806.84 913.929 2806.84 911.081L2806.84 911.071C2806.84 908.223 2809.15 905.915 2812 905.915 2814.85 905.915 2817.16 908.223 2817.16 911.071ZM2817.16 931.706 2817.16 931.717C2817.16 934.564 2814.85 936.873 2812 936.873 2809.15 936.873 2806.84 934.564 2806.84 931.717L2806.84 931.706C2806.84 928.859 2809.15 926.55 2812 926.55 2814.85 926.55 2817.16 928.859 2817.16 931.706ZM2817.16 952.342 2817.16 952.352C2817.16 955.2 2814.85 957.508 2812 957.508 2809.15 957.508 2806.84 955.2 2806.84 952.352L2806.84 952.342C2806.84 949.494 2809.15 947.185 2812 947.185 2814.85 947.185 2817.16 949.494 2817.16 952.342ZM2817.16 972.977 2817.16 972.987C2817.16 975.835 2814.85 978.143 2812 978.143 2809.15 978.143 2806.84 975.835 2806.84 972.987L2806.84 972.977C2806.84 970.129 2809.15 967.821 2812 967.821 2814.85 967.821 2817.16 970.129 2817.16 972.977ZM2817.16 993.612 2817.16 993.623C2817.16 996.47 2814.85 998.779 2812 998.779 2809.15 998.779 2806.84 996.47 2806.84 993.623L2806.84 993.612C2806.84 990.765 2809.15 988.456 2812 988.456 2814.85 988.456 2817.16 990.765 2817.16 993.612ZM2817.16 1014.25 2817.16 1014.26C2817.16 1017.11 2814.85 1019.41 2812 1019.41 2809.15 1019.41 2806.84 1017.11 2806.84 1014.26L2806.84 1014.25C2806.84 1011.4 2809.15 1009.09 2812 1009.09 2814.85 1009.09 2817.16 1011.4 2817.16 1014.25ZM2817.16 1034.88 2817.16 1034.89C2817.16 1037.74 2814.85 1040.05 2812 1040.05 2809.15 1040.05 2806.84 1037.74 2806.84 1034.89L2806.84 1034.88C2806.84 1032.04 2809.15 1029.73 2812 1029.73 2814.85 1029.73 2817.16 1032.04 2817.16 1034.88ZM2817.16 1055.52 2817.16 1055.53C2817.16 1058.38 2814.85 1060.68 2812 1060.68 2809.15 1060.68 2806.84 1058.38 2806.84 1055.53L2806.84 1055.52C2806.84 1052.67 2809.15 1050.36 2812 1050.36 2814.85 1050.36 2817.16 1052.67 2817.16 1055.52ZM2817.16 1076.15 2817.16 1076.16C2817.16 1079.01 2814.85 1081.32 2812 1081.32 2809.15 1081.32 2806.84 1079.01 2806.84 1076.16L2806.84 1076.15C2806.84 1073.31 2809.15 1071 2812 1071 2814.85 1071 2817.16 1073.31 2817.16 1076.15ZM2817.16 1096.79 2817.16 1096.8C2817.16 1099.65 2814.85 1101.96 2812 1101.96 2809.15 1101.96 2806.84 1099.65 2806.84 1096.8L2806.84 1096.79C2806.84 1093.94 2809.15 1091.63 2812 1091.63 2814.85 1091.63 2817.16 1093.94 2817.16 1096.79ZM2817.16 1117.42 2817.16 1117.43C2817.16 1120.28 2814.85 1122.59 2812 1122.59 2809.15 1122.59 2806.84 1120.28 2806.84 1117.43L2806.84 1117.42C2806.84 1114.58 2809.15 1112.27 2812 1112.27 2814.85 1112.27 2817.16 1114.58 2817.16 1117.42ZM2817.16 1138.06 2817.16 1138.07C2817.16 1140.92 2814.85 1143.23 2812 1143.23 2809.15 1143.23 2806.84 1140.92 2806.84 1138.07L2806.84 1138.06C2806.84 1135.21 2809.15 1132.9 2812 1132.9 2814.85 1132.9 2817.16 1135.21 2817.16 1138.06ZM2817.16 1158.69 2817.16 1158.71C2817.16 1161.55 2814.85 1163.86 2812 1163.86 2809.15 1163.86 2806.84 1161.55 2806.84 1158.71L2806.84 1158.69C2806.84 1155.85 2809.15 1153.54 2812 1153.54 2814.85 1153.54 2817.16 1155.85 2817.16 1158.69ZM2817.16 1179.33 2817.16 1179.34C2817.16 1182.19 2814.85 1184.5 2812 1184.5 2809.15 1184.5 2806.84 1182.19 2806.84 1179.34L2806.84 1179.33C2806.84 1176.48 2809.15 1174.17 2812 1174.17 2814.85 1174.17 2817.16 1176.48 2817.16 1179.33ZM2817.16 1199.97 2817.16 1199.98C2817.16 1202.82 2814.85 1205.13 2812 1205.13 2809.15 1205.13 2806.84 1202.82 2806.84 1199.98L2806.84 1199.97C2806.84 1197.12 2809.15 1194.81 2812 1194.81 2814.85 1194.81 2817.16 1197.12 2817.16 1199.97ZM2817.16 1220.6 2817.16 1220.61C2817.16 1223.46 2814.85 1225.77 2812 1225.77 2809.15 1225.77 2806.84 1223.46 2806.84 1220.61L2806.84 1220.6C2806.84 1217.75 2809.15 1215.44 2812 1215.44 2814.85 1215.44 2817.16 1217.75 2817.16 1220.6ZM2817.16 1241.24 2817.16 1241.25C2817.16 1244.09 2814.85 1246.4 2812 1246.4 2809.15 1246.4 2806.84 1244.09 2806.84 1241.25L2806.84 1241.24C2806.84 1238.39 2809.15 1236.08 2812 1236.08 2814.85 1236.08 2817.16 1238.39 2817.16 1241.24ZM2817.16 1261.87 2817.16 1261.88C2817.16 1264.73 2814.85 1267.04 2812 1267.04 2809.15 1267.04 2806.84 1264.73 2806.84 1261.88L2806.84 1261.87C2806.84 1259.02 2809.15 1256.72 2812 1256.72 2814.85 1256.72 2817.16 1259.02 2817.16 1261.87ZM2817.16 1282.51 2817.16 1282.52C2817.16 1285.36 2814.85 1287.67 2812 1287.67 2809.15 1287.67 2806.84 1285.36 2806.84 1282.52L2806.84 1282.51C2806.84 1279.66 2809.15 1277.35 2812 1277.35 2814.85 1277.35 2817.16 1279.66 2817.16 1282.51ZM2817.16 1303.14 2817.16 1303.15C2817.16 1306 2814.85 1308.31 2812 1308.31 2809.15 1308.31 2806.84 1306 2806.84 1303.15L2806.84 1303.14C2806.84 1300.29 2809.15 1297.99 2812 1297.99 2814.85 1297.99 2817.16 1300.29 2817.16 1303.14ZM2817.16 1323.78 2817.16 1323.79C2817.16 1326.64 2814.85 1328.94 2812 1328.94 2809.15 1328.94 2806.84 1326.64 2806.84 1323.79L2806.84 1323.78C2806.84 1320.93 2809.15 1318.62 2812 1318.62 2814.85 1318.62 2817.16 1320.93 2817.16 1323.78ZM2817.16 1344.41 2817.16 1344.42C2817.16 1347.27 2814.85 1349.58 2812 1349.58 2809.15 1349.58 2806.84 1347.27 2806.84 1344.42L2806.84 1344.41C2806.84 1341.56 2809.15 1339.26 2812 1339.26 2814.85 1339.26 2817.16 1341.56 2817.16 1344.41ZM2817.16 1365.05 2817.16 1365.06C2817.16 1367.91 2814.85 1370.21 2812 1370.21 2809.15 1370.21 2806.84 1367.91 2806.84 1365.06L2806.84 1365.05C2806.84 1362.2 2809.15 1359.89 2812 1359.89 2814.85 1359.89 2817.16 1362.2 2817.16 1365.05ZM2817.16 1385.68 2817.16 1385.69C2817.16 1388.54 2814.85 1390.85 2812 1390.85 2809.15 1390.85 2806.84 1388.54 2806.84 1385.69L2806.84 1385.68C2806.84 1382.84 2809.15 1380.53 2812 1380.53 2814.85 1380.53 2817.16 1382.84 2817.16 1385.68ZM2817.16 1406.32 2817.16 1406.33C2817.16 1409.18 2814.85 1411.48 2812 1411.48 2809.15 1411.48 2806.84 1409.18 2806.84 1406.33L2806.84 1406.32C2806.84 1403.47 2809.15 1401.16 2812 1401.16 2814.85 1401.16 2817.16 1403.47 2817.16 1406.32ZM2817.16 1426.95 2817.16 1426.96C2817.16 1429.81 2814.85 1432.12 2812 1432.12 2809.15 1432.12 2806.84 1429.81 2806.84 1426.96L2806.84 1426.95C2806.84 1424.11 2809.15 1421.8 2812 1421.8 2814.85 1421.8 2817.16 1424.11 2817.16 1426.95ZM2817.16 1447.59 2817.16 1447.6C2817.16 1450.45 2814.85 1452.76 2812 1452.76 2809.15 1452.76 2806.84 1450.45 2806.84 1447.6L2806.84 1447.59C2806.84 1444.74 2809.15 1442.43 2812 1442.43 2814.85 1442.43 2817.16 1444.74 2817.16 1447.59ZM2817.16 1468.22 2817.16 1468.23C2817.16 1471.08 2814.85 1473.39 2812 1473.39 2809.15 1473.39 2806.84 1471.08 2806.84 1468.23L2806.84 1468.22C2806.84 1465.38 2809.15 1463.07 2812 1463.07 2814.85 1463.07 2817.16 1465.38 2817.16 1468.22ZM2817.16 1488.86 2817.16 1488.87C2817.16 1491.72 2814.85 1494.03 2812 1494.03 2809.15 1494.03 2806.84 1491.72 2806.84 1488.87L2806.84 1488.86C2806.84 1486.01 2809.15 1483.7 2812 1483.7 2814.85 1483.7 2817.16 1486.01 2817.16 1488.86ZM2817.16 1509.49 2817.16 1509.51C2817.16 1512.35 2814.85 1514.66 2812 1514.66 2809.15 1514.66 2806.84 1512.35 2806.84 1509.51L2806.84 1509.49C2806.84 1506.65 2809.15 1504.34 2812 1504.34 2814.85 1504.34 2817.16 1506.65 2817.16 1509.49ZM2817.16 1530.13 2817.16 1530.14C2817.16 1532.99 2814.85 1535.3 2812 1535.3 2809.15 1535.3 2806.84 1532.99 2806.84 1530.14L2806.84 1530.13C2806.84 1527.28 2809.15 1524.97 2812 1524.97 2814.85 1524.97 2817.16 1527.28 2817.16 1530.13ZM2817.16 1550.77 2817.16 1550.78C2817.16 1553.62 2814.85 1555.93 2812 1555.93 2809.15 1555.93 2806.84 1553.62 2806.84 1550.78L2806.84 1550.77C2806.84 1547.92 2809.15 1545.61 2812 1545.61 2814.85 1545.61 2817.16 1547.92 2817.16 1550.77ZM2817.16 1571.4 2817.16 1571.41C2817.16 1574.26 2814.85 1576.57 2812 1576.57 2809.15 1576.57 2806.84 1574.26 2806.84 1571.41L2806.84 1571.4C2806.84 1568.55 2809.15 1566.24 2812 1566.24 2814.85 1566.24 2817.16 1568.55 2817.16 1571.4ZM2817.16 1592.04 2817.16 1592.05C2817.16 1594.89 2814.85 1597.2 2812 1597.2 2809.15 1597.2 2806.84 1594.89 2806.84 1592.05L2806.84 1592.04C2806.84 1589.19 2809.15 1586.88 2812 1586.88 2814.85 1586.88 2817.16 1589.19 2817.16 1592.04ZM2817.16 1612.67 2817.16 1612.68C2817.16 1615.53 2814.85 1617.84 2812 1617.84 2809.15 1617.84 2806.84 1615.53 2806.84 1612.68L2806.84 1612.67C2806.84 1609.82 2809.15 1607.51 2812 1607.51 2814.85 1607.51 2817.16 1609.82 2817.16 1612.67ZM2817.16 1633.31 2817.16 1633.32C2817.16 1636.16 2814.85 1638.47 2812 1638.47 2809.15 1638.47 2806.84 1636.16 2806.84 1633.32L2806.84 1633.31C2806.84 1630.46 2809.15 1628.15 2812 1628.15 2814.85 1628.15 2817.16 1630.46 2817.16 1633.31ZM2817.16 1653.94 2817.16 1653.95C2817.16 1656.8 2814.85 1659.11 2812 1659.11 2809.15 1659.11 2806.84 1656.8 2806.84 1653.95L2806.84 1653.94C2806.84 1651.09 2809.15 1648.79 2812 1648.79 2814.85 1648.79 2817.16 1651.09 2817.16 1653.94ZM2817.16 1674.58 2817.16 1674.59C2817.16 1677.44 2814.85 1679.74 2812 1679.74 2809.15 1679.74 2806.84 1677.44 2806.84 1674.59L2806.84 1674.58C2806.84 1671.73 2809.15 1669.42 2812 1669.42 2814.85 1669.42 2817.16 1671.73 2817.16 1674.58ZM2817.16 1695.21 2817.16 1695.22C2817.16 1698.07 2814.85 1700.38 2812 1700.38 2809.15 1700.38 2806.84 1698.07 2806.84 1695.22L2806.84 1695.21C2806.84 1692.36 2809.15 1690.06 2812 1690.06 2814.85 1690.06 2817.16 1692.36 2817.16 1695.21ZM2817.16 1715.85 2817.16 1715.86C2817.16 1718.71 2814.85 1721.01 2812 1721.01 2809.15 1721.01 2806.84 1718.71 2806.84 1715.86L2806.84 1715.85C2806.84 1713 2809.15 1710.69 2812 1710.69 2814.85 1710.69 2817.16 1713 2817.16 1715.85ZM2817.16 1736.48 2817.16 1736.49C2817.16 1739.34 2814.85 1741.65 2812 1741.65 2809.15 1741.65 2806.84 1739.34 2806.84 1736.49L2806.84 1736.48C2806.84 1733.64 2809.15 1731.33 2812 1731.33 2814.85 1731.33 2817.16 1733.64 2817.16 1736.48ZM2817.16 1757.12 2817.16 1757.13C2817.16 1759.98 2814.85 1762.28 2812 1762.28 2809.15 1762.28 2806.84 1759.98 2806.84 1757.13L2806.84 1757.12C2806.84 1754.27 2809.15 1751.96 2812 1751.96 2814.85 1751.96 2817.16 1754.27 2817.16 1757.12ZM2817.16 1777.75 2817.16 1777.76C2817.16 1780.61 2814.85 1782.92 2812 1782.92 2809.15 1782.92 2806.84 1780.61 2806.84 1777.76L2806.84 1777.75C2806.84 1774.91 2809.15 1772.6 2812 1772.6 2814.85 1772.6 2817.16 1774.91 2817.16 1777.75ZM2817.16 1798.39 2817.16 1798.4C2817.16 1801.25 2814.85 1803.56 2812 1803.56 2809.15 1803.56 2806.84 1801.25 2806.84 1798.4L2806.84 1798.39C2806.84 1795.54 2809.15 1793.23 2812 1793.23 2814.85 1793.23 2817.16 1795.54 2817.16 1798.39ZM2817.16 1819.02 2817.16 1819.03C2817.16 1821.88 2814.85 1824.19 2812 1824.19 2809.15 1824.19 2806.84 1821.88 2806.84 1819.03L2806.84 1819.02C2806.84 1816.18 2809.15 1813.87 2812 1813.87 2814.85 1813.87 2817.16 1816.18 2817.16 1819.02ZM2817.16 1839.66 2817.16 1839.67C2817.16 1842.52 2814.85 1844.83 2812 1844.83 2809.15 1844.83 2806.84 1842.52 2806.84 1839.67L2806.84 1839.66C2806.84 1836.81 2809.15 1834.5 2812 1834.5 2814.85 1834.5 2817.16 1836.81 2817.16 1839.66ZM2817.16 1860.29 2817.16 1860.31C2817.16 1863.15 2814.85 1865.46 2812 1865.46 2809.15 1865.46 2806.84 1863.15 2806.84 1860.31L2806.84 1860.29C2806.84 1857.45 2809.15 1855.14 2812 1855.14 2814.85 1855.14 2817.16 1857.45 2817.16 1860.29ZM2817.16 1880.93 2817.16 1880.94C2817.16 1883.79 2814.85 1886.1 2812 1886.1 2809.15 1886.1 2806.84 1883.79 2806.84 1880.94L2806.84 1880.93C2806.84 1878.08 2809.15 1875.77 2812 1875.77 2814.85 1875.77 2817.16 1878.08 2817.16 1880.93Z" fill="#60607D" fill-rule="nonzero" fill-opacity="1"/><path d="M668.156 531 668.156 531.01C668.156 533.858 665.848 536.167 663 536.167 660.152 536.167 657.844 533.858 657.844 531.01L657.844 531C657.844 528.152 660.152 525.844 663 525.844 665.848 525.844 668.156 528.152 668.156 531ZM668.156 551.635 668.156 551.646C668.156 554.493 665.848 556.802 663 556.802 660.152 556.802 657.844 554.493 657.844 551.646L657.844 551.635C657.844 548.788 660.152 546.479 663 546.479 665.848 546.479 668.156 548.788 668.156 551.635ZM668.156 572.271 668.156 572.281C668.156 575.129 665.848 577.437 663 577.437 660.152 577.437 657.844 575.129 657.844 572.281L657.844 572.271C657.844 569.423 660.152 567.115 663 567.115 665.848 567.115 668.156 569.423 668.156 572.271ZM668.156 592.906 668.156 592.916C668.156 595.764 665.848 598.073 663 598.073 660.152 598.073 657.844 595.764 657.844 592.916L657.844 592.906C657.844 590.058 660.152 587.75 663 587.75 665.848 587.75 668.156 590.058 668.156 592.906ZM668.156 613.541 668.156 613.552C668.156 616.399 665.848 618.708 663 618.708 660.152 618.708 657.844 616.399 657.844 613.552L657.844 613.541C657.844 610.694 660.152 608.385 663 608.385 665.848 608.385 668.156 610.694 668.156 613.541ZM668.156 634.177 668.156 634.187C668.156 637.035 665.848 639.343 663 639.343 660.152 639.343 657.844 637.035 657.844 634.187L657.844 634.177C657.844 631.329 660.152 629.02 663 629.02 665.848 629.02 668.156 631.329 668.156 634.177ZM668.156 654.812 668.156 654.822C668.156 657.67 665.848 659.979 663 659.979 660.152 659.979 657.844 657.67 657.844 654.822L657.844 654.812C657.844 651.964 660.152 649.656 663 649.656 665.848 649.656 668.156 651.964 668.156 654.812ZM668.156 675.447 668.156 675.458C668.156 678.305 665.848 680.614 663 680.614 660.152 680.614 657.844 678.305 657.844 675.458L657.844 675.447C657.844 672.6 660.152 670.291 663 670.291 665.848 670.291 668.156 672.6 668.156 675.447ZM668.156 696.083 668.156 696.093C668.156 698.941 665.848 701.249 663 701.249 660.152 701.249 657.844 698.941 657.844 696.093L657.844 696.083C657.844 693.235 660.152 690.926 663 690.926 665.848 690.926 668.156 693.235 668.156 696.083ZM668.156 716.718 668.156 716.728C668.156 719.576 665.848 721.884 663 721.884 660.152 721.884 657.844 719.576 657.844 716.728L657.844 716.718C657.844 713.87 660.152 711.562 663 711.562 665.848 711.562 668.156 713.87 668.156 716.718ZM668.156 737.353 668.156 737.364C668.156 740.211 665.848 742.52 663 742.52 660.153 742.52 657.844 740.211 657.844 737.364L657.844 737.353C657.844 734.505 660.153 732.197 663 732.197 665.848 732.197 668.156 734.505 668.156 737.353ZM668.156 757.989 668.156 757.999C668.156 760.847 665.848 763.155 663 763.155 660.153 763.155 657.844 760.847 657.844 757.999L657.844 757.989C657.844 755.141 660.153 752.832 663 752.832 665.848 752.832 668.156 755.141 668.156 757.989ZM668.156 778.624 668.156 778.634C668.156 781.482 665.848 783.79 663 783.79 660.153 783.79 657.844 781.482 657.844 778.634L657.844 778.624C657.844 775.776 660.153 773.468 663 773.468 665.848 773.468 668.156 775.776 668.156 778.624ZM668.156 799.259 668.156 799.269C668.156 802.117 665.848 804.426 663 804.426 660.153 804.426 657.844 802.117 657.844 799.269L657.844 799.259C657.844 796.411 660.153 794.103 663 794.103 665.848 794.103 668.156 796.411 668.156 799.259ZM668.156 819.894 668.156 819.905C668.156 822.753 665.848 825.061 663 825.061 660.153 825.061 657.844 822.753 657.844 819.905L657.844 819.894C657.844 817.047 660.153 814.738 663 814.738 665.848 814.738 668.156 817.047 668.156 819.894ZM668.156 840.53 668.156 840.54C668.156 843.388 665.848 845.696 663 845.696 660.153 845.696 657.844 843.388 657.844 840.54L657.844 840.53C657.844 837.682 660.153 835.374 663 835.374 665.848 835.374 668.156 837.682 668.156 840.53ZM668.156 861.165 668.156 861.175C668.157 864.023 665.848 866.332 663 866.332 660.153 866.332 657.844 864.023 657.844 861.175L657.844 861.165C657.844 858.317 660.153 856.009 663 856.009 665.848 856.009 668.156 858.317 668.156 861.165ZM668.157 881.8 668.157 881.811C668.157 884.658 665.848 886.967 663 886.967 660.153 886.967 657.844 884.658 657.844 881.811L657.844 881.8C657.844 878.953 660.153 876.644 663 876.644 665.848 876.644 668.157 878.953 668.157 881.8ZM668.157 902.436 668.157 902.446C668.157 905.294 665.848 907.602 663 907.602 660.153 907.602 657.844 905.294 657.844 902.446L657.844 902.436C657.844 899.588 660.153 897.279 663 897.279 665.848 897.279 668.157 899.588 668.157 902.436ZM668.157 923.071 668.157 923.081C668.157 925.929 665.848 928.238 663 928.238 660.153 928.238 657.844 925.929 657.844 923.081L657.844 923.071C657.844 920.223 660.153 917.915 663 917.915 665.848 917.915 668.157 920.223 668.157 923.071ZM668.157 943.706 668.157 943.717C668.157 946.564 665.848 948.873 663 948.873 660.153 948.873 657.844 946.564 657.844 943.717L657.844 943.706C657.844 940.859 660.153 938.55 663 938.55 665.848 938.55 668.157 940.859 668.157 943.706ZM668.157 964.342 668.157 964.352C668.157 967.2 665.848 969.508 663 969.508 660.153 969.508 657.844 967.2 657.844 964.352L657.844 964.342C657.844 961.494 660.153 959.185 663 959.185 665.848 959.185 668.157 961.494 668.157 964.342ZM668.157 984.977 668.157 984.987C668.157 987.835 665.848 990.144 663 990.144 660.153 990.144 657.844 987.835 657.844 984.987L657.844 984.977C657.844 982.129 660.153 979.821 663 979.821 665.848 979.821 668.157 982.129 668.157 984.977ZM668.157 1005.61 668.157 1005.62C668.157 1008.47 665.848 1010.78 663 1010.78 660.153 1010.78 657.844 1008.47 657.844 1005.62L657.844 1005.61C657.844 1002.76 660.153 1000.46 663 1000.46 665.848 1000.46 668.157 1002.76 668.157 1005.61ZM668.157 1026.25 668.157 1026.26C668.157 1029.11 665.848 1031.41 663 1031.41 660.153 1031.41 657.844 1029.11 657.844 1026.26L657.844 1026.25C657.844 1023.4 660.153 1021.09 663 1021.09 665.848 1021.09 668.157 1023.4 668.157 1026.25ZM668.157 1046.88 668.157 1046.89C668.157 1049.74 665.848 1052.05 663 1052.05 660.153 1052.05 657.844 1049.74 657.844 1046.89L657.844 1046.88C657.844 1044.04 660.153 1041.73 663 1041.73 665.848 1041.73 668.157 1044.04 668.157 1046.88ZM668.157 1067.52 668.157 1067.53C668.157 1070.38 665.848 1072.68 663 1072.68 660.153 1072.68 657.844 1070.38 657.844 1067.53L657.844 1067.52C657.844 1064.67 660.153 1062.36 663 1062.36 665.848 1062.36 668.157 1064.67 668.157 1067.52ZM668.157 1088.15 668.157 1088.16C668.157 1091.01 665.848 1093.32 663 1093.32 660.153 1093.32 657.844 1091.01 657.844 1088.16L657.844 1088.15C657.844 1085.31 660.153 1083 663 1083 665.848 1083 668.157 1085.31 668.157 1088.15ZM668.157 1108.79 668.157 1108.8C668.157 1111.65 665.848 1113.96 663 1113.96 660.153 1113.96 657.844 1111.65 657.844 1108.8L657.844 1108.79C657.844 1105.94 660.153 1103.63 663 1103.63 665.848 1103.63 668.157 1105.94 668.157 1108.79ZM668.157 1129.42 668.157 1129.43C668.157 1132.28 665.848 1134.59 663 1134.59 660.153 1134.59 657.844 1132.28 657.844 1129.43L657.844 1129.42C657.844 1126.58 660.153 1124.27 663 1124.27 665.848 1124.27 668.157 1126.58 668.157 1129.42ZM668.157 1150.06 668.157 1150.07C668.157 1152.92 665.848 1155.23 663 1155.23 660.153 1155.23 657.844 1152.92 657.844 1150.07L657.844 1150.06C657.844 1147.21 660.153 1144.9 663 1144.9 665.848 1144.9 668.157 1147.21 668.157 1150.06ZM668.157 1170.7 668.157 1170.71C668.157 1173.55 665.848 1175.86 663 1175.86 660.153 1175.86 657.844 1173.55 657.844 1170.71L657.844 1170.7C657.844 1167.85 660.153 1165.54 663 1165.54 665.848 1165.54 668.157 1167.85 668.157 1170.7ZM668.157 1191.33 668.157 1191.34C668.157 1194.19 665.848 1196.5 663 1196.5 660.153 1196.5 657.844 1194.19 657.844 1191.34L657.844 1191.33C657.844 1188.48 660.153 1186.17 663 1186.17 665.848 1186.17 668.157 1188.48 668.157 1191.33ZM668.157 1211.97 668.157 1211.98C668.157 1214.82 665.848 1217.13 663 1217.13 660.153 1217.13 657.844 1214.82 657.844 1211.98L657.844 1211.97C657.844 1209.12 660.153 1206.81 663 1206.81 665.848 1206.81 668.157 1209.12 668.157 1211.97ZM668.157 1232.6 668.157 1232.61C668.157 1235.46 665.848 1237.77 663 1237.77 660.153 1237.77 657.844 1235.46 657.844 1232.61L657.844 1232.6C657.844 1229.75 660.153 1227.44 663 1227.44 665.848 1227.44 668.157 1229.75 668.157 1232.6ZM668.157 1253.24 668.157 1253.25C668.157 1256.09 665.848 1258.4 663 1258.4 660.153 1258.4 657.844 1256.09 657.844 1253.25L657.844 1253.24C657.844 1250.39 660.153 1248.08 663 1248.08 665.848 1248.08 668.157 1250.39 668.157 1253.24ZM668.157 1273.87 668.157 1273.88C668.157 1276.73 665.848 1279.04 663 1279.04 660.153 1279.04 657.844 1276.73 657.844 1273.88L657.844 1273.87C657.844 1271.02 660.153 1268.72 663 1268.72 665.848 1268.72 668.157 1271.02 668.157 1273.87ZM668.157 1294.51 668.157 1294.52C668.157 1297.36 665.848 1299.67 663 1299.67 660.153 1299.67 657.844 1297.36 657.844 1294.52L657.844 1294.51C657.844 1291.66 660.153 1289.35 663 1289.35 665.848 1289.35 668.157 1291.66 668.157 1294.51Z" fill="#60607D" fill-rule="nonzero" fill-opacity="1"/></g></svg>