<svg width="4052" height="1540" xmlns="http://www.w3.org/2000/svg" xmlns:xlink="http://www.w3.org/1999/xlink" overflow="hidden"><defs><clipPath id="clip0"><rect x="183" y="362" width="4052" height="1540"/></clipPath></defs><g clip-path="url(#clip0)" transform="translate(-183 -362)"><rect x="226" y="365" width="1829" height="370" fill="#E5E5E8" fill-opacity="1"/><rect x="308" y="456" width="495" height="193" fill="#9B9BAE" fill-opacity="1"/><rect x="879" y="456" width="559" height="193" fill="#9B9BAE" fill-opacity="1"/><rect x="1514" y="456" width="495" height="193" fill="#9B9BAE" fill-opacity="1"/><rect x="2106" y="456" width="405" height="193" fill="#60607D" fill-opacity="1"/><rect x="2602" y="456" width="265" height="193" fill="#60607D" fill-opacity="1"/><rect x="2958" y="456" width="642" height="193" fill="#60607D" fill-opacity="1"/><path d="M803 544.844 852.545 544.844 852.545 555.156 803 555.156ZM847.389 534.531 878.327 550 847.389 565.469Z" fill="#000020" fill-rule="nonzero" fill-opacity="1"/><path d="M1438 544.844 1487.55 544.844 1487.55 555.156 1438 555.156ZM1482.39 534.531 1513.33 550 1482.39 565.469Z" fill="#000020" fill-rule="nonzero" fill-opacity="1"/><path d="M2009.1 544.845 2080.17 546.237 2079.97 556.547 2008.9 555.155ZM2075.22 535.825 2105.85 551.897 2074.61 566.757Z" fill="#000020" fill-rule="nonzero" fill-opacity="1"/><path d="M2513 544.844 2573.37 544.844 2573.37 555.156 2513 555.156ZM2568.22 534.531 2599.15 550 2568.22 565.469Z" fill="#000020" fill-rule="nonzero" fill-opacity="1"/><path d="M2869 544.844 2929.37 544.844 2929.37 555.156 2869 555.156ZM2924.22 534.531 2955.15 550 2924.22 565.469Z" fill="#000020" fill-rule="nonzero" fill-opacity="1"/><text fill="#FFFFFF" fill-opacity="1" font-family="Calibri,Calibri_MSFontService,sans-serif" font-style="normal" font-variant="normal" font-weight="400" font-stretch="normal" font-size="50" text-anchor="start" direction="ltr" writing-mode="lr-tb" unicode-bidi="normal" text-decoration="none" transform="matrix(1 0 0 1 421.915 539)">Requirement <tspan fill="#FFFFFF" fill-opacity="1" font-family="Calibri,Calibri_MSFontService,sans-serif" font-style="normal" font-variant="normal" font-weight="400" font-stretch="normal" font-size="50" text-anchor="start" direction="ltr" writing-mode="lr-tb" unicode-bidi="normal" text-decoration="none" x="33.2292" y="61">Elicitation</tspan><tspan fill="#FFFFFF" fill-opacity="1" font-family="Calibri,Calibri_MSFontService,sans-serif" font-style="normal" font-variant="normal" font-weight="400" font-stretch="normal" font-size="50" text-anchor="start" direction="ltr" writing-mode="lr-tb" unicode-bidi="normal" text-decoration="none" x="673.008" y="30">Design</tspan><tspan fill="#FFFFFF" fill-opacity="1" font-family="Calibri,Calibri_MSFontService,sans-serif" font-style="normal" font-variant="normal" font-weight="400" font-stretch="normal" font-size="50" text-anchor="start" direction="ltr" writing-mode="lr-tb" unicode-bidi="normal" text-decoration="none" x="1204.53" y="30">Development</tspan><tspan fill="#FFFFFF" fill-opacity="1" font-family="Calibri,Calibri_MSFontService,sans-serif" font-style="normal" font-variant="normal" font-weight="400" font-stretch="normal" font-size="50" text-anchor="start" direction="ltr" writing-mode="lr-tb" unicode-bidi="normal" text-decoration="none" x="1856.08" y="30">SIT</tspan><tspan fill="#FFFFFF" fill-opacity="1" font-family="Calibri,Calibri_MSFontService,sans-serif" font-style="normal" font-variant="normal" font-weight="400" font-stretch="normal" font-size="50" text-anchor="start" direction="ltr" writing-mode="lr-tb" unicode-bidi="normal" text-decoration="none" x="2272.17" y="30">UAT</tspan><tspan fill="#FFFFFF" fill-opacity="1" font-family="Calibri,Calibri_MSFontService,sans-serif" font-style="normal" font-variant="normal" font-weight="400" font-stretch="normal" font-size="50" text-anchor="start" direction="ltr" writing-mode="lr-tb" unicode-bidi="normal" text-decoration="none" x="2664.67" y="0">Prod Deployment/</tspan><tspan fill="#FFFFFF" fill-opacity="1" font-family="Calibri,Calibri_MSFontService,sans-serif" font-style="normal" font-variant="normal" font-weight="400" font-stretch="normal" font-size="50" text-anchor="start" direction="ltr" writing-mode="lr-tb" unicode-bidi="normal" text-decoration="none" x="2748.02" y="61">Hypercare</tspan><tspan fill="#000020" fill-opacity="1" font-family="Calibri,Calibri_MSFontService,sans-serif" font-style="normal" font-variant="normal" font-weight="400" font-stretch="normal" font-size="50" text-anchor="start" direction="ltr" writing-mode="lr-tb" unicode-bidi="normal" text-decoration="none" x="616.863" y="169">Sprint 1 … N</tspan></text><path d="M226 808.844 226.01 808.844C228.858 808.844 231.166 811.152 231.166 814 231.166 816.848 228.858 819.156 226.01 819.156L226 819.156C223.152 819.156 220.844 816.848 220.844 814 220.844 811.152 223.152 808.844 226 808.844ZM246.635 808.844 246.645 808.844C249.493 808.844 251.802 811.152 251.802 814 251.802 816.848 249.493 819.156 246.645 819.156L246.635 819.156C243.787 819.156 241.479 816.848 241.479 814 241.479 811.152 243.787 808.844 246.635 808.844ZM267.27 808.844 267.281 808.844C270.128 808.844 272.437 811.152 272.437 814 272.437 816.848 270.128 819.156 267.281 819.156L267.27 819.156C264.423 819.156 262.114 816.848 262.114 814 262.114 811.152 264.423 808.844 267.27 808.844ZM287.906 808.844 287.916 808.844C290.764 808.844 293.072 811.152 293.072 814 293.072 816.848 290.764 819.156 287.916 819.156L287.906 819.156C285.058 819.156 282.75 816.848 282.75 814 282.75 811.152 285.058 808.844 287.906 808.844ZM308.541 808.844 308.551 808.844C311.399 808.844 313.708 811.152 313.708 814 313.708 816.848 311.399 819.156 308.551 819.156L308.541 819.156C305.693 819.156 303.385 816.848 303.385 814 303.385 811.152 305.693 808.844 308.541 808.844ZM329.176 808.844 329.187 808.844C332.034 808.844 334.343 811.152 334.343 814 334.343 816.848 332.034 819.156 329.187 819.156L329.176 819.156C326.329 819.156 324.02 816.848 324.02 814 324.02 811.152 326.329 808.844 329.176 808.844ZM349.812 808.844 349.822 808.844C352.67 808.844 354.978 811.152 354.978 814 354.978 816.848 352.67 819.156 349.822 819.156L349.812 819.156C346.964 819.156 344.655 816.848 344.655 814 344.655 811.152 346.964 808.844 349.812 808.844ZM370.447 808.844 370.457 808.844C373.305 808.844 375.614 811.152 375.614 814 375.614 816.848 373.305 819.156 370.457 819.156L370.447 819.156C367.599 819.156 365.291 816.848 365.291 814 365.291 811.152 367.599 808.844 370.447 808.844ZM391.082 808.844 391.093 808.844C393.94 808.844 396.249 811.152 396.249 814 396.249 816.848 393.94 819.156 391.093 819.156L391.082 819.156C388.235 819.156 385.926 816.848 385.926 814 385.926 811.152 388.235 808.844 391.082 808.844ZM411.718 808.844 411.728 808.844C414.576 808.844 416.884 811.152 416.884 814 416.884 816.848 414.576 819.156 411.728 819.156L411.718 819.156C408.87 819.156 406.561 816.848 406.561 814 406.561 811.152 408.87 808.844 411.718 808.844ZM432.353 808.844 432.363 808.844C435.211 808.844 437.52 811.152 437.52 814 437.52 816.848 435.211 819.156 432.363 819.156L432.353 819.156C429.505 819.156 427.197 816.848 427.197 814 427.197 811.152 429.505 808.844 432.353 808.844ZM452.988 808.844 452.999 808.844C455.846 808.844 458.155 811.152 458.155 814 458.155 816.848 455.846 819.156 452.999 819.156L452.988 819.156C450.141 819.156 447.832 816.848 447.832 814 447.832 811.152 450.141 808.844 452.988 808.844ZM473.624 808.844 473.634 808.844C476.482 808.844 478.79 811.152 478.79 814 478.79 816.848 476.482 819.156 473.634 819.156L473.624 819.156C470.776 819.156 468.467 816.848 468.467 814 468.467 811.152 470.776 808.844 473.624 808.844ZM494.259 808.844 494.269 808.844C497.117 808.844 499.426 811.152 499.426 814 499.426 816.848 497.117 819.156 494.269 819.156L494.259 819.156C491.411 819.156 489.103 816.848 489.103 814 489.103 811.152 491.411 808.844 494.259 808.844ZM514.894 808.844 514.905 808.844C517.752 808.844 520.061 811.152 520.061 814 520.061 816.848 517.752 819.156 514.905 819.156L514.894 819.156C512.047 819.156 509.738 816.848 509.738 814 509.738 811.152 512.047 808.844 514.894 808.844ZM535.53 808.844 535.54 808.844C538.388 808.844 540.696 811.152 540.696 814 540.696 816.848 538.388 819.156 535.54 819.156L535.53 819.156C532.682 819.156 530.373 816.848 530.373 814 530.373 811.152 532.682 808.844 535.53 808.844ZM556.165 808.844 556.175 808.844C559.023 808.844 561.331 811.152 561.331 814 561.331 816.848 559.023 819.156 556.175 819.156L556.165 819.156C553.317 819.156 551.009 816.848 551.009 814 551.009 811.152 553.317 808.844 556.165 808.844ZM576.8 808.844 576.811 808.844C579.658 808.844 581.967 811.152 581.967 814 581.967 816.848 579.658 819.156 576.811 819.156L576.8 819.156C573.953 819.156 571.644 816.848 571.644 814 571.644 811.152 573.953 808.844 576.8 808.844ZM597.436 808.844 597.446 808.844C600.294 808.844 602.602 811.152 602.602 814 602.602 816.848 600.294 819.156 597.446 819.156L597.436 819.156C594.588 819.156 592.279 816.848 592.279 814 592.279 811.152 594.588 808.844 597.436 808.844ZM618.071 808.844 618.081 808.844C620.929 808.844 623.237 811.152 623.237 814 623.237 816.848 620.929 819.156 618.081 819.156L618.071 819.156C615.223 819.156 612.915 816.848 612.915 814 612.915 811.152 615.223 808.844 618.071 808.844ZM638.706 808.844 638.717 808.844C641.564 808.844 643.873 811.152 643.873 814 643.873 816.848 641.564 819.156 638.717 819.156L638.706 819.156C635.859 819.156 633.55 816.848 633.55 814 633.55 811.152 635.859 808.844 638.706 808.844ZM659.342 808.844 659.352 808.844C662.2 808.844 664.508 811.152 664.508 814 664.508 816.848 662.2 819.156 659.352 819.156L659.342 819.156C656.494 819.156 654.185 816.848 654.185 814 654.185 811.152 656.494 808.844 659.342 808.844ZM679.977 808.844 679.987 808.844C682.835 808.844 685.143 811.152 685.143 814 685.143 816.848 682.835 819.156 679.987 819.156L679.977 819.156C677.129 819.156 674.821 816.848 674.821 814 674.821 811.152 677.129 808.844 679.977 808.844ZM700.612 808.844 700.623 808.844C703.47 808.844 705.779 811.152 705.779 814 705.779 816.848 703.47 819.156 700.623 819.156L700.612 819.156C697.765 819.156 695.456 816.848 695.456 814 695.456 811.152 697.765 808.844 700.612 808.844ZM721.248 808.844 721.258 808.844C724.106 808.844 726.414 811.152 726.414 814 726.414 816.848 724.106 819.156 721.258 819.156L721.248 819.156C718.4 819.156 716.091 816.848 716.091 814 716.091 811.152 718.4 808.844 721.248 808.844ZM741.883 808.844 741.893 808.844C744.741 808.844 747.05 811.152 747.05 814 747.05 816.848 744.741 819.156 741.893 819.156L741.883 819.156C739.035 819.156 736.727 816.848 736.727 814 736.727 811.152 739.035 808.844 741.883 808.844ZM762.518 808.844 762.529 808.844C765.376 808.844 767.685 811.152 767.685 814 767.685 816.848 765.376 819.156 762.529 819.156L762.518 819.156C759.671 819.156 757.362 816.848 757.362 814 757.362 811.152 759.671 808.844 762.518 808.844ZM783.154 808.844 783.164 808.844C786.012 808.844 788.32 811.152 788.32 814 788.32 816.848 786.012 819.156 783.164 819.156L783.154 819.156C780.306 819.156 777.997 816.848 777.997 814 777.997 811.152 780.306 808.844 783.154 808.844ZM803.789 808.844 803.799 808.844C806.647 808.844 808.956 811.152 808.956 814 808.956 816.848 806.647 819.156 803.799 819.156L803.789 819.156C800.941 819.156 798.633 816.848 798.633 814 798.633 811.152 800.941 808.844 803.789 808.844ZM824.424 808.844 824.435 808.844C827.283 808.844 829.591 811.152 829.591 814 829.591 816.848 827.283 819.156 824.435 819.156L824.424 819.156C821.577 819.156 819.268 816.848 819.268 814 819.268 811.152 821.577 808.844 824.424 808.844ZM845.06 808.844 845.07 808.844C847.918 808.844 850.226 811.152 850.226 814 850.226 816.848 847.918 819.156 845.07 819.156L845.06 819.156C842.212 819.156 839.904 816.848 839.904 814 839.904 811.152 842.212 808.844 845.06 808.844ZM865.695 808.844 865.706 808.844C868.553 808.844 870.862 811.152 870.862 814 870.862 816.848 868.553 819.156 865.706 819.156L865.695 819.156C862.847 819.156 860.539 816.848 860.539 814 860.539 811.152 862.847 808.844 865.695 808.844ZM886.331 808.844 886.341 808.844C889.189 808.844 891.497 811.152 891.497 814 891.497 816.848 889.189 819.156 886.341 819.156L886.331 819.156C883.483 819.156 881.174 816.848 881.174 814 881.174 811.152 883.483 808.844 886.331 808.844ZM906.966 808.844 906.976 808.844C909.824 808.844 912.133 811.152 912.133 814 912.133 816.848 909.824 819.156 906.976 819.156L906.966 819.156C904.118 819.156 901.81 816.848 901.81 814 901.81 811.152 904.118 808.844 906.966 808.844ZM927.601 808.844 927.612 808.844C930.459 808.844 932.768 811.152 932.768 814 932.768 816.848 930.459 819.156 927.612 819.156L927.601 819.156C924.754 819.156 922.445 816.848 922.445 814 922.445 811.152 924.754 808.844 927.601 808.844ZM948.237 808.844 948.247 808.844C951.095 808.844 953.403 811.152 953.403 814 953.403 816.848 951.095 819.156 948.247 819.156L948.237 819.156C945.389 819.156 943.08 816.848 943.08 814 943.08 811.152 945.389 808.844 948.237 808.844ZM968.872 808.844 968.882 808.844C971.73 808.844 974.039 811.152 974.039 814 974.039 816.848 971.73 819.156 968.882 819.156L968.872 819.156C966.024 819.156 963.716 816.848 963.716 814 963.716 811.152 966.024 808.844 968.872 808.844ZM989.507 808.844 989.518 808.844C992.365 808.844 994.674 811.152 994.674 814 994.674 816.848 992.365 819.156 989.518 819.156L989.507 819.156C986.66 819.156 984.351 816.848 984.351 814 984.351 811.152 986.66 808.844 989.507 808.844ZM1010.14 808.844 1010.15 808.844C1013 808.844 1015.31 811.152 1015.31 814 1015.31 816.848 1013 819.156 1010.15 819.156L1010.14 819.156C1007.3 819.156 1004.99 816.848 1004.99 814 1004.99 811.152 1007.3 808.844 1010.14 808.844ZM1030.78 808.844 1030.79 808.844C1033.64 808.844 1035.94 811.152 1035.94 814 1035.94 816.848 1033.64 819.156 1030.79 819.156L1030.78 819.156C1027.93 819.156 1025.62 816.848 1025.62 814 1025.62 811.152 1027.93 808.844 1030.78 808.844ZM1051.41 808.844 1051.42 808.844C1054.27 808.844 1056.58 811.152 1056.58 814 1056.58 816.848 1054.27 819.156 1051.42 819.156L1051.41 819.156C1048.57 819.156 1046.26 816.848 1046.26 814 1046.26 811.152 1048.57 808.844 1051.41 808.844ZM1072.05 808.844 1072.06 808.844C1074.91 808.844 1077.22 811.152 1077.22 814 1077.22 816.848 1074.91 819.156 1072.06 819.156L1072.05 819.156C1069.2 819.156 1066.89 816.848 1066.89 814 1066.89 811.152 1069.2 808.844 1072.05 808.844ZM1092.68 808.844 1092.69 808.844C1095.54 808.844 1097.85 811.152 1097.85 814 1097.85 816.848 1095.54 819.156 1092.69 819.156L1092.68 819.156C1089.84 819.156 1087.53 816.848 1087.53 814 1087.53 811.152 1089.84 808.844 1092.68 808.844ZM1113.32 808.844 1113.33 808.844C1116.18 808.844 1118.49 811.152 1118.49 814 1118.49 816.848 1116.18 819.156 1113.33 819.156L1113.32 819.156C1110.47 819.156 1108.16 816.848 1108.16 814 1108.16 811.152 1110.47 808.844 1113.32 808.844ZM1133.95 808.844 1133.96 808.844C1136.81 808.844 1139.12 811.152 1139.12 814 1139.12 816.848 1136.81 819.156 1133.96 819.156L1133.95 819.156C1131.11 819.156 1128.8 816.848 1128.8 814 1128.8 811.152 1131.11 808.844 1133.95 808.844ZM1154.59 808.844 1154.6 808.844C1157.45 808.844 1159.76 811.152 1159.76 814 1159.76 816.848 1157.45 819.156 1154.6 819.156L1154.59 819.156C1151.74 819.156 1149.43 816.848 1149.43 814 1149.43 811.152 1151.74 808.844 1154.59 808.844ZM1175.22 808.844 1175.24 808.844C1178.08 808.844 1180.39 811.152 1180.39 814 1180.39 816.848 1178.08 819.156 1175.24 819.156L1175.22 819.156C1172.38 819.156 1170.07 816.848 1170.07 814 1170.07 811.152 1172.38 808.844 1175.22 808.844ZM1195.86 808.844 1195.87 808.844C1198.72 808.844 1201.03 811.152 1201.03 814 1201.03 816.848 1198.72 819.156 1195.87 819.156L1195.86 819.156C1193.01 819.156 1190.7 816.848 1190.7 814 1190.7 811.152 1193.01 808.844 1195.86 808.844ZM1216.5 808.844 1216.51 808.844C1219.35 808.844 1221.66 811.152 1221.66 814 1221.66 816.848 1219.35 819.156 1216.51 819.156L1216.5 819.156C1213.65 819.156 1211.34 816.848 1211.34 814 1211.34 811.152 1213.65 808.844 1216.5 808.844ZM1237.13 808.844 1237.14 808.844C1239.99 808.844 1242.3 811.152 1242.3 814 1242.3 816.848 1239.99 819.156 1237.14 819.156L1237.13 819.156C1234.28 819.156 1231.97 816.848 1231.97 814 1231.97 811.152 1234.28 808.844 1237.13 808.844ZM1257.77 808.844 1257.78 808.844C1260.62 808.844 1262.93 811.152 1262.93 814 1262.93 816.848 1260.62 819.156 1257.78 819.156L1257.77 819.156C1254.92 819.156 1252.61 816.848 1252.61 814 1252.61 811.152 1254.92 808.844 1257.77 808.844ZM1278.4 808.844 1278.41 808.844C1281.26 808.844 1283.57 811.152 1283.57 814 1283.57 816.848 1281.26 819.156 1278.41 819.156L1278.4 819.156C1275.55 819.156 1273.25 816.848 1273.25 814 1273.25 811.152 1275.55 808.844 1278.4 808.844ZM1299.04 808.844 1299.05 808.844C1301.89 808.844 1304.2 811.152 1304.2 814 1304.2 816.848 1301.89 819.156 1299.05 819.156L1299.04 819.156C1296.19 819.156 1293.88 816.848 1293.88 814 1293.88 811.152 1296.19 808.844 1299.04 808.844ZM1319.67 808.844 1319.68 808.844C1322.53 808.844 1324.84 811.152 1324.84 814 1324.84 816.848 1322.53 819.156 1319.68 819.156L1319.67 819.156C1316.82 819.156 1314.52 816.848 1314.52 814 1314.52 811.152 1316.82 808.844 1319.67 808.844ZM1340.31 808.844 1340.32 808.844C1343.17 808.844 1345.47 811.152 1345.47 814 1345.47 816.848 1343.17 819.156 1340.32 819.156L1340.31 819.156C1337.46 819.156 1335.15 816.848 1335.15 814 1335.15 811.152 1337.46 808.844 1340.31 808.844ZM1360.94 808.844 1360.95 808.844C1363.8 808.844 1366.11 811.152 1366.11 814 1366.11 816.848 1363.8 819.156 1360.95 819.156L1360.94 819.156C1358.09 819.156 1355.79 816.848 1355.79 814 1355.79 811.152 1358.09 808.844 1360.94 808.844ZM1381.58 808.844 1381.59 808.844C1384.44 808.844 1386.74 811.152 1386.74 814 1386.74 816.848 1384.44 819.156 1381.59 819.156L1381.58 819.156C1378.73 819.156 1376.42 816.848 1376.42 814 1376.42 811.152 1378.73 808.844 1381.58 808.844ZM1402.21 808.844 1402.22 808.844C1405.07 808.844 1407.38 811.152 1407.38 814 1407.38 816.848 1405.07 819.156 1402.22 819.156L1402.21 819.156C1399.37 819.156 1397.06 816.848 1397.06 814 1397.06 811.152 1399.37 808.844 1402.21 808.844ZM1422.85 808.844 1422.86 808.844C1425.71 808.844 1428.02 811.152 1428.02 814 1428.02 816.848 1425.71 819.156 1422.86 819.156L1422.85 819.156C1420 819.156 1417.69 816.848 1417.69 814 1417.69 811.152 1420 808.844 1422.85 808.844ZM1443.48 808.844 1443.49 808.844C1446.34 808.844 1448.65 811.152 1448.65 814 1448.65 816.848 1446.34 819.156 1443.49 819.156L1443.48 819.156C1440.64 819.156 1438.33 816.848 1438.33 814 1438.33 811.152 1440.64 808.844 1443.48 808.844ZM1464.12 808.844 1464.13 808.844C1466.98 808.844 1469.29 811.152 1469.29 814 1469.29 816.848 1466.98 819.156 1464.13 819.156L1464.12 819.156C1461.27 819.156 1458.96 816.848 1458.96 814 1458.96 811.152 1461.27 808.844 1464.12 808.844ZM1484.75 808.844 1484.76 808.844C1487.61 808.844 1489.92 811.152 1489.92 814 1489.92 816.848 1487.61 819.156 1484.76 819.156L1484.75 819.156C1481.91 819.156 1479.6 816.848 1479.6 814 1479.6 811.152 1481.91 808.844 1484.75 808.844ZM1505.39 808.844 1505.4 808.844C1508.25 808.844 1510.56 811.152 1510.56 814 1510.56 816.848 1508.25 819.156 1505.4 819.156L1505.39 819.156C1502.54 819.156 1500.23 816.848 1500.23 814 1500.23 811.152 1502.54 808.844 1505.39 808.844ZM1526.02 808.844 1526.04 808.844C1528.88 808.844 1531.19 811.152 1531.19 814 1531.19 816.848 1528.88 819.156 1526.04 819.156L1526.02 819.156C1523.18 819.156 1520.87 816.848 1520.87 814 1520.87 811.152 1523.18 808.844 1526.02 808.844ZM1546.66 808.844 1546.67 808.844C1549.52 808.844 1551.83 811.152 1551.83 814 1551.83 816.848 1549.52 819.156 1546.67 819.156L1546.66 819.156C1543.81 819.156 1541.5 816.848 1541.5 814 1541.5 811.152 1543.81 808.844 1546.66 808.844ZM1567.3 808.844 1567.31 808.844C1570.15 808.844 1572.46 811.152 1572.46 814 1572.46 816.848 1570.15 819.156 1567.31 819.156L1567.3 819.156C1564.45 819.156 1562.14 816.848 1562.14 814 1562.14 811.152 1564.45 808.844 1567.3 808.844ZM1587.93 808.844 1587.94 808.844C1590.79 808.844 1593.1 811.152 1593.1 814 1593.1 816.848 1590.79 819.156 1587.94 819.156L1587.93 819.156C1585.08 819.156 1582.77 816.848 1582.77 814 1582.77 811.152 1585.08 808.844 1587.93 808.844ZM1608.57 808.844 1608.58 808.844C1611.42 808.844 1613.73 811.152 1613.73 814 1613.73 816.848 1611.42 819.156 1608.58 819.156L1608.57 819.156C1605.72 819.156 1603.41 816.848 1603.41 814 1603.41 811.152 1605.72 808.844 1608.57 808.844ZM1629.2 808.844 1629.21 808.844C1632.06 808.844 1634.37 811.152 1634.37 814 1634.37 816.848 1632.06 819.156 1629.21 819.156L1629.2 819.156C1626.35 819.156 1624.05 816.848 1624.05 814 1624.05 811.152 1626.35 808.844 1629.2 808.844ZM1649.84 808.844 1649.85 808.844C1652.69 808.844 1655 811.152 1655 814 1655 816.848 1652.69 819.156 1649.85 819.156L1649.84 819.156C1646.99 819.156 1644.68 816.848 1644.68 814 1644.68 811.152 1646.99 808.844 1649.84 808.844ZM1670.47 808.844 1670.48 808.844C1673.33 808.844 1675.64 811.152 1675.64 814 1675.64 816.848 1673.33 819.156 1670.48 819.156L1670.47 819.156C1667.62 819.156 1665.32 816.848 1665.32 814 1665.32 811.152 1667.62 808.844 1670.47 808.844ZM1691.11 808.844 1691.12 808.844C1693.97 808.844 1696.27 811.152 1696.27 814 1696.27 816.848 1693.97 819.156 1691.12 819.156L1691.11 819.156C1688.26 819.156 1685.95 816.848 1685.95 814 1685.95 811.152 1688.26 808.844 1691.11 808.844ZM1711.74 808.844 1711.75 808.844C1714.6 808.844 1716.91 811.152 1716.91 814 1716.91 816.848 1714.6 819.156 1711.75 819.156L1711.74 819.156C1708.89 819.156 1706.59 816.848 1706.59 814 1706.59 811.152 1708.89 808.844 1711.74 808.844ZM1732.38 808.844 1732.39 808.844C1735.24 808.844 1737.54 811.152 1737.54 814 1737.54 816.848 1735.24 819.156 1732.39 819.156L1732.38 819.156C1729.53 819.156 1727.22 816.848 1727.22 814 1727.22 811.152 1729.53 808.844 1732.38 808.844ZM1753.01 808.844 1753.02 808.844C1755.87 808.844 1758.18 811.152 1758.18 814 1758.18 816.848 1755.87 819.156 1753.02 819.156L1753.01 819.156C1750.17 819.156 1747.86 816.848 1747.86 814 1747.86 811.152 1750.17 808.844 1753.01 808.844ZM1773.65 808.844 1773.66 808.844C1776.51 808.844 1778.81 811.152 1778.81 814 1778.81 816.848 1776.51 819.156 1773.66 819.156L1773.65 819.156C1770.8 819.156 1768.49 816.848 1768.49 814 1768.49 811.152 1770.8 808.844 1773.65 808.844ZM1794.28 808.844 1794.29 808.844C1797.14 808.844 1799.45 811.152 1799.45 814 1799.45 816.848 1797.14 819.156 1794.29 819.156L1794.28 819.156C1791.44 819.156 1789.13 816.848 1789.13 814 1789.13 811.152 1791.44 808.844 1794.28 808.844ZM1814.92 808.844 1814.93 808.844C1817.78 808.844 1820.09 811.152 1820.09 814 1820.09 816.848 1817.78 819.156 1814.93 819.156L1814.92 819.156C1812.07 819.156 1809.76 816.848 1809.76 814 1809.76 811.152 1812.07 808.844 1814.92 808.844ZM1835.55 808.844 1835.56 808.844C1838.41 808.844 1840.72 811.152 1840.72 814 1840.72 816.848 1838.41 819.156 1835.56 819.156L1835.55 819.156C1832.71 819.156 1830.4 816.848 1830.4 814 1830.4 811.152 1832.71 808.844 1835.55 808.844ZM1856.19 808.844 1856.2 808.844C1859.05 808.844 1861.36 811.152 1861.36 814 1861.36 816.848 1859.05 819.156 1856.2 819.156L1856.19 819.156C1853.34 819.156 1851.03 816.848 1851.03 814 1851.03 811.152 1853.34 808.844 1856.19 808.844ZM1876.82 808.844 1876.84 808.844C1879.68 808.844 1881.99 811.152 1881.99 814 1881.99 816.848 1879.68 819.156 1876.84 819.156L1876.82 819.156C1873.98 819.156 1871.67 816.848 1871.67 814 1871.67 811.152 1873.98 808.844 1876.82 808.844ZM1897.46 808.844 1897.47 808.844C1900.32 808.844 1902.63 811.152 1902.63 814 1902.63 816.848 1900.32 819.156 1897.47 819.156L1897.46 819.156C1894.61 819.156 1892.3 816.848 1892.3 814 1892.3 811.152 1894.61 808.844 1897.46 808.844ZM1918.1 808.844 1918.11 808.844C1920.95 808.844 1923.26 811.152 1923.26 814 1923.26 816.848 1920.95 819.156 1918.11 819.156L1918.1 819.156C1915.25 819.156 1912.94 816.848 1912.94 814 1912.94 811.152 1915.25 808.844 1918.1 808.844ZM1938.73 808.844 1938.74 808.844C1941.59 808.844 1943.9 811.152 1943.9 814 1943.9 816.848 1941.59 819.156 1938.74 819.156L1938.73 819.156C1935.88 819.156 1933.57 816.848 1933.57 814 1933.57 811.152 1935.88 808.844 1938.73 808.844ZM1959.37 808.844 1959.38 808.844C1962.22 808.844 1964.53 811.152 1964.53 814 1964.53 816.848 1962.22 819.156 1959.38 819.156L1959.37 819.156C1956.52 819.156 1954.21 816.848 1954.21 814 1954.21 811.152 1956.52 808.844 1959.37 808.844ZM1980 808.844 1980.01 808.844C1982.86 808.844 1985.17 811.152 1985.17 814 1985.17 816.848 1982.86 819.156 1980.01 819.156L1980 819.156C1977.15 819.156 1974.84 816.848 1974.84 814 1974.84 811.152 1977.15 808.844 1980 808.844ZM2000.64 808.844 2000.65 808.844C2003.49 808.844 2005.8 811.152 2005.8 814 2005.8 816.848 2003.49 819.156 2000.65 819.156L2000.64 819.156C1997.79 819.156 1995.48 816.848 1995.48 814 1995.48 811.152 1997.79 808.844 2000.64 808.844ZM2021.27 808.844 2021.28 808.844C2024.13 808.844 2026.44 811.152 2026.44 814 2026.44 816.848 2024.13 819.156 2021.28 819.156L2021.27 819.156C2018.42 819.156 2016.12 816.848 2016.12 814 2016.12 811.152 2018.42 808.844 2021.27 808.844ZM2041.91 808.844 2041.92 808.844C2044.77 808.844 2047.07 811.152 2047.07 814 2047.07 816.848 2044.77 819.156 2041.92 819.156L2041.91 819.156C2039.06 819.156 2036.75 816.848 2036.75 814 2036.75 811.152 2039.06 808.844 2041.91 808.844ZM2062.54 808.844 2062.55 808.844C2065.4 808.844 2067.71 811.152 2067.71 814 2067.71 816.848 2065.4 819.156 2062.55 819.156L2062.54 819.156C2059.69 819.156 2057.39 816.848 2057.39 814 2057.39 811.152 2059.69 808.844 2062.54 808.844ZM2083.18 808.844 2083.19 808.844C2086.04 808.844 2088.34 811.152 2088.34 814 2088.34 816.848 2086.04 819.156 2083.19 819.156L2083.18 819.156C2080.33 819.156 2078.02 816.848 2078.02 814 2078.02 811.152 2080.33 808.844 2083.18 808.844ZM2103.81 808.844 2103.82 808.844C2106.67 808.844 2108.98 811.152 2108.98 814 2108.98 816.848 2106.67 819.156 2103.82 819.156L2103.81 819.156C2100.97 819.156 2098.66 816.848 2098.66 814 2098.66 811.152 2100.97 808.844 2103.81 808.844ZM2124.45 808.844 2124.46 808.844C2127.31 808.844 2129.61 811.152 2129.61 814 2129.61 816.848 2127.31 819.156 2124.46 819.156L2124.45 819.156C2121.6 819.156 2119.29 816.848 2119.29 814 2119.29 811.152 2121.6 808.844 2124.45 808.844ZM2145.08 808.844 2145.09 808.844C2147.94 808.844 2150.25 811.152 2150.25 814 2150.25 816.848 2147.94 819.156 2145.09 819.156L2145.08 819.156C2142.24 819.156 2139.93 816.848 2139.93 814 2139.93 811.152 2142.24 808.844 2145.08 808.844ZM2165.72 808.844 2165.73 808.844C2168.58 808.844 2170.89 811.152 2170.89 814 2170.89 816.848 2168.58 819.156 2165.73 819.156L2165.72 819.156C2162.87 819.156 2160.56 816.848 2160.56 814 2160.56 811.152 2162.87 808.844 2165.72 808.844ZM2186.35 808.844 2186.36 808.844C2189.21 808.844 2191.52 811.152 2191.52 814 2191.52 816.848 2189.21 819.156 2186.36 819.156L2186.35 819.156C2183.51 819.156 2181.2 816.848 2181.2 814 2181.2 811.152 2183.51 808.844 2186.35 808.844ZM2206.99 808.844 2207 808.844C2209.85 808.844 2212.16 811.152 2212.16 814 2212.16 816.848 2209.85 819.156 2207 819.156L2206.99 819.156C2204.14 819.156 2201.83 816.848 2201.83 814 2201.83 811.152 2204.14 808.844 2206.99 808.844ZM2227.62 808.844 2227.64 808.844C2230.48 808.844 2232.79 811.152 2232.79 814 2232.79 816.848 2230.48 819.156 2227.64 819.156L2227.62 819.156C2224.78 819.156 2222.47 816.848 2222.47 814 2222.47 811.152 2224.78 808.844 2227.62 808.844ZM2248.26 808.844 2248.27 808.844C2251.12 808.844 2253.43 811.152 2253.43 814 2253.43 816.848 2251.12 819.156 2248.27 819.156L2248.26 819.156C2245.41 819.156 2243.1 816.848 2243.1 814 2243.1 811.152 2245.41 808.844 2248.26 808.844ZM2268.9 808.844 2268.91 808.844C2271.75 808.844 2274.06 811.152 2274.06 814 2274.06 816.848 2271.75 819.156 2268.91 819.156L2268.9 819.156C2266.05 819.156 2263.74 816.848 2263.74 814 2263.74 811.152 2266.05 808.844 2268.9 808.844ZM2289.53 808.844 2289.54 808.844C2292.39 808.844 2294.7 811.152 2294.7 814 2294.7 816.848 2292.39 819.156 2289.54 819.156L2289.53 819.156C2286.68 819.156 2284.37 816.848 2284.37 814 2284.37 811.152 2286.68 808.844 2289.53 808.844ZM2310.17 808.844 2310.18 808.844C2313.02 808.844 2315.33 811.152 2315.33 814 2315.33 816.848 2313.02 819.156 2310.18 819.156L2310.17 819.156C2307.32 819.156 2305.01 816.848 2305.01 814 2305.01 811.152 2307.32 808.844 2310.17 808.844ZM2330.8 808.844 2330.81 808.844C2333.66 808.844 2335.97 811.152 2335.97 814 2335.97 816.848 2333.66 819.156 2330.81 819.156L2330.8 819.156C2327.95 819.156 2325.64 816.848 2325.64 814 2325.64 811.152 2327.95 808.844 2330.8 808.844ZM2351.44 808.844 2351.45 808.844C2354.29 808.844 2356.6 811.152 2356.6 814 2356.6 816.848 2354.29 819.156 2351.45 819.156L2351.44 819.156C2348.59 819.156 2346.28 816.848 2346.28 814 2346.28 811.152 2348.59 808.844 2351.44 808.844ZM2372.07 808.844 2372.08 808.844C2374.93 808.844 2377.24 811.152 2377.24 814 2377.24 816.848 2374.93 819.156 2372.08 819.156L2372.07 819.156C2369.22 819.156 2366.92 816.848 2366.92 814 2366.92 811.152 2369.22 808.844 2372.07 808.844ZM2392.71 808.844 2392.72 808.844C2395.56 808.844 2397.87 811.152 2397.87 814 2397.87 816.848 2395.56 819.156 2392.72 819.156L2392.71 819.156C2389.86 819.156 2387.55 816.848 2387.55 814 2387.55 811.152 2389.86 808.844 2392.71 808.844ZM2413.34 808.844 2413.35 808.844C2416.2 808.844 2418.51 811.152 2418.51 814 2418.51 816.848 2416.2 819.156 2413.35 819.156L2413.34 819.156C2410.49 819.156 2408.19 816.848 2408.19 814 2408.19 811.152 2410.49 808.844 2413.34 808.844ZM2433.98 808.844 2433.99 808.844C2436.84 808.844 2439.14 811.152 2439.14 814 2439.14 816.848 2436.84 819.156 2433.99 819.156L2433.98 819.156C2431.13 819.156 2428.82 816.848 2428.82 814 2428.82 811.152 2431.13 808.844 2433.98 808.844ZM2454.61 808.844 2454.62 808.844C2457.47 808.844 2459.78 811.152 2459.78 814 2459.78 816.848 2457.47 819.156 2454.62 819.156L2454.61 819.156C2451.76 819.156 2449.46 816.848 2449.46 814 2449.46 811.152 2451.76 808.844 2454.61 808.844ZM2475.25 808.844 2475.26 808.844C2478.11 808.844 2480.41 811.152 2480.41 814 2480.41 816.848 2478.11 819.156 2475.26 819.156L2475.25 819.156C2472.4 819.156 2470.09 816.848 2470.09 814 2470.09 811.152 2472.4 808.844 2475.25 808.844ZM2495.88 808.844 2495.89 808.844C2498.74 808.844 2501.05 811.153 2501.05 814 2501.05 816.848 2498.74 819.156 2495.89 819.156L2495.88 819.156C2493.04 819.156 2490.73 816.848 2490.73 814 2490.73 811.153 2493.04 808.844 2495.88 808.844ZM2516.52 808.844 2516.53 808.844C2519.38 808.844 2521.69 811.153 2521.69 814 2521.69 816.848 2519.38 819.156 2516.53 819.156L2516.52 819.156C2513.67 819.156 2511.36 816.848 2511.36 814 2511.36 811.153 2513.67 808.844 2516.52 808.844ZM2537.15 808.844 2537.16 808.844C2540.01 808.844 2542.32 811.153 2542.32 814 2542.32 816.848 2540.01 819.156 2537.16 819.156L2537.15 819.156C2534.31 819.156 2532 816.848 2532 814 2532 811.153 2534.31 808.844 2537.15 808.844ZM2557.79 808.844 2557.8 808.844C2560.65 808.844 2562.96 811.153 2562.96 814 2562.96 816.848 2560.65 819.156 2557.8 819.156L2557.79 819.156C2554.94 819.156 2552.63 816.848 2552.63 814 2552.63 811.153 2554.94 808.844 2557.79 808.844ZM2578.42 808.844 2578.43 808.844C2581.28 808.844 2583.59 811.153 2583.59 814 2583.59 816.848 2581.28 819.156 2578.43 819.156L2578.42 819.156C2575.58 819.156 2573.27 816.848 2573.27 814 2573.27 811.153 2575.58 808.844 2578.42 808.844ZM2599.06 808.844 2599.07 808.844C2601.92 808.844 2604.23 811.153 2604.23 814 2604.23 816.848 2601.92 819.156 2599.07 819.156L2599.06 819.156C2596.21 819.156 2593.9 816.848 2593.9 814 2593.9 811.153 2596.21 808.844 2599.06 808.844ZM2619.7 808.844 2619.71 808.844C2622.55 808.844 2624.86 811.153 2624.86 814 2624.86 816.848 2622.55 819.156 2619.71 819.156L2619.7 819.156C2616.85 819.156 2614.54 816.848 2614.54 814 2614.54 811.153 2616.85 808.844 2619.7 808.844ZM2640.33 808.844 2640.34 808.844C2643.19 808.844 2645.5 811.153 2645.5 814 2645.5 816.848 2643.19 819.156 2640.34 819.156L2640.33 819.156C2637.48 819.156 2635.17 816.848 2635.17 814 2635.17 811.153 2637.48 808.844 2640.33 808.844ZM2660.97 808.844 2660.98 808.844C2663.82 808.844 2666.13 811.153 2666.13 814 2666.13 816.848 2663.82 819.156 2660.98 819.156L2660.97 819.156C2658.12 819.156 2655.81 816.848 2655.81 814 2655.81 811.153 2658.12 808.844 2660.97 808.844ZM2681.6 808.844 2681.61 808.844C2684.46 808.844 2686.77 811.153 2686.77 814 2686.77 816.848 2684.46 819.156 2681.61 819.156L2681.6 819.156C2678.75 819.156 2676.44 816.848 2676.44 814 2676.44 811.153 2678.75 808.844 2681.6 808.844ZM2702.24 808.844 2702.25 808.844C2705.09 808.844 2707.4 811.153 2707.4 814 2707.4 816.848 2705.09 819.156 2702.25 819.156L2702.24 819.156C2699.39 819.156 2697.08 816.848 2697.08 814 2697.08 811.153 2699.39 808.844 2702.24 808.844ZM2722.87 808.844 2722.88 808.844C2725.73 808.844 2728.04 811.153 2728.04 814 2728.04 816.848 2725.73 819.156 2722.88 819.156L2722.87 819.156C2720.02 819.156 2717.72 816.848 2717.72 814 2717.72 811.153 2720.02 808.844 2722.87 808.844ZM2743.51 808.844 2743.52 808.844C2746.36 808.844 2748.67 811.153 2748.67 814 2748.67 816.848 2746.36 819.156 2743.52 819.156L2743.51 819.156C2740.66 819.156 2738.35 816.848 2738.35 814 2738.35 811.153 2740.66 808.844 2743.51 808.844ZM2764.14 808.844 2764.15 808.844C2767 808.844 2769.31 811.153 2769.31 814 2769.31 816.848 2767 819.156 2764.15 819.156L2764.14 819.156C2761.29 819.156 2758.99 816.848 2758.99 814 2758.99 811.153 2761.29 808.844 2764.14 808.844ZM2784.78 808.844 2784.79 808.844C2787.64 808.844 2789.94 811.153 2789.94 814 2789.94 816.848 2787.64 819.156 2784.79 819.156L2784.78 819.156C2781.93 819.156 2779.62 816.848 2779.62 814 2779.62 811.153 2781.93 808.844 2784.78 808.844ZM2805.41 808.844 2805.42 808.844C2808.27 808.844 2810.58 811.153 2810.58 814 2810.58 816.848 2808.27 819.156 2805.42 819.156L2805.41 819.156C2802.56 819.156 2800.26 816.848 2800.26 814 2800.26 811.153 2802.56 808.844 2805.41 808.844ZM2826.05 808.844 2826.06 808.844C2828.91 808.844 2831.21 811.153 2831.21 814 2831.21 816.848 2828.91 819.156 2826.06 819.156L2826.05 819.156C2823.2 819.156 2820.89 816.848 2820.89 814 2820.89 811.153 2823.2 808.844 2826.05 808.844ZM2846.68 808.844 2846.69 808.844C2849.54 808.844 2851.85 811.153 2851.85 814 2851.85 816.848 2849.54 819.156 2846.69 819.156L2846.68 819.156C2843.84 819.156 2841.53 816.848 2841.53 814 2841.53 811.153 2843.84 808.844 2846.68 808.844ZM2867.32 808.844 2867.33 808.844C2870.18 808.844 2872.49 811.153 2872.49 814 2872.49 816.848 2870.18 819.156 2867.33 819.156L2867.32 819.156C2864.47 819.156 2862.16 816.848 2862.16 814 2862.16 811.153 2864.47 808.844 2867.32 808.844ZM2887.95 808.844 2887.96 808.844C2890.81 808.844 2893.12 811.153 2893.12 814 2893.12 816.848 2890.81 819.156 2887.96 819.156L2887.95 819.156C2885.11 819.156 2882.8 816.848 2882.8 814 2882.8 811.153 2885.11 808.844 2887.95 808.844ZM2908.59 808.844 2908.6 808.844C2911.45 808.844 2913.76 811.153 2913.76 814 2913.76 816.848 2911.45 819.156 2908.6 819.156L2908.59 819.156C2905.74 819.156 2903.43 816.848 2903.43 814 2903.43 811.153 2905.74 808.844 2908.59 808.844ZM2929.22 808.844 2929.23 808.844C2932.08 808.844 2934.39 811.153 2934.39 814 2934.39 816.848 2932.08 819.156 2929.23 819.156L2929.22 819.156C2926.38 819.156 2924.07 816.848 2924.07 814 2924.07 811.153 2926.38 808.844 2929.22 808.844ZM2949.86 808.844 2949.87 808.844C2952.72 808.844 2955.03 811.153 2955.03 814 2955.03 816.848 2952.72 819.156 2949.87 819.156L2949.86 819.156C2947.01 819.156 2944.7 816.848 2944.7 814 2944.7 811.153 2947.01 808.844 2949.86 808.844ZM2970.5 808.844 2970.51 808.844C2973.35 808.844 2975.66 811.153 2975.66 814 2975.66 816.848 2973.35 819.156 2970.51 819.156L2970.5 819.156C2967.65 819.156 2965.34 816.848 2965.34 814 2965.34 811.153 2967.65 808.844 2970.5 808.844ZM2991.13 808.844 2991.14 808.844C2993.99 808.844 2996.3 811.153 2996.3 814 2996.3 816.848 2993.99 819.156 2991.14 819.156L2991.13 819.156C2988.28 819.156 2985.97 816.848 2985.97 814 2985.97 811.153 2988.28 808.844 2991.13 808.844ZM3011.77 808.844 3011.78 808.844C3014.62 808.844 3016.93 811.153 3016.93 814 3016.93 816.848 3014.62 819.156 3011.78 819.156L3011.77 819.156C3008.92 819.156 3006.61 816.848 3006.61 814 3006.61 811.153 3008.92 808.844 3011.77 808.844ZM3032.4 808.844 3032.41 808.844C3035.26 808.844 3037.57 811.153 3037.57 814 3037.57 816.848 3035.26 819.156 3032.41 819.156L3032.4 819.156C3029.55 819.156 3027.24 816.848 3027.24 814 3027.24 811.153 3029.55 808.844 3032.4 808.844ZM3053.04 808.844 3053.05 808.844C3055.89 808.844 3058.2 811.153 3058.2 814 3058.2 816.848 3055.89 819.156 3053.05 819.156L3053.04 819.156C3050.19 819.156 3047.88 816.848 3047.88 814 3047.88 811.153 3050.19 808.844 3053.04 808.844ZM3073.67 808.844 3073.68 808.844C3076.53 808.844 3078.84 811.153 3078.84 814 3078.84 816.848 3076.53 819.156 3073.68 819.156L3073.67 819.156C3070.82 819.156 3068.52 816.848 3068.52 814 3068.52 811.153 3070.82 808.844 3073.67 808.844ZM3094.31 808.844 3094.32 808.844C3097.17 808.844 3099.47 811.153 3099.47 814 3099.47 816.848 3097.17 819.156 3094.32 819.156L3094.31 819.156C3091.46 819.156 3089.15 816.848 3089.15 814 3089.15 811.153 3091.46 808.844 3094.31 808.844ZM3114.94 808.844 3114.95 808.844C3117.8 808.844 3120.11 811.153 3120.11 814 3120.11 816.848 3117.8 819.156 3114.95 819.156L3114.94 819.156C3112.09 819.156 3109.79 816.848 3109.79 814 3109.79 811.153 3112.09 808.844 3114.94 808.844ZM3135.58 808.844 3135.59 808.844C3138.44 808.844 3140.74 811.153 3140.74 814 3140.74 816.848 3138.44 819.157 3135.59 819.157L3135.58 819.157C3132.73 819.157 3130.42 816.848 3130.42 814 3130.42 811.153 3132.73 808.844 3135.58 808.844ZM3156.21 808.844 3156.22 808.844C3159.07 808.844 3161.38 811.153 3161.38 814 3161.38 816.848 3159.07 819.157 3156.22 819.157L3156.21 819.157C3153.37 819.157 3151.06 816.848 3151.06 814 3151.06 811.153 3153.37 808.844 3156.21 808.844ZM3176.85 808.844 3176.86 808.844C3179.71 808.844 3182.02 811.153 3182.02 814 3182.02 816.848 3179.71 819.157 3176.86 819.157L3176.85 819.157C3174 819.157 3171.69 816.848 3171.69 814 3171.69 811.153 3174 808.844 3176.85 808.844ZM3197.48 808.844 3197.49 808.844C3200.34 808.844 3202.65 811.153 3202.65 814 3202.65 816.848 3200.34 819.157 3197.49 819.157L3197.48 819.157C3194.64 819.157 3192.33 816.848 3192.33 814 3192.33 811.153 3194.64 808.844 3197.48 808.844ZM3218.12 808.844 3218.13 808.844C3220.98 808.844 3223.29 811.153 3223.29 814 3223.29 816.848 3220.98 819.157 3218.13 819.157L3218.12 819.157C3215.27 819.157 3212.96 816.848 3212.96 814 3212.96 811.153 3215.27 808.844 3218.12 808.844ZM3238.75 808.844 3238.77 808.844C3241.61 808.844 3243.92 811.153 3243.92 814 3243.92 816.848 3241.61 819.157 3238.77 819.157L3238.75 819.157C3235.91 819.157 3233.6 816.848 3233.6 814 3233.6 811.153 3235.91 808.844 3238.75 808.844ZM3259.39 808.844 3259.4 808.844C3262.25 808.844 3264.56 811.153 3264.56 814 3264.56 816.848 3262.25 819.157 3259.4 819.157L3259.39 819.157C3256.54 819.157 3254.23 816.848 3254.23 814 3254.23 811.153 3256.54 808.844 3259.39 808.844ZM3280.03 808.844 3280.04 808.844C3282.88 808.844 3285.19 811.153 3285.19 814 3285.19 816.848 3282.88 819.157 3280.04 819.157L3280.03 819.157C3277.18 819.157 3274.87 816.848 3274.87 814 3274.87 811.153 3277.18 808.844 3280.03 808.844ZM3300.66 808.844 3300.67 808.844C3303.52 808.844 3305.83 811.153 3305.83 814 3305.83 816.848 3303.52 819.157 3300.67 819.157L3300.66 819.157C3297.81 819.157 3295.5 816.848 3295.51 814 3295.51 811.153 3297.81 808.844 3300.66 808.844ZM3321.3 808.844 3321.31 808.844C3324.15 808.844 3326.46 811.153 3326.46 814 3326.46 816.848 3324.15 819.157 3321.31 819.157L3321.3 819.157C3318.45 819.157 3316.14 816.848 3316.14 814 3316.14 811.153 3318.45 808.844 3321.3 808.844ZM3341.93 808.844 3341.94 808.844C3344.79 808.844 3347.1 811.153 3347.1 814 3347.1 816.848 3344.79 819.157 3341.94 819.157L3341.93 819.157C3339.08 819.157 3336.78 816.848 3336.78 814 3336.78 811.153 3339.08 808.844 3341.93 808.844ZM3362.57 808.844 3362.58 808.844C3365.43 808.844 3367.73 811.153 3367.73 814 3367.73 816.848 3365.43 819.157 3362.58 819.157L3362.57 819.157C3359.72 819.157 3357.41 816.848 3357.41 814 3357.41 811.153 3359.72 808.844 3362.57 808.844ZM3383.2 808.844 3383.21 808.844C3386.06 808.844 3388.37 811.153 3388.37 814 3388.37 816.848 3386.06 819.157 3383.21 819.157L3383.2 819.157C3380.36 819.157 3378.05 816.848 3378.05 814 3378.05 811.153 3380.36 808.844 3383.2 808.844ZM3403.84 808.844 3403.85 808.844C3406.7 808.844 3409.01 811.153 3409 814 3409 816.848 3406.7 819.157 3403.85 819.157L3403.84 819.157C3400.99 819.157 3398.68 816.848 3398.68 814 3398.68 811.153 3400.99 808.844 3403.84 808.844ZM3424.47 808.844 3424.48 808.844C3427.33 808.844 3429.64 811.153 3429.64 814 3429.64 816.848 3427.33 819.157 3424.48 819.157L3424.47 819.157C3421.63 819.157 3419.32 816.848 3419.32 814 3419.32 811.153 3421.63 808.844 3424.47 808.844ZM3445.11 808.844 3445.12 808.844C3447.97 808.844 3450.28 811.153 3450.28 814 3450.28 816.848 3447.97 819.157 3445.12 819.157L3445.11 819.157C3442.26 819.157 3439.95 816.848 3439.95 814 3439.95 811.153 3442.26 808.844 3445.11 808.844ZM3465.74 808.844 3465.76 808.844C3468.6 808.844 3470.91 811.153 3470.91 814 3470.91 816.848 3468.6 819.157 3465.76 819.157L3465.74 819.157C3462.9 819.157 3460.59 816.848 3460.59 814 3460.59 811.153 3462.9 808.844 3465.74 808.844ZM3486.38 808.844 3486.39 808.844C3489.24 808.844 3491.55 811.153 3491.55 814 3491.55 816.848 3489.24 819.157 3486.39 819.157L3486.38 819.157C3483.53 819.157 3481.22 816.848 3481.22 814 3481.22 811.153 3483.53 808.844 3486.38 808.844ZM3507.02 808.844 3507.03 808.844C3509.87 808.844 3512.18 811.153 3512.18 814 3512.18 816.848 3509.87 819.157 3507.03 819.157L3507.02 819.157C3504.17 819.157 3501.86 816.848 3501.86 814 3501.86 811.153 3504.17 808.844 3507.02 808.844ZM3527.65 808.844 3527.66 808.844C3530.51 808.844 3532.82 811.153 3532.82 814 3532.82 816.848 3530.51 819.157 3527.66 819.157L3527.65 819.157C3524.8 819.157 3522.49 816.848 3522.49 814 3522.5 811.153 3524.8 808.844 3527.65 808.844ZM3548.29 808.844 3548.3 808.844C3551.15 808.844 3553.45 811.153 3553.45 814 3553.45 816.848 3551.15 819.157 3548.3 819.157L3548.29 819.157C3545.44 819.157 3543.13 816.848 3543.13 814 3543.13 811.153 3545.44 808.844 3548.29 808.844ZM3568.92 808.844 3568.93 808.844C3571.78 808.844 3574.09 811.153 3574.09 814 3574.09 816.848 3571.78 819.157 3568.93 819.157L3568.92 819.157C3566.07 819.157 3563.77 816.848 3563.77 814 3563.77 811.153 3566.07 808.844 3568.92 808.844ZM3589.56 808.844 3589.57 808.844C3592.42 808.844 3594.72 811.153 3594.72 814 3594.72 816.848 3592.42 819.157 3589.57 819.157L3589.56 819.157C3586.71 819.157 3584.4 816.848 3584.4 814 3584.4 811.153 3586.71 808.844 3589.56 808.844ZM3610.19 808.844 3610.2 808.844C3613.05 808.844 3615.36 811.153 3615.36 814 3615.36 816.848 3613.05 819.157 3610.2 819.157L3610.19 819.157C3607.35 819.157 3605.04 816.848 3605.04 814 3605.04 811.153 3607.35 808.844 3610.19 808.844ZM3630.83 808.844 3630.84 808.844C3633.69 808.844 3636 811.153 3636 814 3636 816.848 3633.69 819.157 3630.84 819.157L3630.83 819.157C3627.98 819.157 3625.67 816.848 3625.67 814 3625.67 811.153 3627.98 808.844 3630.83 808.844ZM3651.46 808.844 3651.47 808.844C3654.32 808.844 3656.63 811.153 3656.63 814 3656.63 816.848 3654.32 819.157 3651.47 819.157L3651.46 819.157C3648.62 819.157 3646.31 816.848 3646.31 814 3646.31 811.153 3648.62 808.844 3651.46 808.844ZM3672.1 808.844 3672.11 808.844C3674.96 808.844 3677.27 811.153 3677.27 814 3677.27 816.848 3674.96 819.157 3672.11 819.157L3672.1 819.157C3669.25 819.157 3666.94 816.848 3666.94 814 3666.94 811.153 3669.25 808.844 3672.1 808.844ZM3692.74 808.844 3692.75 808.844C3695.59 808.844 3697.9 811.153 3697.9 814 3697.9 816.848 3695.59 819.157 3692.75 819.157L3692.74 819.157C3689.89 819.157 3687.58 816.848 3687.58 814 3687.58 811.153 3689.89 808.844 3692.74 808.844ZM3713.37 808.844 3713.38 808.844C3716.23 808.844 3718.54 811.153 3718.54 814 3718.54 816.848 3716.23 819.157 3713.38 819.157L3713.37 819.157C3710.52 819.157 3708.21 816.848 3708.21 814 3708.21 811.153 3710.52 808.844 3713.37 808.844ZM3734.01 808.844 3734.02 808.844C3736.86 808.844 3739.17 811.153 3739.17 814 3739.17 816.848 3736.86 819.157 3734.02 819.157L3734.01 819.157C3731.16 819.157 3728.85 816.848 3728.85 814 3728.85 811.153 3731.16 808.844 3734.01 808.844ZM3754.64 808.844 3754.65 808.844C3757.5 808.844 3759.81 811.153 3759.81 814 3759.81 816.848 3757.5 819.157 3754.65 819.157L3754.64 819.157C3751.79 819.157 3749.48 816.848 3749.49 814 3749.49 811.153 3751.79 808.844 3754.64 808.844ZM3775.28 808.844 3775.29 808.844C3778.14 808.844 3780.44 811.153 3780.44 814 3780.44 816.848 3778.14 819.157 3775.29 819.157L3775.28 819.157C3772.43 819.157 3770.12 816.848 3770.12 814 3770.12 811.153 3772.43 808.844 3775.28 808.844ZM3795.91 808.844 3795.92 808.844C3798.77 808.844 3801.08 811.153 3801.08 814 3801.08 816.848 3798.77 819.157 3795.92 819.157L3795.91 819.157C3793.06 819.157 3790.76 816.848 3790.76 814 3790.76 811.153 3793.06 808.844 3795.91 808.844ZM3816.55 808.844 3816.56 808.844C3819.41 808.844 3821.71 811.153 3821.71 814 3821.71 816.848 3819.41 819.157 3816.56 819.157L3816.55 819.157C3813.7 819.157 3811.39 816.848 3811.39 814 3811.39 811.153 3813.7 808.844 3816.55 808.844ZM3837.18 808.844 3837.19 808.844C3840.04 808.844 3842.35 811.153 3842.35 814 3842.35 816.848 3840.04 819.157 3837.19 819.157L3837.18 819.157C3834.34 819.157 3832.03 816.848 3832.03 814 3832.03 811.153 3834.34 808.844 3837.18 808.844ZM3857.82 808.844 3857.83 808.844C3860.68 808.844 3862.99 811.153 3862.99 814 3862.99 816.848 3860.68 819.157 3857.83 819.157L3857.82 819.157C3854.97 819.157 3852.66 816.848 3852.66 814 3852.66 811.153 3854.97 808.844 3857.82 808.844ZM3878.45 808.844 3878.46 808.844C3881.31 808.844 3883.62 811.153 3883.62 814 3883.62 816.848 3881.31 819.157 3878.46 819.157L3878.45 819.157C3875.61 819.157 3873.3 816.848 3873.3 814 3873.3 811.153 3875.61 808.844 3878.45 808.844ZM3899.09 808.844 3899.1 808.844C3901.95 808.844 3904.26 811.153 3904.26 814 3904.26 816.848 3901.95 819.157 3899.1 819.157L3899.09 819.157C3896.24 819.157 3893.93 816.848 3893.93 814 3893.93 811.153 3896.24 808.844 3899.09 808.844ZM3919.72 808.844 3919.74 808.844C3922.58 808.844 3924.89 811.153 3924.89 814 3924.89 816.848 3922.58 819.157 3919.74 819.157L3919.72 819.157C3916.88 819.157 3914.57 816.848 3914.57 814 3914.57 811.153 3916.88 808.844 3919.72 808.844ZM3940.36 808.844 3940.37 808.844C3943.22 808.844 3945.53 811.153 3945.53 814 3945.53 816.848 3943.22 819.157 3940.37 819.157L3940.36 819.157C3937.51 819.157 3935.2 816.848 3935.2 814 3935.2 811.153 3937.51 808.844 3940.36 808.844ZM3960.99 808.844 3961.01 808.844C3963.85 808.844 3966.16 811.153 3966.16 814 3966.16 816.848 3963.85 819.157 3961.01 819.157L3960.99 819.157C3958.15 819.157 3955.84 816.848 3955.84 814 3955.84 811.153 3958.15 808.844 3960.99 808.844ZM3981.63 808.844 3981.64 808.844C3984.49 808.844 3986.8 811.153 3986.8 814 3986.8 816.848 3984.49 819.157 3981.64 819.157L3981.63 819.157C3978.78 819.157 3976.47 816.848 3976.47 814 3976.47 811.153 3978.78 808.844 3981.63 808.844ZM4002.27 808.844 4002.28 808.844C4005.12 808.844 4007.43 811.153 4007.43 814 4007.43 816.848 4005.12 819.157 4002.28 819.157L4002.27 819.157C3999.42 819.157 3997.11 816.848 3997.11 814 3997.11 811.153 3999.42 808.844 4002.27 808.844ZM4022.9 808.844 4022.91 808.844C4025.76 808.844 4028.07 811.153 4028.07 814 4028.07 816.848 4025.76 819.157 4022.91 819.157L4022.9 819.157C4020.05 819.157 4017.74 816.848 4017.74 814 4017.74 811.153 4020.05 808.844 4022.9 808.844Z" fill="#60607D" fill-rule="nonzero" fill-opacity="1"/><path d="M3410 927 4027.5 927 4115 1014.5 4027.5 1102 3410 1102Z" fill="#6C6C7A" fill-rule="evenodd" fill-opacity="1"/><path d="M2908 927 3525.5 927 3613 1014.5 3525.5 1102 2908 1102Z" fill="#A8A8B2" fill-rule="evenodd" fill-opacity="1"/><path d="M748 927 2937.5 927 3025 1014.5 2937.5 1102 748 1102Z" fill="#CDCDD2" fill-rule="evenodd" fill-opacity="1"/><path d="M226 927 761.501 927 849 1014.5 761.501 1102 226 1102Z" fill="#E5E5E8" fill-rule="evenodd" fill-opacity="1"/><path d="M1168.16 766.781 1168.16 883.657 1157.84 883.657 1157.84 766.781ZM1147.53 771.938 1163 741 1178.47 771.938ZM1178.47 878.5 1163 909.438 1147.53 878.5Z" fill="#000020" fill-rule="nonzero" fill-opacity="1"/><path d="M2320.16 681.781 2320.16 884.28 2309.84 884.28 2309.84 681.781ZM2299.53 686.937 2315 656 2330.47 686.937ZM2330.47 879.124 2315 910.061 2299.53 879.124Z" fill="#000020" fill-rule="nonzero" fill-opacity="1"/><path d="M2750.16 681.781 2750.16 884.28 2739.84 884.28 2739.84 681.781ZM2729.53 686.937 2745 656 2760.47 686.937ZM2760.47 879.124 2745 910.061 2729.53 879.124Z" fill="#000020" fill-rule="nonzero" fill-opacity="1"/><path d="M3289.16 681.781 3289.16 884.28 3278.84 884.28 3278.84 681.781ZM3268.53 686.937 3284 656 3299.47 686.937ZM3299.47 879.124 3284 910.061 3268.53 879.124Z" fill="#000020" fill-rule="nonzero" fill-opacity="1"/><text fill="#000020" fill-opacity="1" font-family="Calibri,Calibri_MSFontService,sans-serif" font-style="normal" font-variant="normal" font-weight="400" font-stretch="normal" font-size="50" text-anchor="start" direction="ltr" writing-mode="lr-tb" unicode-bidi="normal" text-decoration="none" transform="matrix(1 0 0 1 372.644 1037)">Support SMEs<tspan fill="#000020" fill-opacity="1" font-family="Calibri,Calibri_MSFontService,sans-serif" font-style="normal" font-variant="normal" font-weight="400" font-stretch="normal" font-size="50" text-anchor="start" direction="ltr" writing-mode="lr-tb" unicode-bidi="normal" text-decoration="none" x="947.194" y="0">Knowledge Sharing/Review Sessions/Readiness checks</tspan><tspan fill="#FFFFFF" fill-opacity="1" font-family="Calibri,Calibri_MSFontService,sans-serif" font-style="normal" font-variant="normal" font-weight="400" font-stretch="normal" font-size="50" text-anchor="start" direction="ltr" writing-mode="lr-tb" unicode-bidi="normal" text-decoration="none" x="2781.52" y="-34">Operate in </tspan><tspan fill="#FFFFFF" fill-opacity="1" font-family="Calibri,Calibri_MSFontService,sans-serif" font-style="normal" font-variant="normal" font-weight="400" font-stretch="normal" font-size="50" text-anchor="start" direction="ltr" writing-mode="lr-tb" unicode-bidi="normal" text-decoration="none" x="2746.28" y="27">shadow mode</tspan><tspan fill="#FFFFFF" fill-opacity="1" font-family="Calibri,Calibri_MSFontService,sans-serif" font-style="normal" font-variant="normal" font-weight="400" font-stretch="normal" font-size="50" text-anchor="start" direction="ltr" writing-mode="lr-tb" unicode-bidi="normal" text-decoration="none" x="3341.7" y="-34">Complete</tspan><tspan fill="#FFFFFF" fill-opacity="1" font-family="Calibri,Calibri_MSFontService,sans-serif" font-style="normal" font-variant="normal" font-weight="400" font-stretch="normal" font-size="50" text-anchor="start" direction="ltr" writing-mode="lr-tb" unicode-bidi="normal" text-decoration="none" x="3329.67" y="27">Ownership</tspan></text><path d="M803 1102 757.5 1140 712 1102Z" fill="#000020" fill-rule="evenodd" fill-opacity="1"/><path d="M1979 1102 1933.5 1140 1888 1102Z" fill="#000020" fill-rule="evenodd" fill-opacity="1"/><path d="M2990 1102 2944.5 1140 2899 1102Z" fill="#000020" fill-rule="evenodd" fill-opacity="1"/><path d="M3581 1102 3535.5 1140 3490 1102Z" fill="#000020" fill-rule="evenodd" fill-opacity="1"/><text fill="#000000" fill-opacity="1" font-family="Calibri,Calibri_MSFontService,sans-serif" font-style="normal" font-variant="normal" font-weight="400" font-stretch="normal" font-size="73" text-anchor="start" direction="ltr" writing-mode="lr-tb" unicode-bidi="normal" text-decoration="none" transform="matrix(1 0 0 1 231.283 1364)">Support Team<tspan fill="#000000" fill-opacity="1" font-family="Arial,Arial_MSFontService,sans-serif" font-style="normal" font-variant="normal" font-weight="400" font-stretch="normal" font-size="48" text-anchor="start" direction="ltr" writing-mode="lr-tb" unicode-bidi="normal" text-decoration="none" x="650.26" y="0">•</tspan><tspan fill="#000000" fill-opacity="1" font-family="Calibri,Calibri_MSFontService,sans-serif" font-style="normal" font-variant="normal" font-weight="400" font-stretch="normal" font-size="48" text-anchor="start" direction="ltr" writing-mode="lr-tb" unicode-bidi="normal" text-decoration="none" x="720.385" y="0">Business to Run objectives </tspan><tspan fill="#000000" fill-opacity="1" font-family="Arial,Arial_MSFontService,sans-serif" font-style="normal" font-variant="normal" font-weight="400" font-stretch="normal" font-size="48" text-anchor="start" direction="ltr" writing-mode="lr-tb" unicode-bidi="normal" text-decoration="none" x="650.26" y="85">•</tspan><tspan fill="#000000" fill-opacity="1" font-family="Calibri,Calibri_MSFontService,sans-serif" font-style="normal" font-variant="normal" font-weight="400" font-stretch="normal" font-size="48" text-anchor="start" direction="ltr" writing-mode="lr-tb" unicode-bidi="normal" text-decoration="none" x="720.385" y="85">Functional and Technical scope </tspan><tspan fill="#000000" fill-opacity="1" font-family="Arial,Arial_MSFontService,sans-serif" font-style="normal" font-variant="normal" font-weight="400" font-stretch="normal" font-size="48" text-anchor="start" direction="ltr" writing-mode="lr-tb" unicode-bidi="normal" text-decoration="none" x="650.26" y="171">•</tspan><tspan fill="#000000" fill-opacity="1" font-family="Calibri,Calibri_MSFontService,sans-serif" font-style="normal" font-variant="normal" font-weight="400" font-stretch="normal" font-size="48" text-anchor="start" direction="ltr" writing-mode="lr-tb" unicode-bidi="normal" text-decoration="none" x="720.385" y="171">Impact on current set up</tspan><tspan fill="#000000" fill-opacity="1" font-family="Calibri,Calibri_MSFontService,sans-serif" font-style="normal" font-variant="normal" font-weight="400" font-stretch="normal" font-size="48" text-anchor="start" direction="ltr" writing-mode="lr-tb" unicode-bidi="normal" text-decoration="none" x="1203.35" y="171">–</tspan><tspan fill="#000000" fill-opacity="1" font-family="Calibri,Calibri_MSFontService,sans-serif" font-style="normal" font-variant="normal" font-weight="400" font-stretch="normal" font-size="48" text-anchor="start" direction="ltr" writing-mode="lr-tb" unicode-bidi="normal" text-decoration="none" x="1227.42" y="171">application, </tspan><tspan fill="#000000" fill-opacity="1" font-family="Calibri,Calibri_MSFontService,sans-serif" font-style="normal" font-variant="normal" font-weight="400" font-stretch="normal" font-size="48" text-anchor="start" direction="ltr" writing-mode="lr-tb" unicode-bidi="normal" text-decoration="none" x="720.385" y="228">environment, processes </tspan><tspan fill="#000000" fill-opacity="1" font-family="Arial,Arial_MSFontService,sans-serif" font-style="normal" font-variant="normal" font-weight="400" font-stretch="normal" font-size="48" text-anchor="start" direction="ltr" writing-mode="lr-tb" unicode-bidi="normal" text-decoration="none" x="650.26" y="314">•</tspan><tspan fill="#000000" fill-opacity="1" font-family="Calibri,Calibri_MSFontService,sans-serif" font-style="normal" font-variant="normal" font-weight="400" font-stretch="normal" font-size="48" text-anchor="start" direction="ltr" writing-mode="lr-tb" unicode-bidi="normal" text-decoration="none" x="720.385" y="314">Revised </tspan><tspan fill="#000000" fill-opacity="1" font-family="Calibri,Calibri_MSFontService,sans-serif" font-style="normal" font-variant="normal" font-weight="400" font-stretch="normal" font-size="48" text-anchor="start" direction="ltr" writing-mode="lr-tb" unicode-bidi="normal" text-decoration="none" x="882.521" y="314">AOD</tspan><tspan fill="#000000" fill-opacity="1" font-family="Calibri,Calibri_MSFontService,sans-serif" font-style="normal" font-variant="normal" font-weight="400" font-stretch="normal" font-size="48" text-anchor="start" direction="ltr" writing-mode="lr-tb" unicode-bidi="normal" text-decoration="none" x="983.354" y="314">(application overview </tspan><tspan fill="#000000" fill-opacity="1" font-family="Calibri,Calibri_MSFontService,sans-serif" font-style="normal" font-variant="normal" font-weight="400" font-stretch="normal" font-size="48" text-anchor="start" direction="ltr" writing-mode="lr-tb" unicode-bidi="normal" text-decoration="none" x="720.385" y="371">document)</tspan><tspan fill="#000000" fill-opacity="1" font-family="Arial,Arial_MSFontService,sans-serif" font-style="normal" font-variant="normal" font-weight="400" font-stretch="normal" font-size="48" text-anchor="start" direction="ltr" writing-mode="lr-tb" unicode-bidi="normal" text-decoration="none" x="1588.34" y="0">•</tspan><tspan fill="#000000" fill-opacity="1" font-family="Calibri,Calibri_MSFontService,sans-serif" font-style="normal" font-variant="normal" font-weight="400" font-stretch="normal" font-size="48" text-anchor="start" direction="ltr" writing-mode="lr-tb" unicode-bidi="normal" text-decoration="none" x="1658.47" y="0">QA </tspan><tspan fill="#000000" fill-opacity="1" font-family="Calibri,Calibri_MSFontService,sans-serif" font-style="normal" font-variant="normal" font-weight="400" font-stretch="normal" font-size="48" text-anchor="start" direction="ltr" writing-mode="lr-tb" unicode-bidi="normal" text-decoration="none" x="1730.08" y="0">–</tspan><tspan fill="#000000" fill-opacity="1" font-family="Calibri,Calibri_MSFontService,sans-serif" font-style="normal" font-variant="normal" font-weight="400" font-stretch="normal" font-size="48" text-anchor="start" direction="ltr" writing-mode="lr-tb" unicode-bidi="normal" text-decoration="none" x="1765.03" y="0">Test scenario review</tspan><tspan fill="#000000" fill-opacity="1" font-family="Arial,Arial_MSFontService,sans-serif" font-style="normal" font-variant="normal" font-weight="400" font-stretch="normal" font-size="48" text-anchor="start" direction="ltr" writing-mode="lr-tb" unicode-bidi="normal" text-decoration="none" x="1588.34" y="85">•</tspan><tspan fill="#000000" fill-opacity="1" font-family="Calibri,Calibri_MSFontService,sans-serif" font-style="normal" font-variant="normal" font-weight="400" font-stretch="normal" font-size="48" text-anchor="start" direction="ltr" writing-mode="lr-tb" unicode-bidi="normal" text-decoration="none" x="1658.47" y="85">Define Training plans</tspan><tspan fill="#000000" fill-opacity="1" font-family="Arial,Arial_MSFontService,sans-serif" font-style="normal" font-variant="normal" font-weight="400" font-stretch="normal" font-size="48" text-anchor="start" direction="ltr" writing-mode="lr-tb" unicode-bidi="normal" text-decoration="none" x="1588.34" y="171">•</tspan><tspan fill="#000000" fill-opacity="1" font-family="Calibri,Calibri_MSFontService,sans-serif" font-style="normal" font-variant="normal" font-weight="400" font-stretch="normal" font-size="48" text-anchor="start" direction="ltr" writing-mode="lr-tb" unicode-bidi="normal" text-decoration="none" x="1658.47" y="171">Evaluate Run readiness</tspan><tspan fill="#000000" fill-opacity="1" font-family="Arial,Arial_MSFontService,sans-serif" font-style="normal" font-variant="normal" font-weight="400" font-stretch="normal" font-size="48" text-anchor="start" direction="ltr" writing-mode="lr-tb" unicode-bidi="normal" text-decoration="none" x="2423.37" y="0">•</tspan><tspan fill="#000000" fill-opacity="1" font-family="Calibri,Calibri_MSFontService,sans-serif" font-style="normal" font-variant="normal" font-weight="400" font-stretch="normal" font-size="48" text-anchor="start" direction="ltr" writing-mode="lr-tb" unicode-bidi="normal" text-decoration="none" x="2493.5" y="0">Work along with Dev Warranty team </tspan><tspan fill="#000000" fill-opacity="1" font-family="Calibri,Calibri_MSFontService,sans-serif" font-style="normal" font-variant="normal" font-weight="400" font-stretch="normal" font-size="48" text-anchor="start" direction="ltr" writing-mode="lr-tb" unicode-bidi="normal" text-decoration="none" x="2493.5" y="58">for ticket closures</tspan><tspan fill="#000000" fill-opacity="1" font-family="Arial,Arial_MSFontService,sans-serif" font-style="normal" font-variant="normal" font-weight="400" font-stretch="normal" font-size="48" text-anchor="start" direction="ltr" writing-mode="lr-tb" unicode-bidi="normal" text-decoration="none" x="2423.37" y="143">•</tspan><tspan fill="#000000" fill-opacity="1" font-family="Calibri,Calibri_MSFontService,sans-serif" font-style="normal" font-variant="normal" font-weight="400" font-stretch="normal" font-size="48" text-anchor="start" direction="ltr" writing-mode="lr-tb" unicode-bidi="normal" text-decoration="none" x="2493.5" y="143">Updated SOPs/alerts</tspan><tspan fill="#000000" fill-opacity="1" font-family="Arial,Arial_MSFontService,sans-serif" font-style="normal" font-variant="normal" font-weight="400" font-stretch="normal" font-size="48" text-anchor="start" direction="ltr" writing-mode="lr-tb" unicode-bidi="normal" text-decoration="none" x="2423.37" y="228">•</tspan><tspan fill="#000000" fill-opacity="1" font-family="Calibri,Calibri_MSFontService,sans-serif" font-style="normal" font-variant="normal" font-weight="400" font-stretch="normal" font-size="48" text-anchor="start" direction="ltr" writing-mode="lr-tb" unicode-bidi="normal" text-decoration="none" x="2493.5" y="228">Warranty Plan Exit criteria review/sign </tspan><tspan fill="#000000" fill-opacity="1" font-family="Calibri,Calibri_MSFontService,sans-serif" font-style="normal" font-variant="normal" font-weight="400" font-stretch="normal" font-size="48" text-anchor="start" direction="ltr" writing-mode="lr-tb" unicode-bidi="normal" text-decoration="none" x="2493.5" y="286">off</tspan><tspan fill="#000000" fill-opacity="1" font-family="Arial,Arial_MSFontService,sans-serif" font-style="normal" font-variant="normal" font-weight="400" font-stretch="normal" font-size="48" text-anchor="start" direction="ltr" writing-mode="lr-tb" unicode-bidi="normal" text-decoration="none" x="2423.37" y="371">•</tspan><tspan fill="#000000" fill-opacity="1" font-family="Calibri,Calibri_MSFontService,sans-serif" font-style="normal" font-variant="normal" font-weight="400" font-stretch="normal" font-size="48" text-anchor="start" direction="ltr" writing-mode="lr-tb" unicode-bidi="normal" text-decoration="none" x="2493.5" y="371">Reverse shadow for final week</tspan><tspan fill="#000000" fill-opacity="1" font-family="Arial,Arial_MSFontService,sans-serif" font-style="normal" font-variant="normal" font-weight="400" font-stretch="normal" font-size="48" text-anchor="start" direction="ltr" writing-mode="lr-tb" unicode-bidi="normal" text-decoration="none" x="3313.43" y="2">•</tspan><tspan fill="#000000" fill-opacity="1" font-family="Calibri,Calibri_MSFontService,sans-serif" font-style="normal" font-variant="normal" font-weight="400" font-stretch="normal" font-size="48" text-anchor="start" direction="ltr" writing-mode="lr-tb" unicode-bidi="normal" text-decoration="none" x="3383.55" y="2">Ownership of new </tspan><tspan fill="#000000" fill-opacity="1" font-family="Calibri,Calibri_MSFontService,sans-serif" font-style="normal" font-variant="normal" font-weight="400" font-stretch="normal" font-size="48" text-anchor="start" direction="ltr" writing-mode="lr-tb" unicode-bidi="normal" text-decoration="none" x="3383.55" y="60">application</tspan></text></g></svg>